/* XPM */
static char *wspr2024[] = {
/* columns rows colors chars-per-pixel */
"64 64 80 1 ",
"  c gray11",
". c #382C14",
"X c #202020",
"o c #282828",
"O c gray19",
"+ c gray22",
"@ c #4C0000",
"# c #580000",
"$ c #640000",
"% c #700000",
"& c #7C0000",
"* c #403018",
"= c #483818",
"- c #543C1C",
"; c #5C4020",
": c #6C4824",
"> c #744C28",
", c #004040",
"< c #005858",
"1 c #006060",
"2 c #006464",
"3 c #007070",
"4 c #007878",
"5 c gray25",
"6 c #484848",
"7 c gray33",
"8 c #646464",
"9 c gray44",
"0 c #7C7C7C",
"q c #880000",
"w c #980000",
"e c #A40000",
"r c #A80000",
"t c #B00000",
"y c #BC0000",
"u c #C80000",
"i c #D40000",
"p c #E00000",
"a c #EC0000",
"s c #FC0000",
"d c #FC2020",
"f c #9C4C00",
"g c #A85400",
"h c #80502C",
"j c #CC6000",
"k c #E46C00",
"l c #FC4040",
"z c #FC5454",
"x c #FC7C7C",
"c c #FC8820",
"v c #E88C58",
"b c #F0945C",
"n c #008484",
"m c #009898",
"M c #009C9C",
"N c #00A8A8",
"B c #00B4B4",
"V c #20B0B0",
"C c #00CCCC",
"Z c #00E4E4",
"A c #48C0C0",
"S c #74C8C8",
"D c #40FCFC",
"F c #54FCFC",
"G c #7CFCF8",
"H c gray55",
"J c #989898",
"K c gray66",
"L c #B4B4B4",
"P c #FC9C9C",
"I c #9CFCFC",
"U c #B8FCFC",
"Y c #C0C0C0",
"T c #D0D0D0",
"R c gainsboro",
"E c #FCD8C4",
"W c #D8F4F4",
"Q c #D8FCFC",
"! c #ECECEC",
"~ c None",
/* pixels */
"~~~~~~~~~~~~~~~~~~~~~~~~~~~~2m2<,X,n~~~~~~~~~~~~~~~~~~~~~~~~~~~~",
"~~~~~~~~~~~~~~~~~~~~~~~~~~~~~mMnX,4~~~~~~~~~~~~~~~~~~~~~~~~~~~~~",
"~~~~~~~~~~~~~~~~~~~~~~~~~~~~~~nB,1~~~~~~~~~~~~~~~~~~~~~~~~~~~~~~",
"~~~~~~~~~~~~~~~~~~~~~~~~~~~~~~nB,3~~~~~~~~~~~~~~~~~~~~~~~~~~~~~~",
"~~~~~~~~~~~~~~~~~~~~~~~~~~~~~~nM,3~~~~~~~~~~~~~~~~~~~~~~~~~~~~~~",
"~~~~~~~~~~~~~~~~~~~~~~~~~~~~~~nn,n~~~~~~~~~~~~~~~~~~~~~~~~~~~~~~",
"~~~~~~~~~~~~~~~~~~~~~~~~~~~~~~mn,n~~~~~~~~~~~~~~~~~~~~~~~~~~~~~~",
"~~~~~~~~~~~~~~~~~~~~~~~~~~~~~NC3,,2~~~~~~~~~~~~~~~~~~~~~~~~~~~~~",
"~~~~~~~~~~~~~~~~~~~~~~~~~~~FUGGAMMNmN~~~~~~~~~~~~~~~~~~~~~~~~~~~",
"~~~~~~~~~~~~~~~~~~~~~~~~~CCC<3mBm4BBCnm~~~~~~~~~~~~~~~~~~~~~~~~~",
"~~~~~~~~~~~~~~~~~~~~~~~~ZZm,<1nmm4BBmBCB~~~~~~~~~~~~~~~~~~~~~~~~",
"~~~~~~~~~~~~~~~~~~~~~~~CCm,4~~~,,~,,3nCZN~~~~~~~~~~~~~~~~~~~~~~~",
"~~~~~~~~~~~~~~~~~~~~~~ZB4,n~~~~,,~~,,,nNCm~~~~~~~~~~~~~~~~~~~~~~",
"~~~~~~~~~~~~~~~~~~~~~Cm,,n~~~~~<,~~~,,,1mNn~~~~~~~~~~~~~~~~~~~~~",
"~~~~~~~~~~~~~~~~~~~~NCDFIQQIZZZZSVVm<,,,<244~~~~~~~~~~~~~~~~~~~~",
"~~~~~~~~~~~~~~~~~~~~nmCCZFGZZSSBmn3<,,,,,<4n~~~~~~~~~~~~~~~~~~~~",
"~~~~~~~~~~~~~~~~~~~~CBBBBNm44444442<<<<<3nmn~~~~~~~~~~~~~~~~~~~~",
"~~~~~~~~~~~~~~~~~~~~~,,~~,,~~~~4,~~~~,,~~,,~~~~~~~~~~~~~~~~~~~~~",
"~~~~~~~~~~~~~~~~~~~~~<,~~<,~~~~1,~~~~m,~~<,~~~~~~~~~~~~~~~~~~~~~",
"~~~~~~~~~~~~~~~~~~~~~m,~~N,~~~~,,~~~~N,~~<,~~~~~~~~~~~~~~~~~~~~~",
"~~~~~~~~~~~~~~~~~~~~~N,~~N,~~~~,,~~~~N,~~n,~~~~~~~~~~~~~~~~~~~~~",
"~~~~~~~~~~~~~~~~~~~~~N,~~N,~~~~,,~~~~N,~~m,~~~~~~~~~~~~~~~~~~~~~",
"~~~~~~~~~~~~~~~~~~~~~N,~~N,~~~~,,~~~~N,~~m,~~~~~~~~~~~~~~~~~~~~~",
"~~~~~~~~~~~~~~~~~~~~~m,~~m,~~~~1,~~~~N,~~m,~~~~~~~~~~~~~~~~~~~~~",
"~~~~~~~~~~~~~~~~~~~~~m,~~m,~~~~4,~~~~m,~~m,~~~~~~~~~~~~~~~~~~~~~",
"~~~~~~~~~~~~~~~~~~~~~n,~~m,~~~~4,~~~~n,~~n,~~~~~~~~~~~~~~~~~~~~~",
"~~~~~~~~~~~~~~~~~~~~~4,~~n,~~~~4,~~~~4,~~4,~~~~~~~~~~~~~~~~~~~~~",
"~~~~~~~~~~~~~~~~~~~~~4,~~n,~~~~4,~~~~4,~~4,~~~~~~~~~~~~~~~~~~~~~",
"~~~~~~~~~~~~~~~~~~~~~4,~~n,~~~~4,~~~~4,~~4,~~~~~~~~~~~~~~~~~~~~~",
"~~~~~~~~~~~~~~~~~~~~~4,~~n,~~~~4,~~~~4,~~4,~~~~~~~~~~~~~~~~~~~~~",
"~~~~~~~~~~~~~~~~~~~~~4,~~4,~~~~4,~~~~4,~~4,~~~~~~~~~~~~~~~~~~~~~",
"~~~~~~~~~~~~~~~~~~~~~4,~~4,~~~~4K!TK~4,~~4,~~~~~~~~~~~~~~~~~~~~~",
"~~~~~~~~~~~~~~~~~~~~NCDFIQUGGDsmW9Exxp,,124n~~~~~~~~~~~~~~~~~~~~",
"~~~~~~~~~~~~~~~~~~~~nmCZZFFZZCpWAwxPxtw,14nN~~~~~~~~~~~~~~~~~~~~",
"~~~~~~~~~~~~~~~~~~~~nmCZZFDZZppputzdl&q,14nN~~~~~~~~~~~~~~~~~~~~",
"~~~~~~~~~~~~~~~~~~~~CNmn34nmuutqptttwwt2nmmm~~~~~~~~~~~~~~~~~~~~",
"~~~~~~~~~~~~~~~~~~~~~,,~~,,~~~~Ysps~yu,~~m,~~~~~~~~~~~~~~~~~~~~~",
"~~~~~~~~~~~~~~~~~~~~~<,~~n,~~~!Luaw~pp,~~m,~~~~~~~~~~~~~~~~~~~~~",
"~~~~~~~~~~~~~~~~~~~~0LTRKV,~~KT0ww~~um,~~N,~~~~~~~~~~~~~~~~~~~~~",
"~~~~~~~~~~~~~~~~~~~K!RRRRn,86T0~~~~~wN,~~m,~~~~~~~~~~~~~~~~~~~~~",
"~~~~~~~~~~~~~~~~~~~TR!RJYm,K!THK~~~~~N,~~n,~~~~~~~~~~~~~~~~~~~~~",
"~~~~~~~~~~~~~~~~~~~oJ+wyKm,R!8K8Y0~~~N,~~n,~~~~~~~~~~~~~~~~~~~~~",
"~~~~~~~~~~~~~~~~~~~T6RPu&4,TKwK0L60~~m,~~4,~~~~~~~~~~~~~~~~~~~~~",
"~~~~~~~~~~~~~~~~~~~9RY0ut4,KKraP6K8~~n,~~4,~~~~~~~~~~~~~~~~~~~~~",
"~~~~~~~~~~~~~~~~~~~~65X&u4,0yxtzixX6~4,~~4,~~~~~~~~~~~~~~~~~~~~~",
"~~~~~~~~~~~~~~~~~~~~RTJue4,l&zylrlts24,,14,~~~~~~~~~~~~~~~~~~~~~",
"~~~~~~~~~~~~~~~~~~~~1<w&$4,wwi%i&t&iw4,ti4,n~~~~~~~~~~~~~~~~~~~~",
"~~~~~~~~~~~~~~~~~~~~31uspCCpsssm4222241ss3nm~~~~~~~~~~~~~~~~~~~~",
"~~~~~~~~~~~~~~~~~~~~mntuyCCuuuun1,,,,,,iu4mN~~~~~~~~~~~~~~~~~~~~",
"~~~~~~~~~~~~~~~~~~~~~nniaNBuury2<<,,,,2piNN~~~~~~~~~~~~~~~~~~~~~",
"~~~~~~~~~~~~~~~~~~~~~~~ie~&yrey~~~~~~~~yp~~~~~~~~~~~~~~~~~~~~~~~",
"~~~~~~~~~~~~~~~~~~~~~~~i~~qywru~~~~~~~~~e~~~~~~~~~~~~~~~~~~~~~~~",
"~~~~~~~~~~~~~~~~~~~~~~~q~~~y~uu~~~~~~~~~~~~~~~~~~~~~~~~~~~~~~~~~",
"~~~~~~~~~~~~~~~~~~~~~~~~~~~w~uu~~~~~~~~~~~~~~~~~~~~~~~~~~~~~~~~~",
"~~~~~~~~~~~~~~~~~~~~~~~~~~~~~up~~~~~~~~~~~~~~~~~~~~~~~~~~~~~~~~~",
"~~~~~~~~~~~~~~~~~~~KKK86~HK66yp~~~~~~~~~~~~~~~~~~~~~~~~~~~~~~~~~",
"~~~~~~~~~~~~~~~~~~JY7660KL866>p~~9K6   ~~~~~~~~~~~~~~~~~~~~~~~~~",
"~~~~~~~~~~~~~~~~~~JYH6 0686X 9e8KY8O:fff:::~~~~~~~~~~~~~~~~~~~~~",
"~~~~~~~~~~~~~~~~~~8JJH056    vv.96-cvvvvvj:-~~~~~~~~~~~~~~~~~~~~",
"~~~~~~~~~~~~~~~9KTYYKLLH888v:::vhhcvvvvvvvj;h~~~~~~~~~~~~~~~~~~~",
"~~~~~~~~~~~~~~0~9JL0978868.kjgvhgff;;;-ccckg=::8~~~~~~~~~~~~~~~~",
"~~~~~~~~~~~~~~~ippapspuyicjf:fkjk;%;:;hvcjkj::-vv~~~~~~~~~~~~~~~",
"~~~~~~~~~~~~~~~~~088ewsy.h.hjjj:%:h:jjvcj;oassadvvvbb~~~~~~~~~~~",
"~~~~~~~~~~~~~~~~~~6&wweeeeettytq#***jh**+66uytyyuyrw@~~~~~~~~~~~"
};
