/* XPM */
static char *wspr0316[] = {
/* columns rows colors chars-per-pixel */
"64 64 46 1 ",
"  c #2C2C2C",
". c gray22",
"X c #400000",
"o c #4C0000",
"O c #580000",
"+ c #640000",
"@ c #700000",
"# c #7C0000",
"$ c #744C28",
"% c #484848",
"& c gray33",
"* c #646464",
"= c gray44",
"- c #7C7C7C",
"; c #880000",
": c #980000",
"> c #A40000",
", c #B00000",
"< c #BC0000",
"1 c #C80000",
"2 c #D40000",
"3 c #E00000",
"4 c #EC0000",
"5 c #FC0000",
"6 c #FC2020",
"7 c #885830",
"8 c #A0643C",
"9 c #BC7848",
"0 c #FC4040",
"q c #FC5C5C",
"w c #FC7C7C",
"e c #DC8854",
"r c #E88C58",
"t c gray55",
"y c #989898",
"u c gray66",
"i c #B4B4B4",
"p c #FC9C9C",
"a c #FCB080",
"s c #FCB8B8",
"d c #C0C0C0",
"f c #D0D0D0",
"g c gainsboro",
"h c #ECECEC",
"j c gray99",
"k c None",
/* pixels */
"kkkkkkkkkkkkkkkkkkkkkkkkkkkkkkkkkkkkkkkkkkkkkkkkkkkkkkkkkkkkkkkk",
"kkkkkkkkkkkkkkkkkkkkkkkkkkkkkkkkkkkkkkkkkkkkkkkkkkkkkkkkkkkkkkkk",
"kkkkkkkkkkkkkkkkkkkkkkkkkkkkkkkkkkkkkkkkkkkkkkkkkkkkkkkkkkkkkkkk",
"kkkkkkkkkkkkkkkkkkkkkkkkkkkkkkkkkkkkkkkkkkkkkkkkkkkkkkkkkkkkkkkk",
"kkkkkkkkkkkkkkkkkkkkkkkkkkkkkkkkkkkkkkkkkkkkkkkkkkkkkkkkkkkkkkkk",
"kkkkkkkkkkkkkkkkkkkkkkkkkkkkkkkkkkkkkkkkkkkkkkkkkkkkkkkkkkkkkkkk",
"kkkkkkkkkkkkkkkkkkkkkkkkkkkkkkkkkkkkkkkkkkkkkkkkkkkkkkkkkkkkkkkk",
"kkkkkkkkkkkkkkkkkkkkkkkkkkkkkkkkkkkkkkkkkkkkkkkkkkkkkkkkkkkkkkkk",
"kkkkkkkkkkkkkkkkkkkkkkkkkkkkkkkkkkkkkkkkkkkkkkkkkkkkkkkkkkkkkkkk",
"kkkkkkkkkkkkkkkkkkkkkkkkkkkkkkkkkkkkkkkkkkkkkkkkkkkkkkkkkkkkkkkk",
"kkkkkkkkkkkkkkkkkkkkkkkkkkkkkkkkkkkkkkkkkkkkkkkkkkkkkkkkkkkkkkkk",
"kkkkkkkkkkkkkkkkkkkkkkkkkkkkkkkkkkkkkkkkkkkkkkkkkkkkkkkkkkkkkkkk",
"kkkkkkkkkkkkkkkkkkkkkkkkkkkkkkkkkkkkkkkkkkkkkkkkkkkkkkkkkkkkkkkk",
"kkkkkkkkkkkkkkkkkkkkkkkkkkkkkkkkkkkkkkkkkkkkkkkkkkkkkkkkkkkkkkkk",
"kkkkkkkkkkkkkkkkkkkkkkkkkkkkkkkkkkkkkkkkkkkkkkkkkkkkkkkkkkkkkkkk",
"kkkkkkkkkkkkkkkkkkkkkkkkkkkkkkkkkkkkkkkkkkkkkkkkkkkkkkkkkkkkkkkk",
"kkkkkkkkkkkkkkkkkkkkkkkkkkkkkkkkkkkkkkkkkkkkkkkkkkkkkkkkkkkkkkkk",
"kkkkkkkkkkkkkkkkkkkkkkkkkkkkkkkkkkkkkkkkkkkkkkkkkkkkkkkkkkkkkkkk",
"kkkkkkkkkkkkkkkkkkkkkkkkkkkkkkkkkkkkkkkkkkkkkkkkkkkkkkkkkkkkkkkk",
"kkkkkkkkkkkkkkkkkkkkkkkkkkkkkkkkkkkkkkkkkkkkkkkkkkkkkkkkkkkkkkkk",
"kkkkkkkkkkkkkkkkkkkkkkkkkkkkkkkkkkkkkkkkkkkkkkkkkkkkkkkkkkkkkkkk",
"kkkkkkkkkkkkkkkkkkkkkkkkkkkkkkkkkkkkkkkkkkkkkkkkkkkkkkkkkkkkkkkk",
"kkkkkkkkkkkkkkkkkkkkkkkkkkkkkkkkkkkkkkkkkkkkkkkkkkkkkkkkkkkkkkkk",
"kkkkkkkkkkkkkkkkkkkkkkkkkkkkkkkkkkkkkkkkkkkkkkkkkkkkkkkkkkkkkkkk",
"kkkkkkkkkkkkkkkkkkkkkkkkkkkkkkkkkkkkkkkkkkkkkkkkkkkkkkkkkkkkkkkk",
"kkkkkkkkkkkkkkkkkkkkkkkkkkkkkkkkkkkkkkkkkkkkkkkkkkkkkkkkkkkkkkkk",
"kkkkkkkkkkkkkkkkkkkkkkkkkkkkkkkkkkkkkkkkkkkkkkkkkkkkkkkkkkkkkkkk",
"kkkkkkkkkkkkkkkkkkkkkkkkkkkkkkkkkkkkkkkkkkkkkkkkkkkkkkkkkkkkkkkk",
"kkkkkkkkkkkkkkkkkkkkkkkkkkkkkkkkkkkkkkkkkkkkkkkkkkkkkkkkkkkkkkkk",
"kkkkkkkkkkkkkkkkkkkkkkkkkkkkkkkkkkkkkkkkkkkkkkkkkkkkkkkkkkkkkkkk",
"kkkkkkkkkkkkkkkkkkkkkkkkkkkkkkkkkkkkkkkkkkkkkkkkkkkkkkkkkkkkkkkk",
"kkkkkkkkkkkkkkkkkkkkkkkkkkkkkkkkkkkkkkkkkkkkkkkkkkkkkkkkkkkkkkkk",
"kkkkkkkkkkkkkkkkkkkkkkkkkkkkkkkkkkkkkkkkkkkkkkkkkkkkkkkkkkkkkkkk",
"kkkkkkkkkkkkkkkkkkkkkkkkkkkkkkkkkkkkkkkkkkkkkkkkkkkkkkkkkkkkkkkk",
"kkkkkkkkkkkkkkkkkkkkkkkkkkkkkkkkkkkkkkkkkkkkkkkkkkkkkkkkkkkkkkkk",
"kkkkkkkkkkkkkkkkkkkkkkkkkkkkkkkkkkkkkkkkkkkkkkkkkkkkkkkkkkkkkkkk",
"kkkkkkkkkkkkkkkkkkkkkkkkkkkkkkkkkkkkkkkkkkkkkkkkkkkkkkkkkkkkkkkk",
"kkkkkkkkkkkkkkkkkkkkkkkkkkkkkkkkkkkkkkkkkkkkkkkkkkkkkkkkkkkkkkkk",
"kkkkkkkkkkkkkkkkkkkkkkkkkkkkkkkkkkkkkkkkkkkkkkkkkkkkkkkkkkkkkkkk",
"kkkkkkkkkkkkkkkkkkkkkkkkkkkkkkkkkkkkkkkkkkkkkkkkkkkkkkkkkkkkkkkk",
"kkkkkkkkkkkkkkkkkkkkkkkkkkkkkkkkkkkkkkkkkkkkkkkkkkkkkkkkkkkkkkkk",
"kkkkkkkkkkkkkkkkkkkkkkkkkkkkkkkkkkkkkkkkkkkkkkkkkkkkkkkkkkkkkkkk",
"kkkkkkkkkkkkkkkkkkkkkkkkkkkkkkkkkkkkkkkkkkkkkkkkkkkkkkkkkkkkkkkk",
"kkkkkkkkkkkkkkkkkkkkkkkkkkkkkkkkkkkkkkkkkkkkkkkkkkkkkkkkkkkkkkkk",
"kkkkkkkkkkkkkkkkkkkkkkkkkkkkkkkkkkkkkkkkkkkkkkkkkkkkkkkkkkkkkkkk",
"kkkkkkkkkkkkkkkkkkkkkkkkkkkkkkkkkkkkkkkkkkkkkkkkkkkkkkkkkkkkkkkk",
"kkkkkkkkkkkkkkkkkkkkkkkkk466000qqwwqq00064kkkkkkkkkkkkkkkkkkkkkk",
"kkkkkkkkkkhhwhhwwkkkkk000044421<>>>,<114qpjjkkkkkkkkkkkkkkkkkkkk",
"kkkkkkkkghhhhhdfhhkkjssqpq66@XXX%%,55qpddddddjkkkkkkkkkkkkkkkkkk",
"kkkkkkkwwfyfii*fdwhwjjqjjs6::@XXX,5qpjjjppjgtddkkkkkkkkkkkkkkkkk",
"kkkkkkgwufytttyfffijjggdwj3w:@:XX5pjjjpjjjjpgtttkkkkkkkkkkkkkkkk",
"kkkkkkgguttt--=t*fi-qddddw3s:@=X,5jpffyfiiyyg=t--kkkkkkkkkkkkkkk",
"kkkkkkuuttt--===tufd-ywdd&1f;@6X5djfft-----*==***rakkkkkkkkkkkkk",
"kkkkkkgttt--=====tfy-tt*d&,=@@;X5qjpt**&&&&&&y=779aaekkkkkkkkkkk",
"kkkkkkftt--===***=-y*--*&%#=+OXX5qdi**&&&&&&&=-78;66qekkkkkkkkkk",
"kkkkkkkt--====***==-*==*&%O&OOXX5ipy*&&&&&&&%*-799aaaaaekkkkkkkk",
"kkkkkkkt-====****==-&*&&%%O&XXXXXiq-*&&&&&&%%&-79eeeeeeekkkkkkkk",
"kkkkkkk-==******&&=*%&&%%&O&XXXXX-y-*&&&&&&%%%-778787878kkkkkkkk",
"kkkkkkkk==******&&&%.%%%.%O%XXXXX*-**&&&&&%%%%%%77$7$7$7kkkkkkkk",
"kkkkkkk>*******&%%%...... XXXXXXX&***&&&&%%%%%.%XXXX@;+kkk3;kkkk",
"k11<,>>>>*&&&%%%%..... XXXXXXO;;;.&**&&&%%%%%%.XXXXo@;+kkkkkk3#k",
"kkkkk,>:::;;#@+OOooXXXXXXXXXO###+XX.%%%%%%%%. XXXXX@;+**kkkkkkkk",
"kkkkkkkkkkkkkkkoooooooooOO+++++++ooXXXXXXXXXXXXXXXooo**311,:@kkk",
"kkkk<,:k<:kkkkkkkkkkkkkkkkkkkkkk&&&&&&&&&&&&&&&&&****kkkkkkkkkkk"
};
