/* XPM */
static char *colwa0[] = {
/* columns rows colors chars-per-pixel */
"64 64 22 1 ",
"  c black",
". c #202020",
"X c #2C2C2C",
"o c gray22",
"O c gray25",
"+ c #484848",
"@ c #4C4C4C",
"# c gray33",
"$ c gray36",
"% c #646464",
"& c gray44",
"* c #7C7C7C",
"= c gray55",
"- c #989898",
"; c gray66",
": c #B4B4B4",
"> c #C0C0C0",
", c #D0D0D0",
"< c gainsboro",
"1 c #ECECEC",
"2 c gray99",
"3 c None",
/* pixels */
"3333333333333333333333333;;;;=======&&&&%33333333333333333333333",
"33333333333333333333;;<<,,,>>>::;;--==*&&%#+##333333333333333333",
"333333333333333333>22111<<<,,,>>::;-&>=*&%#+OooX3333333333333333",
"3333333333333333312222111222<<,>>::;--=**+#+Ooo.X333333333333333",
"3333333333333333<112222221<,>>::;;-=**&%%%%oOoX.XX33333333333333",
"3333333333333333<<1122211,,,>>;,;;-=**&%%#O+XX..XX33333333333333",
"3333333333333333><<2122111<<,,>>::;-=*&%#+OXo..XXX33333333333333",
"33333333333333333>>211221122<<,>>;;-=*&%#OoX...XX333333333333333",
"3333333333333333333:1122221<,>;:-=*&%#+OXoX....33333333333333333",
"33333333333333333333:>>2221<,>:;-=*&%#+OoXX..X333333333333333333",
"333333333333333333333->1221<,>:;-=*&#%+OoX..X3333333333333333333",
"333333333333333333333->1221<,>:;-=*&%#+OoX..X3333333333333333333",
"333333333333333333333->2221<,>:;=;*&%#+OXo..X3333333333333333333",
"333333333333333333333->2221<,>:=-;*&%#+OoX..X3333333333333333333",
"333333333333333333333->2221<,>:;-=*&%O%OoX..X3333333333333333333",
"333333333333333333333->2221<,>:;-=*&%#%OoX..X3333333333333333333",
"333333333333333333333->11<,>:;-=*&%#+O+X....X3333333333333333333",
"333333333333333333333-=;:;;==*&&%%#+OoX......3333333333333333333",
"3333333333333333333333<2<1221<,>:;-=*&#%+o.X33333333333333333333",
"333333333333333333333><2222<,>:;-=*&%#+#oXX.o3333333333333333333",
"333333333333333333333><2221<,,:;-*=&%#+OoX..X3333333333333333333",
"333333333333333333333->2221<:1:;-=&*%#+OoX..X3333333333333333333",
"333333333333333333333->2221<>1:;-=*&%#+OXo..X3333333333333333333",
"333333333333333333333->2221<,,:;-=*&#%+OoX .X3333333333333333333",
"333333333333333333333->2221<,>:;-=*&%#+X+X..X3333333333333333333",
"333333333333333333333-;2221:2>:;-=*&%#+OoX..X3333333333333333333",
"333333333333333333333-<2221<,>:;-*-&%#+oOX..X3333333333333333333",
"333333333333333333333->2221<:<:;-=*&%+#OoX..X3333333333333333333",
"333333333333333333333->2221<,>:;=-*&%#+OXo..X3333333333333333333",
"333333333333333333333*-<1<,>:;-=*&%#+OoX.....3333333333333333333",
"3333333333333333333333*-;-==**&&%%#+OoX..   33333333333333333333",
"333333333333333333333;,22222><,>:;-=*&%#+oXXo3333333333333333333",
"333333333333333333333->2221<1>:;-=*&%#+OoX..X3333333333333333333",
"333333333333333333333->2221<,>:;=-*%*#+OXO .X3333333333333333333",
"333333333333333333333->2221<:1:;-=*&%#O+oX..X3333333333333333333",
"333333333333333333333->22<2<,>:;-=*&%+#Oo.X.X3333333333333333333",
"333333333333333333333->2121<:>;:-*=&%##OoX...3333333333333333333",
"333333333333333333333->2221:2>:;-=*&%#+oOX..X3333333333333333333",
"333333333333333333333->22212,>:;-=&*%#+OoX..X3333333333333333333",
"333333333333333333333->22<2<,>:;=-*&%#O+Xo..X3333333333333333333",
"333333333333333333333->2221<,:<;-=*&#%+OoX..X3333333333333333333",
"333333333333333333333->2221,1>:;-=&*%#+OXo..X3333333333333333333",
"333333333333333333333*>1211<,>:--=*&%+#OoX..o3333333333333333333",
"3333333333333333333333;,<>>>:;-&-&%#+OoX....33333333333333333333",
"333333333333333333333;1:>,>-=*&#%%#+OoX......3333333333333333333",
"333333333333333333333-,212221<,>:=-=*&%#+o.XX3333333333333333333",
"333333333333333333333->2221<,>:;-*-&%#+OXO..X3333333333333333333",
"333333333333333333333->222,2,>-<-=*&%#+OoX..X3333333333333333333",
"333333333333333333333->2221<,>:;-*-&%+#OoX..X3333333333333333333",
"333333333333333333333->2221<,>:;-=*&#%+OoX..X3333333333333333333",
"333333333333333333333->2221<,>->-=*%&#+OoX..X3333333333333333333",
"333333333333333333333->2221<,;<;-=*&%#O#oX..X3333333333333333333",
"333333333333333333333->122,2,>:;-=*&%#+OoX..X3333333333333333333",
"333333333333333333333->122,2,>:;-=*&%+#OoX..X3333333333333333333",
"33333333333333333333:<>2221<,>:-:=*&%#+OoXo..X333333333333333333",
"3333333333333333333:1122221<,>:;-=*&%#+OXoX...XX3333333333333333",
"33333333333333333>>212221122<<,>>;;-=*&%#OoX...XXXO+@##$$%%33333",
"3333333333333333><<2122111<<,,>>::;-=*&%#+OXo..XXXooO++@##$%%333",
"3333333333333333<<1122211,,,>>::;;=;**&%%#O+XX..XXooooO++@#$$%33",
"3333333333333333<112222221<,>>::;;-=**&%%&%@@oX.XXooooO++@#$$%33",
"3333333333333333312222111222<<,>>::;--=**&$O$oo.XoooOO+@@#$$%333",
"333333333333333333>22111<<<,,,>:,:;--=*=&%$+OooXOOO+++@#$$%33333",
"33333333333333333333;;<<,,,>>>::;;--==*&&%#+OO+#$$$%%%%%%3333333",
"3333333333333333333333333;;;;=======&&&&%#OO+#$%%333333333333333"
};
