/* XPM */
static char *wel1a0[] = {
/* columns rows colors chars-per-pixel */
"64 64 26 1 ",
"  c black",
". c #202020",
"X c #2C2C2C",
"o c gray22",
"O c #484848",
"+ c gray33",
"@ c #646464",
"# c gray44",
"$ c #7C7C7C",
"% c #000098",
"& c #0000B0",
"* c #0000EC",
"= c #0000FC",
"- c #4040FC",
"; c #5C60FC",
": c gray55",
"> c #989898",
", c gray66",
"< c #B4B4B4",
"1 c #9C9CFC",
"2 c #C0C0C0",
"3 c #D0D0D0",
"4 c gainsboro",
"5 c #ECECEC",
"6 c gray99",
"7 c None",
/* pixels */
"7777777777777777777777777777777777777777777777777777777777777777",
"7777777777777777777777777777777777777777777777777777777777777777",
"7777777777777777777777777777777777777777777777777777777777777777",
"7777777777777777777777777777777777777777777777777777777777777777",
"7777777777777777777777777777777777777777777777777777777777777777",
"7777777777777777777777777777777777777777777777777777777777777777",
"7777777777777777777777777777777777777777777777777777777777777777",
"7777777777777777777777777777777777777777777777777777777777777777",
"7777777777777777777777777777777777777777777777777777777777777777",
"7777777777777777777777777777777777777777777777777777777777777777",
"7777777777777777777777777777777777777777777777777777777777777777",
"7777777777777777777777777777777777777777777777777777777777777777",
"7777777777777777777777777777777777777777777777777777777777777777",
"7777777777777777777777777777777777777777777777777777777777777777",
"7777777777777777777777777777777777777777777777777777777777777777",
"7777777777777777777777777777777777777777777777777777777777777777",
"7777777777777777777777777777777777777777777777777777777777777777",
"7777777777777777777777777777777777777777777777777777777777777777",
"7777777777777777777777777777777777777777777777777777777777777777",
"7777777777777777777777777777777777777777777777777777777777777777",
"7777777777777777777777777777777777777777777777777777777777777777",
"7777777777777777777777777777777777777777777777777777777777777777",
"7777777777777777777777777777777777777777777777777777777777777777",
"7777777777777777777777777777777777777777777777777777777777777777",
"7777777777777777777777777777777777777777777777777777777777777777",
"7777777777777777777777777777777777777777777777777777777777777777",
"7777777777777777777777777777777777777777777777777777777777777777",
"7777777777777777777777777777777777777777777777777777777777777777",
"7777777777777777777777777777777777777777777777777777777777777777",
"7777777777777777777777777777777777777777777777777777777777777777",
"7777777777777777777777777777777777777777777777777777777777777777",
"7777777777777777777777777777777777777777777777777777777777777777",
"7777777777777777777777777777777777777777777777777777777777777777",
"7777777777777777777777777777777777777777777777777777777777777777",
"7777777777777777777777777777777777777777777777777777777777777777",
"7777777777777777777777777777777777777777777777777777777777777777",
"7777777777777777777777777777777777777777777777777777777777777777",
"7777777777777777777777777777777777777777777777777777777777777777",
"7777777777777777777777777777777777777777777777777777777777777777",
"7777777777777777777,333337,33773333333,,777777777777777777777777",
"77777777777744444$3555333$533$3555553333$33337777777777777777777",
"7777777777<44633,+>>>>>$$+$$$+$$$>>>>,,,+$,,332>7777777777777777",
"777777777<,,,:>#+o+OOoooo.ooo.ooOOO+@@@@o@$$$,,,,#77777777777777",
"777777777<453:#Oo.ooo%%%%%%%%%%%%%%%%%%o.o@@+$,42>#7777777777777",
"777777777>4553:%%%=;;;-**&;-*&-;;;;;---*&%%%o@####O7777777777777",
"777777777$<456<:333:1;;--*********--;;1,,,,$,3>,o#O7777777777777",
"7777777777#<33<@6632>33333,,>3444444,$4664,$3>#@oO77777777777777",
"77777777733#>>:+6,,,#662222,$6553333,$3,$#$O##+O +O7777777777777",
"77777777736,#$$$$$$$######++$3,,,,,,$O###OO+XXXXO+O7777777777777",
"77777777733#6664,#,63,>#@$$$$$$$###@@oOOO+><:#@XO+o7777777777777",
"7777777777,#6433,#6333333>@>433<,,,::$$#+o<::#@X+oX7777777777777",
"777777777,6+3333,+6,,,,,,,#$45,,::::$$$@+o<:$#+XOO77777777777777",
"777777777,36#,,,#++###$$$#@o+>$$$$###@@++X:$@OXoOXX7777777777777",
"777777777#,333##+++o++oooooo++OOOOOXXXXXXXXXXXoO+XX7777777777777",
"7777777777##,3O6644,:#+$+,,,,,,,,+@><,<<,,#@+OXO+Xo7777777777777",
"77777777744<+#$64,,,,#><$,333333,$o<,,>::$#@+OX++oX7777777777777",
"777777777456>O$:::,,:+33$3,,,,,,$+o<<:::$$#@+oX+X 77777777777777",
"777777777<654>@$OOOOO2,,: oooooooo+++++XXXXXXX...OX@@@@@@@@77777",
"777777777>432>@$463<>#oooo+#>>>:$:>$$$@oooXX@@Oo.OX++++++++@@777",
"777777777$>32:@$6422222,:#O>42222<,,>:@,>$@X$@OoXOoooooooOO++@77",
"7777777777$>:#X$42,,,,,,:#o:2<,>>>>>>:@>>$@X$@Oo+o. ..XXXooO+@77",
"77777777777$#@XO+$>>>:::#oo+,>>>:$:>$#o$@++X+OoXX. ...XXXooOO+@7",
"7777777777777OOOOO++++++oo++@@@@OO@@Oo ooooooooooooooooooooO+@@7",
"7777777777777777777@@@@@@@@@@@@@@@@@@@@@@@@@@@@@@@@@@@@@@@@@@@77"
};
