/* XPM */
static char *wspr2012[] = {
/* columns rows colors chars-per-pixel */
"64 64 21 1 ",
"  c gray11",
". c #202020",
"X c #282828",
"o c gray19",
"O c gray22",
"+ c gray25",
"@ c #484848",
"# c gray33",
"$ c #646464",
"% c gray44",
"& c #7C7C7C",
"* c gray55",
"= c #989898",
"- c gray66",
"; c #B4B4B4",
": c #C0C0C0",
"> c #D0D0D0",
", c gainsboro",
"< c #ECECEC",
"1 c gray99",
"2 c None",
/* pixels */
"2222222222222222222222222222222222222222222222222222222222222222",
"2222222222222222222222222222222222222222222222222222222222222222",
"2222222222222222222222222222222222222222222222222222222222222222",
"2222222222222222222222222222222222222222222222222222222222222222",
"2222222222222222222222222222222222222222222222222222222222222222",
"2222222222222222222222222222222222222222222222222222222222222222",
"2222222222222222222222222222222222222222222222222222222222222222",
"2222222222222222222222222222222222222222222222222222222222222222",
"2222222222222222222222222222222222222222222222222222222222222222",
"2222222222222222222222222222222222222222222222222222222222222222",
"2222222222222222222222222222222222222222222222222222222222222222",
"2222222222222222222222222222222222222222222222222222222222222222",
"2222222222222222222222222222222222222222222222222222222222222222",
"2222222222222222222222222222222222222222222222222222222222222222",
"2222222222222222222222222222222222222222222222222222222222222222",
"2222222222222222222222222222222222222222222222222222222222222222",
"2222222222222222222222222222222222222222222222222222222222222222",
"2222222222222222222222222222222222222222222222222222222222222222",
"2222222222222222222222222222222222222222222222222222222222222222",
"2222222222222222222222222222222222222222222222222222222222222222",
"2222222222222222222222222222222222222222222222222222222222222222",
"2222222222222222222222222222222222222222222222222222222222222222",
"2222222222222222222222222222222222222222222222222222222222222222",
"2222222222222222222222222222222222222222222222222222222222222222",
"2222222222222222222222222222222222222222222222222222222222222222",
"2222222222222222222222222222222222222222222222222222222222222222",
"2222222222222222222222222222222222222222222222222222222222222222",
"2222222222222222222222222222222222222222222222222222222222222222",
"2222222222222222222222222222222222222222222222222222222222222222",
"2222222222222222222222222222222222222222222222222222222222222222",
"2222222222222222222222222222222222222222222222222222222222222222",
"2222222222222222222222222222222222222222222222222222222222222222",
"2222222222222222222222222222222222222222222222222222222222222222",
"2222222222222222222222222222222222222222222222222222222222222222",
"2222222222222222222222222222222222222222222222222222222222222222",
"2222222222222222222222222222222222222222222222222222222222222222",
"2222222222222222222222222222222222222222222222222222222222222222",
"2222222222222222222222222222222222222222222222222222222222222222",
"2222222222222222222222222222222222222222222222222222222222222222",
"2222222222222222222222222222222222222222222222222222222222222222",
"2222222222222222222222222222222*>>;*2222222222222222222222222222",
"222222222222222222222222222222-1<<:::222222222222222222222222222",
"2222222222222222222222222->>;*,11<,:;222222222222222222222222222",
"222222222222222222222222-1<<::<1,,1$->*$@22222222222222222222222",
"222222222222222222222222,11<,:,@@;@-1<>%*@2222222222222222222222",
"2222222222222222222->>;*<1,,1,1*o$X,1,<,*%2222222222222222222222",
"222222222222222222-1<<::,@@;@#<<1*:<1,:;-*2222222222222222222222",
"222222222222222222,11<,:1*o$X%+><<$->>;*o**$22222222222222222222",
"222222222222222222<1,,1,<<1*::##::-1<<::*-*=*#222222222222222222",
"222222222222222222,@@;@#+><<>;&;,,,11<,:;=;*@$222222222222222222",
"2222222222222222221*o$X%##:$->>;*#<1,,1,*@=&O#%*2222222222222222",
"22222222222222222%<<1*::&:,-1<<:::,@@;$->>;&#;;%*222222222222222",
"2222222222222222*>=><<>;@<*,11<,:;$->>;*O*--:&-==&22222222222222",
"222222222222222-11,#:::$-,>;$->>;*-1<<::=#=-=*=-;=$2222222222222",
"222222222222222,11>;,,:-1<<*-1<<::,11<,:==%=#.o&oo%2222222222222",
"222222222222222<1<<1<>,,11>-,11<,:<1,,1,*$X+*@XO.@*#$%%222222222",
"222222222222222, *:=+>><1,:><1,,1,,@@;@#-$X$=&=#*&@@#$%%%%222222",
"2222222222222221+#$ #@-,@@;O,@@;@#1*o$X%-$-::*-=-=O@@@##$%%%2222",
"222222222222222><1*:&;->*o$X1*o$X%<<1*::,=*=+O#$$O@@@##$$%%22222",
"2222222222222222;<<>;@+-<1**<<1*::+><<>;@**+#&&*%#@###$$$%222222",
"22222222222222222*-*@@@%=<<=+><<>;##:::##::=$@@@@+###$$%%2222222",
"22222222222222222222%%%%#:::##:::#&;,,,;$@##$%%%%%%%%%%%22222222",
"222222222222222222222222@*%%&;,,,;#@@@@##%%%%%%%%%22222222222222",
"2222222222222222222222222222222222222222222222222222222222222222"
};
