/* XPM */
static char *wspr2046[] = {
/* columns rows colors chars-per-pixel */
"64 64 26 1 ",
"  c #00001C",
". c gray11",
"X c #202020",
"o c #282828",
"O c gray19",
"+ c gray22",
"@ c #000040",
"# c #000058",
"$ c #280040",
"% c #000070",
"& c gray25",
"* c #484848",
"= c gray33",
"- c #646464",
"; c #7C7C7C",
": c #EC0000",
"> c #FC0000",
", c #000088",
"< c #000098",
"1 c #5454FC",
"2 c #7C80FC",
"3 c gray55",
"4 c #B8BCFC",
"5 c #D0D0D0",
"6 c gray99",
"7 c None",
/* pixels */
"7777777777777777777777777777777777777777777777777777777777777777",
"7777777777777777777777777777777777777777777777777777777777777777",
"7777777777777777777777777777777777777777777777777777777777777777",
"777777777777777777777777777777777>777777777777777777777777777777",
"7777777777777777777777777777777777777777777777777777777777777777",
"77777777777777777777777777777777777777>7777777777777777777777777",
"777777777777777777777777777777>777777777777777777777777777777777",
"777777777777777777777777777777777>777777777777777777777777777777",
"7777777777777777777777777777777777777>77777777777777777777777777",
"77777777777777777777777777777>77>7>77777777777777777777777777777",
"7777777777777777777777777777777777777777777777777777777777777777",
"77777777777777777777777777777777777>7777777777777777777777777777",
"77777777777777777777777777777777>7777777777777777777777777777777",
"777777777777777777777777777777777>777777777777777777777777777777",
"7777777777777777777777777777777>77777777777777777777777777777777",
"7777777777777777777777777777777777>7>777777777777777777777777777",
"7777777777777777777777777777777777777777777777777777777777777777",
"77777777777777777777777777777777>7777777777777777777777777777777",
"7777777777777777777777777777777777>77777777777777777777777777777",
"7777777777777777777777777777$77666677777777777777777777777777777",
"7777777777777777777777777777$$$$$$$$7777777777777777777777777777",
"7777777777777777777777777777$77766677777777777777777777777777777",
"7777777777777777777777777777$777>>>77777777777777777777777777777",
"7777777777777777777777777777$777>6>77777777777777777777777777777",
"7777777777777777777777777777$777>>>77777777777777777777777777777",
"7777777777777777777777777777$777>>>77777777777777777777777777777",
"7777777777777777777777777777$7776>:77777777777777777777777777777",
"7777777777777777777777777777$777>>>77777777777777777777777777777",
"7777777777777777777777777777$777>>677777777777777777777777777777",
"7777777777777777777777777777$77777777777777777777777777777777777",
"7777777777777777777777777777$77421247777777777777777777777777777",
"7777777777777777777777777777$77422247777777777777777777777777777",
"7777777777777777777777777777$77742477777777777777777777777777777",
"7777777777777777777777777777$77742477777777777777777777777777777",
"7777777777777777777777777777$777@@<77777777777777777777777777777",
"7777777777777777777777777777$777% <77777777777777777777777777777",
"7777777777777777777777777777$777, ,77777777777777777777777777777",
"7777777777777777777777777777$777< ,77777777777777777777777777777",
"7777777736666666666666666666$666# %66666666666666666666377777777",
"7777773666666666666666666666$55     5555666666666666666663777777",
"7777366666666666666666666666666655555566666666666666666666637777",
"777..........................................................777",
"777..........................................................777",
"77777777777777777777777777777+OOo++77777777777777777777777777777",
"77777777777777777777777777777+OoOO+77777777777777777777777777777",
"77777777777777777777777777777+oOOO+77777777777777777777777777777",
"77777777777777777777777777777+oOoO+77777777777777777777777777777",
"77777777777777777777777777777++OoO+77777777777777777777777777777",
"77777777777777777777777777777++OoO+77777777777777777777777777777",
"77777777777777777777777777777+++oO+77777777777777777777777777777",
"77777777777777777777777777777-++o++77777777777777777777777777777",
"77777777777777777777777777777-=+o++77777777777777777777777777777",
"77777777777777777777777777777-=+o++77777777777777777777777777777",
"77777777777777777777777777777-=+O++77777777777777777777777777777",
"77777777777777777777777777777-==+O+77777777777777777777777777777",
"77777777777777777777777777777-=**O+77777777777777777777777777777",
"77777777777777777777777777777-===O=77777777777777777777777777777",
"777777777777-----------------===*O*----------------------7777777",
"77777777777-----==========*----==o+--==========-----------777777",
"7777777777-----=+++++++;--;;---*==OO**-=-+++++++++++++++---77777",
"777777777-----=+++XXX;;;;;---;=-=*&+O++*---XXXXXXXXXXX+++---7777",
"77777777-----=+++XXXXXXXX-------*=&&+=-XXXXXXXXXXX++++++=+=--777",
"7777777-------=================+++++++++++++===============---77",
"777777----------------------------------------------=----------7"
};
