/* XPM */
static char *result[] = {
/* columns rows colors chars-per-pixel */
"64 64 45 1 ",
"  c #555555",
". c #5C5C5C",
"X c #646464",
"o c #696769",
"O c #6C6C6C",
"+ c #71716F",
"@ c #6F6F70",
"# c #706F70",
"$ c #6F7070",
"% c #747474",
"& c #787877",
"* c #777778",
"= c #787778",
"- c #777878",
"; c #7C7C7C",
": c #817F7F",
"> c #7F807F",
", c #81817F",
"< c #7F8181",
"1 c #838383",
"2 c #888787",
"3 c #878887",
"4 c #888887",
"5 c #878788",
"6 c #888788",
"7 c #878888",
"8 c #8B8B8B",
"9 c #8F908E",
"0 c #90908E",
"q c #908E90",
"w c #8F9090",
"e c #939393",
"r c #999997",
"t c #9B9B9B",
"y c #A09F9F",
"u c #A0A19F",
"i c #9E9EA0",
"p c #A09FA0",
"a c #A3A3A3",
"s c #AAAAAA",
"d c #B4B4B4",
"f c #B8B8B7",
"g c #BCBBBB",
"h c #C1C0C0",
"j c None",
/* pixels */
"r1;tst1;t98o8eq18rqe51rass88ertterat1ede1-254195eadeaaesd0taeag;",
"ajjjjjjjjjjjjjj8ejjjjjjjjjjjjjj86jjjjjjjjjjjjjj;5jjjjjjjjjjjjjj%",
"sjjjjjjjjjjjjjje8jjjjjjjjjjjjjj%%jjjjjjjjjjjjjj%%jjjjjjjjjjjjjjX",
"fjjjjjjjjjjjjjje;jjjjjjjjjjjjjj;1jjjjjjjjjjjjjj5;jjjjjjjjjjjjjj.",
"rjjjjjjjjjjjjjj%Xjjjjjjjjjjjjjjeujjjjjjjjjjjjjj%;jjjjjjjjjjjjjjo",
"1jjjjjjjjjjjjjj%Ojjjjjjjjjjjjjj88jjjjjjjjjjjjjjO%jjjjjjjjjjjjjj%",
"Ojjjjjjjjjjjjjj1Ojjjjjjjjjjjjjj,5jjjjjjjjjjjjjj%%jjjjjjjjjjjjjjO",
"<O;8r8;>*18161%%%%11;8*%%;%858,51;14;O%%%;e8851%%%18**551ar;;;85",
";%5tr81%%88511%;11O81e8;X%X;51X..5;;;;&+%8e91155*;8t5%Oo*ie11O*t",
"jjjjjjj%;jjjjjjjjjjjjjjO;jjjjjjjjjjjjjj%;jjjjjjjjjjjjjj1%jjjjjjj",
"jjjjjjjX1jjjjjjjjjjjjjj%1jjjjjjjjjjjjjj83jjjjjjjjjjjjjj1.jjjjjjj",
"jjjjjjj;1jjjjjjjjjjjjjj Ojjjjjjjjjjjjjj;9jjjjjjjjjjjjjj%ojjjjjjj",
"jjjjjjj5;jjjjjjjjjjjjjj.Xjjjjjjjjjjjjjj58jjjjjjjjjjjjjjO%jjjjjjj",
"jjjjjjj8ejjjjjjjjjjjjjjO5jjjjjjjjjjjjjj;Ojjjjjjjjjjjjjje;jjjjjjj",
"jjjjjjj%5jjjjjjjjjjjjjj;1jjjjjjjjjjjjjj9$jjjjjjjjjjjjjj11jjjjjjj",
"e88r88e;;%81:X.OOO.%O;%O;8;%;%O$eeat85988&;5;;;%.<51;511838;.%8e",
"e>888;4ee8te1;1%OO O85;;;8;;8e8;%1e5;1585%51;5,5;;5ee6%O;;;%%%e5",
"ejjjjjjjjjjjjjj5Xjjjjjjjjjjjjjj<Ojjjjjjjjjjjjjj5%jjjjjjjjjjjjjj#",
"sjjjjjjjjjjjjjj8;jjjjjjjjjjjjjjOOjjjjjjjjjjjjjj%5jjjjjjjjjjjjjjO",
"ajjjjjjjjjjjjjjOXjjjjjjjjjjjjjj%;jjjjjjjjjjjjjj;1jjjjjjjjjjjjjj;",
"hjjjjjjjjjjjjjjXXjjjjjjjjjjjjjj;;jjjjjjjjjjjjjje;jjjjjjjjjjjjjj5",
"gjjjjjjjjjjjjjj;;jjjjjjjjjjjjjjr1jjjjjjjjjjjjjjt5jjjjjjjjjjjjjj+",
"ajjjjjjjjjjjjjj%1jjjjjjjjjjjjjj8Ojjjjjjjjjjjjjj1Ojjjjjjjjjjjjjj%",
"q115;3a8;%O%%858;;X51&55;;85;%;1XX15;<X1;4;85OOXXOe8;re;%1;;;881",
"p855;191%O;;;881548e88%1e15;;%-1XX;;1;X;;80;;18,O@O%58%;%131%5e%",
"jjjjjjja8jjjjjjjjjjjjjj8rjjjjjjjjjjjjjj;;jjjjjjjjjjjjjj85jjjjjjj",
"jjjjjjj8;jjjjjjjjjjjjjj%;jjjjjjjjjjjjjj8%jjjjjjjjjjjjjjaajjjjjjj",
"jjjjjjj%%jjjjjjjjjjjjjjO4jjjjjjjjjjjjjje;jjjjjjjjjjjjjje8jjjjjjj",
"jjjjjjj8;jjjjjjjjjjjjjj-rjjjjjjjjjjjjjjr%jjjjjjjjjjjjjj;8jjjjjjj",
"jjjjjjj8=jjjjjjjjjjjjjj%;jjjjjjjjjjjjjje;jjjjjjjjjjjjjjX8jjjjjjj",
"jjjjjjj;%jjjjjjjjjjjjjj%;jjjjjjjjjjjjjjt9jjjjjjjjjjjjjj.$jjjjjjj",
";%;81%5%O%OX;a858<%5O1%OO%11411o;;55%%%*1O185es;O1;X%;%X O8eee88",
"r5;88881;1;%>et85%18;>6>XX%&511X%88855%%;%%.O5e%;e;%%1;;5588XO58",
"rjjjjjjjjjjjjjj88jjjjjjjjjjjjjj;;jjjjjjjjjjjjjj;;jjjjjjjjjjjjjj8",
"ajjjjjjjjjjjjjj81jjjjjjjjjjjjjj;8jjjjjjjjjjjjjjtajjjjjjjjjjjjjj1",
"rjjjjjjjjjjjjjj5Ojjjjjjjjjjjjjj;5jjjjjjjjjjjjjj8ejjjjjjjjjjjjjj%",
"gjjjjjjjjjjjjjj>Xjjjjjjjjjjjjjj;;jjjjjjjjjjjjjj%5jjjjjjjjjjjjjj8",
"ajjjjjjjjjjjjjj%Ojjjjjjjjjjjjjj%;jjjjjjjjjjjjjj1;jjjjjjjjjjjjjj%",
"ajjjjjjjjjjjjjjO%jjjjjjjjjjjjjjX;jjjjjjjjjjjjjje8jjjjjjjjjjjjjj;",
"i155%;;:%.;;%85;1;1e;%5re81%;5;;O%;8%OX%1;1e;1;15e88>6;;8sr61tt;",
"f8q87781;;%o;<%;;;88%o;1;18;1;O%O;X;;1%;;5et;%;O8;58%%OX@trq1%t1",
"jjjjjjjO;jjjjjjjjjjjjjj;5jjjjjjjjjjjjjjr;jjjjjjjjjjjjjj.*jjjjjjj",
"jjjjjjj;ejjjjjjjjjjjjjj1Ojjjjjjjjjjjjjj88jjjjjjjjjjjjjj*7jjjjjjj",
"jjjjjjj8%jjjjjjjjjjjjjj%;jjjjjjjjjjjjjj88jjjjjjjjjjjjjjtqjjjjjjj",
"jjjjjjj;Ojjjjjjjjjjjjjj81jjjjjjjjjjjjjj8%jjjjjjjjjjjjjje8jjjjjjj",
"jjjjjjj51jjjjjjjjjjjjjj-%jjjjjjjjjjjjjj%;jjjjjjjjjjjjjj%8jjjjjjj",
"jjjjjjj8rjjjjjjjjjjjjjjX%jjjjjjjjjjjjjj;XjjjjjjjjjjjjjjO;jjjjjjj",
"a8r5;1+;%888t2%err8e885O%OOo8;OO;5e5er5%O5;;;;;%;.5%>;1%;e6*%&;.",
"t85e1<O1;10888;;1e;O15;%XXXX%;%11%%;r1;XO%e>O%1*;O8;%%%X%=O%;e8>",
"ajjjjjjjjjjjjjje8jjjjjjjjjjjjjj1ejjjjjjjjjjjjjjq4jjjjjjjjjjjjjjp",
"rjjjjjjjjjjjjjj;;jjjjjjjjjjjjjj&rjjjjjjjjjjjjjjeejjjjjjjjjjjjjjr",
"gjjjjjjjjjjjjjj1;jjjjjjjjjjjjjj;%jjjjjjjjjjjjjjeejjjjjjjjjjjjjjO",
"sjjjjjjjjjjjjjj81jjjjjjjjjjjjjj%%jjjjjjjjjjjjjj%;jjjjjjjjjjjjjj1",
"ejjjjjjjjjjjjjj%Ojjjjjjjjjjjjjj18jjjjjjjjjjjjjjOOjjjjjjjjjjjjjj;",
"ajjjjjjjjjjjjjjO;jjjjjjjjjjjjjj;ejjjjjjjjjjjjjj;5jjjjjjjjjjjjjj8",
"8;-OO%%%%;8e1%OX5e5;1%XO881o51;15%8e%;%;;O111XXOOO%%%;;r5%511%5r",
"gas8%185;%&eae%;5;;O1;O%18OO1%;1;%855;O%%%5e5%X;;;%X%%;5%%%;88qr",
"jjjjjjj;;jjjjjjjjjjjjjj%;jjjjjjjjjjjjjj;Ojjjjjjjjjjjjjj%1jjjjjjj",
"jjjjjjj%%jjjjjjjjjjjjjj;;jjjjjjjjjjjjjj1;jjjjjjjjjjjjjj;8jjjjjjj",
"jjjjjjj18jjjjjjjjjjjjjje5jjjjjjjjjjjjjj8;jjjjjjjjjjjjjj;;jjjjjjj",
"jjjjjjj81jjjjjjjjjjjjjje%jjjjjjjjjjjjjj88jjjjjjjjjjjjjj;;jjjjjjj",
"jjjjjjj;%jjjjjjjjjjjjjj%;jjjjjjjjjjjjjj%Xjjjjjjjjjjjjjj;%jjjjjjj",
"jjjjjjjeejjjjjjjjjjjjjj8%jjjjjjjjjjjjjj1Ojjjjjjjjjjjjjj1%jjjjjjj",
"8.O1X.885;%;7;8r511O;y58X%88-.%;%X;e1%8%55aat1%;8%;;%.o;45e8%X;o"
};
