/* XPM */
static char *result[] = {
/* columns rows colors chars-per-pixel */
"64 64 46 1 ",
"  c #2E271E",
". c #352D23",
"X c #373026",
"o c #393126",
"O c #3D3529",
"+ c #3F382C",
"@ c #40372B",
"# c #42392D",
"$ c #463E30",
"% c #483F31",
"& c #464032",
"* c #4D4334",
"= c #514636",
"- c #534738",
"; c #564A3A",
": c #5A4E3C",
"> c #5D513F",
", c #584F40",
"< c #5E5341",
"1 c #625542",
"2 c #665945",
"3 c #695B46",
"4 c #675C48",
"5 c #6B5E49",
"6 c #6E614B",
"7 c #72634D",
"8 c #6F6550",
"9 c #746650",
"0 c #786750",
"q c #756952",
"w c #7C6B53",
"e c #7E6F58",
"r c #7F7057",
"t c #7E7058",
"y c #816E56",
"u c #817057",
"i c #84735A",
"p c #89765C",
"a c #87785E",
"s c #8B795E",
"d c #877A60",
"f c #8D7C61",
"g c #917E62",
"h c #8E8165",
"j c #938265",
"k c #938369",
/* pixels */
".oOOo@@@..o@@@#@#@o@@o++%$#oo.. .o##@@@o++#+OXX.oXXoo++$OOO#+o+&",
"o;>:;:>::;::::;@o;;<2,<,2,;;===X@:>>:;=;;:>>;;=oo=:<<::;;;>>>;*O",
"#<123331373221>#@:18933452>::::##:233>:>142521:@o>57925166866>;o",
"o;<yypyyypp0021@@,4dgdppfyw091:O#:3wpy007psse3:O+16kfpwetaaii1:o",
".;>0yyyywpsew21##:5dfeuupyww91:##>7yyyy00ppsy6;#+14ppuysjshur<:@",
".%>3221146625>>+#:155252322555<$%1667711:224311@O:>221>2065<1>:@",
".%::;:>:><1>>>-+#;;:;;;,,,<112<#@>>:=;;>;:;:>>;@o=>>>;;;>:::;;=@",
".o@#@@@@+@++##+oO##++OOXo##%%$$O@@ooo@@#@@@@%#@..o+&#@OOOO@O@OOo",
"X@@#@@O.Xo@@@O##$&$+OXoOO@#o####@@@..@@oo@##%@@oo#&&#@@oo@@@OOoO",
":><<>>;Oo-::>><<2441<;*OO:1:::1:::>-,:=.o;>>1>-%;>>>11:@@::;;;>;",
":13521>@O;<2644635532:;#%2313355755371;oo:1163111232311O@>113267",
"ipppw2>#+*:0hhir0yypi1;o$15wpgfhgsppd3;o@:1ypppyyyywy2:O+;1wppsj",
"yyyyw<;OO*;0sjjp00wyw1;+#26tpsfkppppp3:@@<10wpppyyppu3>OO;1yypip",
"771252>o@=:1775633123>;+#<<1259q3::132<%%12236775233731Oo;>32336",
"1>;:>>=.X*;::;:>>:::1:=oO:;:<<<<;*=:<1:#@;:;;:<1>;>111;OO;::;:::",
"#@@@##@XXo@@@XXoO@###@O.oO+O+$++o.Xo###O.@@@@###&&&&%#@ooO@@@O@@",
"o@@@@@OO@@@@@OoXXOO@@+OOO$O+++OXXoO$++O+o@@@@@@Xo&&&##Ooo+&++O++",
"o:11121112:;:;*Xo=::11>:<<<,:<<+o*;,,,,;;:>:;;=O@>>>>:;*=><>:;:&",
"@:231666577776<O@>3356665632<2<$#::3444<2>11>:=@@><1126>367963>&",
"o:10rhasspipa61+#17sjhpppeuyi4<$#,2wuqtwy0ii0:*@@13wiruuiissw6>#",
"O:>67wwrippjh6>O#19hshpspipiy31#%>30w0sii0isi2=o@;2wayiispspi61#",
"O><16363522362:o+<5qq721331:131#@:11>11512607<=X@;27021>2232361@",
"O=>>1>;*==>>>;*X.;<<<<:<,1:;;::@@;::;:>:>:112;=Oo*=:>:=*:;>>>1:O",
"oOOO#+OXXOo@##+oXoOO+###$#@oo#@@Xo#@OOOOOO@@@ooX.o.ooOooo@@@@@Oo",
"@@OoO+O..O+&##+&oOooo+#+o+++@@@@#@$#+O#oOO@@@O@@OXXXO@O.oO+++O@#",
";:;==;;Oo:>1>311>:;::>>#+::>:>:;::<:;;:OO=>>::;>;;;>11;@O=:=>>11",
"231116>+O>6q69661321>>:+O:<53533235521<#@:6006232126751@O;>66607",
"iyww61;+X=6aphspupip0<>+O=1pggyywwuy011#@;1hsjuw70rsa6>@O*1isgsj",
"hu7061;OX;3shsupuaue7>>oO;3ypppsrrrfa51$@:1sgsuuy07uy1;OO=2uiiup",
"61:<11>+O:1631<22655521oo=1332351<:4574%@==2277751111>;OO=><1136",
">;>;><>&+:>>>:;>:>><>:-.o*::==;::;;::2:#o*;>11111>;;>>;OX*==;=;:",
"OOOo&#&+OOXXOOXOo++#@+o..o#@X.XXoooo.+#O..@@@@#@@@@@#@@o.XO@OoOO",
".oOXOO&&#@ooo@oooOO#@@o.XXOooXX XO++o+o+OO@@O@@XX@@@###@@@##@o. ",
"o*;*;>1>11;====oo:;>;>:=;;>;*=*XO:42<:;::>>;:;;XO=1<<>1:;;>>>:*@",
"#>>>6606763>2>;@O;;123213>>>>*;o#<qqq64<577651:@@:116776613371:@",
"&>36rihspuy0y2:@O:1ripppi0703>;##18airqq0ppsi1:O@>5ysjjspyppp7>@",
"#>26wuipu067y3:@o=17uupspw076>;++>6utr776ippi2>@#16pjjjpyyyyy5>@",
"O;<11<3631>211:@O;133252621666>#O:1141::;<253>;@#2177621:>:213;@",
".&=:<<>>=;;:;:-@@=::>:>>>>>>>>;oo=::1>:=&&;>>;;O#:>><<::;=*==>;@",
"   O@@@#@@O@oo@@O@##@Oo##&&&&#OoXO@O@O@oXX+##@@oo+++OOOO@@o@@@@o",
"...o@@#@@@@@@@#@@#@@@OXXO+#&#+O@O+o+++&XXX+O@##O@@#@@##@@@#@@@@o",
";=&*=-:##>>>::>>>11>:;=O+><<>1>>>>::><>++;>->>1>:<<>:>:@o=>>:::-",
"1>>111>%%13677353621>>;@#>1112121522666#&<4<25512331131@o;:>>111",
"sy0uy1;@@>5pjgssshpp71;@#>30wrw7upgss8<##>6ryyyyyyu07>;@o=:7yypy",
"spppp3:@@13uhjpspgpi01:@@>20w0w0ephka6>+@16upyyyussy0>:@@;;5yppp",
"765355>oO;>2677215321<>@O:122155326q94>o@>11<<2566511>;@@:>33577",
"::>:>>-oo;;=;::=;;;;=:;@O->>;;>>:;><1:=XO;>>:1>::>:::<>@@=:>>>12",
"@@@oo@o. o@@@@@oo@@@@@@ooo#OOO+@@O++&++oO@@@@#@@O@OOo@#ooo@@Oo@@",
"o@@o..ooo@@%o@o.o#%#$##o@#$#OoXX.o#@OoOO@@###%@X.@@@ooOOooOoX.XX",
"O;;;==;;=;>>>:%oo;2<1:,;:<211;;OO=;::::<:<::>>=Xo=>;;*:>;-*;;;*X",
"@>12>12121221:-@#1539451357552>@X;<3322112<111=X+>632>161>>352:o",
"@>1yyssy0yypy>%o@:5yffduiiyip71#+:1ypgiiysiy7:=XO;3wiiiirrisp61@",
"#130rshpyyppy:%.X:3ysspiiiypy3:#O:1qpyyyysggy>;oO;1iaiw0yiipy5>@",
"#1211331>3331:% .*1122>112113><o#;1<3>11277751:oo;>666>>;12331>@",
"@=;:;:>>>>:>::=..*:==;=;:::;:=:@#;<:;=-=::>21>=oo:>11>>--=;::;=O",
".oOOOoOO@@@@o@o..Xo@o#@#@@@@@@@o+##Ooo@o@#@#@@Ooo@##&#&O@o@@@oo.",
"o@@@@@@oo@@o@@@oo@@@o@ooo@#$++O#&&#@OOOX+##+++@@@@@####o.o@@@ooo",
"=:1>>>%o@=:=:=:;;::<::;@@;<1<:;><<::<>;O+116<<<<>:;=;>>@@=1::===",
"13373:=@@;>>333336662>=oo:154658622553:#+1606q666611>3<#@;212>11",
"3yyyy:=@@:1yyyyyppppy2;@o:1eadhhiaafa3:oo:6skhfshiw7731##:10yyyy",
"yyyyy>:#@>1yyyyypipiy2;Oo:2upffhigsgu1*.o;5uhshipirw051&%11yyy07",
"113:331@%111333>367331:@@266235637773>=.o*<553331363213&%112>52>",
"::::11:@@:>:=;;;:>><:<=OO<2>:::1<,>1::=X.*:<;;;>::::;>>%@;:><1>:",
"oo@@#%@oo@@@o@@@######OOO##O@@#%%####@@X.O@#@@O++#+X@@&@oo@@##*%"
};
