/* XPM */
static char *result[] = {
/* columns rows colors chars-per-pixel */
"64 64 87 1 ",
"  c #4F3311",
". c #523614",
"X c #563816",
"o c #5B3A15",
"O c #573B1A",
"+ c #5C3D1A",
"@ c #613E15",
"# c #603F19",
"$ c #5F401D",
"% c #644117",
"& c #6E4516",
"* c #63421C",
"= c #6A461B",
"- c #6D491E",
"; c #704614",
": c #744916",
"> c #794C16",
", c #734B1C",
"< c #7A4E1B",
"1 c #7C511D",
"2 c #5E4324",
"3 c #644521",
"4 c #684721",
"5 c #664926",
"6 c #6B4A24",
"7 c #674A28",
"8 c #6C4D29",
"9 c #724D23",
"0 c #784F20",
"q c #714F2A",
"w c #6D502E",
"e c #765125",
"r c #7C5324",
"t c #74522B",
"y c #7B562A",
"u c #7D592C",
"i c #715431",
"p c #785731",
"a c #7C5A33",
"s c #84541D",
"d c #88571D",
"f c #8A581E",
"g c #905C1E",
"h c #825623",
"j c #885720",
"k c #855925",
"l c #8B5B24",
"z c #815728",
"x c #835B2B",
"c c #8A5E2B",
"v c #905E24",
"b c #835E32",
"n c #885E30",
"m c #8E612D",
"M c #946125",
"N c #986427",
"B c #93642D",
"V c #9A662A",
"C c #97682F",
"Z c #9C692E",
"A c #856035",
"S c #8C6333",
"D c #876338",
"F c #8C663A",
"G c #8F693C",
"H c #926632",
"J c #956935",
"K c #9A6B35",
"L c #946B3A",
"P c #9A6E3B",
"I c #9E713D",
"U c #A16F36",
"Y c #A3743C",
"T c #AA773D",
"R c #AA793E",
"E c #956D40",
"W c #9C7242",
"Q c #A27643",
"! c #A57945",
"~ c #AB7C44",
"^ c #A77B48",
"/ c #AB7E4A",
"( c #B07D43",
") c #AF8046",
"_ c #AF814C",
"` c #B78243",
"' c #B58349",
/* pixels */
"WaaaGap257882txcmxOyrhlh$1fff>>;;ss>::s-0kror$lSS33ImAY!Y!LpDW!W",
"__^WP8batHYHyxn69zemMjr=Xdlgg>;>>>>ss:,<%+#9c69*3*9Yw9LI!YW8iW/_",
"/WD!~aa~DKYUSu3yyh9lmk1$.s1ff&o<s&sdfd@#=%9NBryzmHxKAtJLIIF7i^_W",
"EDiaFFD~aPKPttO4q=*yh1r-odoss>o:; sddd#:=rkBvxcBUKKJKAJHAtAAaEEE",
"DaiDFFnP8KFHeqe3=+.O*rr<o= 1s1o%;.ss<=@o.O+%99BKBHlxJbPPAaWFGGAG",
"EawWWPLt8JKmuxmBCmy%O%dh*%X&d1oo% oo .:l<<*o.O9eyBHKLSIYAAIFGa8p",
"Ep28pDDFnt83xUJmBZr*,,kr,o-=%oX%djs1=<sllvl**6r9xxmJSSIPAuJAAaiA",
"PGFAt~(YYLttJBJmBmr-9es11X1s:%%,lvMddllMll9<lBcexzcSue5pSSI~)'pW",
"IJLF5JIYYYx6xJBmmm=9krrkrosvM=%1lMvlllvjkr-vCBZvB6$2259yALLSwwwF",
"IFJJ8PPJHPStScxxxmyhBljr=XjMv%+hlldkvkkskh0NBBccmCmu5uLYSbwy9tp8",
"F8yb5SmFHuycBme*6kzllkr-%*lZM6%yvllr0%,<=*-BvmcyymmHmpSLSuPYIKJ8",
"m8AKxSFut3DKKKmymlhylkkr+*1B9,%+O*=h*Orky=*kkckxkBHBSB9mt4mPKIS8",
"3tJSmHJu5eHHKKmyBJlrxmlr+%rm,$*zcr,zo%BVMe9yr9$O6mmmymSPCAuweSt2",
"AcxxSKBmqtmHSHm*ymx9xlk6$6=l9$9xzrq*.yZZlyzkkke*umSxemmSmum9tm68",
"yuxnSHBmyxBHmxH4lx9*zvNx,rykq-9mBBr*O9cBclk6*ee3xHBS665*$433*ymu",
"uxyucyxxkmuxmmxyrq3OxBBmxxxm3k*xSmr*34-cmcykrmxyy4*yy*epmmxe2x5m",
"kxr33494ylyHBy*yymx6kxlBkmmmeS3mxmy443+xBmrxymHxemymy9ymBBCmmy6B",
"xx9**9r39clxxxqBmmxxumB8uxmm6H234u*Oee4cmxrzeccBemmmk9*MmZCeemku",
"$6rx9Oz4+*339xrKmmxx6ey*SmBm6xe4uSuuSmu436cqxxxcyxkmx6*4eyB9=xe+",
"rlBc9 rlz****m*eyexy2xm2JmHxxKYxeuxHHJHetxH6uxxzmye*$+*,=*l$+9e*",
"vCZB*OhcNcl*+c9ry-q8yKm3xSHITTYYu86KHJyx6yxu36uKmr4$*4yl<$*-erzr",
"clBk+=lNVh-*o69qe6xmIUY3tJJR`RRJa83SxS88bJJKxeHcBm3*kmlr,$,hrhlr",
"kk<=X9lVBr*%**3re44SHKJ86KuIRRYL6a6DAStxbJTJqrxcmm*%kNMrkrkrr<r<",
"90-o.<lNVk-hcclcy43txxbyww4SLYLI3t3555a5yKYS4qyxy,$rrlkhr1k<=%-r",
"%hl:o,kkll<rcBBcx34ySPu5wAAAAu782aatbtFq8PKHzHKx4*+++#=r1,%ooXX$",
"=jM<@<srsr++kBc-$*uSumAySaSywIAapWIIWLQx8KKFSJKlrzcNk%XoXo$ooXXo",
"%1jd==orjv,*ck944*mJCSwtJ))QAFEEPLEWQEYn3bHSHKBS4yBBclk,,e=1s=%%",
"osdd<o@llkz=#9+3t4xJKAy5a)!'F7waL!W~~!pt578xnHmc3*cvBk,#<j1ss11d",
".<sdsoo1hkh0o4#4*3BHJSw5tWW!LaiaaEW!!W8ALPJKx66q3#999l=ofdssss=>",
"o%ss>oo<krr-99zyxyKA8252aILGE^Wa8iFiww2aLQYPHxxur6+#,B,-s@ss<&o@",
"@oo  .o<drl*90xcmy5t98u8utwAGiiiwi^WFap8LYYPtSuccz93#*#%@.ooooo@",
":@@::@o,h9l+43xmm28mYIIRWAaGG7waiiaabFa7PKLK3nexux3vclk1%@@o o@:",
";s>1:,1=ejr+r$mmm3*ISST!!WLpDE^WWaaaEia238882txcHz+yyrjh$1fff1>;",
">>ss1:<1%+%6m69*3$eT8wHI!IWwiW____^EEiaaiJQHuxx68zevmjr-Xdlfg1;>",
">;ssff$%=%9NBrrrmSuKAtJLIIG7i^_W/WEW!aa/SKYKnu3yyx9lMk<%Xs1ff;o>",
": sddd%,=rkBlkmBUKKCKALSAtDDaELEEDwaFFF~uPKPte+49=%yhrr-Xdoss>o:",
";.ds<%%o.O+%eemCCCmyLAKPAuWFFLaGDDwDFFAPwKFHt6e4*+.O*r11o&.<sso@",
"% oo X-f1<*O +9eyCKJJSIYAAIFFawaFa8WWPLt8JKmuAmBCmk*O*kh*%.&d1oo",
"dds>=<sllll**6reuxmLHSPPAaLASatAWp58yADFAt75xIHmBCr*,,kr,o-=%@.%",
"lvMfdjMMMj,ekBlrkemmu96pSSI~)'pWPGFbt~(YYHt9CCCmBBr=90h11X1s,@%:",
"lMllllvljr-mNBCmme$2358uAJLAtwwSPLLF5LIYYYm5xJHmBc=9lr1krosvM=%1",
"lljjvjjslrrVBBmlxCmx3uPYHbwy9tp8WJHJ5IKJJLmwmmxxlvyzvlkr=XkMl=+h",
"vllr1*-e=*=BMmlyymmHmymJSyIYIJL9Fqpn8SSSHutmBmy*8zzlck0,%*lZl,%r",
"+*=z*Xrhr=*jkxxxkBHHSFtxt3mKIPS8n8xLxSHut5SKKKmyclzrckkrO=yM96%+",
"kr9y+%mCm<9yee$O6mmSuSSKJxuwtAt23tHFSHJx5eHJKKByHCkrcclrO%rv9**y",
"zr9*.zZZmkykkxe$ymSxexmBmxm8em68SmxxHJScqtmHcmm3yBkeklx-$6=c9%9c",
"BBy%o9cBlkk6*ee*xCCm484433343ynxtyxcmHBmyxmHcxH3lxq$yBBk9rrx949l",
"mmr33--cmmyxemmyy**yy3eymmue$x6mxxyymyxxkmzxHcxyy6*OxBBBxzxB4z3x",
"lxu4=3OxBBrxymSxrcycy9yBBCCBmy6mule33=e4xlxBBy4eymu4xxxBxxmSeS3m",
"5y4Oqe4mmxyxelmBtcBmz9*ccZBeemkxxzq$*9y*9cxxxueBBmxxxmB9ukmm6B*3",
"uSuummu334x9xxxmrzxcc6*-rrN83xe+*6rkeOy=+$*3ekeKSlxx4ey$mmJm6xt3",
"quxHHJHytmS8uxxucyr3+o*q=*c%o9e*ylBm9.rky**$*m*ryyxu2xm2KSCxxKYx",
"x86KHJyu4ucx*4xKBr3#*6zk9+*-erhrcVZN*XkmVMk*$x6yy6e5uJm3xHHIYYTY",
"u83SbS6qxLHKxtmmHB*3lll19%-hhhlrlcBk$*lNNy6*+699r6xmIYY5wKHT`RRJ",
"8u5DnDtbbJYJqyxmcv$*kVlhzhlr1erejz<=O,lVNr=**%*ye48BBKL88KuP~~YP",
"3t5537y6yLYS=qyxzq+rrlkk1rd<=%=h9r-o <lNNj-rmmlmy*$txxxut85SJYJI",
"2aatbtH8wKKSxJZx4*OO+*=r0,%oo.X@%rl,o,kklj9rmNBlx3*ymKx88xAAAu77",
"tWIIWLQb8PKHSHKlrzcNk*OXoo+#oXX@=fM1@<s1hh#+kBc4+3xHnAbtFaSatPAa",
"PLPWQIQb5uHFHJHm4zBBcls<,<=<d=@@%1dh=-ordv,*lke6*4SJJSwtJ))QAGWP",
"G!W~~Qpt585xmHSc4*cvBl,+,ksss<>dosdd>o@jlkz-$6+*t3xJJxu5b~!'F78p",
"bEW^!W8AJIJJu6q93*969j4ojjdsss;>o>sdsoo1skr9o=**3*HJKSw5tWE^Eaia",
"7iDww82aLTPYHxxye4$*,B9,r&<s>;@@o%ss<oX1khh=9eyexyJx8342aWLEL^Wa",
"ii^WFap7LYYPtnzxcz93#%#%@XXoooo@ooo ..X1krk*9rxmmu8t98u8pt7aEiii",
"aiaaDFa6PLLL3Syxzx3vccj0#@@o o@::@@:;#O<h0c+*3umm46AYII!WAaED7ia"
};
