/* XPM */
static char *result[] = {
/* columns rows colors chars-per-pixel */
"64 64 139 2 ",
"   c #3B2A04",
".  c #412F03",
"X  c #463105",
"o  c #543D05",
"O  c #583D06",
"+  c #5D4406",
"@  c #654706",
"#  c #674907",
"$  c #684907",
"%  c #6A4709",
"&  c #6A4C09",
"*  c #724E06",
"=  c #724F0A",
"-  c #6F5107",
";  c #745207",
":  c #7A5407",
">  c #7D5A07",
",  c #755309",
"<  c #7B5409",
"1  c #7E590A",
"2  c #835D06",
"3  c #8A5E07",
"4  c #815708",
"5  c #845C08",
"6  c #8C5E09",
"7  c #876205",
"8  c #8C6306",
"9  c #8F6C03",
"0  c #8B6309",
"q  c #926407",
"w  c #9C6707",
"e  c #956B06",
"r  c #9B6C06",
"t  c #936509",
"y  c #996609",
"u  c #946809",
"i  c #9A6C09",
"p  c #9C7105",
"a  c #9C710A",
"s  c #A16F07",
"d  c #A16F0C",
"f  c #A47305",
"g  c #A97603",
"h  c #A77D03",
"j  c #AD7C04",
"k  c #A37209",
"l  c #AA7209",
"z  c #AC7B09",
"x  c #B37D06",
"c  c #B97D07",
"v  c #B07709",
"b  c #B47C0A",
"n  c #BB7D0A",
"m  c #BE7C10",
"M  c #C27E06",
"N  c #AD8205",
"B  c #B48205",
"V  c #BB8306",
"C  c #BD8904",
"Z  c #BB8309",
"A  c #C28507",
"S  c #C48A05",
"D  c #C98C06",
"F  c #C38608",
"G  c #CE830F",
"H  c #C58A08",
"J  c #CB8B09",
"K  c #D58E06",
"L  c #D28E08",
"P  c #C59104",
"I  c #CD9205",
"U  c #CE9E06",
"Y  c #D39305",
"T  c #DA9505",
"R  c #D49B06",
"E  c #DC9B06",
"W  c #D79308",
"Q  c #D99409",
"!  c #E78B08",
"~  c #E49705",
"^  c #E29B06",
"/  c #EF9E03",
"(  c #E19908",
")  c #E99E08",
"_  c #CBA107",
"`  c #DEA406",
"'  c #D1A903",
"]  c #D6B704",
"[  c #DCB505",
"{  c #D3BC04",
"}  c #DBBC05",
"|  c #E3A205",
" . c #EBA405",
".. c #E4AA04",
"X. c #EBAA05",
"o. c #E6A30D",
"O. c #F3A506",
"+. c #F5AB06",
"@. c #FAAC06",
"#. c #E6B505",
"$. c #EBB305",
"%. c #E5BE04",
"&. c #ECBC05",
"*. c #F2B205",
"=. c #F9B305",
"-. c #F4BC05",
";. c #FCBD05",
":. c #D1C603",
">. c #D9C703",
",. c #D5CB04",
"<. c #DFCB06",
"1. c #DDD404",
"2. c #DCD903",
"3. c #E5C303",
"4. c #ECC304",
"5. c #E4CB05",
"6. c #ECCB04",
"7. c #F5C305",
"8. c #FCC305",
"9. c #F3CB05",
"0. c #FDCA04",
"q. c #E4D305",
"w. c #EBD605",
"e. c #E4DB05",
"r. c #EDDB05",
"t. c #F3D204",
"y. c #FCD404",
"u. c #F2DB04",
"i. c #FEDC04",
"p. c #E7E202",
"a. c #ECE404",
"s. c #EEEA04",
"d. c #F3E504",
"f. c #FCE305",
"g. c #F2ED03",
"h. c #FDED03",
"j. c #F5F302",
"k. c #F9F503",
"l. c #FDFC01",
/* pixels */
"l.l.l.l.l.l.l.l.l.l.l.l.l.l.I 8.y.` @. .V V 2 o k w k :   6 = M M 4 y = m z G G 2 Z ) e T D | i.i.X.l.l.0.l.l.l.l.l.l.l.l.l.l.l.",
"l.l.l.l.l.l.l.l.l.l.l.l.l.y.L k.l.E @.@.B J 7 + z n 3 $ X < = % = 4 = = m 0 u 0 @ j T 2 K L T =.=.R l.l.h.i.l.l.l.l.l.l.l.l.l.l.",
"l.l.l.l.l.l.l.l.l.l.h.l.k.k.+.g.t.H *.O.V W L a o.b 4 1 , t % 5 d t d = 1 + = 5 @ z C 2 R O. .8.*.o.k.k.l.l.l.l.l.l.l.l.l.l.l.l.",
"l.l.l.l.l.l.l.k.l.j.j.t.j.j.C d.6.x M D y D F u b , & 0 , < % , & O & & 5 1 1 a a J A 3 Q $.T w.-.6.j.k.d.j.j.j.l.l.l.l.l.l.l.l.",
"l.l.l.l.l.k.k.l.k.l.l.k.j.j.H t.r.D Q ) D L F u q : 1 d i 8 l l u $ , : t 0 0 k z H p 2 ) &.I d.r.9.k.k.j.j.k.l.l.j.l.l.l.l.l.l.",
"l.l.l.l.l.l.k.k.j.j.9.d.g.s.z o.&.x Y ` x L Z 8 6 2 y t 7 , i y 8 > t , 5 t y t y b r 7 | E x $.+.T p.s.g.j.l.j.j.j.l.l.l.l.l.l.",
"l.l.l.l.l.l.j.j.j.j.9.d.g.s.C ..q.T D D 8 V V 3 q > i 6 , , 3 F b Z z ; , 0 5 u i H z 8 R A u ..w.B 3.s.d.g.j.s.j.j.j.j.l.l.l.l.",
"l.l.l.l.j.j.j.j.g.j.k.g.a.a.I &.r.Z D ^ s A J n 3 e i s t 3 i Q b y ! b k i i 8 f Q c x E  .K a.d.r 4.g.6.g.g.g.j.j.j.l.l.l.l.l.",
"l.l.l.l.l.j.j.j.j.s.u.p.2.2.S ` <.S I H 8 j f f r q i f 8 - > 0 o   ; 3 q 5 8 H z V q f U ( r } e.> ..p.p.p.s.k.j.s.l.l.j.l.l.l.",
"l.l.l.k.j.k.g.j.s.h.d.3.r.a.Y 4.r.O.Z D f B Z x W A b c M d Z Z 5 u D A F x c K k b c p Q +.V 6.f./ d.h.p.6.j.p.s.j.j.j.j.l.l.l.",
"l.f.l.j.j.j.g.g.p.6.l.4.6.h. .5.q. .O.| Z A Z p A b j z c Z E ) H D Q K Q J A A b x A S R  .~ w.f. .e.1.$.l.a.w.j.t.t.k.j.h.l.l.",
"0.h.l.d.j.g.u.6.p.p.4.d.1.{ B ` [ x I ` c x r f Z 7 2 e 7 7 7 8 f s V e A B 8 b e f A B B j R { ,.] :.{ g.#.%.p.g.u.d.k.u.l.l.l.",
"l.l.k.j.j.g.p.s.a.h.r.>.h.6.V -.=.Y D T x T Y _ E Y ( ^ W W Q E O.+.+.I ^ ` D E H S ) R T E #.t.6.V X.k.,.%.a.p.a.s.g.j.j.k.k.l.",
"l.l.k.j.j.p.4.7. .d.e.1.&.k.B C =.X.` | f  .O.` $.A ^ &.$.O.E I ;.=.-.Q E Y D D I Z *.S S E E  .8 2 k.3.' f.d.e.d.a.s.j.g.l.y.l.",
"X.H Q -.7.` B f 9  ...} P N 8.N R R R #.Y | Z q I q j D Q  .E E T W Z C I Z Q Z C O. .Z Y $.|  .Y 0.f j j X.E P Q C p B Z @.Y I ",
"f.;.;.4.u.*.w.r.e.f.f.:.w.N #.h.-.*.+.t.] r.9.} r.~ $.d.w.0.;.i.i.k.9.6.w.#.q.u.<.w.q.[ =.8.D / h.8 g 8.E 5.3.` #... .9.a.d.j.0.",
"i.;.8.w.g.+.~ e.} 6.w.] t.*.*.-.h.#.N 6.:.f.f.e.p.9.$.u.4.;.8.f.8.h.d.a.9. ...$.` %.5.E 8.f q h./ S 8.=.[ q.r.<.u.q.#.r.6.9.l.i.",
"E E  .Q J j 8 Y e Z | Y $.R T _ N 8.N I } .. .9 f V ..&.-.T J X.I R +.Z B p C R P E  .j h f 0.K  . .X.R B  .O.S V T Z I Z V Y T ",
"Y `  .$.&.^ V $.| O. .f ^ ` X.=.C B k.-.1.e.d. .4.4.d.j.j.k.l.l.l.y.l.g.j.s.d.a.e.d.h.' 3.k.2 8  .T R S D +.Z I D A Y T R -.=.;.",
"E Q Q Q ^ ^ K ^ _ Y T x E D I =.-.V 6.k.>.p.h.p.s.s.s.g.j.k.k.l.l.l.j.j.j.g.s.p.p.a.&.,.k.X.Z 6.t.&.^ T R ^ A D ^ J ` ^ J @.O.O.",
"8 2 7 8 e > 8 Z f r x Z ` I x ] ` B ] 1.u.7.p.p.6.r.g.j.d.k.h.0.l.l.l.u.j.d.r.g.p.%.%.d.:.:.] >.{ R x B B V f e B 8 x A i Z r s ",
") ^ V c z z b C p Z A V ) O. .q.q. .d.6.4.l.6.p.g.g.j.j.k.l.f.l.l.l.h.k.l.t.t.h.w.a.l.$.q.q. .d.q.~  .T V D x x H A J Q Y W I J ",
"Z Z s M c b A W c Z B f D B O.r.4.Y a.r.3.g.h.s.j.j.k.k.l.l.l.l.l.l.k.j.j.j.j.g.a.j.6.p.h.d. .f.9.V O.R p Z x k K c z F A D y > ",
"8 > & q f e u i k f z 8 J I S <...S 1.2.p.u.s.j.j.j.j.k.k.l.l.l.l.l.l.k.l.k.g.g.j.s.p.p.p.` 2 e.} p ^ U k q c j A u 3 8 7 ;   + ",
"Q i 5 u k i i 5 c L A s ^ D V u.#.I a.a.g.j.j.g.k.j.j.l.l.l.l.l.l.l.l.k.l.k.j.k.j.g.s.9.s.4.r a.a.I X.T b c E f 8 i i f b ! y b ",
"F 3 : , 3 r > q 3 c V 3 D H T q...C a.g.d.t.g.j.j.k.j.l.l.l.l.l.l.l.l.l.j.j.j.j.s.j.g.a.s.3.B t.o.e C Q 8 z H e u 5 8 , ; l Z b ",
"y k , 7 t t 5 6 8 Z K Z ` Y x &. .h g.g.s.t.k.k.l.j.l.l.l.l.l.l.l.l.l.l.l.l.j.j.j.j.j.j.g.a.T *.$.B ^ | 7 r b y u t t 5 , 0 5 8 ",
"l l 0 u d 1 , t 8 H K S ) Q D r.9.P g.j.k.k.k.k.k.j.l.l.l.l.l.l.l.l.l.l.l.l.j.l.l.k.j.j.j.j.9.u.d.I &.^ 3 r H z k 0 u q : , # t ",
", @ < , 0 = , b u F J e A M B 6.a.C k.j.t.j.k.l.l.l.l.l.l.l.l.l.l.l.l.l.l.k.l.j.k.k.k.d.j.j.4.-.w.E #.Q 2 V I i d 1 , 5 $ @ O & ",
"4 % y = 1 4 b o.a L Y Z O.*.H t.g.@.k.k.k.k.k.l.l.l.l.l.l.l.l.l.l.l.l.l.l.l.l.l.l.l.l.k.j.l...=.8. .O.T 3 H z @ 5 , O 4 < d t d ",
"% % < X % 0 n z + 8 D B @.@.T k.k.I y.l.l.l.l.l.l.l.l.l.l.l.l.l.l.l.l.l.l.l.l.l.l.l.f.h.l.l.R =.=.T K Y 2 T v @ 0 u t m , = 1 = ",
"G , 6 . < i w l o > V Z O.@.| i.;.Y l.l.l.l.l.l.l.l.l.l.l.l.l.l.l.l.l.l.l.l.l.l.l.l.l.0.l.l.X.i.i.| A Q i ) Z 4 L H z b = t 1 m ",
"m 4 t = v z J L 2 Z  .e Y D | i.i.X.l.l.0.l.l.l.l.l.l.l.l.l.l.l.l.l.l.l.l.l.l.l.l.l.l.l.l.l.U ;.i.` @.O.Z Z 2 o f s a <   6 = G ",
"= 4 = , b q u 3 @ v E > K K T =.=.R l.l.k.i.l.l.l.l.l.l.l.l.l.l.l.l.l.l.l.l.l.l.l.l.l.l.l.y.L k.k.Q @.@.x J 7 + z n 3 $ X < = % ",
"d t d < 5 O ; 3 @ j H 3 Q  . .8.@.o.k.l.l.k.l.l.l.l.l.l.l.l.l.l.l.l.l.l.l.l.l.l.l.l.h.k.k.k.+.d.t.H *.O.V Q J a ) b 4 1 = y % 4 ",
"& o % % 4 < 1 i i J Z 8 Q #.E w.&.6.j.j.d.j.k.k.l.l.l.l.l.l.l.l.l.l.l.l.l.l.l.l.k.k.j.y.k.j.C s.6.c M H e J H u b = * 7 , 1 % = ",
"u & = , u 8 0 k g H i 2 ) &.I d.d.4.k.j.g.j.l.l.k.l.k.l.l.l.l.l.l.l.l.l.l.j.l.j.l.k.k.k.s.j.P 9.w.I K ) H L D 8 q ; 1 k i t l k ",
"0 5 t , 5 y y u y Z r 7 ^ ^ B $.+.T a.g.g.j.j.j.j.j.l.k.l.l.l.l.l.l.l.l.l.l.k.k.k.j.t.d.j.s.N  .&.b Y ` Z J Z 3 q 5 t t 5 , d y ",
"b Z v , , 0 2 u y D j 8 E Z e ..w.B 3.s.a.g.j.g.j.j.k.k.l.l.l.l.l.l.l.l.k.l.k.j.j.j.t.d.s.a.C ..w.R D D 7 V c 3 6 4 i 3 , < 3 F ",
"b t ! v f a e u a Q c b E X.D p.d.r 4.g.w.s.j.g.k.j.j.l.l.l.l.l.l.l.l.k.l.j.j.j.g.g.j.g.s.a.I #.w.H H ^ f A L c 3 r i d u 5 i Q ",
"o   * 3 q 5 8 H z c q s U ^ p } e.2 ` a.p.p.s.j.j.s.j.l.k.l.l.l.l.l.l.l.l.j.j.j.j.s.u.p.2.2.S ` <.S I D 8 z k f r u e k 8 ; 1 7 ",
"1 i J F A x c L k B Z p Q +.Z 9.i. .d.h.p.6.k.p.s.j.j.k.j.k.l.l.l.l.l.k.k.k.g.j.g.h.g.3.r.a.Y 4.r.O.Z D f B Z Z W M x Z M s Z Z ",
"P I Q L Q L A H x x D V T  .( q.d...2.q.$.l.d.w.h.t.t.k.j.h.l.l.l.i.l.j.j.j.g.g.p.6.l.&.3.f. .q.5. .O. .Z A Z p Z x z z c Z ^ ) ",
"k i V i V b 8 B e f V Z x N T ] >.[ :.{ d.%.%.p.g.r.d.k.u.l.l.l.0.h.l.d.j.g.r.6.p.p.&.d.2.] B ..] B D ` B x i f Z 7 2 e 8 7 2 8 ",
"O.+.@.I ^ ` D ^ D C ^ R E ^ #.t.6.V X.k.,.#.a.p.a.s.g.j.k.k.l.l.l.l.j.j.j.s.a.s.g.h.r.>.h.6.B 7.*.Y D E x T Y _ ^ K E ^ R Y R E ",
";.=.-.R E Y D D I B +.D S E R  .8 3 k.3.' h.d.2.a.d.g.g.j.k.y.l.l.k.l.j.j.s.4.4. .d.e.1.-.k.B C =.X.` | f O.O.| $.A ^ &.X.O.E Y ",
"Q W V V I Z Y V S O. .V Y $.|  .K 0.f h j  .R P R C p Z Z +.Y I X.J T -.&.| Z k 9  ...} I N 8.N R R R X.D | Z e I 8 j H Q  .E ^ ",
"i.k.9.6.r.#.5.u.5.w.q.[ =.8.D / h.q h 8.E 5.%...#...| 9.a.d.j.0.f.8.;.&.r.*.w.a.q.f.d.>.6.N [ h.-.*.*.t.] w.9.} r.~ *.d.w.0.;.i.",
"8.k.d.a.9. ...$.` 3.5.^ 7.g 8 h. .D 8.=.[ q.r.<.u.q.#.u.6.t.k.i.i.;.8.w.d.*.~ r.} 9.w.{ t.$.*.-.h.#.N 6.>.f.i.e.a.6.$.u.4.;.;.f.",
"I Y +.Z B p V R P E X.x j f 8.Y  .| $.Y Z  .O.C c T Z I Z Z Q T E E  .Q D j 8 I q Z | Y #.T T R N 8.N I } ....q f C ` -.-.T D X.",
"l.y.k.j.j.s.a.d.2.d.d.' 3.k.2 q X.T R D S +.V I D S D E R *.@.;.Y ` O.$.&.^ A $.| O. .f | ` X.=.C N k.&.1.e.d. .4.4.a.j.j.l.l.l.",
"l.l.k.j.j.g.s.a.p.a.%.,.k.X.V 6.t.$.E T R ) S S ^ D ` ) Y +.+.O.E Q Y Q ^ E K E _ Y T x E D Y *.-.C 6.h.>.p.h.a.s.s.s.j.j.k.l.l.",
"l.l.l.u.k.d.u.g.p.#.#.g.>.:.[ :.} Y N B Z V f r x 8 x V r V r f 0 2 7 7 e > 8 Z f r x B ` I c [ ..B ] 1.a.-.p.p.6.r.j.j.d.k.h.0.",
"l.l.g.k.k.t.t.g.w.g.l.$.e.1...i.q.(  .T C A x b H A L Q L Q I H ) ^ Z Z z b x C p Z D V | O. .q.5.X.d.6.&.l.6.p.g.s.j.j.j.k.f.l.",
"l.l.l.k.k.j.j.s.s.j.6.p.h.d. .i.9.Z +.T p c x f L c b F F D e 2 V V s M n x A Q b Z B f H Z O.r.4.Y a.r.3.g.h.g.k.g.k.k.k.l.l.l.",
"l.l.k.k.l.k.s.j.k.p.p.p.p.` 2 e.} e ^ U s e Z z H 8 2 8 3 * . o 0 > & 8 k r q r k f g 8 J I S <...C 1.2.p.u.s.j.j.j.k.l.k.l.l.l.",
"l.l.l.j.l.j.j.l.g.g.s.9.s.3.p d.r.I X.E b x Q f u i d k v ! y z Q i 5 u k a y 7 b J A s T D C u.&.I d.a.g.j.g.j.k.j.j.k.l.k.l.l.",
"l.l.l.l.k.j.j.j.g.j.g.d.s.3.B t...e A Q 8 x H e u 1 0 , = v Z b F 3 < , 3 y 1 8 8 c A 3 D D T q...C a.g.d.t.j.j.j.j.l.j.l.l.l.l.",
"l.l.l.l.k.l.j.j.j.k.j.g.g.a.T *.$.b E | 7 r b t 8 i t 5 , t 1 t y i , 0 t t 2 3 0 Z L x ` Y x &.| h g.g.d.t.j.k.k.k.l.l.l.l.l.l.",
"l.l.l.l.l.k.j.l.l.k.j.j.j.j.7.r.d.I &.) 2 p J z k 0 t y , , & 0 l l t u s > : t 8 J K D ^ Q D r.9.P g.g.k.k.k.l.l.j.l.l.l.l.l.l.",
"l.l.l.l.l.l.l.k.l.k.j.d.j.j.6.-.w.E #.T 7 V J r i > , 5 % % o & , @ 1 < 0 = ; b u H D e H M B 9.d.C j.j.y.j.j.j.l.l.l.l.l.l.l.l.",
"l.l.l.l.l.l.l.l.l.k.l.l.l.k...*.8. .O.Q 2 H z @ 3 ; O 5 1 d t d 4 % t = 4 4 b o.a J W Z O.*.H t.g.@.l.k.k.k.l.l.l.l.l.l.l.l.l.l.",
"l.l.l.l.l.l.l.l.l.l.f.h.l.l.R =.=.T K Y 2 E v @ 3 t q b = = 1 = % = < X $ 3 n z + 8 J N @.@.E k.k.I y.k.l.l.l.l.l.l.l.l.l.l.l.l.",
"l.l.l.l.l.l.l.l.l.l.l.0.l.l. .i.i.| A T e ) Z 5 L G z b = t 1 M G = 6   : a w l o 5 Z Z O.@.( i.8.I l.l.l.l.l.l.l.l.l.l.l.l.l.l."
};
