/* XPM */
static char *result[] = {
/* columns rows colors chars-per-pixel */
"64 64 53 1 ",
"  c #88BFEC",
". c #85C0EE",
"X c #8BC3EE",
"o c #95C3E7",
"O c #98C3E7",
"+ c #94C4ED",
"@ c #9BC6ED",
"# c #96CAEE",
"$ c #9EC9EE",
"% c #86C2F3",
"& c #8CC5F1",
"* c #8EC9F9",
"= c #93C6F1",
"- c #99C6F1",
"; c #95CAF2",
": c #9CCCF2",
"> c #92CEF9",
", c #9DD0F5",
"< c #96D0FA",
"1 c #9AD1F9",
"2 c #A9C7E7",
"3 c #AFCAE7",
"4 c #A2C6ED",
"5 c #A3CBEE",
"6 c #ACCDED",
"7 c #B2CEEC",
"8 c #B8CEEB",
"9 c #ADD1EF",
"0 c #B4D1EE",
"q c #BBD2EE",
"w c #A4CDF2",
"e c #ABCEF1",
"r c #A5CFF8",
"t c #B1CFF1",
"y c #A5D1F4",
"u c #ACD2F4",
"i c #A3D4F9",
"p c #ACD5F9",
"a c #ACD9FB",
"s c #B4D3F2",
"d c #BBD5F2",
"f c #B7D8F7",
"g c #BCD9F5",
"h c #B2D7F9",
"j c #B8D7F8",
"k c #B4D9F9",
"l c #BDDBF9",
"z c #C1D5EE",
"x c #C0D7F2",
"c c #C2DAF5",
"v c #C8DBF6",
"b c #C2DDF9",
"n c #C5E0FC",
/* pixels */
"dses6uw455$$yywuw5ek060sdqgdqdxvxtxdqzxzzvzzdcvdlxld00ssesgs6sss",
"dsseeupw55y$iw$55ywk0637dqxdq8xxxxxx8d88zczzccdddtddqdssess006ss",
"ttse6pup9yw$w@4559aks7398tdddcvxxdvbd888zcvvvdd88t8sdbds7s077sse",
"6766ukuu5$$$5#$w6uplg000sddxvvzvxdgvxqxxzcqzdcdgt78gbgd06ssqst7e",
"ssdjuhew$$$w::w59s9lg779ddgxdx888dddcccdq8qxccdddddlgtsttss7dttt",
"sss76ypw$$O,:$y9u09lk6030dcgtqzq88dgccxxqqdxvvxddddddt0sste7sjss",
"tt765wpiy#,w$wusufffg0qqqd8d8x8q88qcxddxddbcxddddjj78770se5ssdjs",
"e6s5ew:wywy559a90ushfg0qst378t8xxqqqdqd8ddxcxdddsjj6t8s06sssssst",
"s6u555@$ayuu9w$96ssglfgdd8ttdddvd8qqsq000sdsdqsgjsssg0qggss6ttts",
"s0ue5555uka99w$wus0sgks0dt8tggcq8876770gsssss67ssflfbls0dsss7ss7",
"ss7699669fa5$y9wssqsgussdsdtddq3337056essueus360ssgffggggsddtss7",
"76070966uay#$yuuss08gssdddjjdgt252663e5usewehs7s0s069s0g8dssttss",
"sdd00055wpy5599uess0d0lddggfshsse5453w4ww665psssessss00g0qdstddj",
"gddds95wypppww5y9sddqlnsdsdseewr4w4455ywweuw5ht6tes0qgglf0738sdj",
"ld000uupup9yw:uu00ddqbd8sse6ew44@wrw6wuw$4ywwre5es00dsgllg008ttx",
"cs770ssspp65yukggddbqgsteee444eeww4@$www-:w:::phsdsssgsqddqqsdsg",
"d70g0s0haussffslgggggqsueeww44$wrw+@555y;&#,;,ykjjjglgqqddddgqqq",
"bdddds0s99ssssfflfsss9skpere@4:ww:$:#,#,<&&;;$,asstjdddddqdggddl",
"bggggg0s090sgssffsff999uspuw44ruw4#o#&X#X.&<i$:ijssgdqddgddddddl",
"bncssgdgdgdggfgk09fk669u5euaeeee5$o+XXXX#;%;,,:wjsdg0ddcggbbbnbb",
"dqq800ccd0fsssskusfu66phu6uuk9555:+&....##&X;i:,us0dggllcglcbddd",
"0qqq80gdq099s0gssu6u6weu596uaa55:,:XX.&&#,#;;:$,upkgu0gddqddqqqd",
"g0ddqqqq0qs0000s9uue66uhu9w99aw,,#:+&&X&,i,<=:wryrfk990sdqqq08qx",
"qqdqqdd8dddds39suhpuu99su599ww::ii:#;##;<,,i;;wi-w5ssu0ddqdqs8qd",
"q0qqqdx8qxq039ssska96s5upwery5wo#5ai,;1*%;w#o=:1@@5s87sd00ddd8gd",
"g00qxzdqqdd090sssu96656uew5yp99wwyui,,<;X;:5$=-w@$wu666esgddqqqd",
"qsdqdxzddddssss003655uuuwwwru9ss95wai:#++=-ww--:::wrp66t68ddddxx",
"qdddgxxxqqd00sss0q35eu5euuw6669s5ww5y-::o;-ww:-@44wreu7t70ddgddx",
"qdgdgdqxqqq07sjs9s66ew56hkuh66eere5wa5$y@;-4ww:o@5yyeust88txdddt",
"qqcdddqzqqqq00j7tssseeewfsse6hseteu6pu5y-:@#wu4@Owup6tsettdxxvqz",
"qqddqqq8qzqqqdssstdsstthsue6esestte6u955-#o@wyw4$$uk57sst6qdxxq8",
"x0gd8qzzzvzxdlcddgdjdehjesqueest87es9p5$w:-@wyww55pk55ujs8dqxxvx",
"gqxx8qzqzvxxccvggggdd0ss6sgsttgtsseseuw$54$$iyy9wwwk969qd0xgqdxv",
"ddcx8qq8zxzxcgdddsdd0sssuss077thdssteupe5w9#y5$56wek0637dqxdq8xc",
"xdcbzqqqzvxvcgq88t0qdbjs6ss8tssetet59pupuy5#y45$5euks07300ddxxxx",
"xdxvxdxzzzxxxxdct70dccd77ss70t6t677s6huu55$::#$56uhlg0000ddxvvvx",
"8dddcccq888xcccddddbd0ss7ss7gseetsjduhu5$@$y:$w5us0lf990ddxdqx8z",
"88ddbcxdqqdvccxdgdhdd08stt6esjdssss76ypyw@O5$,w9099ff000tdcdtx8z",
"d88xxxqgddgvvqddddd70770se6ssddsse765wiiy#w,$wusukskfs00dd8d8d88",
"x8ddqdq0dddccdsdtjhts6086sssssste6s5ewwwy,y55ua90ssklsqqst778t8x",
"q8q0000q0sdddddgshdsdsddgsh3ssttstee5w$5pyus9w5999sdlgdsdtttdddv",
"888t700sdsset67sdjffllfds0s77tststue5555uka9w4$59sqffffqs877gggq",
"76783eussueus660tddgggdggdgg7ss77st699699fu,:wye9sqsgsssdsdddg86",
"2266565uueeuh070ttt6ussd0dssstsst607396wuay$$uuuss09gsssddfjdd82",
"e5453w5w55eehsss0us0ss0gdqssssjddqd87664yay5599uusd00dlsgdjjsshr",
"444555ewwee55peee9sdqdgll0338sdggdddsu55yyua55wu9sddqnnqddddueet",
"$wrw5wyr:5wrwre6uss0dsdllg07tstxgdsssspapu9wywwus8ddqldtts64ew44",
"ww$@555w$-w:::uhsds0sg0sddqqqssxcs777sssauu5yuhgddgdqgdteeew44ee",
"wr+@$yy,#&:<,,yffjslggqddqddf00dq0qgqsssaussffsgldgsgsssuwee44$4",
"w::-$$$,>&&;#;,asssgdgqdddgccddbbqfsfs0999ssssflljsfs0skuurw4@ww",
"w4@+#&&#X.&<,,:yfssgddqdddddgddbbddggdqs000sgssffffsue9euper45rp",
"5$o+X.XX##X&i,;yfssgtddcgglbbbbbnnbsfdgdggskgggk09gk36eu5eekuw6w",
"5:+&....$#&X#,,,us0dgglcgclbcxddfqq00qgc00sfssffuufu66hhu69uhu55",
"$,#&%XX&#$;>;$$yuhfk0sjdddddqqqq0qq8qqddq00900sssueu6e6u5w99ph5$",
",::++&X&,1,;#,,yiekhu6ssdqdqq7qddsqcqqdq000s00ss9uu669uhp9w9uaw,",
"ii:+;;#;1,y1;:,y$45ssusdqqqd0qqqqqqqqdsqqdgqs99suhpuuu9uu699wy$$",
"#,ay,:<*%<y#o+:r@@ws760dttddd8xdq00qqdcqqxds39sssshe596upwwru5w+",
"5uyi,11&X;$5$=::@@wu966tdddddqqdd00qdzqqqdq07ssssuu5666uewweueu5",
"95yai:#++=-ww-;::$wuuutt28dxddgcdqgqdxqdxqqss0s009636ueuyw:wu99s",
"55www::-++#wr--@w$wwee7e6dddxdqdqqdgxcqcdqds7sss0q65wu5eupwe999s",
"uewwp6$i@=-$5w: @5uwesst78ddqgqdqqdddxqxq8q0tsjs9066e55ehkhs9969",
"euu5pe5w-:@#wu44Oyypeesettdgxbqqqqbdddqq88q88sj80ssueeeegste6utu",
"7tt6u655--+@wy54$4uk56ht77txzzqqqqddqqqzzzddddstjt0shsea9steehse",
"8tesup6:w:@@wueww5uk55sdt8dqzcvcd0ddqqzzzvxddgcddgggd6sfesseees7"
};
