/* XPM */
static char *result[] = {
/* columns rows colors chars-per-pixel */
"64 64 226 2 ",
"   c #030202",
".  c #0A0604",
"X  c #0B0806",
"o  c #080708",
"O  c #0D0C0B",
"+  c #160B06",
"@  c #120E0B",
"#  c #14110E",
"$  c #1C130D",
"%  c #0F0E1A",
"&  c #151412",
"*  c #1A1512",
"=  c #1C1914",
"-  c #18171A",
";  c #1D1B1A",
":  c #22170D",
">  c #231C15",
",  c #2A1C13",
"<  c #221D1B",
"1  c #2A1E1A",
"2  c #242216",
"3  c #25211D",
"4  c #2D2619",
"5  c #2B241C",
"6  c #34251C",
"7  c #34291E",
"8  c #1D1D24",
"9  c #211F24",
"0  c #1F2020",
"q  c #262423",
"w  c #2B2624",
"e  c #2E2A22",
"r  c #28262F",
"t  c #2D2B2A",
"y  c #322721",
"u  c #332C23",
"i  c #392C24",
"p  c #322E2B",
"a  c #3C3226",
"s  c #35322C",
"d  c #3A322A",
"f  c #38352A",
"g  c #3A2D30",
"h  c #3C3533",
"j  c #383737",
"k  c #3D3B33",
"l  c #42352B",
"z  c #453B2C",
"x  c #4A3B2E",
"c  c #433B33",
"v  c #433835",
"b  c #4A3E34",
"n  c #423E3B",
"m  c #523F35",
"M  c #49422F",
"N  c #464035",
"B  c #45413B",
"V  c #4C433B",
"C  c #4C493B",
"Z  c #544637",
"A  c #51463E",
"S  c #534B3C",
"D  c #383841",
"F  c #413E4A",
"G  c #3E4342",
"H  c #4B4441",
"J  c #484647",
"K  c #4D4A44",
"L  c #534B43",
"P  c #5B4E45",
"I  c #564B48",
"U  c #514C4B",
"Y  c #585145",
"T  c #55524C",
"R  c #5B534C",
"E  c #5E594C",
"W  c #4E4D50",
"Q  c #534D53",
"!  c #5B5553",
"~  c #5E5A51",
"^  c #5A575A",
"/  c #62554A",
"(  c #655A4D",
")  c #6A5B4D",
"_  c #635C53",
"`  c #675B57",
"'  c #6C5D54",
"]  c #645C5B",
"[  c #725F54",
"{  c #6C6455",
"}  c #65625A",
"|  c #68655B",
" . c #6C635C",
".. c #71635B",
"X. c #746A5C",
"o. c #796B5E",
"O. c #5A5A60",
"+. c #656561",
"@. c #6C6664",
"#. c #6E6A63",
"$. c #6A676D",
"%. c #736665",
"&. c #736B64",
"*. c #7B6C64",
"=. c #736D6C",
"-. c #796E6B",
";. c #6F7166",
":. c #767164",
">. c #7C7365",
",. c #77726C",
"<. c #7C736C",
"1. c #7F796E",
"2. c #6E6C74",
"3. c #736E72",
"4. c #747272",
"5. c #7A7473",
"6. c #7D7A75",
"7. c #747278",
"8. c #7A7579",
"9. c #7D7A7C",
"0. c #81736C",
"q. c #877869",
"w. c #827A6D",
"e. c #807672",
"r. c #837C74",
"t. c #8B7973",
"y. c #847C7B",
"u. c #8D7F7B",
"i. c #917F76",
"p. c #8C836D",
"a. c #8A8274",
"s. c #86817B",
"d. c #8B8579",
"f. c #8B837C",
"g. c #92857C",
"h. c #95887A",
"j. c #7E7A81",
"k. c #827D82",
"l. c #8C7F80",
"z. c #7D8280",
"x. c #848283",
"c. c #8B8482",
"v. c #8E8984",
"b. c #858188",
"n. c #8A8589",
"m. c #8D8A8B",
"M. c #938682",
"N. c #938A83",
"B. c #9A8D84",
"V. c #9A8D87",
"C. c #938D8C",
"Z. c #9A9387",
"A. c #94918C",
"S. c #9B938D",
"D. c #8E8A91",
"F. c #918E90",
"G. c #949393",
"H. c #9B9592",
"J. c #9D9A95",
"K. c #989599",
"L. c #9D9C9B",
"P. c #A3958C",
"I. c #A9968B",
"U. c #A29792",
"Y. c #A99792",
"T. c #A39B94",
"R. c #AA9C93",
"E. c #A39D9A",
"W. c #AA9E9B",
"Q. c #A4A096",
"!. c #A4A19C",
"~. c #ACA79B",
"^. c #ABA39C",
"/. c #B7A89C",
"(. c #A39EA3",
"). c #A6A3A2",
"_. c #AAA5A3",
"`. c #ADA9A5",
"'. c #A6A7A8",
"]. c #ABA6A9",
"[. c #ADABAB",
"{. c #B7AAA3",
"}. c #B1ABA4",
"|. c #B2ADAB",
" X c #BDB0A2",
".X c #B4B1AD",
"XX c #BAB2AD",
"oX c #B4AEB1",
"OX c #B5B3B3",
"+X c #BBB5B3",
"@X c #BCB9B5",
"#X c #BBB6B8",
"$X c #BDBBBB",
"%X c #C2B8AB",
"&X c #C2B7B0",
"*X c #C2BBB4",
"=X c #C3BDBA",
"-X c #CCC1B5",
";X c #C4C1BC",
":X c #CAC3BD",
">X c #D1C2B7",
",X c #BDBCC0",
"<X c #C3BEC2",
"1X c #C5C2C3",
"2X c #CBC6C4",
"3X c #CCC9C3",
"4X c #CBC7C9",
"5X c #CECBCD",
"6X c #D3CCC5",
"7X c #D2CECC",
"8X c #D5D1CD",
"9X c #DBD5CD",
"0X c #CFCED0",
"qX c #D4D2D2",
"wX c #DAD6D3",
"eX c #DDD9D6",
"rX c #D7D5DA",
"tX c #DDDCDB",
"yX c #E1DDDC",
"uX c #E0DFE2",
"iX c #E4E3E3",
"pX c #EAE6E4",
"aX c #ECEAEB",
"sX c #F0EFEF",
"dX c #F5F4F5",
"fX c #FAFAFA",
/* pixels */
"=X(.j.$.2.(.uXfXdXiX=XE.:X=XI.I.%X9X{.7XiXoX^ 8 o     O D r o o s n K [.4XM.u # 5 f.[.].rXdXuX'.x.H.f./ & & / _ 0.XXeX8X;X3X8X3X",
"=XE.$.2.G.$XuXiXqX,X].C.|.*X/./.=X9X>XwXuX1X_.k.q o   o - r & # & w ^ '.=XQ.E > = ' S.(.qXiXqXL.6.-.0.e.c ; / ` L J.eXqX;X}.L.).",
"OX].j.j.G.[.$X;XOXF.3.-.Y.&X/./.%X&X:X=X|._.:X}.R * # $ j +.^ G j j $.L.T.s.N # & P V.U.1X0X$X'.H.:.-.g.T ; B X.=.OXrX$X(.k.$.b.",
"[.[.H.v.4.6.s.h.G.4.4.G.+X*X&Xi.i./. XQ.P.Q.~.r.f 2 N f | L.].[.D.J G } } Y e # * B f.H.#X1X+X=X|.6.y.U.%.1 > V #.v.|.[.G.z.j.H.",
"3XXXP.w.L u d q.J.6.).;X2X*X|.g.J.P.Z.P.Z.g.` q # 2 f C | T.=X2X~.K 2 2 f R B O & J <.C.OX<X2XwX1Xf.r.J.u.c 4 7 d N w.J.v.H.[.:X",
"6X%Xg.m = @ p @.A.'.1X3X+XU.E.H.Q.A.1.h.R.S.h X = z E ~ T s.T.h.~ = X @ 4 } C O O c  .L.,XqXiXpX6XT.f.f.g.[ _ T S C L :.v.[.4X9X",
"tX4XE.l $ > U k.[.$X$X.XJ.n.'._.A.| Y q.B.U.,.p 2 N C K u N E d = # = f Y | C = ; R k.].$XwXpXpXwX+XH.M.N.H.|.OX!.6.^ 6.H.$XiXaX",
"fXaX<XI 1 q U k.oX;X[.m.4.x.OX[.J.} c ) 5.J.OX3.p = 2 u 2 # > O & k E X.;.E u u Q c.].|.J.E.`.8XeX;X!.G.C.W.7XeX@XA.k.C.!.1XiXfX",
"fXsX4X` e H ,.H.[.OXK.8.@.4.G.G.T.M./ ) <.L.8XOXQ & # ; = & = 3 S :.1.>.' 7 s 3.|.:XXXT.d.&.} ].5XOXL.E.L.|.1X2X$XOX`.Q.T.OXqXdX",
"sXyX*X>.d T 6.v.G.H.n.n.8.@.7.b.S.^.h.w.<.A.:X;Xj.t t k s k T s.Q.J.d.E b v ,.OX8X2XE.r.X.&.N.oX$X_.(.].#XOX[.=X1X,X@XQ.r.C.<XiX",
"2X2XXXB.P { M.c.e.u.C.A.7.@.L.).C.H.T.P.r.5.!.XX'.7.^ Q W +.7.).1X=XA._  .N.T.H.T.A.1.( r.~.#X*X{.E.C.E.#XOXL.].XX@X3X[.3.=.].=X",
"M.W._.}.V.g.M.c.C.A.f.( h ] $XOX5.e.R.XXS.~ w.U.|.].K.b.j.j.D.(.+X.XC.d.h.R.B.0.-.5.r.A.+X2X=X+XE.*.P I r._.H.N.H.[.3X1XH.=.y.l.",
"0.g.P.}.^.c.c.C.H.S.X.u * b H.F.%.%.U.=XXXr._ r.E.#X,XOX#X,X0XrX1X_.R.R.T.h.0.' ' 0.P.XX*X&X^.P.a.S u > u } ,.@.4.J.+X2X|.l.-.*.",
"u.0.0.V.^.c.M.s.<.| N $ g P t.e.%./ M.+X2X!.` %.E.qXqX<X1X5XiXdXaX5X=X+X_.v.} C ( h.Q.Q.U.g...Z { ) P i $ ; s T ,.5.v.}.{.V.u.l.",
"S.&. .y.`.f.&.( V e = = c ) / y ; y [ _.=X+Xc.] ].pXuX4X+X$XqXuXaXyX>X+X).J.A.f.Z.Q.J.5._ m y , i / >.E p O & k +.+...u.I.Y.Y./.",
"u.' <.H.|.g. .n 3 @ $ a { ..a X . : l Z.+X$XXX].8XpXpXeX=X'.L.'.*X=X{.J.y.C.L.[.!.H.C.%.g # X . X y 1.} c # ; K @.6.u.M.I.I./.Y.",
"I.%.-.A.M.6.#.h = = , x ( S 6 X . + 4 :.R.{.$X5XtXwX3X;X.XS.8.8.y.c.v.y.,.A.'.[.K.k.(.oX3.* . . + 1 %.Q 6 y Y s.T.E.!.T.0.p.%X/.",
"W.' @.<.:.<.1.N 7 d d d Z Z g + . + > z *.T._.OX;XXXS.r.z.5.e.f.<.6.E.XX`.J.!.[.G.7.K.=Xy.3 * : 4 l V p 2 d ~ S.XX|.J.Z.a.p./.&X",
"c.U ] #. .w.N.( C L l u c 4 , + # 5 y d _ C.).L.L.S.x.m.J.^.XX:X*XXXXX~.d.} T E +.+.+. .H p v c b b y 1 i I _ r.s.&.X.#.Z.}. X!.",
"oX2.5.&.( h.U.r.*.S 4 u n , + $ V b f T 5.(.[.F.v.m..X1X8XqXwXwX=XE.:.C 3 # O & p F ] A U h i d A V c b H R E K s B Y | d.@X8X5X",
"0XH.N.u.&.h.h.>.X.x : p H i $ * F v > n c.#X#XH.9.F.1XiXaXtX;X!.;.k 2 X     X # O O ; h U * @ , i y 7 u p 5 * , a E >.1.h..XtXaX",
"OXH.Z.B.a.0.>.' o.A > 7 / L g h ! n ; R ^.OXOXoX!.[.rXpXqXG.W q & o     @ 9 n t O     @ - o   + $ 4 , $ & # * 7 z E :.a.Q.~.4XqX",
"y.' / @.5.! S l M Z > a ' ` @.5.` h 1 _ A.E.].1X8X;XqX;Xz.t O o     o 0 T y.6.j O   o o         # v g 7 l A b l a d e } `.:XOXH.",
"9 @ & j J p & X # l l M R s.J.J.=.V < P u._.=X=XeX1X!.z.G 0 & = = & q &.N.{ w O o - 8 %       o 9 w 6 x ) X.b $ X X X 3 1.`.D.T ",
"      o # O o   o a z a t y.+X|.=.s * z q./.XXE..X!.| ! 4.z.4.6.y.` L p.p.S & X t $.$.D - o   o 3 N P ' [ ) y .     # @ d R w # ",
"        o 0 ; # O a S 4 = } XXE.=.h > ; ) h.P.f.c.C.F.K.'.1X.X`.M.z 5 >.Q.A.G ; +.`.(.j.4.D * ; c X.B.Z.g.X.u O   o ; $ 2 *     ",
"    X @ O s T Y 7 5 ( a w 5.!.H.y.} f * Z q.^.E.m.'.oX).OXrXeX6XH.3 # S M.'.j.j m.7XrX1X[.6.%.<.' ( N.Z.h.<.U p ; . . = k O     ",
"          & K :.{ z N u J H.).N.h.{ 5 X , ) h.R.L.^.J.^.[.$X6X@XH.;   0 %.L.G.W x.1XiXiX4X`.`._.e.R s.=.] &.5.W t . X 5 &       ",
"          o a X.>.Y N H 2.`..X!.V...>   . 6 [ P.!.U.N.M.C.G.$X;X!.q   * X.Z.E.n.y.).eXaXqX).y.u.y.] @.` n B T j 2   O 2 X       ",
"X   o & O   = E 1.d.m.9.9.).*XXXI.%.i . . + m P. X~.U.M.7.4.`.3XOXW q h >.E.OX5X5X;X2XyXqXW.` l H ] ! U e & & o     # e &     . ",
"k > 3 B K = @ k :.J.$X[.K.1XwX=XU.t.I @   . i M. X%X%X}.k.4.`.9X6X!.H.H.R.{.4XaXsXyX8XwXyX{.-.P ` ] U ^ k O           & r O o 5 ",
"k u t n.).~ = * T Q.;X@X1XaXaX$XU.R.0.y . + m <.~.-X6X6X+X$X3X9X8X;XOXH.s.W.qXdXfXsX8X;XwX2XB.t.Y.^.l.oX[.k O         - ^ - O 7 ",
"s N G [.2XB.u O q f.`.].rXdXiX'.l.H.u./ * & R _ w.XXeX8X:X3X7X4X;X(.j.$.2.(.uXdXdXiX=XE.:X=XI.I.%X9X%X<XpXOX^ 9 o     # D 9 o O ",
"& e O.[.*XT.E 2 > ' S.).0XiX8XL.8.-.e.0.c ; / ` A J.wXqX;X[.E.).$XL.$.3.G.,XuXiXqX<X].C.|.*XR./.=X9X<X9XyX1X'.j.q       - r % # ",
"j j $.L.T.s.N # # P B.E.1X0X$X'.G.=.-.g.R ; N X.=.OXqX$XL.k.$.b.OX_.x.z.F.'.,X,XOXC.2.-.U.*X X/.%X&X=X=X.X~.:X`.T ; # = j $.^ G ",
"D.J B } | P u # * n f.G.$X1X+X=X}.6.y.J.%.1 > C #.m..X[.G.x.9.K.|.[.H.n.,.9.s.Z.A.4.,.H.+X*X&Xi.i./.%X/.P.Q.~.r.d 5 z f } L.[.[.",
").K 2 2 u T B O # K <.C.OX<X4XwX:Xd.r.T.y.b 4 7 u N a.S.N.K.|.:X:XXXP.q.Y e f >.J.r.).1X3X@XXXf.I.I.Z.P.Z.d.] q # 2 f C | Q.$X:X",
"~ = X # 7 } C O O n #.H.,XqXiXpX6XE.f.f.h. ._ T L S K :.v.[.4X8X6X%Xg.m = # s #.A.`.;X3X+XH.E.H.E.V.1.h.R.V.v X & c E ~ T a.T.B.",
"= # & f Y | C = - R k.].$XwXpXpXwX*XJ.v.N.S.}.OXQ.6.} 4.U.=XiXaXyX4XE.l $ > U 9.'.,X$X|.L.n.'._.C.+.T q.B.U.,.p 5 N C K u N E u ",
"& k E X.:.E u p Q l.].|.L.Q.`.8XeX=XE.F.C.!.8XeX@XG.z.A.(.<XiXdXdXaX<XQ 1 q U x.OX,X[.m.,.x.OX[.U.` c ) r.S.OX3.u = 2 e 2 # > @ ",
"S :.1.>.{ 7 p 4.|.:XOXT.d.&.` [.7XOXL.E.L.|.<X2X$X[.`.^.T.OXqXdXfXsX4X` y B ,.H.|.oXK.8.+.5.G.K.Q.h./ ) -.E.qX|.W # # ; = % = 3 ",
"Q.J.d./ b h <.OX8X1XR.r.X.&.v.|.$X_.(.|.#XOX[.=X1X1X$XT.r.C.<XiXsXtX*X<.a R 6.m.F.H.n.n.8.$.7.k.H.^.h.w.<.A.:X:X9.t t n s k T s.",
";X$XS._ ' N.U.S.L.S.1._ s.~.+X$X{.T.C.E.#X#XE.(.XX@X1X`.4.=.].=X2X2XXXB.P  .M.c.y.y.C.V.7.@.L.(.G.S.Q.Z.y.<.E.XX].8.^ Q W +.6.).",
"OXOXA.d.V.T.B.e.-.<.r.S.XX2X;X+XE.*.I I r.).U.M.G..X3X:XH.=.y.l.M.W.~.}.Z.f.N.c.N.S.f._ v ] =XoX5.6.Q.XXS.~ 1.J.[.].K.k.j.j.D.(.",
"2X_.Q.R.T.g.0.{ ) w.Z.XX=X*X~.P.a.S i > u } =.@.,.L.OX2XXXl.-.-.0.g.S.}.W.c.M.C.H.C.#.u = B S.C.%.[ U.=XXXr.( r.L.$X,XOX#X,X0XrX",
"aX6X=X+X_.c.' A ( h.Q.Q.P.g...S { ( P i * = s T 4.8.v.}.{.V.u.g.u.0.0.V.^.c.N.y.1...N = u R r.r.@._ M.&X2XE.] &.E.qXqX<X<XqXiXdX",
"aXyX3X+X).J.C.s.V.^.S.e.( m 6 , a / <.R s O # k +.] ..i.P.I.I./.P.*...y.`.g.&.( V y = : c ' E 7 > i  .(.=X#Xc.] `.iXiX3XOX@X0XuX",
"*X*X{.J.s.m.Q.[.W.H.F.$.g & .   . 7 1.} c & ; K @.y.f.B.V.Y./.R.i.` -.J.}.c. .n < @ $ a ) { a . . : x V.+X*XOX[.qXpXpXwX;X'.L.'.",
"y.l.n.y.<.A.).|.G.x.(.oX-.* . . . 1 @.T 7 y I s.T.^.^.U.0.p. X XP.%.<.A.f.6.%.s = > , x / I y o   + , :.R.{.$X7XeXwX6X=X.XH.7.8.",
"0.e.W.oX'.H.!.[.G.7.L.$Xk.< * > 6 x F i 2 d _ V..X|.J.Z.d.p./.%XW. .%.,.:.<.1.V 7 a d g Z b l + . + , z *.W.).OX=X+XS.r.s.5.e.d.",
"*XXXXX~.d.} T ~ +.+.$.+.H i v c b b y 1 i L _ d.s.#.X.;.Z.}.}.!.y.U ^ &. .r.N.( C K d i v 6 1 + & 5 7 f ( C.(.L.E.G.c.n.E.(.XX2X",
";XQ.*.C 3 # O & t J ^ H U h i i V A c n L R R H s N Y | d.+X9X5XoX=.5.:.( h.T.r.:.S 4 i c , + : V B d Y 5.(.].F.c.C.[.1X7X8XeX9X",
";.k 2 O     O & O # - h U - @ , y y y i d 5 * , d E >.a.v.`.tXaX0XK.V.y.X.h.h.>.X.b : d A i # * H c ; c c.$X#XK.9.F.1XiXaXeX,X!.",
"&     o O q k t o     # ; .   + $ 1 , $ & # $ 7 z R :.a.Q.~.4XqXOXH.Z.B.u.0.*.[ o.Z : y E L l g ! n = R !.+XOX|.!.[.rXiXqXH.T q ",
"    o ; T r.6.k O   o           $ v i 7 a A V l 7 a y } ~.:XOXJ.y.' / #.5.! S z N Z > a } _ %.5.^ h < _ H.E.}.<X8X1X0X;Xz.t O   ",
"; & q %.B.( q # O - 8 %       . 9 t 7 x ) X.b & X O X 3 r.}.m.Q < & & s J t & X # l l M P s.J.J.=.H < R u._.*X<XeX1XQ.z.J 0 - - ",
"s.] L p.p.A # o w $.$.D 8 O   o 9 b P ' [ ) y X     O # g R w O       o # O     X a z a e s.@X[.=.s * c 0.~.XXE.XX^.| ! 7.z.4.6.",
"M.z e >.Q.K.D 8 @.].(.z.$.j - ; c X.B.Z.g.X.u O     ; $ 5 * o           o 8 ; # O f S 7 = } |.E.=.k > > / B.U.d.x.F.m.L.).1X.X[.",
"H.3 O S M.].j.g m.0XqX1X].r.%.-.' ( M.Z.g.0.I p ; . X > d @         o @ O s T R 4 4 _ a y 5.!.H.y.} f $ Z q./.W.m.'.[.'.#XqXwX7X",
"S.;   2 :.J.G.Q z.1XaXiX4X`._._.e.E s.=.` =.<.W e X o 5 *               o & C :.{ z N u J K.).N.h.' , + , ) h.W.J.~.J.~.[.$X7X*X",
"!.q   = ..Z.E.n.y.).eXaXqX^.y.y.u.] @.] n n T j ; X O 2 X                 o f X.>.Y c H $.`.oXW.V.[ >   . 6 [ B.!.U.Z.M.m.G.$X*X",
"OXW q k q.Q.OX7X7X=X2XyXqX^.] z H ] Q T e # & o     # y & o   o o   o # O   = E w.s.A.6.9._.*XXXU.*.i .   + m I./.~.U.C.7.4.}.:X",
"5XE.J.H.E.{.4XaXsXtX7XeXyXXX-.R ` ] K ^ k O         . # r o X 5 k > 3 G K ; @ k <.H.$X[.K.1XwX=XU.t.I @   . d h. X%X%X}.z.4.[.9X",
"8X;X.XG.y.W.qXdXfXsX7X=X9X3Xh.t.I.~.k.oX'.B O         - ^ 0 O 7 k u t n.^.~ = $ T E.1X#X1XsXpX#XU.W.0.6 . @ V >./.-X6X3X@X@X6X8X"
};
