/* XPM */
static char *result[] = {
/* columns rows colors chars-per-pixel */
"64 64 254 2 ",
"   c #4E0F05",
".  c #550A02",
"X  c #660701",
"o  c #790A02",
"O  c #661707",
"+  c #7A1404",
"@  c #5F351B",
"#  c #78270C",
"$  c #712E0F",
"%  c #880601",
"&  c #840B02",
"*  c #8B0B01",
"=  c #990500",
"-  c #930D02",
";  c #9B0C02",
":  c #871705",
">  c #951404",
",  c #971605",
"<  c #A30400",
"1  c #AB0700",
"2  c #A30D01",
"3  c #AB0B02",
"4  c #B80300",
"5  c #B20B01",
"6  c #BC0C02",
"7  c #AC1303",
"8  c #A31B05",
"9  c #A51805",
"0  c #AB1B04",
"q  c #B41303",
"w  c #BB1403",
"e  c #B41C04",
"r  c #BC1B04",
"t  c #89280A",
"y  c #982508",
"u  c #8F330B",
"i  c #9A360D",
"p  c #8A3913",
"a  c #993911",
"s  c #A42309",
"d  c #AA2809",
"f  c #B52405",
"g  c #B72506",
"h  c #B42B0B",
"j  c #BD2B0A",
"k  c #AB320C",
"l  c #A8390D",
"z  c #B3330D",
"x  c #BC340B",
"c  c #B93A0A",
"v  c #A63912",
"b  c #B73B12",
"n  c #C50400",
"m  c #CB0400",
"M  c #C40C01",
"N  c #CC0D01",
"B  c #D90400",
"V  c #D40C01",
"C  c #DC0C01",
"Z  c #C41403",
"A  c #CA1303",
"S  c #C21C04",
"D  c #CB1B03",
"F  c #C51C08",
"G  c #D41403",
"H  c #DC1303",
"J  c #D31A04",
"K  c #DC1A03",
"L  c #E30500",
"P  c #EC0400",
"I  c #E40D01",
"U  c #ED0B01",
"Y  c #F30600",
"T  c #FE0600",
"R  c #F40D01",
"E  c #FE0C01",
"W  c #E51401",
"Q  c #EB1402",
"!  c #E21C03",
"~  c #ED1B03",
"^  c #E61C09",
"/  c #F41302",
"(  c #FE1302",
")  c #F31A03",
"_  c #FE1C03",
"`  c #FE1F08",
"'  c #C42405",
"]  c #CC2305",
"[  c #C62908",
"{  c #CC2C0A",
"}  c #D12204",
"|  c #D72707",
" . c #DD2304",
".. c #DB2B06",
"X. c #D42D09",
"o. c #DD2B09",
"O. c #C93808",
"+. c #D33505",
"@. c #DB340C",
"#. c #D63A09",
"$. c #DB3A0C",
"%. c #C82F11",
"&. c #C73B12",
"*. c #D33B12",
"=. c #DA3812",
"-. c #E32505",
";. c #EB2405",
":. c #E42A05",
">. c #E92A07",
",. c #F32305",
"<. c #FE2304",
"1. c #F42C06",
"2. c #FD2B05",
"3. c #F52709",
"4. c #FE2C0A",
"5. c #E93709",
"6. c #EC350B",
"7. c #E33B0A",
"8. c #FD3305",
"9. c #FA3A05",
"0. c #F4320A",
"q. c #FE340A",
"w. c #F43C0C",
"e. c #FE3C0C",
"r. c #E53711",
"t. c #F63D11",
"y. c #9A4614",
"u. c #BA4509",
"i. c #AA4917",
"p. c #B74615",
"a. c #A8581B",
"s. c #B95817",
"d. c #B0621F",
"f. c #985121",
"g. c #AB5C23",
"h. c #BA5922",
"j. c #A76629",
"k. c #BA6823",
"l. c #B87832",
"z. c #C8490C",
"x. c #D84804",
"c. c #D4420C",
"v. c #D8430C",
"b. c #D2490B",
"n. c #DB4B0C",
"m. c #C3580C",
"M. c #D9540C",
"N. c #C74815",
"B. c #DB4412",
"V. c #D64815",
"C. c #DC4A16",
"Z. c #C3541A",
"A. c #C85818",
"S. c #DA5215",
"D. c #D55917",
"F. c #DE5D1C",
"G. c #E4430D",
"H. c #E8460A",
"J. c #F6460B",
"K. c #FE430B",
"L. c #FF4B0D",
"P. c #E4560C",
"I. c #E8570C",
"U. c #F75409",
"Y. c #FE530B",
"T. c #E84A13",
"R. c #FE4613",
"E. c #F44C13",
"W. c #FF4A12",
"Q. c #E65613",
"!. c #EB5513",
"~. c #EB5C13",
"^. c #EC5B1B",
"/. c #F45414",
"(. c #FE5514",
"). c #FE5C14",
"_. c #F75818",
"`. c #DD620C",
"'. c #CA6518",
"]. c #D56413",
"[. c #D96719",
"{. c #CB721D",
"}. c #DA751A",
"|. c #E9630C",
" X c #FA670B",
".X c #FC760B",
"XX c #E66C14",
"oX c #EA6817",
"OX c #E4641C",
"+X c #F36411",
"@X c #FE6413",
"#X c #FD6C13",
"$X c #FE651C",
"%X c #F56A18",
"&X c #FD6C1C",
"*X c #EA731B",
"=X c #EB731C",
"-X c #F47316",
";X c #FE7415",
":X c #FC7B14",
">X c #F3731C",
",X c #FC731B",
"<X c #F37B1D",
"1X c #FD7B1B",
"2X c #C75C23",
"3X c #D35E21",
"4X c #FF5D23",
"5X c #CA6425",
"6X c #C66827",
"7X c #D66724",
"8X c #DB6B23",
"9X c #CA7828",
"0X c #D77628",
"qX c #C97B35",
"wX c #D57E33",
"eX c #E66421",
"rX c #E36B25",
"tX c #ED6B21",
"yX c #F56A24",
"uX c #FF6C24",
"iX c #E77727",
"pX c #F47223",
"aX c #FD7322",
"sX c #F17C23",
"dX c #F97B29",
"fX c #E57F32",
"gX c #FB7932",
"hX c #EF811B",
"jX c #FA871A",
"kX c #FE931D",
"lX c #D38831",
"zX c #DA8837",
"xX c #EA862B",
"cX c #FC8424",
"vX c #F28A24",
"bX c #FB8A24",
"nX c #F58729",
"mX c #FE842B",
"MX c #FB8C2D",
"NX c #FC9525",
"BX c #F4922C",
"VX c #FB952C",
"CX c #FC9C2B",
"ZX c #EB8934",
"AX c #F38C32",
"SX c #FA8A34",
"DX c #EA9539",
"FX c #F99737",
"GX c #FBAE30",
"HX c #FBA73A",
"JX c #EF9A43",
"KX c #F7A64A",
"LX c #F7B249",
"PX c #FEC552",
/* pixels */
"<.R.eXk.$ O Z E _ /.FXCXHX-XbXMXDXzX0X0XZ.j D E E 3 ; 5 M I _ Y ^ v X - / ( s $ N.pX,X}.Z.+X&XdX:XjXbX].k C ( w.rXxXvXjXDXa.d ~ ",
"( [ $   . ; P T 7 p j.0XlX}.FXDXlXa.s.u.k ' _ <.| O * G R R K m J C.a h ! e # y.2XmXMXxXoXbXaXMXpXNXjXXX#.) V y p.*XcXDXk.u D E ",
"E ;   X < V E P q y i.s.0X{.0Xs.y.l O.+.] ;.q.R.T.a O.4.<.' 8 Z <.uXyXG.o.w y i.5XpXMXcX.XCXcXvX-XkXBX*XC. .* : *.,XVX7Xt 0 U T ",
"P < X 2 _ <._ Q Z S #.z.].'.].D.M.O...<.;.e.(.uXyXOXT.R.o.z y Z q.mXFXdXC.{ %.V.tXpXmXVXNXHXiXxX<XCXxX}.N.S - q @.I.6Xp + V T Y ",
"B < - r.(.uX(.>.! ! >.5.x.u.+.x.r.3.` 4.K.).#X&XaX<X[./.T.$.s r X.eXZXmXrX*.=.T.yXpX1XbXjXlXs.[.oXsX9Xs.k 7 1 V ~ 1.| ; 1 m P B ",
"E Z h 2XaXKXbX!.:.( ~ -.g }  .! / H G r._.aX%X^.Q.rXh.p.B.B.s , [ ^.gXKXJX2X*.r.I.+X XkXjX{.u.pXdXmXXXM.[ G P Y E ( _ Z 6 < m B ",
"_ e.Z.7XpXLXLXDX7._ L U G Q Q C n 6 F E.,X>XS.c.H.z.p t j ' - & r L.gXKXFX2X&.r.J.@X:XkXjXXX+X;XMXcX>XpXv./ T T / <.4.x s > n R ",
"e.Y.Q.P.+XpXVXZXB./ n L Q ;.X.S Z V } !.gX7Xp.c 5.%.: & G I n = ! Y.FXPXKX5X=.3.0.E.#XNXNXhX=XVXBXpX>XiXC.K U ( 3.J.).D.#.g Q <.",
"#X#X<X#X<XcXVXfX&.r o 7 z p.p.[ ! / <.e.p.# # h ..Z - < I E U 5 Q L.mXHXZX3X=.3.4.r._.gXDXzX5XS.D.^.sXrXb w ) q.Y.@X#X|.v.>.8.L.",
"hXXXoX-XjX<X*Xz.d .   # i.a.s.c ;.( E 9 O . > Z ~ W U ) <.<.,.w W <.T.rXwX7XZ.%.r.%.*.C.D.s.p.B.~.Q.D.a s | t.).dXcX<XS...-.K.;X",
"{.]. XjXsXoXn.+.8 O t l z.m.u.c } U 4 . . & A R ( <.q.L.(.(.n.h } <.o.*.Z.N.p.x =.d f { &.b p.#.c.c x %.0.R.uXSXFXxXD.h 3 D L.nX",
"'.[.,XHXDXs.h w ; d { V.).1X|.H.| 4 X   + A / ( <.K.&XcXdX,X`.z.x.6.J J ] [ b c &.s Z W H r r | [ , F 4.(.aXnX0Xg.$ O X * f L.BX",
"9XiXtXtX2Xs 7 V H w.J. X1XNX&Xn.g - X o F ,.( _ +.n.oXSXFXHXAX*XI.x.g 7 Z Z f f %.e W E C N I ( A 2 ~ q._.7Xi.u : o = = 5 } Y.hX",
"A.s.i.z h 0 M Q <.L.,X:XkXCXZXS.h ; ; A ~ ( ( Z k z.oXXX}.0X9X{.m.z.g w n M 7 e D ^ ( / Z N E E m 5 W X.x v y e N n 1 n C K +.].",
"t y e V G 2 6 _ q.uXFXNXGX=X'.k e 5 I / / Q N 6 d &.!.#X+X}.s.a.u.x.[ K Q I G ) ,.<.q.w.%.] ) I = & 2 r r J ^ ) <.<.G I T Z , t ",
"G W ) ( R 3 V ( -.S.xXZXzXi.l ' K ! 4.3.-.J N I H @./.#X;X:X|.I.M.H.+.~ / _ 8.8.e.w.).~.~.$.3.H ; 2 Z G U ( _ e.(.^.b G Y 4 * 2 ",
"2.q.R.q.{ 9 M M > y i.i.p t Z ) 1.w.R.t.w.1.2._ W S 7.%XmXVXaX>XOXv.| W ) 8.Y.).>XM.+X~.+XG.;.G 1 w :.2.<.<.8.).<XiXy.: 6 L 3 A ",
"W.uXaXN.O.+.,.Q 5 7 r 0 , M / _ 5.!.yX^.G.w.W.w.X.D ;.R.yXsXrXF.!.0.J M D e.1XjX<XD.I.+X|.$.D 6 H 4.t.#.] ' +.M.*X9Xp 0 V ( -.w.",
"JXSXtXZ.n.U.L.;.6 V U R I R ( <.=.T.4XT.O.H./.D.u.@.<.4.X.k x =.r.s : * 0 6.,XsXvXiX|.P.G.{ > - J q.^.N.x e [ V.b.p.y J ( <.T.8X",
"tXOX~./.U.#X$X#.7 V E E / _ <.4.J.W.4X^.B.G./.`.u.c.| Z X   : s b # # , D ;.E.^.OX].S.#.D 9 8 e 3.4.v.z ' J ;.>.7...! ( _ q.^.8X",
"vX,X&X&X,X1XnXN.8 A E / D ;.8.e.^.4XgXyXD.J.(.%X|.x.+.w X o D J.eXk.i.' ;.` 4.r.*.*.' 3 - 0 ..$.0.0.o.@.-.~ ) 3.3.` C ( >.G.oXiX",
"M.+X-XOX[.OXoXc e G Q V r :.e.K.J./.gXfXrX(.aXnX0Xz.#.! M G w. X>X[.'.$.3.( E M ; 3 - o * D 5.E.@.;.) ) ) ~ ) <.^ F 3 M s a '.{.",
"XX#X,XiX8XD.z.*.o._ / C V ,.e.).uXuXmXfX6X^.aXiX5XG.$.<./ 2.).bXBX*XpXM.3.( m X o 6 w 2 q ! >.5.1._ ( ( Q ! ,.0.j : > 7 y i b.[.",
" X,XdXFXXXN.{ -.o.] A n R _ L.gXZXZXAX0Xh.N.eX0X7XoX!.-.6 :.eXZX[.`.XXc.3.C 3 o 8 o.=.' ! ( <.2.q.| g g h j ..[ h r <.<.d k /.-X",
"dXsXnXKX6X&.>.` q.J M m E _ e.6Xl.qXfXZX2XA.T.F.P.!.z o & S N.Z.A.Q.x.] W H e k C./.~.[ D H <.5.b u v b.B.&.g h  .q.(.3Xa k J.rX",
"N.N.V.Z.b %.q.t.R.%.6 C E E r @ @ f.8XJXzX].S.I.x.@.* o 4 Q 2.@.O.d e V ( 4.B.2XA.M.I.+.g e [ c p.i.b.+XaXF.x ] 4.4XZXj.$ , 0.c.",
", , g ] %.=.E.4XR.F 3 B I / 6 + : x ~.sX6Xi.z.O.' q 3 G ( _ ) G Z M C / <.(.wXk.Z.M.7...d k c H.I.~.+X1XcX5Xl :.t.gXzXj.i.' _ w ",
"* 9 K ~ o.%.p.p.s > & 6 ~ 2.q.X.' :.w.C.a h ' D F  .e.R.R.[ + * < 4 E 2.@XBXqXg.Z.v.6.8.c.b.H.Y.#X;X,X1XmXoX$.6.R.rXqXk.z.>.( n ",
"] 3.q.6.&.*.k 8 : > > 0 5.Y.$X^.%.:.<.K 7 w V G >.K.&XmXAXf.O * 4 L <.Y.VXLXl.i.c 7.9./.].M.Y. XjX<X}.XXMXSXeXB.J.[.}.0XF.t.K A ",
"L.e.(.!.C.@.f 7 r 3.K.V.T.aXFXDXi.@.2.-.5 4 m K 9.;XHXGXHXk.t w L ( K.;XCXlXa.i.O.1.K.+XXXP. X.XjXXX].P.,XpXF.b #.P.%X<Xp.=.r.2.",
"kXH.t.B.=.1.K 7 o.e.$XiXD.eX[.0Xk.).@Xn.> = B 2.@XNXVXCXDX9Xb G E <.@X:XjXa.y.h -.8.@XhXvX*X X X#X;X-X+X1X*XA.x  .G.I.D.i %.W.$X",
"GXG * ; ~ _ J y T.uXMXJXh.F.(.,X*XjXhXs.# = C 9.cXGXVXBXHXqXv K _ e.cXHX0Xi f Q _ e.;XjX<XXX:XbXVXFXBX*X`.u.g K ( <...h y f @.FX",
"I v X * / / s $ N.,X1X}.s.+X$XjX<XjXbX'.k I ( J.rXzXvXjXZXa.g Q _ W.tXd.$ + Z E _ /.FXCXHX=XbXAXFXlX7X0XZ.j D E E 3 - 5 M W ( Y ",
"J Q.a h ^ e # y.Z.mXSXvX+XmXaXMX>XNXkXXXO.) V y z.XXMXBXk.u D E ( [ $     ; L T 0 p j.0XlX}.FXFXzXj.s.u.v F _ _ | O : V R R ! M ",
"<.uXpXT.o.r y i.6XgXMXcX.XNXcXnX%XkXVX*XT. .* : z.uXFX{.# 0 R T E ; . X < C T L q y i.s.0X{.iXs.a.i O.O.} ;.q.L.T.v O.4.` ' 8 M ",
"q.gXFXpXC.{ %.B.tXtXMXFXNXHXiXxX<XCXxX[.N.S ; q @.I.5Xp : V T Y P = X 3 _ <._ Q Z r #.x.].'.].m.x.O...<.;.e.(.uXyXOXT.K.@.h y F ",
"@.eXxXSXrX*.=.T.tXpX1XbXhXlXs.[.oXsX9Xs.l 7 1 V ,.>. .; 1 m P B B < - 6.(.aX(.>.! ! >.5.+.u.x.#.#.1.` 4.e.).$X,XaXpX8X/.T.c.s r ",
"j ^.gXKXJX3X*.r.!.+X XkX:X{.m.>XdXmX|.M.%.G P Y E ( _ Z 6 2 n B Y F h 2XdXFXbX^.:.( Q -.j ] K ;./ I K r.+XaX%XQ.Q.rXs.b B.=.s , ",
"S W.gXFXJX2X&.>.J.).:XkXkX}.+X;XmXcX<XiX7.) T E / _ 4.x s * n R ` t.Z.7XgXLXLXDX7._ L U G Q Q V M 6 F E.aX>XS.c.H.V.p t j ' - & ",
"! Y.FXPXLX5X*.3.0.J.#XNXbXsX-XVXBX<X&XiXC.G P ( 3.J._.F.#.g Q <.e.W.Q.P.|.,XNXZXB./ n L Q >.| g Z V } E.gX7Xp.b G.[ : & G W n = ",
"Q L.mXLXzX].=.3.4.r._.gXDXwX5XS.D.^.sX8Xb w ) q.Y.@X#XXXc.:.2.Y.#X#X1X#X1XcXVXfX&.r & 9 z p.u.[ ^ / ` e.p.# # h ..Z - < L ( Y 4 ",
"W <.T.rXwX8XZ.%.=.%.*.C.3XZ.p.n.Q.P.7Xa s X.t.uXaXcX<XM...;.L.;XhXXXXX-XjX<X*Xz.d     # i.a.s.c ;.( E ; O O * F ~ W Q / <.<.,.q ",
"J <...#.Z.N.p.%.=.d g { &.b p.#.c.c x [ 1.R.uXSXKXfXD.d 3 S L.nX{.]. XjXsXXXn.+.8 O : v z.A.u.c ] U 4 . . & N R ( <.q.L.(.Y.n.z ",
"x.1.J J } [ b b &.d Z W H e f | [ , D 4.(.aXmX7Xg.$ O X * e L.BX'.[.;XHXDXs.h w ; 0 O.V.).1X|.H.| 6 X   o Z / ( <.L.$XcXdX;X`.z.",
"|.x.g 3 M Z g h ' r W E C m I ( A 2 Q q./.7Xi.u : o - = 6 } Y.vX9XiXpXtXZ.y 7 V K 0.J. X1XbX&Xn.g * X + F ) ` ( +.n.>XAXFXFXBX=X",
"m.z.g w m M 3 q D ^ ( ) r A E T m 3 W X.x v y e N M 4 n C K O.].Z.s.v z h 0 M Q 2.W.,X.XkXCXZXD.f 2 ; A ~ ( E F k z.~.XX}.lXlX'.",
"u.z.+.K R I G ~ ,.<.q.6.%.} ~ U ; * 2 r S J K ) <.<.A L T M > t t y e G H 9 M ( q.uXKXkXCX-X'.z e q I / ) Q M 6 0 &.Q.@X+X}.s.a.",
"x.H.+.~ / <.8.8.J.e.).~.~.7.3.C ; 2 Z G U ( <.q.(.^.&.G Y 4 % 2 G W / ( R 3 N ( ;.D.fXAXzXf.l ' K ! <.1.;.J N I H #.U.;X;X.XP.|.",
"XXB.| W ) 8.Y.@XyXS.|.~.+XT.-.N 5 Z o.<._ _ 9.).<XxXy.+ n I 1 A 4.q.W.q.{ 8 M M , t i.i.p : F / 1.w.W.J.w.1.2._ Q S 7.%XmXVX>XpX",
"!.0.J A D e.1XjX<X].I.).|.7.D 6 G 4.K.#.] ' +.M.*X7Xp 9 V ( :.w.W.uXuXN.c ..,.Q 5 q r 0 , M R _ 5.!.yX^.G.w.L.w.X.D ;.R.yXsX8X^.",
"r.s : * 9 6.uXsXvXiX|.P.G.] , > G q.^.N.x f [ b.M.p.s D ( <.T.8XFXSXrXA.v.U.L.;.M V R R I / ( <.*.T._.T.c.G.U.D.c X.<.4.{ k x =.",
"z $ # > D ;.E.^.OX].M.#.] 9 8 e ,.q.B.k [ J ;.>.7...K ( <.q.^.7XiXeXI.U.U..X$X$.7 N E E / _ <.q.t.W.4X_.B.7./.].m.c.X.Z X . : d ",
"eX6Xv [ ;.<.4.6.*.*.] 3 - 7 ..$.0.0.X.X.-.~ ) <.3.` H E >.T.OXiXdX,X&X%XpX:XnXp.s N R / D >.8.e.^.4XuXpX3XR.).@X|.x.+.w X o D w.",
"-X'.'.$.1.( E M ; 3 - o - S w.T.7.;./ ) ) ~ ) ` ^ Z 3 M s a '.{.`.+X>XrX8XoXoXc e G / V w -.9.K.T.4XgXfX8XE.uXAX0Xb.#.! 6 G K. X",
"BX*XpXM.1.( m X o 6 r 2 6 ! >.5.0.` ( ( ~ ! 3.0.j : > q y v c.[.|.#X&XiX7XD.V.*.| <./ I V ,.K.).uXuXdXfX5X^.dXiX2Xn.#.<./ 4.).bX",
"{.P.XXb.,.C 2 o 9 o.$.' K ( <.8.4.| g g g j ..j d r 4.3.s k E.-X#X,X1XFXXXN.{ -.o.] A n R _ L.dXZXZXAX0Xh.N.OX0X7XoX!.;.w o.eXZX",
"A.I.b.] I G e k B.!.!.[ D H _ 5.c p l z.C.&.j h :.q.).5Xa d J.rXsXsXgXKX6X&.;.3.q.} Z m R ` q.6Xl.qXxXxX2XA.P.F.P.!.z o & S N.Z.",
"O.d e V ( 4.C.2XZ.F.P.+.g f g z.p.i.b.+XaX^.x F 4._.ZXj.$ y 1.#.N.N.V.2Xi.{ q.e.R.F 6 L E E q @ @ f.8XFXwXA.P.!.n.X.- o 4 Q 4.@.",
"Z w I ( <.(.9Xk.Z.M.7...d k c H.U.~.+X1XcX5Xl :.e.gXzXj.y.] _ w : , j { j r.4X_.R.F 1 V I / Z : : b ~.<X6Xp.u.O.' q 3 N ( _ ) G ",
"1 4 R 2.@XBXlXa.Z.v.0.8.c.c.G.Y.#X;X;X1XcXtX#.5.R.0XwXk.z.>.( n * 7 K ~ o.%.p.b i - * 5 ~ 2.q.{ ' :.H.V.v k ' D S -.e.R.R.%.o * ",
"4 L <.Y.CXLXl.i.c @.e./.D.M.Y. XjX<X}.XXMXSXrXG.H.[.[.iXF.J.^ N ] 3.q.6.&.*.k 8 : - > f 6.Y.&X^.x ;.<.K 3 6 H G ;.L.#XbXDXf.O > ",
"L E K.;XFXlXa.i.O.1.L.+XXXM. X.XjXXX].x.,X>XF.c @.P.#XiXp.=.r.1.L.e.W.!.C.=.g q S ,.e.V.T.pXFXDXi.r.8.^ 5 4 m K 9.:XCXLXFXk.t w ",
"E 2.)..XjXd.i h -.8.).bXvXXX.X X.X;X;X+X1X*XA.x ..G.!.D.i j W.$XjXJ.t.C.=.3.G q :.K.$XiXD.OXOX0Xs.).@XB.> = V 2.@XNXCXBXDX0Xp.J ",
"( e.cXHX0Xi g Q _ e..XjXhXXX:XjXFXBXMXiX[.c h K ( <...z y f @.VXGXG * , ~ ` H t G.aXMXJXh.F./.1X*XjXvXs.# = C e.dXGXFXVXDX9Xl ! "
};
