/* XPM */
static char *result[] = {
/* columns rows colors chars-per-pixel */
"64 64 191 2 ",
"   c #0E0904",
".  c #150D05",
"X  c #170F06",
"o  c #1C1206",
"O  c #1D1409",
"+  c #211507",
"@  c #271807",
"#  c #2A1A07",
"$  c #211609",
"%  c #25190B",
"&  c #2B1D0C",
"*  c #311F0A",
"=  c #261B10",
"-  c #2B1F11",
";  c #2F200E",
":  c #34220D",
">  c #3A260E",
",  c #3F280F",
"<  c #2D2111",
"1  c #342412",
"2  c #392712",
"3  c #372817",
"4  c #3C2A14",
"5  c #3E2D19",
"6  c #412A0E",
"7  c #4A2F0F",
"8  c #4F310E",
"9  c #51320E",
"0  c #432D13",
"q  c #492F10",
"w  c #422F19",
"e  c #473016",
"r  c #4C3215",
"t  c #45311A",
"y  c #4C351B",
"u  c #4E381E",
"i  c #533614",
"p  c #563916",
"a  c #5C3B15",
"s  c #503619",
"d  c #543A1B",
"f  c #5B3D1B",
"g  c #623E14",
"h  c #603F19",
"j  c #4D3921",
"k  c #553D22",
"l  c #583F22",
"z  c #5E401D",
"x  c #654117",
"c  c #6A4315",
"v  c #63431D",
"b  c #6B451A",
"n  c #6D491D",
"m  c #724715",
"M  c #734916",
"N  c #734B1C",
"B  c #7A4F1E",
"V  c #7C511E",
"C  c #5D4223",
"Z  c #634522",
"A  c #694621",
"S  c #654825",
"D  c #6B4A23",
"F  c #634729",
"G  c #634829",
"H  c #6C4E2A",
"J  c #724D23",
"K  c #6C512F",
"L  c #755125",
"P  c #7C5324",
"I  c #74522B",
"U  c #7C562A",
"Y  c #7D592E",
"T  c #745430",
"R  c #795731",
"E  c #7D5A31",
"W  c #84541D",
"Q  c #88561E",
"!  c #8C5A1F",
"~  c #955D1D",
"^  c #995F1D",
"/  c #95601F",
"(  c #9D621E",
")  c #A0631F",
"_  c #825624",
"`  c #855926",
"'  c #8B5C24",
"]  c #805729",
"[  c #835B2B",
"{  c #8B5E2A",
"}  c #935E22",
"|  c #835E34",
" . c #8C602D",
".. c #946126",
"X. c #9B6424",
"o. c #93642C",
"O. c #9A662B",
"+. c #9C692D",
"@. c #876133",
"#. c #8C6333",
"$. c #89653A",
"%. c #8F6638",
"&. c #936532",
"*. c #986730",
"=. c #956935",
"-. c #9C6B33",
";. c #956B3B",
":. c #9B6E39",
">. c #9D713D",
",. c #A16624",
"<. c #A56A23",
"1. c #AB6C23",
"2. c #A26C2C",
"3. c #A96F2B",
"4. c #A6702E",
"5. c #AC722D",
"6. c #B37226",
"7. c #BB7727",
"8. c #B3752D",
"9. c #B9772A",
"0. c #BA7829",
"q. c #BB7A2D",
"w. c #A36E32",
"e. c #A86F31",
"r. c #A26F38",
"t. c #A47135",
"y. c #AB7434",
"u. c #AF7837",
"i. c #A4733A",
"p. c #AB7639",
"a. c #AC793C",
"s. c #B27632",
"d. c #B47934",
"f. c #BA7C35",
"g. c #B47C3C",
"h. c #BA7F3B",
"j. c #C27A27",
"k. c #C17F32",
"l. c #976F40",
"z. c #9D7241",
"x. c #A37642",
"c. c #A67943",
"v. c #AC7C43",
"b. c #B17D41",
"n. c #BF8137",
"m. c #B7803E",
"M. c #BC813C",
"N. c #C58334",
"B. c #CA8534",
"V. c #C3843B",
"C. c #C88539",
"Z. c #CB8A3D",
"A. c #D18936",
"S. c #D38F3E",
"D. c #D3903F",
"F. c #DB913B",
"G. c #B68245",
"H. c #BC8442",
"J. c #B5834A",
"K. c #BB8649",
"L. c #BD894C",
"P. c #BF8C52",
"I. c #C28642",
"U. c #C58A44",
"Y. c #CD8D42",
"T. c #C58C4C",
"R. c #C88D4B",
"E. c #D18F43",
"W. c #CC914E",
"Q. c #D49143",
"!. c #D2944C",
"~. c #D6984F",
"^. c #DA9A4E",
"/. c #C28F52",
"(. c #CB9452",
"). c #CB9457",
"_. c #D39752",
"`. c #D49953",
"'. c #DE9D51",
"]. c #D49D5A",
"[. c #DB9E59",
"{. c #E29C48",
"}. c #E09F53",
"|. c #DBA05C",
" X c #EFA857",
".X c #E0A259",
"XX c #E6A65A",
"oX c #ECAB5D",
"OX c #F0AA58",
"+X c #F4B264",
"@X c #F8B567",
/* pixels */
"@.|.+XP.J.k = O K E #.Y Z f 0 w  .h.L ` { z : : 0 N <.W B g 7 # c ~ ( Q c 6 @ 6 <.5.y.v P P q f u.[ Z -.:.Z 4 I L.W.).>.z.l.C 5 ",
"K P.].c.z.t % $ ;.K.v.&.D l w 0 D t.` ` ..b , : 6 V 0.,.) c * # m ~ ) ( W 9 : 8 N V N n ` J 2 : C D D i.g.H y H G.T.`.E R E j 3 ",
"j z.P.J.J.C - 5 (.OXXXI.-.I f w f  .O.+.O.V e : : V 1.1.1.g # + m ~ ) ( W i o + r p a J O.J 0 : Z { &.u.m.H 4 k G.T.J.T T K 3 O ",
"j z.l.z.z.R 5 t c.~.!.H.| Z e 0 f ` e.t.+.' q : > V 1.1.( g # o m 1.) ( W 7 . . r P X.<.8.P s e { M.I.:.p.H 4 u $.| #.E E F 3 O ",
"G z.%.;.;.R 5 5 &.~.~.H.I y : & f e.d.3...n 2 # > n X.X./ g @ o M 7.7.<.W 8 o o V f.F.B.q.J y s [ g.t.[ [ A 4 S ;.E x.v.l.C 3 = ",
"R ).|.(.J.@.t 4 E R.}.r.D 0 & & D C.C.y.+.n * # p x <.^ ^ i o . b 6.) M 9 6 @ : X.q.A.3.' p 4 r { p.g.| Y I d I c.z.}./.v.K < - ",
"l.|.+X(.c.K t 3 D v.:.Z Z d 2 1 P S.s.P P a > > V v / X.W > . . b } / W h 9 # 6 ' 8.j.P v s 1 q { -.t.&.-.@.A @.i.#.(.b.x.R 3 - ",
"c.)._.>.%.C 4 1 H G.p.Z L D d y { V.3.P L b 6 0 ! x V ..! , o + b X.+.<.~ M : : W 8.{ P ' P p s P o.M.M.i.D t C ;.r.(./.T.c.j 5 ",
":.K.G.=.| F 2 3 [ W.!.&.H.&.d e { d.{ P ` a * 2 P h V X.} p & : _ 8.8.3.X.c : # n 2._ ' O.n s s L P J D Z y 3 e E c.b.:.| I 0 w ",
"| G.v.;.[ H 0 0 [ !.I.] &.P e 0 P s.+.` { h * 0 N a V .._ M : > } k.N.8.5.a % @ N 2...2.+.h q 4 Z t.t.[ D D e u { =.E U H F 4 < ",
"D @.#.@.I Z 5 5 =.i.&.&.i.{ 2 $ s +.y.+.{ n i x N v _ 2...' > 0 ..k.j.2.{ q + $ N 5.3.3.O.J y e v w.t.o.[ I t d :.&.:.i.a.;.t - ",
"d I [ =. .H e 1 H J #.i.i.] 0 $ y o.d.3.{ n q f p b { 3.} n : 4 ` y.8.O.B > $ & ` s.s.+.2.P r 0 v -.i.-.-.U w u &.:.i.U.K.:.1 % ",
"Z b.I.H.g.[ y 2 J Y a.M.g.[ e 1 [ M.Z.y.{ v : 6 0 L 8.d.{ h : q o.s.s.+.h 0 : q +.C.f.{ _ f # $ e o.h.y.&.J 5 d u.m.I.g.H.&.- o ",
"Z g.Q.U.U.&.e 1 D o.g.g.-.U s 1 n u.f.o._ r % % > P N.s.{ d : : Z ' +._ p f > 4 ` f.e.{ ` y % X 0 &.h.p.{ Z 1 f u.g.g.g.u.U % X ",
"C t.I.g.V.U : - J g.I.M.w.U e & d u.Z.` J r $ ; d ` t.O._ d 1 ; v o.+.P f v : : _ y.+.{ { y + X e w.g.i.L 0 % 1 Z P U U J Z 1 O ",
"f { p.U.u.d % % ] V.w.-.w.J : % y t.Q.w.{ v : r  .s.Z.y.L n 4 & f y.d.{ n A : $ J w.+...o.s % % s y.E.g.[ 0 O % z  .[ P C Z 2 O ",
"d *.+.V.M.s % % P d.-.+.-.u O O D V.Z.+.o.v 2 f +.t.h.h.{ ] 4 # e +.t.U A v : : { M.-.o.*.C : 1 Z g.{.d.P 0 + 2 +.Y.Z.g.+.U ; $ ",
"L M.V.V.d.d % $ D o.o.y.V.v % % [ M.m.-.Y A 4 z g.Z.Q.h.`  .5 $ u u.[ v A v 4 4 e.S.-.*.&.f & 1 J t.I.y.P 4 . 1 t.S.Q.+.[ n : & ",
"r ` w.t.o.4 o o n 2.+.d.n.d o % [ p.u.t.I A 0 d -.t.t.o.Z Z 1 % D m.t.[ [ L e y *.p.-.=.-.f % ; J w.d.-.P 2 X : 2.d.S.` v r & % ",
"0 _ e.y._ > X o P n.f.d.4.0     n o.p.&.D L e 4 L Y Y I D Z 1 & C t.K.-.o.Y y z  .:.-.-.*.d & 1 P w.o.D p > % e f.V.C.J r 2 O . ",
"n s.s.y.x : . & X.F.D.n.-.e .   [ -.U H [ Y 2 % z [ #.-.m.[ 5 y H p.a.>.=.[ 0 y z [ -.a.i.J 0 1 P e._ f s q 0 v 3.` _ N f 0 # & ",
"5.F.B.8.p * o 0 8.f.+.P J q $ & y.Y.w.*.p.D & O C m.H.!.'.E 1 d U a.g.:.=.I 3 1 Z #.g.U.g.J 4 % v h.] n P L a s n h v N N s r s ",
"{ F.A.5.r : o r 2.2.V h f r : e o.g. .y.t.C & 1 >. XI.!.W.I 1 k I >.!.R.H.Y 2 3 I G.^.U.#.s $ o h V._ f o.` r 1 e a n B ' V v s ",
"r X.8.' 7 > # p 2.4.V n J x e d _ n.P [ @.y < t Y =.Y =.;.H < j D I i.#.Y z t t [ U.`.a.Z 3 o % U e.J J O.N * # 0 M ` X.X.W r > ",
": V 5.W r p 6 a ..+.! V O.{ v f L t.U P  .d 1 < t S S I I u % % t C :.c.=.C 3 5 | K.Y.-.I d % # v n n ..5.h @ O x 2.9.B.6.M * O ",
"q ..6.W a c 7 i ..8.5.o.5.+.p : 2 v o.-.@.k e 1 y $.;.x.;.R 3 O 3 R K.W.v.I 5 e [ U.!.g.t.I 2 5 D L ` 2...s % & _ q.' B b > o . ",
"g X.1.} M x 8 > V 5.N.+.5.J ; o % z -.p.&.f u 4 C `.].oX[.c.C < F T.oXXXL.@.j C v..X~.G.i.D & 1 D { d.d.O.r # : B ,._ m M > X . ",
"! ,.<.,.~ a 7 : b 3.q.+.+.p O   4 -.I.a.#.C d 5 C `.oX@X|.$.5 < C (.oX].L.| 5 5 H #. .&.#.d O & D n f.s.+.s @ % a } W b W a > > ",
"Q ) ) 7.7.a > @ x ..8.+.+.r .   z M.Y.H.a.I d 5 u J._._.).K = O j ).|.J.c.K = < E v.:.[ [ d % ; n f e.+.o.s @ + a } ~ Q ) x * 6 ",
"x ) j.7.6.9 # + x X.q.P L > o   z t.U.u.[ u % - f v.K.J.L.T 3 = j v.c.T K t X % I G.a.>.-.D 1 : D A +.s.3.b * @ x 2.<.6.6.g + + ",
"8 ( ~ c 9 : o o V 5.f.n N d ; ; [ t.M.-.D 4 O < E K.J.L.c.K 3 < j J./.x.l.k O = J :.v.a.#.U 4 & J o.-.g.y.J 6 : h 1.7.7.^ 6 + . ",
"9 ( ^ m a # . o W 8.N.v _ J 0 e t.=.#.i.#.y < C J./.T.K.c.C 3 = K ].+X).P.H - = %.L.~.R.I I 1 % D M. .s.s.n > & 0 N Q c i * # . ",
"c ( ( Q x 6 + 6 2.s.s.x P P 0 f g.[ Z -.:.Z 5 I L./.).z.z.l.C 3 | ].@XP.J.j = O T | #.Y Z l 0 0 { h.L [  .z : : 6 M <.W N x 7 # ",
"m ~ ) ( V a : 8 N B N n _ J 1 1 f D D i.b.I e D G.T.`.E T E j 3 K P.].x.z.j O = ;.K.b.#.D f w w D e.[ ` ..n > > 6 V 9.,.<.c : # ",
"m ~ ) ( W 9 + + q p a L O.J 0 : Z { &.u.b.D 5 k G.T.J.T T T 3 O j x.P.J.J.C = 5 R.OXXXI.=.P f e f o.o.+.O.P q : > B 1.1.) g @ + ",
"M ) ) ~ W 7 .   r P ..2.s.P s r { H.I.t.i.H 5 y %.| $.R $.G 3 O j z.l.z.z.T 5 j a._.!.H.| Z e 0 f ` 3.t.+.` q : > V 1.1.) g # o ",
"M j.j.) Q 7 o o V q.F.B.q.J s s ` u.w.[ [ D 5 F ;.E x.v.;.F 1 = F l.%.l.l.T 3 5 =.~._.H.I y 1 & f e.d.2...D > # > b X./ ( g @ o ",
"c 6.( M p 6 @ : X.q.A.3.{ p 4 q { g.g.| [ I y U c.r.}./.v.K < - E (.[.(.v.$.j 5 Y R.}.w.D w & & A Z.Z.8.O.b ; # p x 1.X./ p o . ",
"c / ( Q a i & 6 ! s.k.V h s 1 q { -.t.&.w.[ F { i.$.(.b.x.I 1 - l.}.+XW.v.K 5 3 D v.-.Z Z d 2 1 U A.p.P P z > , B c ^ ..Q > . . ",
"b / +.2.} m : : W 8.} P ' P f s P o.h.H.i.H t C ;.:.(.(.T.c.j w c.(.(.z.%.C 3 1 H G.a.Z L D d r { V.5.L V b 6 6 ' x V } Q 6 o + ",
"' 8.8.1.X.b * & n ,.` ' O.D s s J P J I Z s 3 e Y v.v.:.@.I w w z.T.v.=.| Z 4 3 Y W.!.+.g.&.d y { f.{ L ` a * 1 V h V X.' p & > ",
"} k.B.8.3.a % @ N 3.} w.O.v 0 4 Z t.-.] D D e y #.=.U I H Z 2 - | b.v.:.| D 0 w @.W.I.Y &.U e 0 P s.2.` { f : q N a L ..W N : > ",
"..N.f.2.{ q + + N 3.3.w.O.J q q v w.t.&.[ J t k ;.=.;.i.a.:.t - H | { | I Z 5 0 =.i.&.#.w. .2 $ s +.t.+...n r x N v W 2...' > 4 ",
"` y.8.X.B > + * ` s.s.2.2.P s 0 Z *.y.-.=.Y e y *.-.i.U.I.:.1 = f H [ :.@.H 0 1 J J #.t.i.[ 0 $ y o.d.e.{ n q f d n } 3.{ N : 6 ",
"o.d.s.X.v q : q O.C.d.' ` f % $ 0 *.h.i.*.J 5 d a.m.H.H.b.#.- O Z b.I.K.g.[ y 4 I [ a.H.h.] e : ` M.Z.y.{ h : 0 6 L s.d.{ h : q ",
"v ` o.` p f > 0 ' f.3.{ ` s % . 0 o.h.u. .C 3 f p.g.M.u.g.Y % X Z h.Y.U.U.&.e 1 D  .u.g.-.] s 1 A p.f.O.` s $ # , _ N.y.{ p : : ",
"v o.+.U f v & : P s.w.{ { e + o y w.g.i.L 0 % 1 v P U U J v 1 o l r.I.h.V.U : & J g.I.M.r.I e & d d.Z.` J r + : d ` 4.o.P d 1 : ",
"z y.s. .n Z : % D w.+.o.o.s % % d i.Y.d.[ 0 O $ z o.[ P z Z 3 $ f { u.I.u.d % % U V.t.2.w.J 1 $ y t.Y.w.{ v ; r  .u.Z.u.P A 2 & ",
"e -.t.U D v 1 : { M.+.o.-.C 1 : Z g.{.f.] 0 + 2 -.Z.Z.d.*.] * + f *.+.C.M.d @ % U u.+.+.-.s $ O D V.Z.-.o.Z 2 d +.w.M.h.{ ] 4 # ",
"y y.[ v v v 4 4 t.S.-.&.o.f & 1 J t.V.t.L 2 X 1 t.S.Q.-.` D 2 & L M.V.V.g.p % O n o.o.y.V.z % % [ M.g.-.[ A 0 z g.U.Q.h.` #.0 O ",
"S H.t.[ [ L e y o.u.-.*.-.f % < J w.d.+.P 4 . 1 +.d.S.{ Z r % % e ` -.t..., O O D +.+.d.M.p o % [ y.u.t.I v 0 d -.t.y.&.n C 3 $ ",
"z t.M.:.&.U d C  .:.t.-.&.f & ; U w.o.D p > + q g.C.C.N r > $ X 0 _ 5.y.` : X O P k.f.f.t.0     D &.y.&.D L e 4 L U U P D Z 1 - ",
"H p.a.:.&.[ 0 y f Y -.a.i.D e 1 P t.` z s e 7 v 2._ _ n f 4 & & n 5.d.s.v : . # +.F.D.N.+.e .   [ +.Y n [ Y 3 % z [ #.-.g.[ 4 y ",
"I G.g.t.=.I 1 1 F %.g.Y.g.L 2 % Z f.` v P N f p n x n N n p r p t.F.C.8.p # o 6 8.d.+.P J q O : y.Y.t.*.u.D & O Z G.H.W.'.E 1 k ",
"I i.W.R.H.[ 4 3 I g.^.U.{ y $ o v V._ z ..` r : r f b N ' V v r ..F.A.5.r : + e 2.2.L x v q * q o.d. .u.i.C & < i. XU.!.W.I < k ",
"H H i.#.[ k w t | U.^.c.D 3 o % P t.J N +.n ; # q M ' X.X._ r > r X.s.' 7 , & p <.3.V n J v e d [ m.U U @.s 1 0 U &.Y ;.-.H < d ",
"w l :.c.=.l 3 w | K.U.-.I d % % v D n o.y.f % O g 2.9.B.6.M * + : V 5.V 9 p 6 a } 2.' L X.{ f f J t.P Y  .d 1 < t G S T I u % < ",
"2 E K.(.v.T w w [ U.!.b.i.L 4 4 n J _ 2.X.s % # ' 9.' B c 6 X . 7 ..9.Q a c r r ..8.4...5.2.d 1 2 A o.-.@.C t < y #.;.z.=.R 3 X ",
"G /.oXXXL.| j Z v..X~.M.p.S ; 1 A { f.d.O.i # : N ,.Q M N > X . a X.<./ M x 8 > B 5.N.2.4.N & o % z -.t.&.f d 5 C _.].+X|.z.C < ",
"F (.oX`.P.| 4 3 D %. .&.#.d O & D A f.s.+.r % @ f } B m W a * 6 ! <.<.) / a 7 : n 1.f.X.2.f O . 4 -.I.a.#.C d 4 C `.XX@X|.;.3 = ",
"y ).[.J.c.K = - Y v.:.[ [ y & - D h w.+...p % + a } ' ! ) g * 6 Q ) ) 6.7.a : @ a ..9.+.+.0 .   z M.Y.H.g.I u 3 y J.)._.(.K < O ",
"j c.c.T H j . = I G.v.:.-.D 1 1 D A +.s.3.b * @ g 1.<.6.6.g # + g ) B.7.1.i @ + b O.f.P L 2 o   z t.U.u.[ y & & d J.K.J.L.R 3 % ",
"C J.).z.;.k % O I :.v.a.#.U 2 & J o.+.g.t.J 4 : h 1.9.9.^ 6 o . 9 ( ~ c p : o + B 3.f.n J p ; ; { t.H.=.H 2 O 1 E L.L.P.c.K 3 < ",
"K ).@X).P.H < % %.L._.Y.I I 2 % n M. .d.s.N > & 7 N _ c a * # . 9 ( ( M 9 # . o W 8.B.v _ J 0 e t.=.#.t.@.u % C J.T./.J.c.C < < "
};
