/* XPM */
static char *result[] = {
/* columns rows colors chars-per-pixel */
"64 64 211 2 ",
"   c #0182FF",
".  c #0A86FF",
"X  c #048BFF",
"o  c #0A8CFF",
"O  c #138CFF",
"+  c #1A8FFF",
"@  c #0693FF",
"#  c #0C93FF",
"$  c #0B9AFF",
"%  c #1394FF",
"&  c #1B93FF",
"*  c #129BFF",
"=  c #1B9CFF",
"-  c #2294FF",
";  c #2995FF",
":  c #239CFF",
">  c #2C9CFF",
",  c #329CFF",
"<  c #0DA3FF",
"1  c #0EACFF",
"2  c #16A2FF",
"3  c #1AA5FF",
"4  c #13ACFF",
"5  c #1BABFF",
"6  c #15B1FF",
"7  c #1DB3FF",
"8  c #14BCFF",
"9  c #1CBDFF",
"0  c #24A4FF",
"q  c #2BA4FF",
"w  c #26A9FF",
"e  c #2AADFF",
"r  c #34A4FF",
"t  c #3BA5FF",
"y  c #35ACFF",
"u  c #3BABFF",
"i  c #22B5FF",
"p  c #2DB1FF",
"a  c #25BBFF",
"s  c #29BEFF",
"d  c #33B4FF",
"f  c #3CB3FF",
"g  c #34BAFF",
"h  c #3ABDFF",
"j  c #43A4FF",
"k  c #4AA7FF",
"l  c #44AAFF",
"z  c #4CACFF",
"x  c #52ADFF",
"c  c #42B5FF",
"v  c #4DB4FF",
"b  c #45BBFF",
"n  c #4ABEFF",
"m  c #51B3FF",
"M  c #5CB5FF",
"N  c #51B9FF",
"B  c #5BBDFF",
"V  c #66B6FF",
"C  c #64BBFF",
"Z  c #6CBCFF",
"A  c #79BFFF",
"S  c #1EC4FF",
"D  c #16C8FF",
"F  c #1BD2FF",
"G  c #1DDEFF",
"H  c #21C4FF",
"J  c #2BC5FF",
"K  c #25CBFF",
"L  c #2CCBFF",
"P  c #32C5FF",
"I  c #3DC2FF",
"U  c #31CCFF",
"Y  c #3ACDFF",
"T  c #2AD3FF",
"R  c #35D3FF",
"E  c #3BD4FF",
"W  c #36D9FF",
"Q  c #3BDBFF",
"!  c #1EE1FF",
"~  c #21EBFF",
"^  c #35E1FF",
"/  c #3EE3FF",
"(  c #3EECFF",
")  c #24F4FF",
"_  c #26FCFF",
"`  c #28FFFF",
"'  c #43C6FF",
"]  c #4DC1FF",
"[  c #44CAFF",
"{  c #4ACDFF",
"}  c #54C5FF",
"|  c #5DC1FF",
" . c #55CAFF",
".. c #5BCCFF",
"X. c #42D5FF",
"o. c #4CD2FF",
"O. c #4BDDFF",
"+. c #52D4FF",
"@. c #5ED0FF",
"#. c #54DBFF",
"$. c #5CDDFF",
"%. c #63C5FF",
"&. c #6CC2FF",
"*. c #66CBFF",
"=. c #6BCBFF",
"-. c #73C5FF",
";. c #7CC3FF",
":. c #73CFFF",
">. c #7ACAFF",
",. c #62D2FF",
"<. c #6BD3FF",
"1. c #63DCFF",
"2. c #6CDBFF",
"3. c #74D1FF",
"4. c #7CD3FF",
"5. c #72DEFF",
"6. c #7ED8FF",
"7. c #44E4FF",
"8. c #4BE5FF",
"9. c #44EAFF",
"0. c #4CEBFF",
"q. c #56E2FF",
"w. c #5CE3FF",
"e. c #51EDFF",
"r. c #5EEAFF",
"t. c #46F3FF",
"y. c #4AF6FF",
"u. c #4EFDFF",
"i. c #53F2FF",
"p. c #5BF4FF",
"a. c #55F9FF",
"s. c #5CF9FF",
"d. c #61E3FF",
"f. c #69E6FF",
"g. c #64ECFF",
"h. c #6BECFF",
"j. c #73E1FF",
"k. c #7BE5FF",
"l. c #72EDFF",
"z. c #7CEAFF",
"x. c #64F3FF",
"c. c #6BF4FF",
"v. c #63FCFF",
"b. c #6DFCFF",
"n. c #73F5FF",
"m. c #74FCFF",
"M. c #7BFDFF",
"N. c #8AC5FF",
"B. c #84CBFF",
"V. c #8CCDFF",
"C. c #94CBFF",
"Z. c #99CFFF",
"A. c #84D1FF",
"S. c #8DD6FF",
"D. c #83DBFF",
"F. c #8BDCFF",
"G. c #91D2FF",
"H. c #9BD2FF",
"J. c #95DBFF",
"K. c #9BDDFF",
"L. c #A5D8FF",
"P. c #ABDAFF",
"I. c #B5DEFF",
"U. c #84E7FF",
"Y. c #8CE3FF",
"T. c #82EDFF",
"R. c #92E5FF",
"E. c #9EE1FF",
"W. c #95EAFF",
"Q. c #9BECFF",
"!. c #86F2FF",
"~. c #8BF5FF",
"^. c #83FCFF",
"/. c #8DFCFF",
"(. c #93F5FF",
"). c #9BF4FF",
"_. c #94FCFF",
"`. c #9BFDFF",
"'. c #A5E3FF",
"]. c #A8E7FF",
"[. c #A3ECFF",
"{. c #ACEAFF",
"}. c #B4E4FF",
"|. c #BAE6FF",
" X c #B3ECFF",
".X c #BEEAFF",
"XX c #A3F3FF",
"oX c #A9F6FF",
"OX c #A3FDFF",
"+X c #ADFAFF",
"@X c #B6F2FF",
"#X c #BCF3FF",
"$X c #B3FDFF",
"%X c #BBFEFF",
"&X c #C7E8FF",
"*X c #C3EDFF",
"=X c #D5EDFF",
"-X c #D9EDFF",
";X c #C1F5FF",
":X c #CCF2FF",
">X c #C5FAFF",
",X c #CCFDFF",
"<X c #D3F5FF",
"1X c #DCF3FF",
"2X c #D1FDFF",
"3X c #DBFAFF",
"4X c #E5F3FF",
"5X c #E3FDFF",
"6X c #EDFCFF",
"7X c #F2FCFF",
"8X c #FBFEFF",
/* pixels */
"_ 8 X @ $ ! ` ` ` D   X @ X @ @ X X X   X 8 _ ` ` ` ` ` ` ` ` ` ` G ` ` ) ) _ D $     X @ X @ $ X       F ` ` G   X X       G u.",
") R T / ( u.u.u.t.5 @ *   X # @       X L y.a.y.t.t.u.y.y.t.u.u.y.2 L t.7./ t.i         X X o * X $ @   T a.u./ X     X   4 b.u.",
"` u.m.m.m.m.m.m.m.J X # X   X X X   @ W b.c.q.o.[ w d w.g.$.g.m.c.w $ { #.c.9.4     o         # % o o X e c.m.g.%   o % s y.m.u.",
"` u.m.m.a.0.i.M.b.W             X 7 9.m.~.2.% = y % o ] 5...f._.r.* X 5 ' h.9.<   X X   X X # * % . o o w T.`.!.u o : ..c._.b.y.",
"` u.i.L 4 $ 4 7.M.p.K 7 % o $ S Q i.m.~.*.> . u | r   N 3.v 1.m.J     X 3 +.w.5       X # X o O O   . & | +X$X$XQ.W.T.$X`._.m.u.",
"` u.F         $ 9.M.v.c.k.w.9.s.m.M._.4..   - C A.C & m -.v Y._.'       o b d.J <     X o o . . & O & - -.,X,X2X$X`._.`.`./.m.u.",
"_ W $   X   X   o._.^._.+X_.M.^.~.(.oXA.+ k ;.N.B.V.-.B.P.|.>X$X2.o   X   f 5.$.E 4 X   X X X   . - > - Z 3X,X%X$Xb.g.o.3.^.m.u.",
"8 $ o X X X X o ..$X+X$X/.5.k.T.oX+X XZ j H.L.Z z ].>X$X>X3X,X$XT.=     X p 2.j.w.J         X X o q r & B.,X$X_.2.a 2   * 1.b.( ",
"X * * X   X   o 1.$X$X_.w.e p } XX>X*XC.A P.P.Z >.$X$X`.$X,X$X`.M.[ $     3 o.2.w.Y $     X # = : v l , K.$X`.w.0     < P l.p.6 ",
"@ 2 % * X   o : F.$X~.o.5 X * p ~.$X2X3X1X-X<X#X$X`._.m.~.W.XX_.M.v.K   X 7 [ ,.5.$.Y 4 o # = y v B x M Q.(.w.w o X   L g.m.Q @ ",
"@ $ # *     # 5.$X~.I $     X # g._.$X,X3X3X2X%X_.n.o.R ' q n { g.m.v.K 5 h  .=.4.5.$.Q [ h f r C Z >.XXT.] # X   X a g.`.m.J X ",
"$ # o     4 8.M._.j.X     @ # % j.$X,X3X.X X$X(.f.s # @ # % o # 5 U c.v.c.k.*.x z F.(.M./.~.W.J.|.<X<X#X=.O X 5 K / c._._.c.a X ",
"@ o     X Q M._.(.{   % o   .   6.>X>X*XG.Q.`.m.W #     X X   X   X 7.m._.+XJ.G.K.>X$XOX$X$X,X5X7X8X1XK.t & :  .s.m._.$X_.d.* X ",
"  X 3 S Q m._._.n.i   # .     % [.$X+X{.}. XoX_.#.*   X # % o # X   g T.$X,X3X,X>X+X~.T.~.+X,X5X7X7X=XZ.Z J.R.(.M.^.`.$X_.c.2   ",
"F / c.v.m._.k.M.i.<   X     . N )._.~.R.{.;X>X$X!.p o $ * % % o X . : Y.>X3X,XoXY.2.[ [ ' ,.R.>X5X4X-X&X|.#XoX~.h.g.n.`.OX^.q.T ",
"` u.b.M.`.$XQ._.c.5   X % q *.Q.^.g.w.j.R.@X,X%X_.j.e # X # #       b oX,X;XD.| n g 5 2 2 p 5.+X,X<X&X*X XQ.^.#.i i X.m.$X_.m.u.",
"! ^ o.2.XX>X>X$X_.o.3 e ..Y.).^.p.J i p  .6.XX_._.n.O.5   X X   X * +.`.$X*.u e e *     X i #._.$X@XP.E.Q.z.w.7     < 0.M._.b.u.",
"X X o = c >.*X,X$X!.q.f.oXOX/.v.H     * g b n $.x.M.c.R X o 2 6 U g._.$X[.y = # #     X # ' T.`.$XE.z C E.W. .*     $ g.OX^.e.H ",
"  X 2 p q u &.&X,X$X_.+X,X%X_.h.U < 5 I n b w # i 7.M.n.9.g.w.0.m._.+X$X_.' X X       o [ T.(./.~.D.t O V.{.3.=   5 { !.M.i.S X ",
"X # e b : % q S.<X,X$X,X3X;XR.<. .J I  .n h 3 X   < 7.M.m._.M.s.7.[ ..oX$X2.w 3   X p #._.`.l.w.f.j.B ; -.|.'.%.c #.T.oX/.g.5   ",
"@ 2 p p % . o B {.<X,X3X&XH.B.*.} d q r u p a @     J m.`.m.9.a @   o ..oX+X!.g.W #.!._.`.l.E 3 s 1.k.:.A.L.|.'.Y.T.oX+XT.g # X ",
"@ 2 e =       ] Y.@X3X1X-XI.V.&.B f & & > q p * X   4 i.M.i.8     X   * j.$X$X_.m._.$X`.^.X.$   6 e.M.`.(.[.}.*X@XXX>X$X~.= # @ ",
"@ * 2     X 3 o.j.Q.,X3X6X4XC.Z C B k z l y h : X   i c.M.y.@   @ $   w z.+X+X$X_.$X>X$XOXl.g H e.^.`._.^.`.{.{.:X>X,X$X~.h   X ",
"X 3 <     5 #.z.6.J.3X7X8X8XC.j , > j M M z v y # X h /._.w.#   @     U b._._._.!.2.N >.$X`.M.s.M.~.f.g.i.l.U.4.'.{.Q.T.g.R X   ",
"  @ #   @ [ k.Y.A.K.3X7X8X6X|.V O   + j k , , & % q ,.+X_.~.w       2 9.M.m.b.w.I 3 & B >X$X_.g.,.I i i 9 Q $.<.D.S.%.} d.e.4   ",
"D 7 w J o.k.Y.S.G.|.5X5X4X-X1X'.z . O ; - - ; - N T.$X$X_._.2.h a K 0.M.m.y.7 #     e 2.oX#XB > 0 5 $     7 X.f.k.3.> O } l.e.L ",
"_ y.c.g.z.D.M z ;.3X,X,X:X3X>X$XD.-     O O & B `._._._.m.m.`./.m.v.M.m.y.8   X   $ Q c.j.u r % = 3 @     # ' T.Y.m + O u h.b.u.",
"_ t.g.z.W.-.k -.E.>X$X+X@X X[.~.~.T.:.%.B.S.D.!.m.g.q.#.Q / m.`._./._.g.I X   X   9 p.g.] . > : q w # X   X p 5.:.t & . q 1.b.a.",
") W o.j.D.-.V. X+X+X/.~.:.r & e w.m._.`.$X%X`.m.9.2 X     @ / M.`.`.c.g o       X R h.o.%   & > : = # X     * [ c .     :  .v.y.",
"< J h y u A.#X+X/.z.[ g o       5 Q g.c._.`.M.y.8           K v.^.m.W         # J w.R #   % & : & % % o   X 3 2.=.;   + c $.8.L ",
"  ^ 8.h } $X+X~.g.p X       # X   X * J n.`.M.9.@   o @ X   4 s.M.y.<     X 2 W m.y.1   X o * & % & 3 *     % T.XXC O & f ' 7   ",
"  u.m./.XX$X_.w.a     $ o   & 2 X X   @ / m.b.T     X # $ X i m.m.W       9 i.M.m.9.    @ X % & % % *       L m._.Q.6.<.+.Y H   ",
"` ^ m._.oX~.m.T $     X # o # =         T v.m.Q             ^ b.m.g X @ $ / M.^.s.H X X # X * % o   X   @ J b._.$X,X,X>X+X/.m.u.",
") 2 [ !.R.j.h.i     X   X X o = % * X   R m._.w.o       X 4 a.M.~.,.o.7.9.M.`.`.c.5 @ * X X o o       X J c._.$X;X:X,X#X`.^.b.u.",
") 5 * o.2.m.9.3       X     X # * o # X e ~.$X!.=   o % a 0.^.OX%X$X_.M.M.M.M.`.m.J X *     X X X   X W m.~.F.N.B.x M R.U.1.r.u.",
"! * X 5 I h.7.<   X X X X   # % O . o o q Q.,XXXy o q @.c.^.`.$X$X`.M.m.a.0.i.M.b.R             X 7 9.m.~.6.- , x + O %.k.{ 8.u.",
"D     X 2 +.w.5       X #   . % O   o & B >X5X,XQ.W.Q.+X_.OX%X+X_.M.i.L 4 $ 4 7.m.s.K 5 = o @ H ^ i.m.~.*., O k N.k   N <.d O.y.",
"D X     o b d.U $     X # # o O & O & - -.5X5X,X$X`._.`.$X%X$X`.M.a.F       X @ 0.M.v.x.z.w.9.s.m.^._.6..   ; A Z.Z - m %.y q.u.",
"G o       u 5.$.E 4   X     o   . & > - Z 3X2X%X$Xc.r.o.2.oX$X_.m.W $   @ X X X o._./._.$X_.m.^.~.~.oXB.+ x N.C.C.N.-.>.U.j.b.u.",
"~ $   o X p 2.5.w.J         X   o q r & B.2X$X_.2.a 2 X % 2.$XQ.n = o   X   o   ..$XOX$X/.j.k.T.oX+X XZ j H.P.V z ].$X$X)./.m.u.",
"_ U @   X 5 o.2.w.Y $     X # = q v j , K.$X`.1.0     < P h.!.v o = * @       # <.$X$X_.w.w p } XX,X:XV.A P.P.Z >.$X$X`.`.M.b.a.",
"` u.L     7 [ @.2.$.E 4 X o 3 y v M m M Q._.$.i o X X J g._.6.- & : % * X   o : Y.+X~.o.5 X * p T.$X,X3X-X1X1X;X$X`._.m.~.g.p.u.",
") u.s.K 5 h } :.4.5.w.E [ h f r C Z >.[.T.{ * X   X J h._.$X%.. - : % $     # 5.$X/.I $     X * d.`.$X2X3X3X,X$X_.c.+.R [ w a K ",
"< U c.v.c.k.*.v z F.).M._.~.W.J.@X-X:X#X-.O   3 K 7.g._.$X>XV O & % o     6 8.M._.5.o     X # % j.$X2X3X.X X%X(.f.s # @ # # X $ ",
"  X 7.m._.+XJ.G.J.,X$X`.$X$X2X5X7X7X3XL.t & = +.s.m._.$X,X].>   % o     X W m._._.{   o . o   . 6.>X,X.XS.Q.`.m.Q @     X o     ",
"X   g !.$X,X3X,X>X+X~.!.~.oX,X5X7X7X=XZ.Z J.J.(.M.^.`.$X,X:Xj .   X 3 S Q m.(._.n.w X * X     O [.$X+X{.|. X+X_.#.#   @ X * X @ ",
"X X = j.+X>X>XoXY.2.[ [ ' ,.R.>X5X4X-X&X|.#XoX~.g.g.n.`.%X2XR.3.,.j.n.v.M._.T.M.i.<   X   . . v )./.!.W.{.*X>X$X!.p # # * % # X ",
"    d /.$X#XD.| b h 5 2 2 p 5.+X,X<X&X*X@XXXT.O.a i X.m.`.%X`._.m._._.M.`.+XQ._.c.5     o q *.).M.g.w.j.R.@X,X$X`.j.e # # o # X ",
"X * +._.+X*.u e p *     X i #._.$X#XP.E.Q.T.w.5 X   < 0.M.`.^.m.0.#.,.5.XX>X>X$X_.o.5 e ..Y.XX^.r.J 7 p } 6.oX_._.l.#.4         ",
"D 9.b._.Q.y & # o X   X # ' T.`.$XK.z C J.Q. .*     # g._.m.0.L X   o : c >.*X,X$X!.q.j.+XOX^.v.K   X * g n n $.x.n.b.R X # 2 6 ",
"_ u.b._._.'   @       # [ T.(./.(.6.t O V.{.3.=   5 { !.M.i.S     X 3 e q t &.*X,X$X_.+X,X%X(.h.P < 2 I n c w # i 7.M.m.9.n.q.9.",
"! L o.~.$X2.w 3   X w $._.`.l.w.f.j.B ; -.|.].%.b #.T.oX_.g.5   X $ e b : % > S.:X,X$X,X3X;XR.5.+.J I  .n h 5 X   2 7.M.m./.b.y.",
"@   # ..+X+X!.x.Q $.!._._.l.X.3 s 1.k.:.4.'.|.'.Y.T.oX>X).b % o # 0 f y %   . %.{.<X,X3X&XH.B.*.} d q r u p i @     J m.OXM.q.9 ",
"  X   % 5.$X$X_.m._.$X`.^.X.$   6 e.M.).).[.{.*X@XXX>X,XXX: o # % q p =       ] R.@X3X1X=XI.V.&.| f & & > q d $ X   4 i.^.a.8   ",
"@ @ X w z.$X+X$X_.+X%X$XOXl.g S e.^.`._.^.`.[.}.:X>X,X$X).h   X # 3 2     X 2 O.j.Q.,X3X6X4XC.Z C B z k l r b 3 X   i c.m.y.$   ",
"@     L c._._._.!.2.N >.@XOXM.s.m.(.g.h.e.h.U.4.E.{.Q.T.h.E o     2 <     5 #.z.6.J.3X7X8X7XC.j , > t V M z v y % X h ~._.w.#   ",
"    < 8.M.m.c.w.I 3 & B >X$X_.g.,.I i 7 9 X.$.<.D.J.%. .d.e.4     @ #   # [ z.Y.A.H.3X7X6X5X.XV O   + j k j , & O w ,.+X_.c.5   ",
"8 K 0.M.M.y.7 # X   e 2.oX@XB q 3 w $     7 X.f.k.3., . } h.0.T K i e s { j.Y.S.H.|.2X5X<X:X3XK.z . O ; - - ; & N T.$X_./.M.X.9 ",
"` u.m.m.y.8   X   $ Q h.j.u r % = 3 @     # ' !.Y.m + O l T.M.v.s.n.~.g.T.6.V k -.;X$X>X#X>X>X+XD.-     O . + B _.`._._.m.M.m.u.",
"` u.m.g.I X       9 p.g.} . : ; q w # X X X e 2.=.r & . r S.`./.M.~.Q.T.[.-.t *.R.+X`.$XXXQ.Q.!.~.T.3.%.B.S.D.!.m.g.q.+.W 7.v.u.",
"` u.c.g X       X R g.o.%   & : : = # X     * [ c o     : *.~.m.c.1.<.k.5.*.=.Q.`._.c.~.,.q & w w.M._._.+X$X`.m.9.2 o     @ O.u.",
"` u.R X       @ L d.R #   % * & % % % o X X 0 #.[ %   % d $.w.U 3 P b e q ..!.^.M.r.U d o       5 W g.c./._.^.a.8           K u.",
"` a.<     X 4 O.b.i.1   X # # * # # * #     $ g.p.a X # i P 7     ^ 8.s P c.b.v.0.i X X     # X   X * P v.m.b.7.X   # @ @   6 y.",
"u.T       S 9.u.u.(     @   @ @ @ $ $ X     S u.u.t.T L L K K     u.u.y.y.u.u.^ 7     $ X   @ < X X   @ ^ u.u.T     X @ @ X 8 u."
};
