/* XPM */
static char *result[] = {
/* columns rows colors chars-per-pixel */
"64 64 211 2 ",
"   c #0182FF",
".  c #0A86FF",
"X  c #048BFF",
"o  c #0A8CFF",
"O  c #138CFF",
"+  c #1A8FFF",
"@  c #0693FF",
"#  c #0C93FF",
"$  c #0B9AFF",
"%  c #1394FF",
"&  c #1B93FF",
"*  c #129BFF",
"=  c #1B9CFF",
"-  c #2294FF",
";  c #2995FF",
":  c #239CFF",
">  c #2C9CFF",
",  c #329CFF",
"<  c #0DA3FF",
"1  c #0EACFF",
"2  c #16A2FF",
"3  c #1AA5FF",
"4  c #13ACFF",
"5  c #1BABFF",
"6  c #15B1FF",
"7  c #1DB3FF",
"8  c #14BCFF",
"9  c #1CBDFF",
"0  c #24A4FF",
"q  c #2BA4FF",
"w  c #26A9FF",
"e  c #2AADFF",
"r  c #34A4FF",
"t  c #3BA5FF",
"y  c #35ACFF",
"u  c #3BABFF",
"i  c #22B5FF",
"p  c #2DB1FF",
"a  c #25BBFF",
"s  c #29BEFF",
"d  c #33B4FF",
"f  c #3CB3FF",
"g  c #34BAFF",
"h  c #3ABDFF",
"j  c #43A4FF",
"k  c #4AA7FF",
"l  c #44AAFF",
"z  c #4CACFF",
"x  c #52ADFF",
"c  c #42B5FF",
"v  c #4DB4FF",
"b  c #45BBFF",
"n  c #4ABEFF",
"m  c #51B3FF",
"M  c #5CB5FF",
"N  c #51B9FF",
"B  c #5BBDFF",
"V  c #66B6FF",
"C  c #64BBFF",
"Z  c #6CBCFF",
"A  c #79BFFF",
"S  c #1EC4FF",
"D  c #16C8FF",
"F  c #1BD2FF",
"G  c #1DDEFF",
"H  c #21C4FF",
"J  c #2BC5FF",
"K  c #25CBFF",
"L  c #2CCBFF",
"P  c #32C5FF",
"I  c #3DC2FF",
"U  c #31CCFF",
"Y  c #3ACDFF",
"T  c #2AD3FF",
"R  c #35D3FF",
"E  c #3BD4FF",
"W  c #36D9FF",
"Q  c #3BDBFF",
"!  c #1EE1FF",
"~  c #21EBFF",
"^  c #35E1FF",
"/  c #3EE3FF",
"(  c #3EECFF",
")  c #24F4FF",
"_  c #26FCFF",
"`  c #28FFFF",
"'  c #43C6FF",
"]  c #4DC1FF",
"[  c #44CAFF",
"{  c #4ACDFF",
"}  c #54C5FF",
"|  c #5DC1FF",
" . c #55CAFF",
".. c #5BCCFF",
"X. c #42D5FF",
"o. c #4CD2FF",
"O. c #4BDDFF",
"+. c #52D4FF",
"@. c #5ED0FF",
"#. c #54DBFF",
"$. c #5CDDFF",
"%. c #63C5FF",
"&. c #6CC2FF",
"*. c #66CBFF",
"=. c #6BCBFF",
"-. c #73C5FF",
";. c #7CC3FF",
":. c #73CFFF",
">. c #7ACAFF",
",. c #62D2FF",
"<. c #6BD3FF",
"1. c #63DCFF",
"2. c #6CDBFF",
"3. c #74D1FF",
"4. c #7CD3FF",
"5. c #72DEFF",
"6. c #7ED8FF",
"7. c #44E4FF",
"8. c #4BE5FF",
"9. c #44EAFF",
"0. c #4CEBFF",
"q. c #56E2FF",
"w. c #5CE3FF",
"e. c #51EDFF",
"r. c #5EEAFF",
"t. c #46F3FF",
"y. c #4AF6FF",
"u. c #4EFDFF",
"i. c #53F2FF",
"p. c #5BF4FF",
"a. c #55F9FF",
"s. c #5CF9FF",
"d. c #61E3FF",
"f. c #69E6FF",
"g. c #64ECFF",
"h. c #6BECFF",
"j. c #73E1FF",
"k. c #7BE5FF",
"l. c #72EDFF",
"z. c #7CEAFF",
"x. c #64F3FF",
"c. c #6BF4FF",
"v. c #63FCFF",
"b. c #6DFCFF",
"n. c #73F5FF",
"m. c #74FCFF",
"M. c #7BFDFF",
"N. c #8AC5FF",
"B. c #84CBFF",
"V. c #8CCDFF",
"C. c #94CBFF",
"Z. c #99CFFF",
"A. c #84D1FF",
"S. c #8DD6FF",
"D. c #83DBFF",
"F. c #8BDCFF",
"G. c #91D2FF",
"H. c #9BD2FF",
"J. c #95DBFF",
"K. c #9BDDFF",
"L. c #A5D8FF",
"P. c #ABDAFF",
"I. c #B5DEFF",
"U. c #84E7FF",
"Y. c #8CE3FF",
"T. c #82EDFF",
"R. c #92E5FF",
"E. c #9EE1FF",
"W. c #95EAFF",
"Q. c #9BECFF",
"!. c #86F2FF",
"~. c #8BF5FF",
"^. c #83FCFF",
"/. c #8DFCFF",
"(. c #93F5FF",
"). c #9BF4FF",
"_. c #94FCFF",
"`. c #9BFDFF",
"'. c #A5E3FF",
"]. c #A8E7FF",
"[. c #A3ECFF",
"{. c #ACEAFF",
"}. c #B4E4FF",
"|. c #BAE6FF",
" X c #B3ECFF",
".X c #BEEAFF",
"XX c #A3F3FF",
"oX c #A9F6FF",
"OX c #A3FDFF",
"+X c #ADFAFF",
"@X c #B6F2FF",
"#X c #BCF3FF",
"$X c #B3FDFF",
"%X c #BBFEFF",
"&X c #C7E8FF",
"*X c #C3EDFF",
"=X c #D5EDFF",
"-X c #D9EDFF",
";X c #C1F5FF",
":X c #CCF2FF",
">X c #C5FAFF",
",X c #CCFDFF",
"<X c #D3F5FF",
"1X c #DCF3FF",
"2X c #D1FDFF",
"3X c #DBFAFF",
"4X c #E5F3FF",
"5X c #E3FDFF",
"6X c #EDFCFF",
"7X c #F2FCFF",
"8X c #FBFEFF",
/* pixels */
"m.g X $ $ 7.M.^.s.F   X @   % % X .     @ J c._.$X,X2X>X+X/.m.u.` ^ b._.oX~.b.U <     X # o O =         T v.m.Q             ^ b.",
"~.,.{ 7.9.m.`.`.n.5 # * . X @ #       X J c._.$X>X:X,X$X).^.b.u.) 3 [ ~.Y.z.c.i           X o 3 % $ @   T m.`.w.@     X   4 a.M.",
"$X+X_.M.M.M.^._.m.J   $     X X X   @ Q b.~.Y.A.B.z M R.!.1.r.u.) 4 % { 2.n.9.4     X X       $ & o o X p ~.$X!.% . o & J 0.M.OX",
"$X`.M.m.a.0.i.M.b.W             X 7 9.m.~.D.& > k & O &.6.{ 8.u.~ * X 5 ' h.8.<   X   X @   # % % . o o q Q.,XXXy o > ..c.^.`.$X",
"`.M.a.L 4 $ 4 7.M.s.K 7 = X $ H Q i.m.~.&., O k ;.k . v <.d X.u.D     X 3 +.w.4         @ . X % O   o & B ,X5X,XQ.W.Q.$X`.OX%X+X",
"m.a.F         $ 0.M.s.c.z.w.9.s.m.M.(.6..   ; ;.H.Z - v %.y q.u.D       o b d.P $     X @ o o O % O & - -.3X5X2X$X_._._.$X%X$X`.",
"m.W $   X   X . o._./._.$X_.m.^.(.~.XXV.+ k N.C.C.C.-.>.U.j.b.u.G o   .   f 5.$.R 4   . o . X   . - > - Z 3X2X%X$Xb.r.+.2.oX%X_.",
"] = o   X   @ o ..$XOX$X/.j.k.U.oX+X XZ k H.P.V x ].@X$X)./.m.a.~ #   X X p <.j.w.L           . o q r & B.,X$X(.2.a 2   # 2.$XQ.",
". = 2 X     . o ,.$X$X_.w.e p } XX>X:XC.A P.P.Z >.$X$X`.`.M.b.u._ U #     5 o.2.w.R $       # = > v j , K.$X_.$.0     $ P h.!.m ",
"& 0 & $ X   X : Y.$X~.o.5 X * p !.$X,X3X1X1X3X.X$X`._.n.!.g.i.u.` u.T     7 { @.2.$.Y 4 o @ 3 y v B m M Q.(.d.i @   X J x._.6.- ",
"- = % *   X O 5.+X~.I $     X # w.`.$X,X3X1X,X$X_.n.#.R [ w J K ) u.p.T 5 h } =.4.5.1.Q [ h f r C C >.XXU.[ $ .   X J x._.$X&.. ",
"& % X     4 0.M._.j.o     @ # % j.$X2X3X|.@X%X_.f.s @ @ # O X $ < P x.v.c.k.=.v z F.(.M./.~.W.J..X=X:X#X:.O . 3 L / g._.$X>XB O ",
"% o     X Q m._._.{   O o .   . D.%X,X*XS.[.`.m.W #     . @       X / m._.+XJ.G.J.,X$X`.$X%X2X5X7X7X1XL.t & & +.x.m.`.$X,X].: . ",
"  . 3 S Q m._._.n.i   $ .     O [.$XoX{.}. X+X/.#.%   @ @ % o X   X g !.$X,X3X,X;X+X~.z.!.+X,X5X7X7X=XH.Z K.R.(.M.M.`.$X,X:Xt . ",
",.j.n.s.m._.U.M.e.<   X   . o v )._.!.R.{.*X>X$X!.p o $ * % @ @ X X = j.+X>X,X{.R.2.{ [ ' @.R.>X5X4X-X&X|.#X+X~.g.g.n.`.%X2XR.:.",
"m._._.M.`.+XQ._.c.5   . o q =.(.^.g.w.j.R.@X2X$X_.j.e # o # #       g ~.$X#XD...b g 5 2 2 d j.oX,X<X&X*X X).!.o.a a E M.`.%XOX_.",
"t.$.,.5.XX>X>X$X_.o.4 p ..Y.`.^.r.J i p  .6.XX_._.c.O.5         X * +._.oX=.y e e *     X i #.(.$X#XP.E.Q.T.w.7     < 0.M.`.^.m.",
"X   o = z >.*X,X$X~.$.2.oXOX/.v.K     * g b n $.c.m.n.R X @ 3 6 F 9.b._.Q.y = % #   X   # [ T.`.$XE.z C K.W. .%     $ g._.M.0.L ",
"  X 2 p q u &.*X,X$X_.+X,X%X_.f.P < 3 I n b w # i 8.M.n.9.z.q.( _ u.b._._.'   @       o [ T._./.~.D.t O V.{.4.&   5 { !.M.i.S   ",
"X * e c : % q S.:X,X$X,X3X#XR.2.o.P I  .n g 5 .   < 7.M.m./.b.u.! J o.~.$X2.w 5     p #._.`.l.w.f.5.| - -. X'.%.b #.z.oX_.g.5   ",
"# = f f % . o | {.<X,X3X&XH.B.=.} g q r y g i @     L b.OX^.0.7 @   o ..oXoX!.g.Q q.!._._.l.X.3 s 1.U.:.>.'.|.].Y.T.oX>XQ.b & X ",
"& q e =       n R.@X3X1X=XI.S.&.| u & & > q p *     4 a.M.a.8     @   % j.+X$X_.m._.$X`.^.X.$   6 e.M.`.).[.{.*X@XXX>X,XXX: # # ",
"# 3 2     X 3 o.j.Q.,X5X6X4XC.Z V B z z l r f 3 X   i c.M.t.$   @ $ X w T.$X+X$X_.+X>X+XOXl.P H e.M.`._.^.).XX}.:X>X,X$X(.b . X ",
"  2 <     5 #.z.4.J.3X7X8X7XC.j , > t V M z m y % X h (._.w.@   @     P b._._._.!.5.N >.@X`.^.s.M.~.f.g.i.l.U.4.E.{.Q.T.h.R X   ",
"  @ @   # [ k.Y.A.K.3X7X6X4X|.V O . O k k j , - O w ,.+X_.c.5       < 7.M.m.c.w.I = = B >X$X_.d.,.I i 7 S E $.<.D.J.%.} d.e.4   ",
"K i w J o.k.Y.S.H.}.,X5X<X:X3XE.l . O ; + - ; + m !.$X_./.M.O.9 8 K 0.M.m.u.7 % .   w 2.oX@XB q 0 5 $     7 X.f.k.3.> O } f.8.T ",
"p.n.!.g.z.6.V z -.>X%X,X#X>X>X+XF.& .   O O & B _._._._.m.M.m.u.` u.m.m.u.8   X   $ Q c.j.u r & = 3 #     @ [ !.Y.m & O c U.M.b.",
"M.~.Q.T.[.-.t %.R.+X_.+X).Q.Q.~.!.T.3.B 4.S.D.T.m.g.q.#.^ X.v.u.` u.m.g.I X       S r.g.] o - : q w $     o p 2.=.r & o r S.`.^.",
"c.1.2.k.5.%.<.W.)./.n.!.@.q & e w.m._.`.+X+X`.M.9.3 o     @ 8.u.` u.c.s X       X R g.o.&   & : : = #       * [ f .     : *.~.m.",
"3 P b q q ..~.~.M.r.L g o       7 X.g.c./._.^.u.8           K u.` a.R .       @ L d.R #   * % & % % & @   X 0 #.[ &   % d $.w.U ",
"  ^ 8.s P c.b.v.e.5 X .   . X     X $ J v.m.b.9.X   @ @ X   4 u.` a.<     X 4 o.b.a.1   X X @ * @ # 2 $     $ r.i.s X # i P i   ",
"  u.u.u.y.u.u.^ 9     $ @   $ < X X   @ ^ a.u.T     X @ $ X 6 u.u.T       9 t.u.u.(     @   # $ @ $ $       H u.u.t.T T L K K   ",
"` ! ` ` ) ) _ D <     X @ X @ $         F ` ` G             ! u._ 8 X $ $ ! ` ` ` D   X X   @ # X X X   @ D ) ` ` ` _ ` ` ` ` ` ",
"y.2 J t./ / t.i           X X 2 @ * X   U u.u./ X     . X 4 c.u.) R T 7./ u.u.u.t.5 @ 2   @ @ #       X J t.u.u.y.t.u.u.t.y.u.u.",
"c.w * { #.c.0.4     X X       % & # o X e c.m.x.=   o % s 0.b.u.` u.b.m.m.m.m.m.m.s X % X   X   X   X W m.c.q.o.' w p w.g.$.r.m.",
"g.$ X 5 ' c.7.<   X   X @ X @ % % . o o w T._.~.y o 0 @.c._.b.y.` u.m.b.a.9.i.M.b.W             X 7 9.m.~.2.% = y O o  .2...f._.",
"L     X 3 +.w.5         # . X O O . o & B +X$X$XQ.W.T.$X`._.m.u.` u.a.L 4 $ 4 7.M.s.K 7 = o # H ^ i.m.!.=.> o t | t . v 4.v ,.m.",
"I       o b w.P $     X # @ o O % O & - -.,X,X,X$X`._._.`./.m.u.` u.F         $ 0.M.s.x.z.w.9.s.m.^./.6..   - C A.B & m &.v Y._.",
"5.@   .   f 5.$.R 4   X o   X   . - > & Z 3X,X%X$Xc.g.o.5.!.m.u._ R $   @   X   o._./._.+X_.m.^.~.~.oXB.+ k ;.V.B.V.-.A.P.}.>X$X",
"T.&   X X p <.j.w.L             o q r + B.,X$X_.2.a 2 . # 2.b.( D * X   X X o o ..$XOX$X/.j.k.T.oX+X XZ k Z.L.V z ].>X$X>X5X,X$X",
"n.X.#     5 o.2.$.R *       # = q v l , K.$X`.d.w     < P l.i.7   $ * X       o 2.$X$X_.w.e e  .XX>X:XC.;.P.P.Z >.$X$X`.$X,X$X_.",
"^.v.K     7 { ,.5.$.Y 4 o # 3 y v M x M Q.(.w.w @     J g.m.Q @ @ 2 % * X   X : D.$X~.o.5 X * p !.$X,X3X-X-X3X#X$X)._.m.~.Q.XX_.",
"g.m.v.T 5 h  .=.4.5.d.E [ h b r C C ;.XXT.[ * .   X s x.`.m.s   $ $ % $   . % 2.$X/.I $     X # w.`.$X2X3X3X2X$X_.n.+.R [ q n { ",
"5 L c.x.c.j.=.v z F.(.M./.~.R.J..X<X:X#X:.o . 5 K / c._.`.b.a X @ # X .   4 0.M._.5.o     X # % j.$X2X3X|. X%X(.g.s @ @ # # o % ",
"  X / m._.+XJ.G.J.>X$XOX$X$X,X5X7X7X1XL., & : +.x.m._.$X_.w.*   @ X     X W M._./.{   # o o . . D.%X,X*XS.Q.`.m.Q #     . @     ",
"  X g !.$X,X3X,X>X+X/.T.~.oX,X5X7X7X=XC.Z J.J.(.M.M.`.$X_.c.4     X 3 S Q m._._.n.w   $ .     O [.$XoX{.}.{.+X_.#.#   X X % o # ",
"X o : Y.,X3X,XoXY.2.[ [ ' ,.R.>X5X6X-X&X|.#XoX~.g.g.n.`.+X/.q.T F / c.v.M._.T.n.i.<   X   . o m )._.!.R.{.:X>X$X!.p @ * * % % o ",
"  . c oX,X#XD.| b h 5 2 2 p j.oX,X<X&X*X XXX!.O.a a X.m.+X_.m.u.` u.b.M.`.+XQ._.c.5   . o q %.(.M.g.w.j.R.#X,X$X_.j.e % @ # #   ",
"  2 #._.+X=.y e p *     X a #._.$X#XP.E.Q.T.w.7     < 0.M./.b.u.) Q o.2.XX>X>X$X_.o.5 e ..Y.`.^.r.J 7 p } 6.XX_._.n.#.4         ",
"R d._.$X[.u & # @     . # [ z.).$XK.z C E.W. .%     $ g.oXM.e.K     o : c >.*X,X+X!.q.j.oXOX/.v.K     * g b n $.c.n.c.R X @ 2 6 ",
"m._.oX$X_.'   @       @ [ !._._.~.D.j O B.{.4.=   5 { !.M.i.F     X 2 p q t &.*X,X$X_.+X,X%X(.f.P < 5 I ] b w @ i 8.M.m.9.g.w.e.",
"7.[ ..oX$X2.w 5   . e #./.`.h.w.f.j.B - -.|.'.%.b #.T.oX_.g.3   X $ w b : % > S.:X,X$X,X3X;XR.2.+.J I  .N h 5 X   < 7.M.m._.M.s.",
"@   o ..+X+X!.g.Q w.!._.).n.E 3 s 1.U.:.A.'.}.].Y.T.oX$XT.g # X @ 2 p w % X o | {.<X,X3X&XH.B.&.} g q r u d i $     L m._.m.9.a ",
"  X   % j.$X$X_.m._.$X`.^.X.$   6 e.M.).(.Q.}.*X@XXX>X$X!.= X @ $ 2 e 3     . n R.@X3X1X=XI.S.&.%.y & & > q p *     4 i.^.a.8   ",
"@ $ X w z.+X+X$X_.+X;X$XOXl.g H i.M.`._.^.).[. X:X>X,X$X~.h . X @ * 2 .     4 o.k.Q.,X3X7X4XC.Z V B l z l r f 3 X   7 c.M.t.$   ",
"X     L b._._._.~.2.m >.$X`.M.s.M.~.f.g.e.n.U.4.E.{.Q.T.g.R X   X 2 <     5 #.k.6.J.3X7X8X7XC.j > , j M M z v y # o h /._.w.o   ",
"    < 8.M.m.c.w.I = & B >X$X_.g.@.I 7 7 9 X.1.<.D.G.%.} d.e.4     @ @   # [ k.Y.A.L.3X7X8X6X|.V O . O k k j , & % w ,.+X_.!.w   ",
"s K 0.M.m.y.7 #   X e 2.oX#XB 0 0 w $     7 E f.z.3., O } l.e.T D 7 w J { k.Y.S.G.}.5X3X1X1X3XP.z . O ; & ; - & m T.$X$X_._.2.g ",
"m.v.M.m.a.8   X   $ W h.j.u r % = 5 @     # [ !.Y.m + o u f.b.a._ y.c.g.z.6.M z ;.<X,X,X:X3X>X$XD.-     O O + B `._._._.m.M.`._.",
"`.^._.g.I X       S p.g.} . > - q w $ X   X p 2.:.t & . q 2.b.u.` t.g.z.W.-.k -.E.>X$X$X#X XQ.~.!.z.3.| B.G.D.!.m.g.w.#.W / m.`.",
"`.`.b.g X         R c.o.%   - : : = #       < [ f . .   :  .v.u.) Q o.j.D.-.V.{.+X+X~.!.3.t & e w.M._._.$X%X`.m.9.2 o     @ / M.",
"^.m.R .       @ L w.R #   % & - & % & X   . 3 2.=.- . O c $.8.K < J I y u A.#X+X_.k.[ g o       5 Q g.c.`._.m.a.8           K v.",
"M.u.<     X 4 Q m.y.1   X @ % = % & 3 $     % !.XXC O & f ' 7     ^ 8.h } @X$X/.g.p X X   . @ .   X * J n.`.M.7.X   # @ @   6 a.",
"m.R       9 i.M.m.9.    @   & & # & * .     J m._.Q.4.<. .Y K     u.m./.XX$X_.w.a     $ X   & 2 X X   @ / m.b.T     X @ $ X i m."
};
