/* XPM */
static char *result[] = {
/* columns rows colors chars-per-pixel */
"64 64 211 2 ",
"   c #0182FF",
".  c #0A86FF",
"X  c #048BFF",
"o  c #0A8CFF",
"O  c #138CFF",
"+  c #1A8FFF",
"@  c #0693FF",
"#  c #0C93FF",
"$  c #0B9AFF",
"%  c #1394FF",
"&  c #1B93FF",
"*  c #129BFF",
"=  c #1B9CFF",
"-  c #2294FF",
";  c #2995FF",
":  c #239CFF",
">  c #2C9CFF",
",  c #329CFF",
"<  c #0DA3FF",
"1  c #0EACFF",
"2  c #16A2FF",
"3  c #1AA5FF",
"4  c #13ACFF",
"5  c #1BABFF",
"6  c #15B1FF",
"7  c #1DB3FF",
"8  c #14BCFF",
"9  c #1CBDFF",
"0  c #24A4FF",
"q  c #2BA4FF",
"w  c #26A9FF",
"e  c #2AADFF",
"r  c #34A4FF",
"t  c #3BA5FF",
"y  c #35ACFF",
"u  c #3BABFF",
"i  c #22B5FF",
"p  c #2DB1FF",
"a  c #25BBFF",
"s  c #29BEFF",
"d  c #33B4FF",
"f  c #3CB3FF",
"g  c #34BAFF",
"h  c #3ABDFF",
"j  c #43A4FF",
"k  c #4AA7FF",
"l  c #44AAFF",
"z  c #4CACFF",
"x  c #52ADFF",
"c  c #42B5FF",
"v  c #4DB4FF",
"b  c #45BBFF",
"n  c #4ABEFF",
"m  c #51B3FF",
"M  c #5CB5FF",
"N  c #51B9FF",
"B  c #5BBDFF",
"V  c #66B6FF",
"C  c #64BBFF",
"Z  c #6CBCFF",
"A  c #79BFFF",
"S  c #1EC4FF",
"D  c #16C8FF",
"F  c #1BD2FF",
"G  c #1DDEFF",
"H  c #21C4FF",
"J  c #2BC5FF",
"K  c #25CBFF",
"L  c #2CCBFF",
"P  c #32C5FF",
"I  c #3DC2FF",
"U  c #31CCFF",
"Y  c #3ACDFF",
"T  c #2AD3FF",
"R  c #35D3FF",
"E  c #3BD4FF",
"W  c #36D9FF",
"Q  c #3BDBFF",
"!  c #1EE1FF",
"~  c #21EBFF",
"^  c #35E1FF",
"/  c #3EE3FF",
"(  c #3EECFF",
")  c #24F4FF",
"_  c #26FCFF",
"`  c #28FFFF",
"'  c #43C6FF",
"]  c #4DC1FF",
"[  c #44CAFF",
"{  c #4ACDFF",
"}  c #54C5FF",
"|  c #5DC1FF",
" . c #55CAFF",
".. c #5BCCFF",
"X. c #42D5FF",
"o. c #4CD2FF",
"O. c #4BDDFF",
"+. c #52D4FF",
"@. c #5ED0FF",
"#. c #54DBFF",
"$. c #5CDDFF",
"%. c #63C5FF",
"&. c #6CC2FF",
"*. c #66CBFF",
"=. c #6BCBFF",
"-. c #73C5FF",
";. c #7CC3FF",
":. c #73CFFF",
">. c #7ACAFF",
",. c #62D2FF",
"<. c #6BD3FF",
"1. c #63DCFF",
"2. c #6CDBFF",
"3. c #74D1FF",
"4. c #7CD3FF",
"5. c #72DEFF",
"6. c #7ED8FF",
"7. c #44E4FF",
"8. c #4BE5FF",
"9. c #44EAFF",
"0. c #4CEBFF",
"q. c #56E2FF",
"w. c #5CE3FF",
"e. c #51EDFF",
"r. c #5EEAFF",
"t. c #46F3FF",
"y. c #4AF6FF",
"u. c #4EFDFF",
"i. c #53F2FF",
"p. c #5BF4FF",
"a. c #55F9FF",
"s. c #5CF9FF",
"d. c #61E3FF",
"f. c #69E6FF",
"g. c #64ECFF",
"h. c #6BECFF",
"j. c #73E1FF",
"k. c #7BE5FF",
"l. c #72EDFF",
"z. c #7CEAFF",
"x. c #64F3FF",
"c. c #6BF4FF",
"v. c #63FCFF",
"b. c #6DFCFF",
"n. c #73F5FF",
"m. c #74FCFF",
"M. c #7BFDFF",
"N. c #8AC5FF",
"B. c #84CBFF",
"V. c #8CCDFF",
"C. c #94CBFF",
"Z. c #99CFFF",
"A. c #84D1FF",
"S. c #8DD6FF",
"D. c #83DBFF",
"F. c #8BDCFF",
"G. c #91D2FF",
"H. c #9BD2FF",
"J. c #95DBFF",
"K. c #9BDDFF",
"L. c #A5D8FF",
"P. c #ABDAFF",
"I. c #B5DEFF",
"U. c #84E7FF",
"Y. c #8CE3FF",
"T. c #82EDFF",
"R. c #92E5FF",
"E. c #9EE1FF",
"W. c #95EAFF",
"Q. c #9BECFF",
"!. c #86F2FF",
"~. c #8BF5FF",
"^. c #83FCFF",
"/. c #8DFCFF",
"(. c #93F5FF",
"). c #9BF4FF",
"_. c #94FCFF",
"`. c #9BFDFF",
"'. c #A5E3FF",
"]. c #A8E7FF",
"[. c #A3ECFF",
"{. c #ACEAFF",
"}. c #B4E4FF",
"|. c #BAE6FF",
" X c #B3ECFF",
".X c #BEEAFF",
"XX c #A3F3FF",
"oX c #A9F6FF",
"OX c #A3FDFF",
"+X c #ADFAFF",
"@X c #B6F2FF",
"#X c #BCF3FF",
"$X c #B3FDFF",
"%X c #BBFEFF",
"&X c #C7E8FF",
"*X c #C3EDFF",
"=X c #D5EDFF",
"-X c #D9EDFF",
";X c #C1F5FF",
":X c #CCF2FF",
">X c #C5FAFF",
",X c #CCFDFF",
"<X c #D3F5FF",
"1X c #DCF3FF",
"2X c #D1FDFF",
"3X c #DBFAFF",
"4X c #E5F3FF",
"5X c #E3FDFF",
"6X c #EDFCFF",
"7X c #F2FCFF",
"8X c #FBFEFF",
/* pixels */
"p.s 7 p  .6.XX_./.n.O.5   X     X * O._.oX=.u e e * X   X a #._.$X@XP.E.Q.T.w.7     < 0.M._.b.y.~ Q o.2.XX>X>X$X_.X.5 e ..Y.OX^.",
"K     * g b ] $.c.n.b.W X o 2 4 R g._.$X[.u * # #       # ' T.`.$XK.z V E.W. .%     $ g.OXM.e.K X   # = l >.*X,X$X!.q.5.XXOX^.v.",
"P < 5 I ] c w # i 8.M.n.9.g.w.e.n._.+X$X_.' . @       # ' T.(._.~.D.t O V.{.4.=   5 { !.M.i.S     X 3 e q u &.*X,X$X_.+X,X%X_.f.",
"+.J I  .N g 5 X   < 7.M.m._.M.s.9.' ,.oX$X2.0 3     p #./.`.l.w.f.j.B ; -.}.'.%.b #.z.oX_.g.5   X * e c q % > S.<X,X$X,X3X*XR.5.",
"} d q r u d i $     J b._.M.9.a @   o ..+X+X!.g.Q q.!._.`.l.E 3 s 1.U.:.4.'.}.].Y.T.oX$X!.g # X @ 2 p e %   o | {.<X,X3X&XH.A.*.",
"| f + & > q p *     4 i.M.a.8     X   % j.+X$X_.m._.$X`.^.X.$   4 e.M.`.).[.}.*X@XXX>X$X!.3 o @ @ 2 p =       ] R.@X3X1X=XI.C.&.",
"C B l z l r c 3 X   i b.M.t.$   # $   w z.+X+X$X_.+X>X$XOXl.g H e.^.`._.^.`.XX}.:X>X,X$X~.g   X @ * 2     X 2 o.j.Q.,X3X6X4XG.Z ",
", > j M M z v y # o g /._.w.o   @     U b._._._.!.2.N >.$X`.M.s.M.~.f.g.e.l.k.4.E.{.Q.U.g.E X   X 4 <     7 #.k.6.J.3X7X8X7XC.j ",
"O . O k k j , & % w ,.+X_.!.w       < 7.M.m.b.w.I = & B >X$X_.d.,.h i 7 9 E 1.<.D.F.%.} d.e.6     @ o   @ { k.Y.A.H.3X7X8X7X|.V ",
"k . O ; & ; - & N T.$X$X_._.2.g J K 0.M.m.y.5 # X X e 2.XX#XB q 0 5 $     6 X.f.k.4.> O N l.e.T D 7 e J o.j.F.F.G.|.5X3X1X3X3XL.",
"D.-     O O + B `.`._._.m.m.`._.m.v.M.M.a.8   X   @ Q h.j.u q & = 5 @     # ' !.Y.x & o u l.b.u._ y.x.g.T.6.M z ;.<X2X,X:X3X>X$X",
"!.T.3.| B.G.D.!.m.g.#.#.Q 7.n.`.`.^._.g.I X   X   S p.g.} o > - q w # X X X p 2.:.t + O w 1.n.u._ t.g.T.W.-.k -.E.>X$X$X X X[.~.",
"w.m._.`.$X%X`.m.9.2 X     @ / M.`.`.b.g           R h.o.%   - > : = #       * { f .   . :  .x.u.) Q O.j.D.-.V. X+X+X/.~.3.r & e ",
"5 Q g.b._.`.m.a.8           K v.^.m.W         @ U w.W #   % % : & % * X X X 3 2.=.-   + c #.8.K < J h y u B.#X+X_.k.' g O       ",
"  X * J b.`.M.7.X   # @ @   6 a.M.y.<     X 4 Q m.t.1   X # % & % & 3 %     % T.XXC + & f ' i     ^ 8.g N $X$X!.g.p X     . #   ",
"X X   X 7.m.b.T     X # $ X i m.n.W       9 i.M.m.9.    @   % = % % * .     J n._.).4.<.+.I K     u.m._.OX$X_.w.a     $ o   * 3 ",
"X       K v.m.Q     X       ^ b.b.d X $ $ 7.M.M.s.S   X #   % % o   X   @ s b._.$X,X,X>X+X/.m.u._ ^ m._.XX~.b.L <     X # X o = ",
"% # #   U m.`.r.X         4 a.^./.,.X.7.7.M.`.`.b.5 @ 2   X # o       X J b._.$X;X:X,X$X`.M.b.u.) 3 ' !.R.k.c.i     X   X X o = ",
"% o #   p ~.$X!.* . o % s 0.^.OX%X$X_.M.M.m.^.`.n.J X * X   X   X   @ Q n.~.F.A.B.z M W.Y.d.r.u.) 5 * o.2.n.8.1     X       X # ",
"% . o o w Q.,XXXu o > ..b.M.`.$X$X`.M.m.a.0.i.M.b.W       X     X 6 9.n./.6.- , x - O %.k. .O.u.! * X 5 ' h.9.<   X   X X X # % ",
"O . o & B >X5X,XQ.W.Q.$X_.OX%X+X_.M.a.J 4 $ 4 7.m.s.K 5 = o @ H / i.m.~.&., . k A k . m <.d X.u.F       3 +.w.5       X # X . O ",
"+ O & - -.5X5X,X$X_._._.%X%X%X_.M.a.F         $ 0.M.v.x.k.w.9.v.n.M._.6..   ; A H.Z - x | f w.u.D       o b d.P $     X # o o o ",
"  - > - Z 3X,X%X$Xb.r.#.2.oX$X`.m.W $   @ X X X o.`.^._.$X_.m.^._.~.XXA.+ x N.C.C.V.-.>.D.j.b.u.G #   X   f 5.$.Y 4   X o X X   ",
"o w r + B.,X%X_.2.a 2   # 2.$XQ.n = o   X   X . ..$XOX$X/.j.k.T.oXoX XZ k H.P.V x '.$X$XOX^.m.u.~ #   X X e 2.5.w.J X           ",
"q v t , K.$X`.w.0     $ P h.!.v o = * @   X   o 1.$X$X_.w.w e  .[.>X:XV.A P.P.A -.$X$X`.`.M.m.u.) R #     5 o.2.$.E $     X # = ",
"v M m M Q.(.d.w # X X J g._.6.& & : % * X   . : F.$X~.o.5 X * p !.$X,X3X1X1X<X.X$X`._.n.!.g.i.u.` u.K   X 7 { ,.2.$.Y 4 o # 3 y ",
"C Z >.XXT.{ *     X s x._.$XC . : & % $     O 5.$X/.I $     X # d.`.$X2X3X<X2X$X`.n.o.E [ 0 s K ) u.v.K 5 g } =.4.5.d.E [ g c r ",
".X=X=X#X=.O . 3 K / h._.$X>XC O & % X .   4 0.M._.5.o     X # % j.$X,X3X.X X%X_.g.s # @ # % X $ < U x.v.c.j.=.m z F.(.M._.~.R.J.",
"7X7X1XL.t & = +.s.m._.$X,X].: . % o     X W m._./.{   # o o .   6.>X,X*XG.Q.`.m.Q @     X o   X   X Q m._.+XK.V.J.,X$X`.$X$X2X5X",
"7X7X-XZ.Z J.R.~.M.^.`.$X,X:Xj .   o 3 S / n._._.n.e   *       + [.$XoX].}. XoX_.#.#   @ X % X @ X X g !.$X,X3X,X;X+X/.!.!.oX,X5X",
"5X5X-X&X|.#XoX~.g.g.n.`.%X2XR.3.,.5.n.v.m._.U.m.i.<   X     o N )._.!.W.{.*X>X$X!.p # * * = o X X X = j.+X>X:XoXY.2.{ I ' @.W.>X",
",X<X&X*X XXX!.+.a i Q M.`.%XOX_.m._._.M.`.$XQ._.c.5     O q =.(.M.x.w.j.W.@X2X$X_.5.e # X o #     X g ~.$X#XD...n g 5 2 2 d 5.oX",
"$X@XP.E.Q.T.w.7 X   < 0.M.`.M.m.0.#.,.5.XX>X>X$X_.o.5 e ..Y.XX^.r.H i d  .6.XX_._.n.O.5     X   X * #._.+X=.y e p * X   X a #._.",
"$XE.z V K.Q. .%     $ r._.M.0.L X   o = l >.*X,X$X!.q.j.+XOX^.v.K     * g b n #.g.M.b.R X # 3 6 F / b._.Q.y & # #     X o ' T.`.",
"~.D.t O V.].4.*   3 { !.M.i.S     X 3 p w t &.;X,X$X_.+X,X%X(.h.P < 5 h n b e # i 9.M.n.7.z.e.( _ u.b._._.'   @       o ' T.(./.",
"f.j.| - -.|.'.%.b #.T.oX_.g.5   X $ p c : & > S.:X,X$X,X3X;XR.2.{ P I  .] g w     < 9.M.m./.b.y.! L { ~.$X2.w 3   X e #._.`.l.w.",
"s d.U.-.4.P.|.'.Y.T.XX>XXXb % o # 0 f y O   o | {.<X,X<X&XH.B.=.} d q r u d i $     J n.OX^.8.7 @   o @.+X+X~.x.Q w.T._._.l.X.3 ",
"4 e.M.`.(.[. X*X@XXX>X,XXX: o # % q p =     . n R.@X3X1X=XI.V.&.| f & & > 0 p $     4 i.M.a.8     X   % j.+X+X_.m._.$X`.^.X.$   ",
"i.^.`._.^.`.XX}.:X,X,X$X(.h . o @ = 2     X 5 o.j.Q.,X5X7X4XC.Z C B l z l r c 3 X X i c.M.t.$   @ @ X w z.$X+X$X_.+X;X$XOXl.g S ",
"m.~.f.g.e.l.U.4.K.{.Q.T.h.Y X   X 3 <     7 #.k.6.J.3X7X8X7XC.j , > j V M k N y # o g _._.w.#   @     L n._._._.~.2.N >.$X`.^.s.",
",.h i 7 9 X.$.<.D.J.%.} d.e.6     @ #   # { j.Y.A.L.3X7X6X6X.XC O . O j k j , & % w ,.oX_.c.5       4 7.M.m.b.w.I = & B >X$X_.g.",
"0 w $     6 X.f.k.3.> O } f.9.T K i w J { j.Y.F.H.}.,X5X:X:X<XE.k . O ; & ; ; + N T.$X`./.M.O.9 8 K 0.M.m.y.5 # X X e 2.XX#XB q ",
"= 3 @     # ' T.Y.m + O l T.M.v.s.n.T.g.T.6.V k -.;X%X>X#X>X>X+XY.& .   O . % B _._._._.m.M.m.u._ u.m.m.a.8   X   @ Q h.j.l r % ",
"w w * X X X p 5.:.r + o r F.`.~.M.~.[.T.Q.-.l %.R.+X_.$XXXQ.Q.!.!.z.3.C B.S.D.!.m.g.q.#.W 7.v.u.` u.m.g.I X       9 p.g.} . : - ",
": = # X     * { f       : *./.m.c.1.<.k.5.%.=.Q.`.~.n.!.,.q & w w.m._._.+X$X`.M.9.3 o     X 8.u._ u.c.g X       X R x.o.%   & : ",
"% % % o     0 #.{ % X O d $.w.L 3 P b e q ,.~.^.^.w.U g o       5 Q d.b./._.^.a.8           K u.` u.W X       @ J d.R #   % % * ",
"# # * $   X # r.i.s o % i P i     ^ 8.s J b.b.v.0.i X X     @ X   X * J v.m.b.9.@   o @ @   4 y.` a.<     X 4 O.b.i.<   X # # % ",
"@ @ $ X     H u.u.t.T T K K H     u.u.y.y.u.u.W 9     $ X   $ < X X X X ^ u.u.T     X @ $ X 6 u.u.T       9 t.u.u.( X   @   @ $ ",
"X X X   @ D ) _ ` _ _ ` ` _ _ _ _ ! _ _ ) ) _ D <     X @ X X $   X     F ` _ G     X .     ! u.) 8 X @ $ ! _ ` ` D   X @ X @ @ ",
"      X L y.u.u.y.t.u.y.y.y.u.u.y.3 L t.7.( t.i     X     X @ * # # X X U u.u./ X       X 4 b.u.) W L / ( u.u.u.y.5 @ *   X # @ ",
"X   X W b.c.q.o.' 0 d q.g.$.g.m.c.w * [ #.c.9.4       X     X # % # o   e c.m.x.&   o % a 0.b.u._ u.m.m.m.m.m.m.m.H X # X   X X ",
"  6 9.m.~.2.% : y % o } 5...f._.w.* o 5 ' h.9.<   X   X X X # % O . o o w !._.~.y o : ..b._.b.u._ u.m.m.a.0.i.M.b.W             ",
"7.i.m.~.*.> . r | r . v 3.v ,.m.L     X 3 +.w.5       X # X o O +   o & B +X$X$XQ.W.T.$X`._.m.u._ u.a.J 4 $ 4 7.M.s.K 7 % o $ S ",
"n.M./.6..   - &.A.C & m -.v Y._.'       o b w.P $     X o X o % % O & - -.,X,X,X$X`._._.`.^.m.a.` u.F         $ 9.M.s.c.k.w.9.s.",
"_.(.XXA.+ z ;.N.B.V.-.B.'.}.>X$X2.o . X   f 5.$.E 4     o X       - > - Z 3X,X%X+Xb.g.o.5.!.m.u._ W $   X   X   o.`.^.`.+X_.M.^.",
"XXoX@XZ j Z.L.V z ].>X$X,X3X,X$XT.%   X X e 1.j.w.J X           % q r + B.,X%X(.2.s 3   % 1.b.9.8 * X X X X X o ..$XOX$X_.5.k.T.",
"XX>X:XC.A P.L.A >.$X$X`.$X,X$X_.M.E #     5 o.2.$.E $   X   % 2 0 v l , L.$X`.$.0     < P l.i.6 X * 2 X   X . o ,.$X$X_.w.e p } ",
"!.$X,X3X1X-X<X#X$X`._.n.~.W.XX_.^.v.K   X 7 { ,.2.$.Y 4 o @ = y v M m M Q._.1.i #   X J g.m.E @ @ 2 % * X     : Y.$X~.o.5 X * p ",
"d._.%X,X1X3X2X$X(.n.O.R ' r n { x.m.v.K 5 I } =.6.5.1.E [ h f r C Z -.XXT.[ $     X s h._.m.H X @ $ % #   X # 5.+X~.I $     X # ",
"j.$X,X3X.X X%X_.f.s # # @ # o * 3 L c.v.h.j.=.z z F.~.M._.~.W.J..X=X:X#X:.O . 5 K / x._.`.n.s X $ # X     4 0.M._.j.o     X # * ",
"D.>X,X.XS.Q.`.n.Q @     X #       X / M._.+XK.G.K.>X$XOX$X%X,X5X7X7X4XK.t + :  .s.m._.$X_.w.$   @ o X   X Q m._._.{   O o   o . ",
"[.$X+X{.}.@X+X_.#.#   @ X % o # X   g T.$X,X3X:X;X+X~.!.!.oX,X5X7X7X=XZ.Z J.R.~.^.M.`.$X_.c.3 X     2 S / n._._.n.i   * .     O ",
")./.!.W.{.*X>X$X!.d # # * * % o X . : Y.>X3X,XoXY.2.{ I ' ,.W.>X5X4X-X&X}.#XXX~.x.g.n.`.OX/.q.T F ^ c.v.m.`.6.M.e.<   X     . v ",
"M.g.w.j.R.@X2X$X_.5.e # o o # X X   c +X,X#XD.| ' g 5 3 2 p 5.+X,X<X&X*X@XXX!.#.a i X.m.$X_.m.u.` u.n.M._.$XQ._.b.5   X o q =.(."
};
