/* XPM */
static char *result[] = {
/* columns rows colors chars-per-pixel */
"64 64 134 2 ",
"   c #1F130F",
".  c #220E0A",
"X  c #24130D",
"o  c #2A160E",
"O  c #2E180F",
"+  c #251713",
"@  c #2A1611",
"#  c #271811",
"$  c #2D1A13",
"%  c #2E1E19",
"&  c #331D15",
"*  c #381E15",
"=  c #321F19",
"-  c #362016",
";  c #3A2216",
":  c #35221B",
">  c #3B251C",
",  c #3D291E",
"<  c #342521",
"1  c #3A2720",
"2  c #3E2A22",
"3  c #412616",
"4  c #40261B",
"5  c #422A1D",
"6  c #4A2F1F",
"7  c #51311C",
"8  c #432D24",
"9  c #492F24",
"0  c #432E28",
"q  c #482F28",
"w  c #453126",
"e  c #4B3225",
"r  c #46322A",
"t  c #4B352B",
"y  c #4F392C",
"u  c #533520",
"i  c #593723",
"p  c #5C3B27",
"a  c #513729",
"s  c #533A2C",
"d  c #5A3D2D",
"f  c #4C3731",
"g  c #4D3932",
"h  c #543D33",
"j  c #593E32",
"k  c #513E39",
"l  c #57412D",
"z  c #5F422F",
"x  c #564136",
"c  c #5B4235",
"v  c #54413A",
"b  c #5C443A",
"n  c #5D483D",
"m  c #66432F",
"M  c #6A432D",
"N  c #624535",
"B  c #654836",
"V  c #61463A",
"C  c #644A3C",
"Z  c #6B4E3C",
"A  c #724B35",
"S  c #6D503E",
"D  c #73533D",
"F  c #594641",
"G  c #5E4941",
"H  c #604741",
"J  c #644D42",
"K  c #6A4F41",
"L  c #675146",
"P  c #6C5243",
"I  c #6C554B",
"U  c #735544",
"Y  c #765946",
"T  c #7C5A44",
"R  c #715649",
"E  c #755B4B",
"W  c #7A5D4B",
"Q  c #705750",
"!  c #745D52",
"~  c #7A5E51",
"^  c #7D614E",
"/  c #766053",
"(  c #7D6252",
")  c #7D6559",
"_  c #7E685E",
"`  c #825B44",
"'  c #815E49",
"]  c #83624E",
"[  c #826553",
"{  c #886650",
"}  c #866855",
"|  c #8C6B55",
" . c #81665A",
".. c #856A5B",
"X. c #8B6D5A",
"o. c #916B56",
"O. c #916F59",
"+. c #8E725E",
"@. c #92735D",
"#. c #98745C",
"$. c #95785E",
"%. c #836E65",
"&. c #896E61",
"*. c #867065",
"=. c #8E7362",
"-. c #8E7469",
";. c #937564",
":. c #997763",
">. c #967A65",
",. c #9B7B65",
"<. c #927769",
"1. c #94796A",
"2. c #9B7C6A",
"3. c #A17E69",
"4. c #9D816C",
"5. c #9B8175",
"6. c #98837B",
"7. c #A3826D",
"8. c #AB876F",
"9. c #A38572",
"0. c #A68A75",
"q. c #AA8A75",
"w. c #A5897A",
"e. c #AC8E7B",
"r. c #B2947C",
"t. c #B9967F",
"y. c #A48B82",
"u. c #AE9283",
"i. c #B59582",
"p. c #BB9A84",
"a. c #B0968B",
"s. c #BE9D88",
"d. c #C09D85",
"f. c #C2A08B",
/* pixels */
"X.B j h g t % X % r A A A ] ] #.$.5.+.n a s t r 2 e &.r.+.X.S e 7 8 = f 8 0 j f q : * 4 q 8 q q d N Z 3.P Z ..Y ] &...O.w.3.' D ",
"[ d b a h g : X # t A D { o.,.7.,.+.*.c x y g t w t ( <.[ W B 8 5 t t j 8 < q 8 0 8 : * 8 q j h q j s P e j N s K ~ W o.&.~ X.~ ",
"V C j 9 n n - X $ r 4.+.| :.3.{ 4.^ c s x c n f w > b ( C C k = ; e 0 h 0 > r g f f 8 - V H H G j K V s 9 e t s V ~ &.Y o.J V j ",
"h f j C h g $ % , L >.) } X.1.o...^ l l s x x f 0 ; s R J H H g j c s y w 0 0 f t t 8 e j ..! I H H K V C C b x j V H p i 9 a h ",
"0 0 g H v t - X : R R R y.u.<.O.=.( P a 9 8 r q ; O 8 c x t r 2 w w w t 8 w , ; : r 2 a J G J n L j b h v h h h 7 n x l 7 p f g ",
"g g v g h 8 : O > f j J K %._ W / C Z e a q f 8 5 O > h t > < 2 > % > 2 > > $ # : > > r 2 r r v H k h f r 1 , w , , 8 r 7 G g f ",
"% < < % : = O @ & 8 0 w f b k k j y Z t t q = 8 0 * 5 8 w r v F v f r > > : * $ % $ : 1 1 2 2 g g 0 ; * : - % - o O : - @ % : % ",
"    + + # X @ O o + # # % : 2 0 c J I s t q q * 5 - > , f g g f g r r 2 r 0 < : : : 1 < 1 2 w 2 8 0 1 2 % @ % @ O % @ X $ X . o ",
"% + % # # = @ @ & X o # $ : 1 2 x b n y 8 5 8 1 8 * 8 q q k k q r w 2 r r w > = % = - : - w , 2 8 2 : ; : : * : % % : > : # # - ",
"k r t 0 * ; - & * * O @ % : < 1 e j c e 9 0 8 q * * e 9 t v 0 = 2 , , 1 , w , = - , - , - ; 2 2 , 8 > ; - : 0 8 w 2 r %.G r f r ",
"L s e C 0 & % & * & & O : 2 > > 5 a c c s 0 8 0 = = ; 9 9 8 * * - - - - ; 5 , > , 2 - > - & , > , * , 0 0 8 f f C I ! ;.( } 1.[ ",
"P e 9 b h w $ # = & ; > > 2 2 1 5 e z e 5 e t : * & 8 9 9 * * 8 - & ; - w l y y B C , ; ; & w c j a n ( ) R  . .*.-._ I ) 6.a.1.",
"[ K s b g t : > - & 8 a n C n y V a 9 5 ; ; ; 0 & $ 8 c j V V j a 6 w e c l x s l S a 6 - ; y L W U ( W  .K R | 1.2.W N [ 1.w.( ",
"Y a j V x h % : # o - s s P C C V s e 8 ; = e 2 : * 8 s  .[ O.&.) / L c P B S c C C l e , 5 c P W W ] } Y U Z R } [ W ;.9.2.P ..",
"N j J V v g > : & ; - y l R Y R I J j h a G r r t 0 0 b ;.} [ S } 1...^ E P c L L C y e B S P Y ^ | ] ] Y W N z P Y X.&.U C s d ",
"s 9 h V L J r 2 , > , s S U ^ ^ W &. .~ ! v t 0 t 0 r Z ..] X.} +.,.>.+.1.) x x l 2 , w S c L ^ ^ @.D W } +.C C i c Y c e a 8 e ",
"9 j H I G F r 8 2 2 , x ^ P U / ^ =.} ( ^ ) x r y w w P E U U { ;.| W X.@._ v r 2 > > , a e b W W +.S E ....Z 6 5 C c e e y 5 ; ",
"q j H Q j f 2 0 2 2 , 6 C Z E ^ S ( ^ E P I l l a 5 6 E Y X.X.T W [ @.X.} _ v 1 1 : > 2 c c V ;.X.E P P ! I c 9 5 c a 5 ; 3 e e ",
"8 q H ..G 0 2 0 w - - , e l U D Z D U I n L v r t > e <.;.W Z S W [ X.X.q.*.b % % % 2 2 c c R W ( C C b ! K h t 5 e 5 ; ; 8 j h ",
"q 8 j J b 0 1 : ; & - , e l ^ / C / E S x n v l s 5 e w.>.' e.o.A W D Y ( I g = % < > > c s B E / P l s K V t * & & - ; 5 5 t h ",
"q 8 j V a r 1 > : > ; ; e y ^ } ) ..| ..n / l l s w a i.q.X.s.#.M ` o.[ ~ L t % $ $ & > a s C W E R e t n h q & & & : ; ; 6 j t ",
"a 9 f j e f 1 2 : : - 5 s l ^ ^ } =.;.@...^ J x s 6 s 0.i.O.i.3.A A } ..R j 0 @ # # O ; e d I U v n e h a 0 1 $ = : - > a e s s ",
"q q 5 9 q , = 2 : , , y x x b S ..4.1.5.0.D n x e e e :.@.} p.8.` M } X.U b e . X O - 5 l h x h r t r f r 8 = = & * 5 r a e y t ",
"8 q 8 8 8 , = 2 , - - : ; , 6 6 S ..Y | :.B l l a 5 p Z Z D 2.@.[ U D C l s > . X O & ; g y t t r r 2 0 1 q * = 2 0 8 w y e e r ",
"* > q q 8 > : r , : : > 5 5 5 3 s ( ;.:.1.P c s 6 ; 7 7 T q.7.+.O.` U N 9 5 * X @ X * 3 a t a y q f * = * = * = 1 8 8 8 8 8 q 8 ",
"h a j t w % : 2 1 , , > 5 e c C c Y 1.+...C c s , 3 N A X.f.d.0.Y U Y ] a 3 & X . & & 9 5 > 5 8 q q * @ O * & * * * * ; t q a q ",
"V k b k f > < 2 w 5 , > 5 5 a c E ( ^ E ( E C c 3 , B | ] X.t.d.} U W Y N B * . $ = & s a e 6 8 r 0 8 8 8 8 * * 0 5 8 h V I &.[ ",
"R j h h t 1 > r r , ; , , ; 5 e c ^ =.B W [ P j 6 i m l p T o.#.9.' ' [ ] h = o X * 8 I :.@.E K J b s i 9 8 q q j v R X.+.W =.;.",
"R j h h t 8 > 2 r , - & , ; ; e a U >.Y ( ( Y B N T 7 7 i | #.3.q.2.C ..! f % + + 2 ) 6.[ X.U U ] =.X.C C V 9 a l l } 7.@.Y @.>.",
" .I j b g 2 r r , > - ; , 6 , a y B | Z ;.[ Z C S ^ T i m | t.3.' Z s v f v < + < g y.-.,.;.| ` #.4.=.V j V 8 5 l ( 4.4.4.| @.S ",
":.Q a b 0 = f t w , - - 6 y e 5 6 s P W ;.R Y U } U D ^ ] @.O.' B d J t 2 k 1   + r y.2.1.X.X.' X.2.+.W J j t w , / | 4.@.@.{ ^ ",
"K 4 * k 9 > v g w , - - u x w > e s ^ $.3.E X.[ Y W } 9.2.$.O.D { [ b v 2 g %   + k 2.:.] :.T { ] 2.;.I j j 9 , > l q.q.| $.^ z ",
"u 8 * f 8 0 j f r * * 4 9 8 r w s N S 9.P C ..Y ] @...@.w.3.' U | B j h f f = + & r A M A ] ' ,.:.5...C t s t r 8 t &.r.X.X.D e ",
"4 t t c 8 : t 0 q 8 * * 8 t v x e j s K u j N s J ~ E | &.W X.W [ d N s f h = . # y Z ` { o.:.3.,.=.=.c j h g t 0 e ( 1.[ E N 8 ",
"; e w s 0 > r f g f 8 * c H G F j K b s 9 a a s V ~ ..T o.C c c j J j 9 G n = X @ t 4.O.o.:.,.| 4.^ c s j v G f 8 ; b ( C C j & ",
"j b t s 0 0 0 f q f 9 9 j ../ I J J J V V H v x j b C p i t y x h f j H h g $ & 1 J >.) { O.1.X.} ^ x l s k j f 9 - s E J H G g ",
"0 0 8 t 8 e 2 : < q 8 t J F J F J j G h x h h h i n j s 7 p g g r 2 f J v r - o < R R I y.u.;.+.=.( S y w 5 t t > O w x x t 0 2 ",
"> = > 5 , : $ # = 1 4 r f 2 f v H j h f r , , r 2 2 8 t 6 n g t g g v f j 2 % O > t j J L %._ E / Z Z w y t r 8 5 O > h t 1 < 0 ",
"v t r , : : = $ = $ * 1 1 2 2 y t 0 * : - - & - X # : & $ - : % % < < % : - O # & 2 0 r t b v x x y S t e w : 5 8 * , 2 2 f v F ",
"g r w 0 0 0 1 = = = 2 : 1 2 2 2 8 0 1 2 @ % % @ @ % # X $ .   +     # # # o @ O o o O # % < < r x C I l e r 0 > 8 - > 2 f g g f ",
"r r 2 t r r , % % - - : > 2 2 2 8 2 * : = > = : & % : > : # o $ % + < + o : # O & X X o $ < 1 w x b V a 9 1 8 1 , = 8 t r k k r ",
"1 , ; > , 2 , - - , , > % , 2 2 , 0 ; , : : 0 2 0 0 r *.G r f f k 2 g 2 - - = & & * o @ % : < > e j j t 9 8 8 0 ; * e e e b 8 = ",
": - - - - , , , 5 5 - - - - ; , , - 4 0 0 0 y g H I ! ;.( } 1.[ K d t G 8 & $ % - = & O - 2 : > , t N j f 9 0 q = * 3 8 9 8 : * ",
"- - - ; e l y y n n 5 ; ; & 6 l h t V (  .I  . .&.-.) I ) 5.a.1.P e e n h 0 % # = - 3 > > 2 2 2 6 e j a 5 9 q 1 = O 4 e 9 * = 4 ",
"s 5 w t c l l l c Z a 5 ; ; y P W U ~ ~ [ P Y } ;.2.W C ..1.w.~ ( K j b f t : > = & 2 y b J b s C t e 4 ; ; 4 0 * @ 8 j j V V V ",
") / S b S n P c Z L l e , 5 c R ' T { [ E U C Y ..[ W =.5.2.P X.R a j H j h % : o O ; a s P B C B s e 8 * * 9 2 1 * 8 s [ [ @. .",
"} >...^ ^ P n L n C a e B P P R ^ o.{ ' Y T B j P Y X.=.U B s s B d C V k h < > & ; - a l R Y R I J j h t G f r q q q V -...[ K ",
"+.,.>...=.) x h y e 5 8 Z c J W ^ @.U Y | ;.C B i c Y c e a 6 e s e s H K H t 2 > > 5 h P U W ^ W ....E ! b r r r 0 q K  .] X.{ ",
";.} ^ X.@._ v r 0 : : , y e B E ^ +.S E ....Z w 3 C c e e a 5 > 0 j b I G F f 2 , , > c ^ R P ^ W ;.} [ ^ ) x r t w w S E Y U { ",
"^ ] @.X.} _ x 1 < > > 2 c c C =.X.E P S / P c 6 5 c y 5 ; 5 e e 0 b H Q v t 2 2 2 2 , 6 n Z E ^ P ( ^ R L I x r y 5 e E U X.X.T ",
"W } | X.e.*.b % $ % 2 2 c c R ^ ( C V b / P h t , e 6 ; > 5 h h 8 t C ..G w 2 r w > - ; 6 l D S Z Y P E n P x y t , e >.@.^ Z Z ",
"A Y U Y ( I g & % > < , c s N Y ! P j h L b e - - - - ; > 5 t j 9 8 b C c r < : : - - , t l ^ / n ^ R P c n x g y 5 e q.2.] e.o.",
"M ` O.[ W L t % $ & & ; y s Z W ! R q a V f 9 = & & - - ; 6 x a q 8 j j s r , > > , - - e a ^ } ) X.| ..n / x l s 9 a u.q.X.s.:.",
"A A ....R j 0 @ o o O ; e d I U v F e s f 9 1 $ & - = > a e y s a q h j t t , 1 : : - 5 l l ^ ^ _ +.>.+...T L x s 6 s 0.r.X.i.3.",
"` M } o.P b r . X O & 5 s x h h q f q f q q = $ & * 2 r a a a t q q 9 8 t , % 2 , , 2 y x x b S ..4.1.4.0.D C s t e u ;.O.| p.8.",
"[ U D C j h > . o o - ; g y t t r r 1 q 1 q 1 * 2 0 0 r y 6 e w 4 9 8 8 2 , = , > - - - ; , 6 6 S ..Y X.1.B z l a 5 s Z Z D ,.;.",
"X.` P V 9 4 * . o X * 3 t e y t r r 2 * * = * = 1 2 4 8 w 0 w , * 8 q q 9 1 * 0 , - - ; , 5 , 3 a } ;.>.>.P c s 6 ; 7 7 T q.7.+.",
"W Y Y ] i 3 & + X & & e 5 5 5 8 0 8 * @ & = O * * ; * , t t y e h q F q 9 $ : 8 2 , 2 , 5 e c C m R >.&...C c s 3 3 N A +.f.s.9.",
"} U Y Y N B % . @ = O a e e e e t e 8 5 4 9 * * 8 8 8 s C R +.) V k j j t : < 8 w , , , w 6 y c R ( W W ( E C c 3 3 B | ] | t.s.",
"9.T ] [ ] h < + X = 9 U :.+.E Z C b s s 9 8 9 t j j R ..=.T +.=.P j k h f 2 : 0 r , ; ; ; ; 5 e c ] =.C W [ P z 6 i N l p T | $.",
"q.2.V ..! g < + + 2 ) 6.} X.U U ' &.X.C V V 8 a h c ..0.$.D $.>.R c h j h 2 ; 2 e , - - 5 ; ; e t P ,.Y ( ( Y B B Y 7 7 i | #.3.",
"' Z j j g F <   < g y.1.,.;.} ` ;.2.;.C V N 5 8 a  .>.3.4.| $.Z ) L h c h 2 r r , > - - 5 8 4 t s B ..S ;.[ Z C P W Y p m | t.3.",
"B j C t 2 k <   + r 6.2.:.X.o.' o.2.O.Q J j a q 5 ^ | $.#.O.} W ,.R s v r : f r w , = & 5 s e 5 6 s S W ;.R Y U | U U T ' #.@.' ",
"{ ' b h 2 g %   % k 3.:.~ :.T | [ 2.-.R d j 0 , > x 0.q.| $.^ N P , - h r < b g 0 2 - ; a j e > e s W :.3.R X.} U W } 9.3.#.O.D "
};
