/* XPM */
static char *result[] = {
/* columns rows colors chars-per-pixel */
"64 64 190 2 ",
"   c #003700",
".  c #003D00",
"X  c #2E3F36",
"o  c #5F0000",
"O  c #640000",
"+  c #6C0000",
"@  c #740000",
"#  c #7C0000",
"$  c #7D1500",
"%  c #472708",
"&  c #462D0A",
"*  c #4D2C0A",
"=  c #532E0B",
"-  c #592F0C",
";  c #47310C",
":  c #49340D",
">  c #493A0E",
",  c #56310C",
"<  c #5A340D",
"1  c #5D390E",
"2  c #60370D",
"3  c #60390E",
"4  c #4F3221",
"5  c #483D2D",
"6  c #533422",
"7  c #543925",
"8  c #5B3A25",
"9  c #553D2A",
"0  c #5B3D2A",
"q  c #613B26",
"w  c #633E29",
"e  c #004400",
"r  c #004C00",
"t  c #005300",
"y  c #005B00",
"u  c #006300",
"i  c #006B00",
"p  c #007300",
"a  c #007B00",
"s  c #2E4137",
"d  c #2F4639",
"f  c #31473D",
"g  c #314A3D",
"h  c #4C422E",
"j  c #54412D",
"k  c #5C412D",
"l  c #4D4332",
"z  c #524534",
"x  c #5B4432",
"c  c #554936",
"v  c #554739",
"b  c #564B3A",
"n  c #5B4D3C",
"m  c #57513D",
"M  c #5B513D",
"N  c #63432D",
"B  c #69442D",
"V  c #624733",
"C  c #684731",
"Z  c #634936",
"A  c #6A4B35",
"S  c #634C3B",
"D  c #6A4D39",
"F  c #66503F",
"G  c #6E513C",
"H  c #7E5439",
"J  c #334C43",
"K  c #345245",
"L  c #34544A",
"P  c #38544E",
"I  c #36594D",
"U  c #365652",
"Y  c #365B54",
"T  c #385C54",
"R  c #375C59",
"E  c #574F40",
"W  c #5B4F41",
"Q  c #575140",
"!  c #5D5241",
"~  c #645341",
"^  c #6D5441",
"/  c #6F5D44",
"(  c #625648",
")  c #705643",
"_  c #6F6249",
"`  c #75644C",
"'  c #78694F",
"]  c #7A694F",
"[  c #7A6B54",
"{  c #7F6D59",
"}  c #7F715A",
"|  c #840000",
" . c #8B0000",
".. c #940000",
"X. c #9D0000",
"o. c #821700",
"O. c #851800",
"+. c #8B1A00",
"@. c #911C00",
"#. c #A30000",
"$. c #AC0000",
"%. c #B30000",
"&. c #BC0000",
"*. c #972900",
"=. c #9B2B00",
"-. c #A32E00",
";. c #A53200",
":. c #AA3400",
">. c #AF3B00",
",. c #B53B00",
"<. c #B33D00",
"1. c #C40000",
"2. c #CC0000",
"3. c #D10000",
"4. c #D80000",
"5. c #B54100",
"6. c #BC4300",
"7. c #BF4800",
"8. c #BB5E00",
"9. c #BF6400",
"0. c #BD6C00",
"q. c #BE7000",
"w. c #84553B",
"e. c #89583D",
"r. c #C34500",
"t. c #C44B00",
"y. c #CA4C00",
"u. c #C65100",
"i. c #CC5200",
"p. c #D25300",
"a. c #C46400",
"s. c #C36B00",
"d. c #CB6D00",
"f. c #C37400",
"g. c #855C40",
"h. c #895B41",
"j. c #866243",
"k. c #896245",
"l. c #87664C",
"z. c #8A664B",
"x. c #806A4F",
"c. c #8D6A4D",
"v. c #95694B",
"b. c #926D4E",
"n. c #806D54",
"m. c #8C6B53",
"M. c #806E5A",
"N. c #936E52",
"B. c #817154",
"V. c #83735B",
"C. c #8A755E",
"Z. c #85795F",
"A. c #8A795F",
"S. c #947154",
"D. c #95735B",
"F. c #9B7759",
"G. c #A07452",
"H. c #A47D5A",
"J. c #857964",
"K. c #8A7C64",
"L. c #907D64",
"P. c #9F7D63",
"I. c #008400",
"U. c #CC8200",
"Y. c #CC8B00",
"T. c #94825D",
"R. c #988364",
"E. c #988964",
"W. c #908169",
"Q. c #A08464",
"!. c #A08964",
"~. c #A0846C",
"^. c #A38C6C",
"/. c #A78F73",
"(. c #A79573",
"). c #AE9673",
"_. c #AB9C73",
"`. c #AF977B",
"'. c #AF9C7B",
"]. c #B69E73",
"[. c #B69C7B",
"{. c #AFA27B",
"}. c #B6A37B",
"|. c #B69E82",
" X c #AFA582",
".X c #B6A282",
"XX c #BEA582",
"oX c #BAA886",
"OX c #BEA98A",
"+X c #C5B08C",
/* pixels */
"z b n v z z z z n W b b b b c l z b m m b b ! ! n m Q ! n v b ! c b c l z z c b ! m z h b m c m c c b m b z z c z x n M F M M c ",
"[ [ ] [ n.n.[ / ` ] ' ` [ V.V.V.V.[ ' } J.W.A.[ [ [ } J.J.[ } J.[ V.A.J.J.V.V.K.K.K.A.V.V.B.} V.} [ [ } B.[ ] { C.V.n.n.B.V.A.W.",
"b n b z z b n ! ! ! ! n n ! M ! ! ! ! ! m ! m n E b b n b b z v ! m b z c v n ! v v E E b c v v b c b b v v v x z z c n c c n b ",
"= 2 < < , < < * * = * < < < * < * , < , 1 , < : , , < < , * , < < < - , < , , , = - = = 1 , 1 < = < 1 < , = , , , = = - = = = , ",
", : e e r y u i u i y r e r * < * < , = 2 * 2 * < , < , < * = < 2 2 = , < , = < = < < = = < 1 < = , , < , - , : 6 8 N B N 8 : * ",
"2 : e e t u i i u u y r r r : < , = = * < < < % , , < , < * < < 2 3 = < , = = < = < < * = , 1 < , , = , , - , : 6 8 B C w 8 : * ",
", : e e r y i i i u y t r r : < < * = * < 2 , * , = < , < : < < , 2 * < < < = < = < - % = = 1 2 , , = , < - , : 6 k C B N 8 & * ",
"* : e . r y i i i i y y r r : < < * R R R > , = , = < = , , < < = < = < < < * , < , = * < = 1 1 < < = , 1 - , : 7 N C N k 9 % * ",
"* : e e t u i u i i u y r t ; < < ; R R R & < = , , = * 1 * 2 , * < * < 2 - = , - * * * < * 3 2 < < * = 2 * < : j N D D x k & , ",
"* ; e e t y p p i i u y r r & = < & R R R & < < < , , , < * 1 < * < % < 2 , = = , < - = < * 2 < = < = < < % < & x Z G G S x & < ",
", & e e r u p a p p i y t r : , < & R R R & , : 2 = , , 1 * 3 < & , % < < , * , * 2 - , < * < < < < = = < = < & n S G ^ S x & , ",
"< : e e r y i a p p i y t t ; < , % R R R : < % < = , - 2 * < < * , * < < = * * * - : o $ =.r.r.y.u.:.@.+ % , & n S ^ ^ S z & , ",
"= ; e e r y i i p p u y t r ; , < ; R R R ; < % < % = = < = < < = < , < < = * * = = ; O o.;.y.t.y.u.,.+.+ & , & S ~ ^ ^ S v * = ",
"= * e e t y i i i i y y r t & , < & R R R % , = < % , = > 2.%. . .$.2.: = * & , < * ; O O.:.u.u.u.i.,.+.+ ; , & S ~ ^ ^ S x : , ",
"= * e e t y i i i i y y r t ; < , ; R Y R % * D.D.m.: * > 1.#. . .$.1.: < < = < < & ; + +.:.u.i.i.p.>.+.+ : - % S ~ ) ^ S x : = ",
", & e e r y i i p i y y r t ; < < ; U U Y ; & D.N.l.: * : &.X.| | #.1.> < < < 1 < * : @ +.;.u.p.u.i.,.+.+ : < % n ^ ) ^ S x ; * ",
"< ; e e t y i i u u y t r r ; , , > I L I ; : m.N.b.> , : 1.#.# # #.1.: < < < < , , > + +.:.u.i.p.p.,.@.+ : < & n W ) ) S x ; * ",
"= ; e e t y i i u u y t e r ; < , ; I L I : : b.S.c.& , : 1.#.| | $.2.: < , * < , = : + +.:.u.i.p.p.,.+.+ : < & n S ^ ^ Z x ; , ",
", & e r t u i i i u y t e e & < , % I K L > ; c.N.c.* 1 > 2.$. ...$.3.: : * * < , * > + +.>.i.i.p.p.:.+.O : = & S S ^ D x j & , ",
"< ; r e t u i u u y t t r e : 1 , % I L K : ; z.b.l.& , : 2.$.| ..%.2.: , * % < = * ; + +.;.i.i.i.y.:.O.O : < & v S D Z x j ; , ",
"< ; r e y u i u y y t t e e > 1 : : Y L I & ; l.N.l.; = ; 1.$.|  .%.2.> < * & < = * ; + +.:.u.i.u.t.;.O.O : < : z Z Z k k j > , ",
", ; e e t y i i y t t r e e > < = : I L K ; ; l.m.l.: * & 1.$. . .$.2.: < , % * < , ; + +.:.t.t.t.t.;.O.+ : < : j Z Z k k 8 > , ",
"* ; e r y u i i y t t r e e : < = * I L L ; ; l.S.l.; = & 1.$. . .$.3.: < < * = = < : O +.;.t.t.t.t.;.+.+ & < : n C N k 8 7 ; < ",
", : e e t u i u y y y r . e : < = % L L L : ; l.m.z.& = : 1.%... .%.2.; , Y.d.d.f.: ; O O.;.t.t.t.t.:.+.+ : < : Z C k k k 7 ; 1 ",
", > r r y u i i u y r r . e & < , % I L L > : m.S.m.; = : 1.$. . .%.4.: : Y.s.s.q.; & O $ ;.r.t.7.7.-.+.+ & , & S Z A N 0 7 * , ",
", > r e y u p i u y t t e e : = < & L U Y : : C.F.D.: , ; 1.$. . .$.3.: : Y.s.9.q.& & O $ ;.7.7.7.7.;.+.+ & , & x Z A C 0 7 ; , ",
"< : e r t i p p i y t t e r : , , & Y Y R ; * D.P.D.: , ; &.$. . .#.2.: : Y.s.s.q.& & O O.-.7.7.5.7.:.+.+ * < & x V D A k 7 ; < ",
"< & r r y u p i u u t r e e : , , & R R R & : D.F.D.; = ; 1.#.|  .#.1.: ; Y.a.s.f.& : O O.;.7.t.5.t.:.+.+ ; < & j V D A k 7 : < ",
", * r r y u i i i y t r e e : - = : R R R ; : L.P.L.: = * &.#.|  .#.1.: : Y.d.d.f.: : + O.;.t.t.5.7.:.+.+ : < * x S D D k 9 : , ",
"! n b b b v z l l 5 5 z v W n b b c b n ! ! ! ( ( W W n m ! ~ n n ! ! F ! ( W W c n W n b b b m b b ! ! Q Q ! ! z b c b m b b b ",
"V.V.V.K.L.L.K.V.K.J.} J.V.J.V.V.J.V.} V.} { } V.V.V.[ ' ' ' [ n.` ` x.M.M.[ ` / [ A.K.Z.} V.} Z.[ } K.Z.} } } V.J.V.V.V.J.J.K.K.",
"`.`..XOX+XOX|.(.~.F.R.E.(.`.[.|.|.|.'.|..X.X.XOX.X.XXXOXXX).^.Q.Q.R.^./.Q.Q.^.[.XXoX.X(.(.{.oX X}.^.R.E.}.oX_.R.R.E.(.(.(.(.(.(.",
"R.^.).[..X[..X.X_.}.}.].}.}.XXXX).[.[.[.)./.^.E.E.!.^.(._.[..X.X[.E.A.^.}.`.E.E.OX.X'.(.'.oX+X+XOX'.^.(..XOX.X|.^.^.!.~.(.|..X`.",
"V.n.[ n.[ V.V.A.L.K.K.K.A.A.V.n.] ` ` ` n.M.M.{ V.Z.K.L.K.Z.V.V.J.A.} V.Z.} } A.V.} } } Z.J.Z.Z.[ [ [ [ ` ` ' } J.} [ ` M.J.J.V.",
"M b z l z c c v z z l z c b n n S n v v c v c v n ! ! m b b n b M ~ ! ! ! m m ! ! ! ~ W m n n b ! b b W ! ! ! ! b ! ~ ! ! ! ~ v ",
", = = < , , , = 2 < < < < , , < < * < 2 < 2 < = * , = , , < , : = - < = , < , 3 , , , < 1 1 , = < 2 = = 2 < , , = = < * 2 = < * ",
", = - < < , , = 2 < < < < = * , < * < 3 : x V D S x 9 : , < < , = = < = = < , 1 - = < < 2 < = = 2 : . . r y u u i i u t e e > * ",
"< < = 2 < , 1 * < < < , < = * < < = < < ; x V D D V x : , < < , * = 2 * * < , , - = , , - < = = < :     r y i i i p i t e e : = ",
"< , - , 2 - 2 , < , 3 < = < = < < , < < : x V D D S 0 & * , < * = * 2 - : , , , < * = < = - = * 2 * . . r y i i p p u y r e : = ",
"< 1 = < < , < , < , 3 < = = < = = < = < ; x Z D D x x & * 1 < * - % , 1 = < < < 2 = : T U T * * < : . . r y u i i p i y t e : < ",
"- = , , = < < - < 2 < < = = < < < = , < : 9 x D G Z V ; = < , < < , = 2 , , < < : , ; R U L : * < : .   e y i u i i u y r t > < ",
"* - < , - , = - = < < < = = < = = , , < : x Z G G Z x : , < , < 2 < = - , < 1 , = , ; Y P L : , < : . . e y u u u u y t e t : < ",
"% < < , , = = = - < < < < = < - % < < < ; 0 V G G S x : , < < < < < < = * , 1 , * = & Y P L > , < : e . e t u u u u t r e r : * ",
"% < , - 1 - = : O o.=.r.6.,.,.-.o.O : < ; x V D G D x > , < , : , < , , = , < * * , % T Y Y * 1 , ; e . r r y y u y t e e e : * ",
"= = , = - , < * O $ *.,.r.<.5.;.O.O & < : x x D G Z x > = < < , , , < < = = < * , < & Y U T * < * ; e e e r y y u y r e . e : , ",
"= = , - * = 1 ; o $ *.r.r.6.5.=.O.O & < : 9 x A G Z x : & 1.#. .| $.1.: - = < - = 1 : T T T : 1 * % e e r y u u u y t e . e ; , ",
"= = , , * , < * O $ -.r.r.6.5.=.O.O ; < > 9 N Z D Z x > & 1.#.| | #.1.; = * z.S.b.: : T T T : 1 = ; e e r y u u y y t r . e ; , ",
"= < < 1 = , < ; O o.-.r.r.6.5.=.o.O : 2 ; 0 N A D V j : & 1.#.| | X.&.; = & k.c.k.: : P U T : < < : e e r y u u y y r e . e ; < ",
"= = = , , , 2 & O O.-.r.r.r.,.-.$ O > < ; k k N C N k ; & &.X.| # X.%.; = : w.h.h.: : K P I & < < & r e t y u u y y r e e e : = ",
", * = , , , < : O O.-.,.6.6.6.-.$ O : , ; 9 N C V k 8 ; & &.X.# # X.%.* , > w.e.h.: : g J K ; < < & e r t y u y y y t e . . ; * ",
", * = < , , < : + +.;.r.r.r.r.-.O.O ; , > 7 N B B 0 7 ; & &...# # ..$.& < > w.w.w.% * g J K : < < % e r y u i u y y e e . . & , ",
", = , < , < < ; + +.:.y.y.r.y.;.O.O : < > 7 0 B B 0 6 > ; %...# # ..$.; , : w.e.H ; : g J K : , < & r r t u i y y y r e . . : , ",
"= , < < , , , & O O.;.r.r.6.6.-.$ O : < > 8 w B B q 6 : : %...# # ..%.; = & g.k.g.& * g f J : , < ; e r y u u y y y r r e . & = ",
", < 2 , = 1 , % O o.-.r.,.r.,.*.$ o ; , : 8 q B w 8 4 : : %...# @ ..%.: = & v.G.N.: ; g s d > , < : r r t u i u y y t r e e & = ",
", , , , , < , * O O.-.6.6.6.,.=.$ o * = * 4 8 w q 8 4 > ; $...# # X.&.; * % v.Q.F.; & g X s > < < ; r r y u p u u u t e e e & * ",
", & U.a.8.0.: : O o.-.6.5.5.5.=.$ O ; , & 4 6 N w w 6 : & %...# # #.1.; = ; b.F.S.& % g X s : < , & t t y i p i i u t e . e : = ",
"= : f.a.9.0.: & + O.-.7.5.6.5.=.$ O : , ; 7 k B C C 9 ; & %.#.| | $.2.; , & S.H.b.> : K J K > , % : r r u i a p u u y e e e : = ",
"< , Y.a.a.s.& ; + +.-.5.5.5.<.=.$ O : < ; 7 k A A N 0 : & &.#.| | #.1.; , ; b.F.c.: ; K K L : < * : e r y i p i i i y e . . * = ",
"< : U.a.a.s.; : O O.-.5.>.5.<.=.O.O ; < ; 7 N A G C k : ; &.#.| | #.1.: < ; b.G.k.: ; K L I : < * : e r y i a p i i y e . . * , ",
", * Y.a.a.0.; ; + O.-.5.>.<.<.=.$ O ; < > 5 k D G V j : ; 1.#.| | X.&.: < ; v.b.j.; & K L I : < , : r y u p I.a i p y r e . ; < ",
", : U.a.a.0.: * + +.-.5.5.>.5.=.$ O & , : j x G G V j : : &.#. .| X.&.: < : v.b.g.: * L L Y : , = : t t u p I.a i p u t e e * < ",
"! ! ! ( ! m b b ( n n c c n c v z z z j j c M M z z j z v n b v ! M n b m m c c W n ! W n b M ~ v c z n ! ! n c n W ! ~ W v b m ",
"Z.J.K.L.K.V.V.J.V.n.[ n.x.` n.n.V.[ [ [ B.n.B.T.A.V.B.B.] ` / / V.n.] ' ] V.V.K.x.M.V.J.[ ] [ V.` _ ` ] V.J.B.` n.V.J.M.n.n.[ n.",
"! b l z m ( m l h z n W n c c n M v v m ! c h z m M ! M b z c v c v c n n n n n n j 5 5 c v c c b b c b c v n b b n n n b n n v "
};
