/* XPM */
static char *result[] = {
/* columns rows colors chars-per-pixel */
"64 64 45 1 ",
"  c #000000",
". c #0B0B0B",
"X c #131313",
"o c #181817",
"O c #1C1C1C",
"+ c #201F1F",
"@ c #242424",
"# c #282827",
"$ c #2C2C2C",
"% c #30302F",
"& c #302F30",
"* c #333333",
"= c #383837",
"- c #373738",
"; c #383738",
": c #3B3B3B",
"> c #444444",
", c #484747",
"< c #484748",
"1 c #4C4C4C",
"2 c #50504F",
"3 c #504F50",
"4 c #4F5050",
"5 c #535353",
"6 c #5B5C5C",
"7 c #636363",
"8 c #6C6C6C",
"9 c #757575",
"0 c #787877",
"q c #777779",
"w c #787778",
"e c #797979",
"r c #7E807E",
"t c #838384",
"y c #898987",
"u c #8A8989",
"i c #949594",
"p c #9D9D9D",
"a c #A1A1A1",
"s c #ACACAD",
"d c #AEB0B0",
"f c #B3B5B4",
"g c #BCBCBD",
"h c #CDCDCC",
"j c None",
/* pixels */
"jjjjjjjjjjjjjjjjjjjjjjjjjjjjjjjjjjjjjjjjjjjjjjjjjjjjjjjjjjjjjjjj",
"jjjjjjjjjjjjjjjjjjjjjjjjjjjjjjjjjjjjjjjjjjjjjjjjjjjjjjjjjjjjjjjj",
"jjjjjjjjjjjjjjjjjjjjjjjjjjjjjjjjjjjjjjjjjjjjjjjjjjjjjjjjjjjjjjjj",
"jjjjjjjjjjjjjjjjjjjjjjjjjjjjjjjjjjjjjjjjjjjjjjjjjjjjjjjjjjjjjjjj",
"jjjjjjjjjjjjjjjjjjjjjjjjjjjjjjjjjjjjjjjjjjjjjjjjjjjjjjjjjjjjjjjj",
"jjjjjjjjjjjjjjjjjjjjjjjjjjjjjjjjjjjjjjjjjjjjjjjjjjjjjjjjjjjjjjjj",
"jjjjjjjjjjjjjjjjjjjjjjjjjjjjjjjjjjjjjjjjjjjjjjjjjjjjjjjjjjjjjjjj",
"jjjjjjjj jjjjjjjjjjjjjjjjjjjjjjjjjjjjjjj ;>*Ojjjjjjjjjjjjjjjjjjj",
"jjjjjjj @;jjjjjjjjjjjjjjjjjjjjjjjjjjjjjj,1:$;ijjjjjjjjjjjjjjjjjj",
"jjjjjjjj;>*jjjjjjjjjjjjjjjjjjjjjjjjjjjjjjj#X*sjjjjjjjjjjjjjjjjjj",
"jjjjjjjjj***jjjjjjjjjjjjjjjjjjjjjjjjjjjjjj  @jjjjjjjjjjjjjjjjjjj",
"jjjjjjjjjj***jjjjjj jjjjjjjjjjjjjjjjjjjjjjjX*ujjjjjjjjjjjjj jjjj",
"jjjjjjjjjjj***jjjj :ajjjjjjjjjjjjjjjjjjjjjj$,5jjjjjjjjjjjj >ajjj",
"jjjjjjjjjjjj**#jj >qjjjjjjjjjjjjjjjjjjjjjjj15:*jjjjjjjjjj :ejjjj",
"jjjjjjjjjjjjj##*@*9jjjjjjjjjjjjjjjjjjjjjjjjjj*$.  jjjjj  *ejjjjj",
"jjjjjjjjjjjjjjXO.4jjjjjjjjjjjjjjjjjjjjjjjjjjjjX#58<&&$$:*8jjjjjj",
"jjjjjjjjjjjjjj ,;fjjjjjjjjjjjjjjjjjjjjjjjjjjjj 5151,15269hjjjjjj",
"jjjjjjjjjjjjjj 75ejjjjjjjjjjjjjjjjjjjjjjjjjjjj 7567jjjjjjjjjjjjj",
"jjjjjjjjjjjjjj 1,%   jjjjjjjjjjjjjjjjjjjjjjjjj :*1jjjjjjjjjjjjjj",
"jjjjjjjjjjjjjj 6*X o>7jjjjj jjjjjjjjjjjjjjjjjj 5:5jjjjjjjjjjjjjj",
"jjjjjjjjjjjjjjO5#@X*,6jjjj :ajjjjjjjjjjjjjjjjjO,;5jjjjjjjjjjjjjj",
"jjjjjjjjjjjjj ,66iiu6;*jj >0jjjjjjjjjjjjjjjjj 1,:>:jjjjjjjjjjjjj",
"jjjjjjjjjjjj *0jjjjjj;#*@*9jjjjjjjjjjjjjjjjj 16jj>$o jjjjjjjjjjj",
"jjjjjjjjjjj  8jjjjjjjj.+.3jjjjjjjjjjjjjjjjj 16jjjj#X#:&*;jjjjjjj",
"jjjjjjjjjjj *djjjjjjjj >:fjjjjjjjjjjjjjjjj 16jjjjjj.O5670jjjjjjj",
"jjjjjjjjjjjO5jjjjjjjjj 75ejjjjjjjjjjjjjjj ,6jjjjjjjjtdjjjjjjjjjj",
"jjjjjjjjjjj#3jjjjjjjjjj5,* jjjjjjjjjjjj  *9jjjjjjjjjjjjjjjjjjjjj",
"jjjjjjjjjj :6jjjjjjjjjj*#X X$4jjjjj  O#:*8jjjjjjjjjjjjjjjjjjjjjj",
"jjjjjjjjjjX19jjjjjjjjjjO;*@*>4jjjj #>1569hjjjjjjjjjjjjjjjjjjjjjj",
"jjjjjjjjj 16ejjjjjjjjjjjisju5;#jj $98jjjjjjjjjjjjjjjjjjjjjjjjjjj",
"jjjjjjjj >6jjjjjjjjjjjjjjjjjj#@*#*9jjjjjjjjjjjjjjjjjjjjjjjjjjjjj",
"jjjjjjj >qjjjjjjjjjjjjjjjjjjjj*:&1jjjjjjjjjjjjjjjjjjjjj jjjjjjjj",
"jjjjjjjjpjjjjjjjjjjjjjjjjjjjjj,:@1jjjjjjjjjjjjjjjjjjjj >ajjjjjjj",
"jjjjjjjjjjjjjjjjjjjjjjjjjjjjj 1>*>1jjjjjjjjjjjjjjjjjj :ejjjjjjjj",
"jjjjjjjjjjjjjjjjjjjjjjjjjjjj 16jj1*#jjjjjjjjjjjjjjj  *ejjjjjjjjj",
"jjjjjjjjjjjjjjjjjjjjjjjjjjj 16jjjj##@jjjjjjjjjj  O#:*8jjjjjjjjjj",
"jjjjjjjjjjjjjjjjjjjjjjjjjj 16jjjjjj@*,jjjjjjjj #:4569hjjjjjjjjjj",
"jjjjjjjjjjjjjjjjjjjjjjjjj ,6jjjjjjjj,;;jjjjjj ,67jjjjjjjjjjjjjjj",
"jjjjjjjjjjjjjjjjjjjjjj  .*9jjjjjjjjjj*#X    .*9jjjjjjjjjjjjjjjjj",
"jjjj o#;$3jjjjj  +$$>,>1@5jjjjjjjjjjjj*O,711#5jjjjjjjjjjjjjjjjjj",
"jjjj#<:1>5jjjj $:15585:$Osjjjjjjjjjjjj;*15,$Osjjjjjjjjjjjjjjjjjj",
"jjjjjjju5;%jj <67jjjj7#X$gjjjjjjjjjjj 1588%X$gjjjjjjjjjjjjjjjjjj",
"jjjjjjjjj*#*@*9jjjjjjj  ;jjjjjjjjjjj *wjjj  #jjjjjjjjjjjjjjjjjjj",
"jjjjjjjjjjX+ 5jjjjjjjj X,jjjjjjjjjj .8jjjjjX*ujjjjjjjjjjjjjjjjjj",
"jjjjjjjjjj &.ajjjjjjjjX19jjjjjjjjjj *djjjjj$,5jjjjjjjjjjjjjjjjjj",
"jjjjjjjjjj 31gjjjjjjj 16ejjjjjjjjjjO5jjjjjj15;;jjjjjjjjjjjjjjjjj",
"jjjjjjjjjjj*5jjjjjjj 16jjjjjjjjjjjj#5jjjjjjjj;%#jjjjjjjjjjjjjjjj",
"jjjjjjjjjj :6jjjjjj 16jjjjjjjjjjjj :6jjjjjjjjjXX.jjjjjjjjjjjjjjj",
"jjjjjjjjjjX19jjjjj ,6jjjjjjjjjjjjj 19jjjjjjjjj #Otjjjjjjjjjjjjjj",
"jjjjjjjjj 16ejjjj *wjjjjjjjjjjjjj *wrjjjjjjjjjj;1fjjjjjjjjjjjjjj",
"jjjjjjjj ,6jjjjj $9jjjjjjjjjjjjj $9jjjjjjjjjjjj$,pjjjjjjjjjjjjjj",
"jjjjjjj >9jjjjj o6jjjjjjjjjjjjj.$6jjjjjjjjjjjjj;1ujjjjjjjjjjjjjj",
"jjjjjjjjpjjjjjj 76jjjjjjjjjjjj **1jjjjjjjjjjjjj$>5jjjjjjjjjjjjjj",
"jjjjjjjjjjjjjjjj>>=jjjjjjjjjj ,1:::jjjjjjjjjjjj25;;jjjjjjjjjjjjj",
"jjjjjjjjjjjjjjjjj**#jjjjjjjj $wjj:**jjjjjjjjjjjjj:**jjjjjjjjjjjj",
"jjjjjjjjjjjjjjjjjjoX.jjjjjj .8jjjj*@@jjjjjjjjjjjjj*@@jjjjjjjjjjj",
"jjjjjjjjjjjjjjjjjj #otjjjjj *sjjjjj#6ajjjjjjjjjjjjj@6ajjjjjjjjjj",
"jjjjjjjjjjjjjjjjjjj:5fjjjjj@5jjjjjjjpjjjjjjjjjjjjjjjpjjjjjjjjjjj",
"jjjjjjjjjjjjjjjjjjj%6jjjjjj$5jjjjjjjjjjjjjjjjjjjjjjjjjjjjjjjjjjj",
"jjjjjjjjjjjjjjjjjjj*6jjjjjj*7jjjjjjjjjjjjjjjjjjjjjjjjjjjjjjjjjjj",
"jjjjjjjjjjjjjjjjjjj;ejjjjjj;qjjjjjjjjjjjjjjjjjjjjjjjjjjjjjjjjjjj",
"jjjjjjjjjjjjjjjjjjjjjjjjjjjjjjjjjjjjjjjjjjjjjjjjjjjjjjjjjjjjjjjj",
"jjjjjjjjjjjjjjjjjjjjjjjjjjjjjjjjjjjjjjjjjjjjjjjjjjjjjjjjjjjjjjjj",
"jjjjjjjjjjjjjjjjjjjjjjjjjjjjjjjjjjjjjjjjjjjjjjjjjjjjjjjjjjjjjjjj"
};
