/* XPM */
static char *result[] = {
/* columns rows colors chars-per-pixel */
"64 64 46 1 ",
"  c #2E2A23",
". c #332E26",
"X c #352F28",
"o c #363129",
"O c #3A342B",
"+ c #3D382F",
"@ c #3E3930",
"# c #40372B",
"$ c #453B2E",
"% c #473E32",
"& c #493E31",
"* c #4D4334",
"= c #4E4539",
"- c #4F483B",
"; c #514636",
": c #50473A",
"> c #544A3B",
", c #5A4E3D",
"< c #5E513F",
"1 c #574F40",
"2 c #594F41",
"3 c #5C5243",
"4 c #635542",
"5 c #665945",
"6 c #695B46",
"7 c #605848",
"8 c #6D5E49",
"9 c #705F4A",
"0 c #6E614B",
"q c #73634D",
"w c #756650",
"e c #786750",
"r c #766952",
"t c #7B6B53",
"y c #7C6E58",
"u c #7E7057",
"i c #7E7159",
"p c #806E56",
"a c #817057",
"s c #83735A",
"d c #88775C",
"f c #86795E",
"g c #8A795E",
"h c #8A7C60",
"j c #8C8063",
"k c None",
/* pixels */
"8q9q5qqq5<6qeetisq8qe8qrsaeq6<,,6eetqq9q0wyrq660q5660wwy000tw0rj",
"q>;;**;****;;*;;=*&:>;:;>:*$&&&&;;;;;&$*******&**&*;;*******;*;w",
"p;$$**;*;;;***;;**=>>***;*$$$$;;;*:;*&#&**********><>***=*>**+*0",
"5&#;5e090qe500twq9wyirqrt05565qqtqe8q8556qtr0q8q0tuiyq600ru0>#*4",
"5$&4,9eqqrr00qurtrryr00wrq8888rqtttqqq866wrrwtqtetrte00yjdt<6**0",
",$&9946et3ooo.oooX.oOXoX..oooooOOOOOOO.....o.ooo...o..;rsw460**q",
"4&;qeq49ui>kkkkkkkkkkkkkkkkkkkkkkkkkkkkkkkkkkkkkkkkkk*wqq<0t9**e",
"6&;epe94qtt:kkkkkkkkkkkkkkkkkkkkkkkkkkkkkkkkkkkkkkkk>ty640pt0**9",
"5;;tryt8<8tt>kkkkkkkkkkkkkkkkkkkkkkkkkkkkkkkkkkkkkk1dsq50auq0**6",
"q;;et>yt8<0qt:kkkkkkkkkkkkkkkkkkkkkkkkkkkkkkkkkkkk>tpq5qaa;00**0",
"5*;q0.1tq6<8tt-kkkkkkkkkkkkkkkkkkkkkkkkkkkkkkkkkk=trq<qta<o0q*;a",
"q;;qq.k2t64<ydt=kkkkkkkkkkkkkkkkkkkkkkkkkkkkkkkk=qr648tt>k.qq;;a",
"q;&9q.kk>5588ust*kkkkkkkkkkkkkkkkkkkkkkkkkkkkkk>eqq6wtt>kk.q0;;e",
"p;*9rokkk=8rt6qse=kkkkkkkkkkkkkkkkkkkkkkkkkkkk>sp830ss3kkk.e0;;t",
"t;*9qokkkk>rt84qpt>kkkkkkkkkkkkkkkkkkkkkkkkkk>psq7rsd3kkkk.q8;*e",
"p;;qtOkkkkk3q84,8tt>kkkkkkkkkkkkkkkkkkkkkkkk:tpt0ids3kkkkkOq0&*e",
"9;;qeokkkkkk>qq6<qtt:kkkkkkkkkkkkkkkkkkkkkk;tt94wff3kkkkkkOr0*:t",
"q;>rtOkkkkkkk>q86,8tp>kkkkkkkkkkkkkkkkkkkk>ee6<8ud3kkkkkkkOr0*:s",
"9*;q0okkkkkkkk3rpq5qtu>kkkkkkkkkkkkkkkkkk*eq5>5rt3kkkkkkkkOye>>s",
"q;&80Okkkkkkkkk3spt8yds:kkkkkkkkkkkkkkkk=8t9,46w3kkkkkkkkkotq;;t",
"9*&56.kkkkkkkkkk2shs6ryu:kkkkkkkkkkkkkk:t986rq8>kkkkkkkkkk.te,,t",
"q;*8wokkkkkkkkkkk3dhi80qt-kkkkkkkkkkkk=tr66ydr:kkkkkkkkkkkoqq;;e",
"q**qyokkkkkkkkkkkk1iiw4qsa=kkkkkkkkkk=ttq3tdg>kkkkkkkkkkkkoqt;>q",
"q**8tokkkkkkkkkkkkk-yyw8rir=kkkkkkkk:qt838te>kkkkkkkkkkkkk.re;;q",
"e;&50okkkkkkkkkkkkkk>tsy8rtt:kkkkkk>ttq5ttt>kkkkkkkkkkkkkkowq*:t",
"9;&58.kkkkkkkkkkkkkkk3ss070ye:kkkk>rr65qtq2kkkkkkkkkkkkkkk.0q*,a",
"q;*60okkkkkkkkkkkkkkkk>te8<qpp:kk=it8,qpu,kkkkkkkkkkkkkkkkXwe;>p",
"q;&66okkkkkkkkkkkkkkkkk1qq85ese,>qr848ss>kkkkkkkkkkkkkkkkk.rt>>a",
"t*$<6.kkkkkkkkkkkkkkkkkk<qtq5qppwe86tss3kkkkkkkkkkkkkkkkkk.qq**t",
"t*$50okkkkkkkkkkkkkkkkkkk-tt9<9p06-qth7kkkkkkkkkkkkkkkkkkk.86*;t",
"e**8rOkkkkkkkkkkkkkkkkkkkk,r95,q0<6tt3kkkkkkkkkkkkkkkkkkkko06**q",
"q**5rokkkkkkkkkkkkkkkkkkkkk=q64&*6qq=kkkkkkkkkkkkkkkkkkkkkOe6$&0",
"5**60okkkkkkkkkkkkkkkkkkkkk*q54$;0au:kkkkkkkkkkkkkkkkkkkkkOtq$#5",
"6$*<0okkkkkkkkkkkkkkkkkkkk=q64,606ifi-kkkkkkkkkkkkkkkkkkkkOte*&8",
"t**5rOkkkkkkkkkkkkkkkkkkk*q6<*6rurwihi=kkkkkkkkkkkkkkkkkkkOrt;;8",
"s;*70okkkkkkkkkkkkkkkkkk-q65;5qissi70q8*kkkkkkkkkkkkkkkkkkOtt>>r",
"s;*<8.kkkkkkkkkkkkkkkkk>tq5>68q>1tsq3065%kkkkkkkkkkkkkkkkk.qq;;q",
"q**88.kkkkkkkkkkkkkkkk>ts640id1kk>eq0<465&kkkkkkkkkkkkkkkk.q9;;q",
"<#&qrXkkkkkkkkkkkkkkk=ttr4rys1kkkk,taq<575=kkkkkkkkkkkkkkk 56;;9",
"<OO8rokkkkkkkkkkkkkk>tq06tgf3kkkkkk>peq,35r>kkkkkkkkkkkkkk.0q;;q",
"4##4qokkkkkkkkkkkkk>re54qai3kkkkkkkk1td035tr>kkkkkkkkkkkkkXqq;*6",
"q$#<5Xkkkkkkkkkkkk>tr6,8ys2kkkkkkkkkk3syt30qt>kkkkkkkkkkkkorq*;6",
"9$$6qXkkkkkkkkkkk>tr5,9ts2kkkkkkkkkkkk7sdr66tt:kkkkkkkkkkk.65**6",
"e**9qXkkkkkkkkkk>stq,5et3kkkkkkkkkkkkkk3sse38rq*kkkkkkkkkk.66&;q",
"t;;rtXkkkkkkkkk>tsq46qt2kkkkkkkkkkkkkkkk<adq48ee=kkkkkkkkk 69;;e",
"s;:qtOkkkkkkkk>rqq499e,kkkkkkkkkkkkkkkkkk<tq6,8pt>kkkkkkkk.qq;,a",
"q**8tOkkkkkkk>t9648eq2kkkkkkkkkkkkkkkkkkkk>ete59ty>kkkkkkk.eq;>a",
"q**68.kkkkkk=te5,8te>kkkkkkkkkkkkkkkkkkkkkk3tsq<6tw=kkkkkkoq8&;t",
"q;*65 kkkkk>et6,quh3kkkkkkkkkkkkkkkkkkkkkkkk4ht6,qyr=kkkkk.65#&q",
"q;*06 kkkk>pt9,6tt3kkkkkkkkkkkkkkkkkkkkkkkkkk2qq84qqq%kkkk 86&&6",
"q;*q8Xkkk=rt5,5qt3kkkkkkkkkkkkkkkkkkkkkkkkkkkk>8ye80q8=kkk.qq;*8",
"t;*88Okk*qe9,558>kkkkkkkkkkkkkkkkkkkkkkkkkkkkkk:eqq3qtt:kk.tt>>r",
"t>;80ok>qe95996&kkkkkkkkkkkkkkkkkkkkkkkkkkkkkkkk>qqq6008=kOqq;;t",
"u>*00.>q965wt9:kkkkkkkkkkkkkkkkkkkkkkkkkkkkkkkkkk:qyr6666*.rq;;e",
"q**60>tt95qtt>kkkkkkkkkkkkkkkkkkkkkkkkkkkkkkkkkkkk3dhw4698>e9&&q",
"6**0wwt64ete>kkkkkkkkkkkkkkkkkkkkkkkkkkkkkkkkkkkkkk3syr469epq&$9",
"q;*qtp04qpt>kkkkkkkkkkkkkkkkkkkkkkkkkkkkkkkkkkkkkkkk3ssq,6pp6$&6",
"6*>pp6,0te1kkkkkkkkkkkkkkkkkkkkkkkkkkkkkkkkkkkkkkkkkk>uuq<epr$&6",
"9*;p8,6et>OOOOOOOOOOOo.oOOO+++++OOOOOOOO+++++@OOOOXoo+1ut646q&&9",
"4&*4,4qttq99wwrwttuutq0q0q0wruiirrtitrwq0wussiitsr088rufhp9,4*&8",
"6*$$48qeqeq98698eqqqqq606wqwqytiqttpr65460eetttqww088quaatq6;$$6",
"q*$#;;>>>>;*&;;&;;;;;;*;*>>;*;*:;>>>:&&#$#**;;;***=***<,,;**$&*6",
"q;**>>>;;;;&&&&**;;;;;*;;,,;;&;>;;;;;&$$$**;*********;,,;;;*:;>r",
"q0teaatqqtr99qqeettteeqertrwqqtsatettteq60qtqq0qyrr8qrsae8qqtsdd"
};
