/* XPM */
static char *result[] = {
/* columns rows colors chars-per-pixel */
"64 64 61 1 ",
"  c #7D7D7D",
". c #807F7F",
"X c #7F807F",
"o c #7F7F80",
"O c #7F8080",
"+ c #848484",
"@ c #878887",
"# c #878788",
"$ c #8B8B8B",
"% c #8F908F",
"& c #908F90",
"* c #8F9090",
"= c #949494",
"- c #989796",
"; c #979897",
": c #989897",
"> c #969798",
", c #979898",
"< c #9C9C9C",
"1 c #A09F9F",
"2 c #A0A09F",
"3 c #9F9FA0",
"4 c #A09FA0",
"5 c #9FA0A0",
"6 c #A3A3A3",
"7 c #A8A7A7",
"8 c #A8A8A7",
"9 c #A7A7A9",
"0 c #A7A8A8",
"q c #ACACAC",
"w c #B0AFAF",
"e c #AFB0AF",
"r c #B0AFB0",
"t c #B4B4B4",
"y c #B7B7B8",
"u c #B8B7B8",
"i c #B7B8B8",
"p c #BBBBBB",
"a c #C0BFBF",
"s c #C0C0BF",
"d c #BFBFC0",
"f c #C3C3C3",
"g c #C8C7C7",
"h c #C8C8C7",
"j c #CBCBCB",
"k c #D0CFCF",
"l c #CFCFD0",
"z c #D0CFD0",
"x c #CED0D0",
"c c #D3D3D3",
"v c #D8D9D7",
"b c #D7D7D8",
"n c #D8D7D8",
"m c #D7D8D8",
"M c #DCDCDC",
"N c #E0DFDE",
"B c #E0DFE0",
"V c #E3E3E3",
"C c #E8E8E7",
"Z c #EAEAEA",
"A c None",
/* pixels */
"       + ++++++++####$$$#$$$#$$#$$$$$#$$#$$$#$##@++++++++o   . #",
" #$#=%=====,<,<<<<<<<<<26<14166666<665555<<<<<<<<<<<=<======$$<$",
" $<<6uAAAAAAAAAAAAAAAAAAAAAAAAAAAAAAAAAAAAAAAAAAAAAAAAAAAAi2<6:$",
" #<626AAAAAAAAAAAAAAAAAAAAAAAAAAAAAAAAAAAAAAAAAAAAAAAAAAAA<562<$",
" %1<06<AAAAAAAAAAAAAAAAAAAAAAAAAAAAAAAAAAAAAAAAAAAAAAAAAA160265$",
" =u6606<AAAAAAAAAAAAAAAAAAAAAAAAAAAAAAAAAAAAAAAAAAAAAAAA26q06p2%",
".=AA<6q86AAAAAAAAAAAAAAAAAAAAAAAAAAAAAAAAAAAAAAAAAAAAAA60q07AA6%",
".=AAA17w86AAAAAAAAAAAAAAAAAAAAAAAAAAAAAAAAAAAAAAAAAAAA60tq0AAA1=",
"+=AAAA60t06AAAAAAAAAAAAAAAAAAAAAAAAAAAAAAAAAAAAAAAAAA60tw0AAAA6=",
"+-AAAAA6qtq6AAAAAAAAAAAAAAAAAAAAAAAAAAAAAAAAAAAAAAAA8wttqAAAAA6=",
".>AAAAAA6quw0AAAAAAAAAAAAAAAAAAAAAAAAAAAAAAAAAAAAAA0tttqAAAAAA6=",
"+>AAAAAAA6titqAAAAAAAAAAAAAAAAAAAAAAAAAAAAAAAAAAAAqtpitAAAAAAA6=",
"+-AAAAAAAA0tptqAAAAAAAAAAAAAAAAAAAAAAAAAAAAAAAAAAqtpptAAAAAAAA7=",
"+<AAAAAAAAA0tsyeAAAAAAAAAAAAAAAAAAAAAAAAAAAAAAAAttfptAAAAAAAAA6-",
"+<AAAAAAAAAAqudptAAAAAAAAAAAAAAAAAAAAAAAAAAAAAAtpdppAAAAAAAAAA0>",
"+<AAAAAAAAAAAqufptAAAAAAAAAAAAAAAAAAAAAAAAAAAAtpfdpAAAAAAAAAAAq-",
"#<AAAAAAAAAAAAtpfptAAAAAAAAAAAAAAAAAAAAAAAAAAtpgfpAAAAAAAAAAAA0<",
"+<AAAAAAAAAAAAAtpgftAAAAAAAAAAAAAAAAAAAAAAAApfhfpAAAAAAAAAAAAA0:",
"#<AAAAAAAAAAAAAAtshfpAAAAAAAAAAAAAAAAAAAAAApfhhfAAAAAAAAAAAAAAq<",
"@<AAAAAAAAAAAAAAApfjfpAAAAAAAAAAAAAAAAAAAApgjhfAAAAAAAAAAAAAAA0<",
"$<AAAAAAAAAAAAAAAApgjgpAAAAAAAAAAAAAAAAAAphljgAAAAAAAAAAAAAAAAq<",
"#<AAAAAAAAAAAAAAAAAphcjpAAAAAAAAAAAAAAAAfjclhAAAAAAAAAAAAAAAAA0<",
"$<AAAAAAAAAAAAAAAAAAphcjfAAAAAAAAAAAAAAfjccgAAAAAAAAAAAAAAAAAAq<",
"$2AAAAAAAAAAAAAAAAAAAsjblfAAAAAAAAAAAAgjbbjAAAAAAAAAAAAAAAAAAAw<",
"#2AAAAAAAAAAAAAAAAAAAAfjncgAAAAAAAAAAgcnmjAAAAAAAAAAAAAAAAAAAAq<",
"$2AAAAAAAAAAAAAAAAAAAAAfcnchAAAAAAAAhbMnlAAAAAAAAAAAAAAAAAAAAAr<",
"$<AAAAAAAAAAAAAAAAAAAAAAgcMbhAAAAAAhvBMcAAAAAAAAAAAAAAAAAAAAAAw<",
"$6AAAAAAAAAAAAAAAAAAAAAAAgvMbjAAAAjnBMcAAAAAAAAAAAAAAAAAAAAAAAt<",
"$6AAAAAAAAAAAAAAAAAAAAAAAAhnVMlAAlMVBbAAAAAAAAAAAAAAAAAAAAAAAAq<",
"$5AAAAAAAAAAAAAAAAAAAAAAAAAhMVMjlMCMmAAAAAAAAAAAAAAAAAAAAAAAAAq6",
"$6AAAAAAAAAAAAAAAAAAAAAAAAAAjMCBBCMjAAAAAAAAAAAAAAAAAAAAAAAAAAt<",
"$6AAAAAAAAAAAAAAAAAAAAAAAAAAAcBZZVcAAAAAAAAAAAAAAAAAAAAAAAAAAAw<",
"#1AAAAAAAAAAAAAAAAAAAAAAAAAAAxBZZVcAAAAAAAAAAAAAAAAAAAAAAAAAAAq2",
"$6AAAAAAAAAAAAAAAAAAAAAAAAAAlMCCVZMcAAAAAAAAAAAAAAAAAAAAAAAAAAt<",
"$6AAAAAAAAAAAAAAAAAAAAAAAAAjnCCMlVCMjAAAAAAAAAAAAAAAAAAAAAAAAAq5",
"#6AAAAAAAAAAAAAAAAAAAAAAAAhnVVnAAjMVMhAAAAAAAAAAAAAAAAAAAAAAAAq1",
"$5AAAAAAAAAAAAAAAAAAAAAAAgbVNvAAAAjMVnhAAAAAAAAAAAAAAAAAAAAAAAw<",
"$6AAAAAAAAAAAAAAAAAAAAAAhbMMbAAAAAAhnBbhAAAAAAAAAAAAAAAAAAAAAAq1",
"#6AAAAAAAAAAAAAAAAAAAAAfbMMbAAAAAAAAgbMcfAAAAAAAAAAAAAAAAAAAAAt<",
"$<AAAAAAAAAAAAAAAAAAAAfkvnkAAAAAAAAAAgcMcfAAAAAAAAAAAAAAAAAAAAq<",
"$1AAAAAAAAAAAAAAAAAAAfjnncAAAAAAAAAAAAgcbjfAAAAAAAAAAAAAAAAAAAq<",
"#1AAAAAAAAAAAAAAAAAApjccjAAAAAAAAAAAAAAgjbjpAAAAAAAAAAAAAAAAAAq<",
"$<AAAAAAAAAAAAAAAAAphcchAAAAAAAAAAAAAAAAgjbhpAAAAAAAAAAAAAAAAAq<",
"$<AAAAAAAAAAAAAAAApgxxhAAAAAAAAAAAAAAAAAAphcgpAAAAAAAAAAAAAAAAq<",
"$<AAAAAAAAAAAAAAApfjlhAAAAAAAAAAAAAAAAAAAApgjguAAAAAAAAAAAAAAAq<",
"#<AAAAAAAAAAAAAAtfhhfAAAAAAAAAAAAAAAAAAAAAApgjfpAAAAAAAAAAAAAA0<",
"#<AAAAAAAAAAAAAtdhgfAAAAAAAAAAAAAAAAAAAAAAAApfhptAAAAAAAAAAAAAq<",
"#<AAAAAAAAAAAAtpggfAAAAAAAAAAAAAAAAAAAAAAAAAAtfgptAAAAAAAAAAAA0<",
"#<AAAAAAAAAAAqpffpAAAAAAAAAAAAAAAAAAAAAAAAAAAAtpgpeAAAAAAAAAAA0<",
"#<AAAAAAAAAAqpfspAAAAAAAAAAAAAAAAAAAAAAAAAAAAAAtpfpqAAAAAAAAAA8:",
"+=AAAAAAAAAqtpppAAAAAAAAAAAAAAAAAAAAAAAAAAAAAAAAepduqAAAAAAAAA7=",
"#<AAAAAAAAqtppuAAAAAAAAAAAAAAAAAAAAAAAAAAAAAAAAAAqpptqAAAAAAAA6:",
"+<AAAAAAA0tpptAAAAAAAAAAAAAAAAAAAAAAAAAAAAAAAAAAAAqtpt0AAAAAAA6<",
"+=AAAAAA6qtttAAAAAAAAAAAAAAAAAAAAAAAAAAAAAAAAAAAAAA0tpe8AAAAAA6=",
"+=AAAAA6qyttAAAAAAAAAAAAAAAAAAAAAAAAAAAAAAAAAAAAAAAA0ttq6AAAAA6=",
"+=AAAA60tteAAAAAAAAAAAAAAAAAAAAAAAAAAAAAAAAAAAAAAAAAA6qtq6AAAA6=",
"+=AAA60tqqAAAAAAAAAAAAAAAAAAAAAAAAAAAAAAAAAAAAAAAAAAAA6qt84AAA6=",
"X=AA<6qqqAAAAAAAAAAAAAAAAAAAAAAAAAAAAAAAAAAAAAAAAAAAAAA60q93AA6*",
"X=i<6q60AAAAAAAAAAAAAAAAAAAAAAAAAAAAAAAAAAAAAAAAAAAAAAAA67q6<f<%",
"O$2686<AAAAAAAAAAAAAAAAAAAAAAAAAAAAAAAAAAAAAAAAAAAAAAAAAA<6q606$",
" &<75<AAAAAAAAAAAAAAAAAAAAAAAAAAAAAAAAAAAAAAAAAAAAAAAAAAAA<676<$",
" $466pAAAAAAAAAAAAAAAAAAAAAAAAAAAAAAAAAAAAAAAAAAAAAAAAAAAAf066<$",
" ,<><66<666760700qq0qqqqeqqwtqqttqrqqrtqwqq00q8qq0776666666<<<<$",
"#$$$$&$========<:><<<<<<<5<<<<5<542<52<<<<<<<<<<::>======%%%$$$$"
};
