/* XPM */
static char *result[] = {
/* columns rows colors chars-per-pixel */
"64 64 112 2 ",
"   c #6A6A6A",
".  c gray42",
"X  c #6C6C6C",
"o  c #6D6D6D",
"O  c gray43",
"+  c #727272",
"@  c gray45",
"#  c gray46",
"$  c #767676",
"%  c #777777",
"&  c gray47",
"*  c #797979",
"=  c gray48",
"-  c #7B7B7B",
";  c #7C7C7C",
":  c #7D7C7D",
">  c gray49",
",  c #7E7E7E",
"<  c #808080",
"1  c #818282",
"2  c #838383",
"3  c #848484",
"4  c gray52",
"5  c #868686",
"6  c gray53",
"7  c #888888",
"8  c #898989",
"9  c gray54",
"0  c #8B8B8B",
"q  c gray55",
"w  c #8D8D8D",
"e  c #8E8E8E",
"r  c gray56",
"t  c gray57",
"y  c #929292",
"u  c gray58",
"i  c #959595",
"p  c gray59",
"a  c #979797",
"s  c #989898",
"d  c gray60",
"f  c #9A9A9A",
"g  c #9B9B9B",
"h  c gray61",
"j  c #9D9D9D",
"k  c gray62",
"l  c #A0A0A0",
"z  c #A2A2A2",
"x  c #A4A4A4",
"c  c #A5A5A5",
"v  c gray65",
"b  c #A7A7A7",
"n  c gray66",
"m  c #A9A9A9",
"M  c #AAAAAA",
"N  c gray67",
"B  c #ACACAC",
"V  c gray68",
"C  c #AEAEAE",
"Z  c #AFAFAF",
"A  c gray69",
"S  c #B1B1B1",
"D  c gray70",
"F  c #B6B6B6",
"G  c #B7B7B7",
"H  c #B9B9B9",
"J  c gray73",
"K  c #BBBBBB",
"L  c #BCBCBC",
"P  c gray74",
"I  c gray",
"U  c gray75",
"Y  c #C0C0C0",
"T  c #C1C1C1",
"R  c gray76",
"E  c #C3C3C3",
"W  c gray77",
"Q  c #C8C8C8",
"!  c #CACACA",
"~  c #CBCBCB",
"^  c #D1D0D0",
"/  c #D2D2D2",
"(  c LightGray",
")  c gray83",
"_  c #D5D5D5",
"`  c gray84",
"'  c #D7D7D7",
"]  c #D8D8D8",
"[  c gray85",
"{  c #DADADA",
"}  c #DCDCDB",
"|  c gainsboro",
" . c #DDDDDD",
".. c gray87",
"X. c #DFDFDF",
"o. c gray88",
"O. c #E1E1E1",
"+. c gray90",
"@. c #E6E6E6",
"#. c gray91",
"$. c #E9E9E9",
"%. c #EAEAEA",
"&. c gray92",
"*. c #ECECEB",
"=. c #ECECEC",
"-. c gray93",
";. c #EEEEEE",
":. c #EEEFEF",
">. c #EFEFEF",
",. c #F8F8F8",
"<. c #FBFBFB",
"1. c white",
/* pixels */
"$ $ $ $ $ $ $ $ $ $ $ $ $ $ $ $ $ $ $ $ $ $ $ $ $ $ $ $ $ $ $ $ $ $ $ $ $ $ $ $ $ $ $ $ $ $ $ $ $ $ $ $ $ $ $ $ $ $ $ $ $ $ $ $ ",
"$ @ .   X X X X X X X X X X X X X X X X X X X X X X X X X X X X X X X X X X X X X X X X X X X X X X X X X X X X X X X X . . + $ ",
"$ . 1 $ * & $ # # # # # # # # # # # # # # # # # # # # # # # # # # # # # # # # # # # # # # # # # # # # # # # # # # # % * $ : . $ ",
"$   $ 5 6 6 6 6 6 6 6 6 6 6 6 6 6 6 6 6 6 6 6 6 6 6 6 6 6 6 6 6 6 6 6 6 6 6 6 6 6 6 6 6 6 6 6 6 6 6 6 6 6 6 6 6 6 6 6 6 6 = X $ ",
"$ X * 6 6 6 6 6 6 6 6 6 6 6 6 6 6 6 6 6 6 6 6 6 6 6 6 6 6 6 6 6 6 6 6 6 6 6 6 6 6 6 6 6 6 6 6 6 6 6 6 6 6 6 6 6 6 6 6 6 6 , o $ ",
"$ X & 6 6 3 ; = = = = = = = = = = = = = = = = = = = = = = = = = = = = = = = = = = = = = = = = = = = = = = = = = - ; 2 6 6 = X $ ",
"$ X $ 6 6 ; y 5 9 7 6 5 5 5 5 5 5 5 5 5 5 5 5 5 5 5 5 5 5 5 5 5 5 5 5 5 5 5 5 5 5 5 5 5 5 5 5 5 5 5 5 5 5 5 6 9 6 0 ; 6 6 # X $ ",
"$ X # 6 6 = 5 a s s s s s s s s s s s s s s s s s s s s s s s s s s s s s s s s s s s s s s s s s s s s s s s s s 0 ; 6 6 # X $ ",
"$ X # 6 6 = 9 s s s s s s s s s s s s s s s s s s s s s s s s s s s s s s s s s s s s s s s s s s s s s s s s s s r - 6 6 # X $ ",
"$ X # 6 6 = 7 s s i q 0 0 0 0 0 0 0 0 0 0 0 0 0 0 0 0 0 0 0 0 0 0 0 0 0 0 0 0 0 0 0 0 0 0 0 0 0 0 0 0 0 q q u s s 0 = 6 6 # X $ ",
"$ X # 6 6 = 6 s s q k p g d s a a a a a a a a a a a a a a a a a a a a a a a a a a a a a a a a a a a s f a d w s s 5 = 6 6 # X $ ",
"$ X # 6 6 = 5 s s 0 p n m m m m m m m m m m m m m m m m m m m m m m m m m m m m m m m m m m m m m m m m m g w s s 5 = 6 6 # X $ ",
"$ X # 6 6 = 5 s s 0 g m m m m m m m m m m m m m m m m m m m m m m m m m m m m m m m m m m m m m m m m m m l q s s 5 = 6 6 # X $ ",
"$ X # 6 6 = 5 s s 0 d m m v j g h h h h h h h h h h h h h h h h h h h h h h h h h h h h h h h h h j c m m h 0 s s 5 = 6 6 # X $ ",
"$ X # 6 6 = 5 s s 0 s m m j N c N M m n n n n n n n n n n n n n n n n n n n n n n n n n n n m N b v j m m a 0 s s 5 = 6 6 # X $ ",
"$ X # 6 6 = 5 s s 0 a m m g c H J J J J J J J J J J J J J J J J J J J J J J J J J J J J J J J J J B j m m a 0 s s 5 = 6 6 # X $ ",
"$ X # 6 6 = 5 s s 0 a m m h N J J J J J J J J J J J J J J J J J J J J J J J J J J J J J J J J J J S j m m a 0 s s 5 = 6 6 # X $ ",
"$ X # 6 6 = 5 s s 0 a m m h M J J G V B C V V V V V V V V V V V V V V V V V V V V V V V V V F J J V h m m a 0 s s 5 = 6 6 # X $ ",
"$ X # 6 6 = 5 s s 0 a m m h m J J V H H I I K K K K K K K K K K K K K K K K K K K K L L J F C J J n h m m a 0 s s 5 = 6 6 # X $ ",
"$ X # 6 6 = 5 s s 0 a m m h n J J B H ! ~ ~ ~ ~ ~ ~ ~ ~ ~ ~ ~ ~ ~ ~ ~ ~ ~ ~ ~ ~ ~ ~ ~ ~ ~ U C J J n h m m a 0 s s 5 = 6 6 # X $ ",
"$ X # 6 6 = 5 s s 0 a m m h n J J C I ~ ~ ~ ~ ~ ~ ~ ~ ~ ~ ~ ~ ~ ~ ~ ~ ~ ~ ~ ~ ~ ~ ~ ~ ~ ~ E Z J J n h m m a 0 s s 5 = 6 6 # X $ ",
"$ X # 6 6 = 5 s s 0 a m m h n J J V P ~ ~ Q Y U R E E E E T Y Y Y Y Y Y Y Y Y Y Y T Q ~ ~ U C J J n h m m a 0 s s 5 = 6 6 # X $ ",
"$ X # 6 6 = 5 s s 0 a m m h n J J V K ~ ~ Y ^ [ ] ] [ [ [ ' ` _ _ _ _ _ _ _ _ ' ] / Y ~ ~ K V J J n h m m a 0 s s 5 = 6 6 # X $ ",
"$ X # 6 6 = 5 s s 0 a m m h n J J V K ~ ~ U [  . . . . . . . . . . . . . . . . . .{ T ~ ~ K V J J n h m m a 0 s s 5 = 6 6 # X $ ",
"$ X # 6 6 = 5 s s 0 a m m h n J J V K ~ ~ U `  . . . . . . . . . . . . . . . . . .[ R ~ ~ K V J J n h m m a 0 s s 5 = 6 6 # X $ ",
"$ X # 6 6 = 5 s s 0 a m m h n J J V K ~ ~ Y )  . . . . .|  . . . . . .|  .o... . .` Y ~ ~ K V J J n h m m a 0 s s 5 = 6 6 # X $ ",
"$ X # 6 6 = 5 s s 0 a m m h n J J V K ~ ~ Y _  . .o.;.#.+.@.%.%.%.%.#.$.&.-.O. . ._ Y ~ ~ K V J J n h m m a 0 s s 5 = 6 6 # X $ ",
"$ X # 6 6 = 5 s s 0 a m m h n J J V K ~ ~ Y _  . . .-.;.;.-.;.;.;.;.-.;.;.&.X. . ._ Y ~ ~ K V J J n h m m a 0 s s 5 = 6 6 # X $ ",
"$ X # 6 6 = 5 s s 0 a m m h n J J V K ~ ~ Y _  . .} #.;.;.;.-.;.;.-.;.;.;.&. . . ._ Y ~ ~ K V J J n h m m a 0 s s 5 = 6 6 # X $ ",
"$ X # 6 6 = 5 s s 0 a m m h n J J V K ~ ~ Y _  . . .#.-.;.;.;.-.-.;.;.;.;.$. . . ._ Y ~ ~ K V J J n h m m a 0 s s 5 = 6 6 # X $ ",
"$ X # 6 6 = 5 s s 0 a m m h n J J V K ~ ~ Y _  . . .%.;.-.;.,.<.<.,.;.-.;.%. . . ._ Y ~ ~ K V J J n h m m a 0 s s 5 = 6 6 # X $ ",
"$ X # 6 6 = 5 s s 0 a m m h n J J V K ~ ~ Y _  . . .%.;.;.-.<.1.1.<.-.;.;.%. . . ._ Y ~ ~ K V J J n h m m a 0 s s 5 = 6 6 # X $ ",
"$ X # 6 6 = 5 s s 0 a m m h n J J V K ~ ~ Y _  . . .%.;.;.-.<.1.1.<.-.;.;.%. . . ._ Y ~ ~ K V J J n h m m a 0 s s 5 = 6 6 # X $ ",
"$ X # 6 6 = 5 s s 0 a m m h n J J V K ~ ~ Y _  . . .%.;.-.;.,.<.<.,.;.-.;.%. . . ._ Y ~ ~ K V J J n h m m a 0 s s 5 = 6 6 # X $ ",
"$ X # 6 6 = 5 s s 0 a m m h n J J V K ~ ~ Y _  . . .#.-.;.;.>.:.-.;.;.;.;.#. . . ._ Y ~ ~ K V J J n h m m a 0 s s 5 = 6 6 # X $ ",
"$ X # 6 6 = 5 s s 0 a m m h n J J V K ~ ~ Y _  . .| #.;.;.;.;.;.;.-.;.;.;.$. . . ._ Y ~ ~ K V J J n h m m a 0 s s 5 = 6 6 # X $ ",
"$ X # 6 6 = 5 s s 0 a m m h n J J V K ~ ~ Y _  . . .*.;.;.;.;.;.;.;.;.;.;.%... . ._ Y ~ ~ K V J J n h m m a 0 s s 5 = 6 6 # X $ ",
"$ X # 6 6 = 5 s s 0 a m m h n J J V K ~ ~ Y _  . .o.;.=.%.$.%.%.%.%.#.$.%.=.o. . .` Y ~ ~ K V J J n h m m a 0 s s 5 = 6 6 # X $ ",
"$ X # 6 6 = 5 s s 0 a m m h n J J V K ~ ~ Y )  . ...O.X. . . . . . . . ...o... . .` T ~ ~ K V J J n h m m a 0 s s 5 = 6 6 # X $ ",
"$ X # 6 6 = 5 s s 0 a m m h n J J V K ~ ~ Y `  . . . . . . . . . . . . . . . . . .] R ~ ~ K V J J n h m m a 0 s s 5 = 6 6 # X $ ",
"$ X # 6 6 = 5 s s 0 a m m h n J J V K ~ ~ Y ]  . . . . . . . . . . . . . . . . . .[ R ~ ~ K V J J n h m m a 0 s s 5 = 6 6 # X $ ",
"$ X # 6 6 = 5 s s 0 a m m h n J J V K ~ ~ Y / { [ ' ` _ _ _ _ _ _ _ _ _ _ _ _ ] [ ( T ~ ~ L V J J n h m m a 0 s s 5 = 6 6 # X $ ",
"$ X # 6 6 = 5 s s 0 a m m h n J J V K ~ ~ Q T T R T Y Y Y Y Y Y Y Y Y Y Y Y Y R R T Q ~ ~ U C J J n h m m a 0 s s 5 = 6 6 # X $ ",
"$ X # 6 6 = 5 s s 0 a m m h n J J V L ~ ~ ~ ~ ~ ~ ~ ~ ~ ~ ~ ~ ~ ~ ~ ~ ~ ~ ~ ~ ~ ~ ~ ~ ~ ~ W A J J n h m m a 0 s s 5 = 6 6 # X $ ",
"$ X # 6 6 = 5 s s 0 a m m h n J J V J ~ ~ ~ ~ ~ ~ ~ ~ ~ ~ ~ ~ ~ ~ ~ ~ ~ ~ ~ ~ ~ ~ ~ ~ ~ ~ E A J J n h m m a 0 s s 5 = 6 6 # X $ ",
"$ X # 6 6 = 5 s s 0 a m m h n J J V F U E U L K K K K K K K K K K K K K K K K K K K U W E F C J J m h m m a 0 s s 5 = 6 6 # X $ ",
"$ X # 6 6 = 5 s s 0 a m m h n J J F C C Z C V V V V V V V V V V V V V V V V V V V V C A A V F J J V h m m a 0 s s 5 = 6 6 # X $ ",
"$ X # 6 6 = 5 s s 0 a m m h M J J J J J J J J J J J J J J J J J J J J J J J J J J J J J J J J J J D k m m a 0 s s 5 = 6 6 # X $ ",
"$ X # 6 6 = 5 s s 0 a m m h n J J J J J J J J J J J J J J J J J J J J J J J J J J J J J J J J J J S k m m a 0 s s 5 = 6 6 # X $ ",
"$ X # 6 6 = 5 s s 0 a m m j c N S B m n n n n n n n n n n n n n n n n n n n n n n n n n n n V D S x k m m s 0 s s 5 = 6 6 # X $ ",
"$ X # 6 6 = 5 s s 0 a m m c j j j h h h h h h h h h h h h h h h h h h h h h h h h h h h h h h k k j c m m h 0 s s 5 = 6 6 # X $ ",
"$ X # 6 6 = 5 s s 0 d m m m m m m m m m m m m m m m m m m m m m m m m m m m m m m m m m m m m m m m m m m z w s s 5 = 6 6 # X $ ",
"$ X # 6 6 = 5 s s q s m m m m m m m m m m m m m m m m m m m m m m m m m m m m m m m m m m m m m m m m m m l e s s 5 = 6 6 # X $ ",
"$ X # 6 6 = 5 s s q a f l g s a a a a a a a a a a a a a a a a a a a a a a a a a a a a a a a a a a a h z l u w s s 6 = 6 6 # X $ ",
"$ X # 6 6 = 5 s s u w w q 0 0 0 0 0 0 0 0 0 0 0 0 0 0 0 0 0 0 0 0 0 0 0 0 0 0 0 0 0 0 0 0 0 0 0 0 0 0 w e q u s s 0 = 6 6 # X $ ",
"$ X # 6 6 = 8 s s s s s s s s s s s s s s s s s s s s s s s s s s s s s s s s s s s s s s s s s s s s s s s s s s t ; 6 6 # X $ ",
"$ X # 6 6 - 7 s s s s s s s s s s s s s s s s s s s s s s s s s s s s s s s s s s s s s s s s s s s s s s s s s s r > 6 6 # X $ ",
"$ X # 6 6 ; 8 9 r 9 6 5 5 5 5 5 5 5 5 5 5 5 5 5 5 5 5 5 5 5 5 5 5 5 5 5 5 5 5 5 5 5 5 5 5 5 5 5 5 5 5 5 5 5 0 t r 4 ; 6 6 $ X $ ",
"$ X $ 6 6 2 ; ; - = = = = = = = = = = = = = = = = = = = = = = = = = = = = = = = = = = = = = = = = = = = = = = ; > - 2 6 6 - X $ ",
"$ X & 6 6 6 6 6 6 6 6 6 6 6 6 6 6 6 6 6 6 6 6 6 6 6 6 6 6 6 6 6 6 6 6 6 6 6 6 6 6 6 6 6 6 6 6 6 6 6 6 6 6 6 6 6 6 6 6 6 6 < O $ ",
"$ . % 6 6 6 6 6 6 6 6 6 6 6 6 6 6 6 6 6 6 6 6 6 6 6 6 6 6 6 6 6 6 6 6 6 6 6 6 6 6 6 6 6 6 6 6 6 6 6 6 6 6 6 6 6 6 6 6 6 6 , o $ ",
"$ . - * , * $ # # # # # # # # # # # # # # # # # # # # # # # # # # # # # # # # # # # # # # # # # # # # # # # # # # # - < , # X $ ",
"$ + . X o X X X X X X X X X X X X X X X X X X X X X X X X X X X X X X X X X X X X X X X X X X X X X X X X X X X X X X O o . + $ ",
"$ $ $ $ $ $ $ $ $ $ $ $ $ $ $ $ $ $ $ $ $ $ $ $ $ $ $ $ $ $ $ $ $ $ $ $ $ $ $ $ $ $ $ $ $ $ $ $ $ $ $ $ $ $ $ $ $ $ $ $ $ $ $ $ "
};
