/* XPM */
static char *result[] = {
/* columns rows colors chars-per-pixel */
"64 64 55 1 ",
"  c gray77",
". c #C5C4C4",
"X c #C4C5C4",
"o c #C5C5C4",
"O c #C4C4C5",
"+ c #C5C4C5",
"@ c #C4C5C5",
"# c #C5C5C5",
"$ c #DCDCDB",
"% c #DCDBDC",
"& c #DBDCDC",
"* c gainsboro",
"= c #DDDCDC",
"- c #DCDDDC",
"; c #DCDCDD",
": c #DDDCDD",
"> c #E2E2E1",
", c #E2E1E2",
"< c #E1E2E2",
"1 c #E2E2E2",
"2 c #E3E2E2",
"3 c #E2E2E3",
"4 c #EDEEED",
"5 c #EEEEEE",
"6 c #EFEEEE",
"7 c #EEEFEE",
"8 c #EFEFEE",
"9 c #EEEEEF",
"0 c #EFEEEF",
"q c #EEEFEF",
"w c #EFEFEF",
"e c #F3F3F2",
"r c #F3F2F3",
"t c #F2F3F3",
"y c #F3F3F3",
"u c #F3F4F3",
"i c #F4F4F3",
"p c #F3F3F4",
"a c #F3F4F4",
"s c #F6F6F5",
"d c #F6F6F6",
"f c #FAFBFA",
"g c #FBFBFA",
"h c #FBFAFB",
"j c #FAFBFB",
"k c #FBFBFB",
"l c #FDFCFC",
"z c #FCFDFC",
"x c #FDFDFC",
"c c #FCFCFD",
"v c #FDFCFD",
"b c #FCFDFD",
"n c #FDFDFD",
"m c white",
"M c None",
/* pixels */
"+@ OX @O @  .@    +O.X + O+. O#.+.  . .X OX .. @ +X @ .X.@XX X $",
" *******************=***;*****-**********************-*****=**8*",
".*q70wMMMMMMMMMMMMMMMMMMMMMMMMMMMMMMMMMMMMMMMMMMMMMMMMMMMMq87h8*",
" *wky4MMMMMMMMMMMMMMMMMMMMMMMMMMMMMMMMMMMMMMMMMMMMMMMMMMMM1tns8&",
" *wyny1MMMMMMMMMMMMMMMMMMMMMMMMMMMMMMMMMMMMMMMMMMMMMMMMMM1ynyi9*",
" *wwuny1MMMMMMMMMMMMMMMMMMMMMMMMMMMMMMMMMMMMMMMMMMMMMMMM1ynkwi8*",
"o*MM1yny1MMMMMMMMMMMMMMMMMMMMMMMMMMMMMMMMMMMMMMMMMMMMMM1ynkwMM5*",
".*MMM1yne1MMMMMMMMMMMMMMMMMMMMMMMMMMMMMMMMMMMMMMMMMMMM1yngwMMM5*",
"+*MMMM1yny1MMMMMMMMMMMMMMMMMMMMMMMMMMMMMMMMMMMMMMMMMM1yvjwMMMM5*",
"+*MMMMM1yvy1MMMMMMMMMMMMMMMMMMMMMMMMMMMMMMMMMMMMMMMM<yng5MMMMM5*",
" *MMMMMM1yvy1MMMMMMMMMMMMMMMMMMMMMMMMMMMMMMMMMMMMMM1ynk8MMMMMM5*",
"o*MMMMMMM,ynt1MMMMMMMMMMMMMMMMMMMMMMMMMMMMMMMMMMMM1ynjwMMMMMMM5*",
".*MMMMMMMM1yny1MMMMMMMMMMMMMMMMMMMMMMMMMMMMMMMMMM1yxg0MMMMMMMM6*",
" *MMMMMMMMM1ynr1MMMMMMMMMMMMMMMMMMMMMMMMMMMMMMMM1yvkqMMMMMMMMM5*",
" *MMMMMMMMMM1yny1MMMMMMMMMMMMMMMMMMMMMMMMMMMMMM1ynhwMMMMMMMMMM5*",
" *MMMMMMMMMMM1yxy1MMMMMMMMMMMMMMMMMMMMMMMMMMMM1yxj0MMMMMMMMMMM5$",
" *MMMMMMMMMMMM1yby1MMMMMMMMMMMMMMMMMMMMMMMMMM1tvkwMMMMMMMMMMMM5*",
" *MMMMMMMMMMMMM1yvy1MMMMMMMMMMMMMMMMMMMMMMMM1yxg8MMMMMMMMMMMMM5*",
" *MMMMMMMMMMMMMM1yxy1MMMMMMMMMMMMMMMMMMMMMM1exk0MMMMMMMMMMMMMM5*",
"X-MMMMMMMMMMMMMMM1yny1MMMMMMMMMMMMMMMMMMMM1ynk8MMMMMMMMMMMMMMM5*",
"+*MMMMMMMMMMMMMMMM1yvy>MMMMMMMMMMMMMMMMMM1ynk7MMMMMMMMMMMMMMMM5*",
" -MMMMMMMMMMMMMMMMM1yxy1MMMMMMMMMMMMMMMM1ynkwMMMMMMMMMMMMMMMMM5*",
"O*MMMMMMMMMMMMMMMMMM1yly1MMMMMMMMMMMMMM1ynk8MMMMMMMMMMMMMMMMMM5*",
" *MMMMMMMMMMMMMMMMMMM1yxy1MMMMMMMMMMMM1yngwMMMMMMMMMMMMMMMMMMM6*",
" *MMMMMMMMMMMMMMMMMMMM1yny1MMMMMMMMMM1ynj0MMMMMMMMMMMMMMMMMMMM5*",
"X*MMMMMMMMMMMMMMMMMMMMM1yny1MMMMMMMM1ybh0MMMMMMMMMMMMMMMMMMMMM5*",
" *MMMMMMMMMMMMMMMMMMMMMM1yny1MMMMMM1ynk9MMMMMMMMMMMMMMMMMMMMMM5*",
".:MMMMMMMMMMMMMMMMMMMMMMM1yny1MMMM1ynkqMMMMMMMMMMMMMMMMMMMMMMM9*",
"O*MMMMMMMMMMMMMMMMMMMMMMMM1ycy1MM1ynkwMMMMMMMMMMMMMMMMMMMMMMMMq%",
"X*MMMMMMMMMMMMMMMMMMMMMMMMM1yzy1<yby9MMMMMMMMMMMMMMMMMMMMMMMMM7*",
" *MMMMMMMMMMMMMMMMMMMMMMMMMM1ynyyxy1MMMMMMMMMMMMMMMMMMMMMMMMMM5*",
"+*MMMMMMMMMMMMMMMMMMMMMMMMMMM1ynnp1MMMMMMMMMMMMMMMMMMMMMMMMMMM5*",
" *MMMMMMMMMMMMMMMMMMMMMMMMMMM1ynny1MMMMMMMMMMMMMMMMMMMMMMMMMMM5$",
" *MMMMMMMMMMMMMMMMMMMMMMMMMM1ynkyny1MMMMMMMMMMMMMMMMMMMMMMMMMM5*",
" *MMMMMMMMMMMMMMMMMMMMMMMMM,ynkq1ybr1MMMMMMMMMMMMMMMMMMMMMMMMM5*",
" *MMMMMMMMMMMMMMMMMMMMMMMM1ynkwMM1tzy1MMMMMMMMMMMMMMMMMMMMMMMM9*",
"O*MMMMMMMMMMMMMMMMMMMMMMM1enk8MMMM1yxy1MMMMMMMMMMMMMMMMMMMMMMM5*",
".*MMMMMMMMMMMMMMMMMMMMMM1yckwMMMMMM1yxy1MMMMMMMMMMMMMMMMMMMMMM5*",
".*MMMMMMMMMMMMMMMMMMMMM1ynh8MMMMMMMM1yny1MMMMMMMMMMMMMMMMMMMMM5*",
".*MMMMMMMMMMMMMMMMMMMM1ynh8MMMMMMMMMM1yny1MMMMMMMMMMMMMMMMMMMM7*",
".*MMMMMMMMMMMMMMMMMMM1ylkwMMMMMMMMMMMM1yny1MMMMMMMMMMMMMMMMMMM8*",
"O*MMMMMMMMMMMMMMMMMM1ynkwMMMMMMMMMMMMMM1yny1MMMMMMMMMMMMMMMMMM6*",
"X*MMMMMMMMMMMMMMMMM>ynjqMMMMMMMMMMMMMMMM1yxr1MMMMMMMMMMMMMMMMM5*",
"+*MMMMMMMMMMMMMMMM1yxjwMMMMMMMMMMMMMMMMMM1yvy1MMMMMMMMMMMMMMMM5%",
".*MMMMMMMMMMMMMMM1ynk7MMMMMMMMMMMMMMMMMMMM1yvy1MMMMMMMMMMMMMMM5*",
" *MMMMMMMMMMMMMM1ynhqMMMMMMMMMMMMMMMMMMMMMM1yny1MMMMMMMMMMMMMM5*",
" *MMMMMMMMMMMMM1ynfwMMMMMMMMMMMMMMMMMMMMMMMM1yny1MMMMMMMMMMMMM9*",
"O*MMMMMMMMMMMM1yxgwMMMMMMMMMMMMMMMMMMMMMMMMMM1yny1MMMMMMMMMMMM5*",
"o*MMMMMMMMMMM>yvkwMMMMMMMMMMMMMMMMMMMMMMMMMMMM1yny1MMMMMMMMMMM5&",
".*MMMMMMMMMM1ybk0MMMMMMMMMMMMMMMMMMMMMMMMMMMMMM1yxy1MMMMMMMMMM5*",
"o*MMMMMMMMM1ynkwMMMMMMMMMMMMMMMMMMMMMMMMMMMMMMMM1ycy1MMMMMMMMM5$",
"O*MMMMMMMM1ybk0MMMMMMMMMMMMMMMMMMMMMMMMMMMMMMMMMM1yby1MMMMMMMM5*",
"X*MMMMMMM1engqMMMMMMMMMMMMMMMMMMMMMMMMMMMMMMMMMMMM1yny1MMMMMMM5*",
" *MMMMMM1yxkwMMMMMMMMMMMMMMMMMMMMMMMMMMMMMMMMMMMMMM1yny1MMMMMM5*",
" *MMMMM1ynhwMMMMMMMMMMMMMMMMMMMMMMMMMMMMMMMMMMMMMMMM1yby1MMMMM7*",
" *MMMM1ybk0MMMMMMMMMMMMMMMMMMMMMMMMMMMMMMMMMMMMMMMMMM1yxy1MMMM7*",
"X*MMM1ynk8MMMMMMMMMMMMMMMMMMMMMMMMMMMMMMMMMMMMMMMMMMMM1yly1MMM9*",
" *MM<yxk8MMMMMMMMMMMMMMMMMMMMMMMMMMMMMMMMMMMMMMMMMMMMMM1yny1MM5*",
"@*w1yniwMMMMMMMMMMMMMMMMMMMMMMMMMMMMMMMMMMMMMMMMMMMMMMMM1ynt1j5&",
"@*wyxa2MMMMMMMMMMMMMMMMMMMMMMMMMMMMMMMMMMMMMMMMMMMMMMMMMM1ycygq*",
"+:wny3MMMMMMMMMMMMMMMMMMMMMMMMMMMMMMMMMMMMMMMMMMMMMMMMMMMM1ymkq$",
" *jdyuMMMMMMMMMMMMMMMMMMMMMMMMMMMMMMMMMMMMMMMMMMMMMMMMMMMMgkgj8*",
"O980559557555555755555587559555555555656055555565596565565597qw*",
"******%***&******************%********%***********$***********$*"
};
