/* XPM */
static char *result[] = {
/* columns rows colors chars-per-pixel */
"64 64 163 2 ",
"   c gray77",
".  c #C5C4C4",
"X  c #C4C5C4",
"o  c #C5C5C4",
"O  c #C4C4C5",
"+  c #C5C4C5",
"@  c #C4C5C5",
"#  c #C5C5C5",
"$  c #C6C5C5",
"%  c #C5C6C5",
"&  c #C5C5C6",
"*  c #C5C6C6",
"=  c #CACACA",
"-  c #CBCACA",
";  c #CACBCA",
":  c #CBCBCA",
">  c #CACACB",
",  c #CBCACB",
"<  c #CACBCB",
"1  c #CBCBCB",
"2  c #CDCDCD",
"3  c #CECECE",
"4  c #CFCFCE",
"5  c gray81",
"6  c #D0CFCF",
"7  c #CFCFD0",
"8  c gray82",
"9  c #D1D2D1",
"0  c #D1D1D2",
"q  c #D2D2D2",
"w  c #D3D2D2",
"e  c #D2D3D2",
"r  c #D3D3D2",
"t  c #D3D2D3",
"y  c #D2D3D3",
"u  c LightGray",
"i  c #D4D3D3",
"p  c #D3D4D3",
"a  c #D4D4D3",
"s  c #D3D3D4",
"d  c #D4D3D4",
"f  c #D3D4D4",
"g  c gray83",
"h  c #D5D4D4",
"j  c #D4D5D4",
"k  c #D4D4D5",
"l  c gray84",
"z  c #D6D6D7",
"x  c #D8D8D8",
"c  c #D9D8D8",
"v  c #D8D9D8",
"b  c #D9D9D8",
"n  c #D8D8D9",
"m  c #D9D8D9",
"M  c #D8D9D9",
"N  c gray85",
"B  c #DADADA",
"V  c #DBDADA",
"C  c #DADBDA",
"Z  c #DBDBDA",
"A  c #DBDADB",
"S  c #DADBDB",
"D  c gray86",
"F  c #DCDBDB",
"G  c #DBDCDB",
"H  c #DBDBDC",
"J  c #DCDBDC",
"K  c #DBDCDC",
"L  c gainsboro",
"P  c #DDDCDC",
"I  c #DCDDDC",
"U  c #DDDDDC",
"Y  c #DCDCDD",
"T  c #DDDCDD",
"R  c #DCDDDD",
"E  c #DDDDDD",
"W  c #DEDDDD",
"Q  c #DDDEDD",
"!  c #DEDEDD",
"~  c #DDDDDE",
"^  c #DEDDDE",
"/  c #DDDEDE",
"(  c gray87",
")  c #DFDFDF",
"_  c #DFE0DF",
"`  c #E1E1E1",
"'  c #E2E1E1",
"]  c #E1E2E1",
"[  c #E2E2E1",
"{  c #E1E1E2",
"}  c #E2E1E2",
"|  c #E1E2E2",
" . c #E2E2E2",
".. c #E4E4E4",
"X. c #E5E4E4",
"o. c #E4E5E4",
"O. c #E4E4E5",
"+. c #E5E4E5",
"@. c #E4E5E5",
"#. c gray90",
"$. c #E6E5E5",
"%. c #E5E6E5",
"&. c #E6E6E5",
"*. c #E5E5E6",
"=. c #E6E5E6",
"-. c #E5E6E6",
";. c #E6E6E6",
":. c gray91",
">. c #E9E8E8",
",. c #E9E9E9",
"<. c #EAE9E9",
"1. c #E9EAE9",
"2. c #EAEAE9",
"3. c #E9EAEA",
"4. c #ECECEC",
"5. c #EDECEC",
"6. c #ECEDEC",
"7. c #EDEDEC",
"8. c #ECECED",
"9. c #EDECED",
"0. c #ECEDED",
"q. c gray93",
"w. c #EEEDED",
"e. c #EEEEEE",
"r. c #EFEEEE",
"t. c #EEEFEE",
"y. c #EFEFEE",
"u. c #EEEEEF",
"i. c #EFEEEF",
"p. c gray94",
"a. c #F1F0F0",
"s. c #F0F0F1",
"d. c #F3F3F3",
"f. c #F4F3F3",
"g. c #F3F4F3",
"h. c #F4F4F3",
"j. c #F3F3F4",
"k. c #F3F4F4",
"l. c #F6F5F6",
"z. c #F5F6F6",
"x. c #F6F6F6",
"c. c #F8F8F8",
"v. c #F9F8F8",
"b. c #F8F9F8",
"n. c #F9F9F8",
"m. c #F8F8F9",
"M. c #F9F8F9",
"N. c #F8F9F9",
"B. c #F9F9F9",
"V. c #FCFBFB",
"C. c #FCFCFB",
"Z. c #FBFBFC",
"A. c #FCFBFC",
"S. c gray99",
"D. c #FDFCFC",
"F. c #FEFEFE",
"G. c #FFFEFE",
"H. c #FEFFFE",
"J. c #FFFFFE",
"K. c #FEFEFF",
"L. c #FEFFFF",
"P. c white",
"I. c None",
/* pixels */
"& #   O X   @ O   @     . @ # # $ * + O . X   +   O + .   O & # $ & X   .   . X   O X   . . # # # & @   @   . X . @ X X   X # 5 ",
"% 5 5 5 q L L L L L L L L q 5 6 5 6 q L P L L L Y L L q 5 5 5 5 6 5 5 5 q L L L L L L L L q 6 5 5 5 q L L I L L L L L w 5 5 x 5 ",
". 5 M b g l I.I.I.I.I.I.I.= g n c g : I.I.I.I.I.I.I.= u b x M g g x c m u = I.I.I.I.I.I.I.< g M v g > I.I.I.I.I.I.I.l g x ` m 4 ",
"  5 x { E g 2 I.I.I.I.I.I.; g W ~ g > I.I.I.I.I.I.I.g E { E M I.I.s E ] E g I.I.I.I.I.I.I.> g Q W g , I.I.I.I.I.I.= g U -.E g y ",
"  w f E %.E g ; I.I.I.I.I.< g Q ~ g - I.I.I.I.I.I.p T #.{ x I.I.I.I.d E #.E f I.I.I.I.I.I.= g ~ Q g - I.I.I.I.I.= f E %.E d K L ",
"  L z i E #.T d = I.I.I.I.> g Q ~ g - I.I.I.I.I.a E #.` b I.I.I.I.I.I.u E #.E g I.I.I.I.I.> g E ^ g = I.I.I.I.= d R #.] n D y.L ",
"o L I.3 f R #.U g = I.I.I.= g E E g , I.I.I.I.d E $.| M I.I.I.I.I.I.I.I.f E &.U f I.I.I.I.- g E E g > I.I.I.= g E %.{ N 8 I.e.L ",
". L I.I.= g E $.E i = I.I.= g E E g > I.I.I.d U *.` x I.I.I.I.I.I.I.I.I.I.d E =.E f I.I.I., g E E g , I.I.= d E #. .n 8 I.I.e.L ",
"+ L I.I.I.= d E =.E f = I.= g E Q g ; I.I.g E #.` v I.I.I.I.I.I.I.I.I.I.I.I.g T $.R g I.I.- g E E j - I.= i T #.| x 8 I.I.I.e.L ",
"+ L I.I.I.I.= f E =.T d = g E $.$.E g I.f U %.} v I.I.I.I.I.I.I.I.I.I.I.I.I.I.f E =.E g I.d E *.*.E f = f E %.{ m 8 I.I.I.I.e.L ",
"  L I.I.I.I.I.= g E $.E g D %.9.0.*.E g E *.~ m I.I.I.I.I.I.I.I.I.I.I.I.I.I.I.I.g E -.E s E -.0.q.=.D d E %.E N 8 I.I.I.I.I.e.L ",
"o L I.I.I.I.I.I.= g U =.E X.0.d.d.9.*.E *.W g I.I.I.I.I.I.I.I.I.I.I.I.I.I.I.I.I.I.g E &.R $.6.d.d.q.o.E *.Q g 8 I.I.I.I.I.I.e.L ",
". L I.I.I.I.I.I.I.= g E $.q.f.N.b.d.q.-.E h I.I.I.I.I.I.I.I.I.I.I.I.I.I.I.I.I.I.I.I.p T *.9.d.m.c.g.9.%.W g 3 I.I.I.I.I.I.I.r.L ",
"  q ; - > ; = ; = g D ..8.d.c.S.S.v.f.6.$.Q g = ; > = < = > - < = : ; ; = : = - = p E *.q.d.v.S.S.b.j.q.$.L g ; = ; = = ; : B u ",
"# 6 g g g g g g g E &.0.g.b.S.K.H.S.b.d.q.*.E g g g g j g g k g g g g g g g g g g E #.9.d.c.S.J.G.S.c.d.q.#.E g g h g g g g M 5 ",
"# 5 n E E ~ Q ~ Q $.0.d.b.V.L.P.P.G.A.m.f.7.&.E E Q E E Q E E E Q E E E E E E W E #.0.d.m.S.H.P.P.F.S.c.d.q.=.E E E Q E W  .x 5 ",
"* 5 b ~ E ^ ~ E E %.q.d.c.A.K.P.P.H.S.v.g.9.*.Q E ! E E E E ~ W W E Q E W W Q E E =.4.d.m.C.K.P.P.F.S.c.d.9.;.E W E ~ E Q E m 5 ",
"# 5 g g g g g g g E *.q.d.c.A.F.G.S.n.l.p.,.] c g g g g g g g g g h g g g g g g g E *.q.d.b.S.F.H.S.b.x.p.,.` v g g g g g g g 5 ",
"  q > 1 ; , = ; : p E $.7.d.v.S.S.b.h.p.:._ x 5 ; ; : > = = < - - = < < > : > = , d D ..q.d.c.S.S.c.k.a.,.` x 5 : - ; : > - B w ",
"X I I.I.I.I.I.I.I.I.g E %.6.d.v.m.g.q.1.` b 3 I.I.I.I.I.I.I.I.I.I.I.I.I.I.I.I.I.I.= d E #.q.j.c.c.j.w.,.` M I.I.I.I.I.I.I.I.e.L ",
"+ L I.I.I.I.I.I.I.g E #.] %.q.j.d.q.#.] $.E g = I.I.I.I.I.I.I.I.I.I.I.I.I.I.I.I.= f E #.] &.q.g.d.q.$.[ %.E g I.I.I.I.I.I.I.e.L ",
"  I I.I.I.I.I.I.g E -.` v E #.q.q.&.G v E #.E g > I.I.I.I.I.I.I.I.I.I.I.I.I.I.= g E #.{ c L -.q.q.;.( x E #.E g I.I.I.I.I.I.e.L ",
"O L I.I.I.I.I.a R #.[ v I.g W =.#.E k 3 g E *.E s = I.I.I.I.I.I.I.I.I.I.I.I.= g E *.{ v 8 g E %.$.E g I.g U -.E s I.I.I.I.I.e.L ",
"  L I.I.I.I.a R $.` c I.I.= g E ! g , I.= g E *.E g = I.I.I.I.I.I.I.I.I.I.= i E %. .M 8 I.: g ~ / g > I.I.a E #.E a I.I.I.I.r.L ",
"  L I.I.I.f E *.] M I.I.I.= g ~ E g : I.I.= a E &.E g = I.I.I.I.I.I.I.I.= g T #.` x 8 I.I.= g E W g : I.I.I.f E $.U f I.I.I.e.L ",
"X L I.I.f E -.] x I.I.I.I.; g ~ E g 1 I.I.I.> g E %.E g = I.I.I.I.I.I.= d E $. .m 8 I.I.I.< g E E g - I.I.I.I.g E *.U a I.I.e.L ",
"  L - d T #.` n I.I.I.I.I.< g E Q g ; I.I.I.I.< a E %.E a - I.I.I.I.= g E $.} N 0 I.I.I.I.> g E ( g - I.I.I.I.I.i E %.E g = e.L ",
". t r R *.] v I.I.I.I.I.I.- g ! Q g : I.I.I.I.I.= a R &.R g = I.I.= d R $.| N 9 I.I.I.I.I.> g E ^ g ; I.I.I.I.I.I.a T *.E w J L ",
"O 7 N [ ` c I.I.I.I.I.I.I.; g E E g - I.I.I.I.I.I.= g E %.E g ; = f T #.` m 8 I.I.I.I.I.I.< g E E g = I.I.I.I.I.I.I.g R #.U g t ",
"X 5 m E c I.I.I.I.I.I.I.I.: g E E g ; I.I.I.I.I.I.I.= f E $.E s a R #.E b 8 I.I.I.I.I.I.I.1 g Q ~ g > I.I.I.I.I.I.I.I.g E ] c 5 ",
"# 5 M d I.I.I.I.I.I.I.I.I.; h E ~ g = I.I.I.I.I.I.I.I.= g E $.E E $.E d 8 I.I.I.I.I.I.I.I.> g E / g ; I.I.I.I.I.I.I.I.I.d ] M 5 ",
"# 5 g I.I.I.I.I.I.I.I.I.I.> g W E g < I.I.I.I.I.I.I.I.I.- d E *.%.E f = I.I.I.I.I.I.I.I.I.> g E ~ g = I.I.I.I.I.I.I.I.I.I.s N 5 ",
"& 5 d I.I.I.I.I.I.I.I.I.I.- g / W g - I.I.I.I.I.I.I.I.I.> g E *.#.E f - I.I.I.I.I.I.I.I.I.= g Q E g - I.I.I.I.I.I.I.I.I.I.g b 5 ",
"# 5 x f I.I.I.I.I.I.I.I.I.> j E Q g = I.I.I.I.I.I.I.I.= i R #.` E #.E d > I.I.I.I.I.I.I.I.< g E E g ; I.I.I.I.I.I.I.I.I.g ' m 5 ",
"@ 5 n R d I.I.I.I.I.I.I.I.; g E E j ; I.I.I.I.I.I.I.= g E #.[ b g E *.E g = I.I.I.I.I.I.I.- h / E g < I.I.I.I.I.I.I.I.a E [ c 5 ",
"  5 m ` U s I.I.I.I.I.I.I., g E ~ k > I.I.I.I.I.I.; g T *.` c 8 = g E $.E g = I.I.I.I.I.I.: g E ~ g : I.I.I.I.I.I.I.g E #.E g u ",
"O q r E #.E g I.I.I.I.I.I.; g E E g > I.I.I.I.I.= d T *.| m 8 I.I.= d E #.E g = I.I.I.I.I.> g E W g - I.I.I.I.I.I.g E &.E y D L ",
". L = g E #.E f I.I.I.I.I.- g E E g = I.I.I.I.; g E *.` x 8 I.I.I.I.- g U =.T g = I.I.I.I.> g E ~ g 1 I.I.I.I.I.d T $.] N 3 e.L ",
". L I.I.f U &.E d I.I.I.I.- g E W g = I.I.I.= g E #.` N 8 I.I.I.I.I.I.= f E %.E g = I.I.I.; g E ~ g , I.I.I.I.f E *.` b I.I.e.L ",
". L I.I.I.p E *.E d I.I.I.1 g ! E g : I.I.= s E *.` N 8 I.I.I.I.I.I.I.I.= g U #.E i = I.I.= g ~ / g : I.I.I.g E %.' b I.I.I.t.L ",
". L I.I.I.I.g E #.E g I.I.< g ~ E g > I.= d U #.| x 8 I.I.I.I.I.I.I.I.I.I.= g E #.T g = I.= g ! ~ g : I.I.g E #.| m I.I.I.I.y.L ",
"O L I.I.I.I.I.g E *.E g I.f E #.#.E g ; i R #.[ x 8 I.I.I.I.I.I.I.I.I.I.I.I.= g E #.E a - a U #.=.E g I.a E #.` c I.I.I.I.I.r.L ",
"X L I.I.I.I.I.I.g E #.U a T $.8.0.-.Z f E $.E v 8 I.I.I.I.I.I.I.I.I.I.I.I.I.I.> d E #.E f D *.q.q.%.E a R *.~ x I.I.I.I.I.I.e.L ",
"+ L I.I.I.I.I.I.I.g E #.T ;.q.d.d.9.O.E %.E g 8 I.I.I.I.I.I.I.I.I.I.I.I.I.I.I.I.= f E %.E @.9.j.d.q.$.E #.E h I.I.I.I.I.I.I.e.J ",
". L I.I.I.I.I.I.I.I.s E #.6.d.c.c.d.9.-.E g 3 I.I.I.I.I.I.I.I.I.I.I.I.I.I.I.I.I.I.= d E %.q.d.c.c.d.q.%.E g I.I.I.I.I.I.I.I.e.L ",
"  q > - - , = = > a E $.9.d.c.S.C.N.d.q.*.L g > : ; , - : = = - ; , ; < = : = ; ; g D ..7.d.c.S.S.M.d.0.#.E g < > : = < > > V q ",
"# 5 k g h g g g g E ;.9.d.c.Z.F.F.S.c.f.q.$.! g g g g g g g g g j g g g g g g g g R #.0.g.c.S.F.F.S.c.d.q.;.E g g g g g g g n 5 ",
"# 5 N W E ~ E E E #.q.g.v.S.H.P.P.H.S.v.j.q.%.~ ~ E ~ E ~ W W W E W ^ Q E ! E E E %.9.d.m.S.K.P.P.F.S.c.d.q.&.E ~ ~ E W Q ` b 5 ",
"# 5 c E Q E ^ ~ ! %.q.d.b.S.F.P.P.H.S.n.d.7.#.Q E E E / E E Q ! E ~ E Q E W E Q Q %.q.d.b.S.F.P.P.K.S.v.g.q.*.E Q W E W E Q x 5 ",
"$ 5 g h g g g h g E -.q.d.m.A.F.F.D.B.z.p.,.` b j j g h g h g g g g g g g g g g k E =.5.d.m.S.F.K.S.c.x.p.<.] M g g g g g g j 5 ",
"o q ; < > > - < = a D o.q.g.c.S.S.m.k.p.2.` M 5 < ; : > ; : - = , ; = = ; > - > 1 g E ;.7.d.c.S.S.v.d.s.>.) n 5 > : = < - ; B q ",
"O L I.I.I.I.I.I.I.= f E #.9.j.b.c.d.q.3.' x I.I.I.I.I.I.I.I.I.I.I.I.I.I.I.I.I.I.I.I.g E %.q.d.c.m.f.q.,.{ x 3 I.I.I.I.I.I.I.e.L ",
"X L I.I.I.I.I.I.: f E *.` *.q.g.d.w.=.| =.E f I.I.I.I.I.I.I.I.I.I.I.I.I.I.I.I.I.I.g E #.` &.q.f.d.q.+. .*.E g = I.I.I.I.I.I.e.L ",
"  L I.I.I.I.I.= a E #.` N L #.q.8.$.E n E #.E d I.I.I.I.I.I.I.I.I.I.I.I.I.I.I.I.g E =.] m Q ;.q.q.*.F m E #.E g = I.I.I.I.I.e.L ",
"  L I.I.I.I.= g R &.` N 8 g ~ =.$.E g I.f E #.E f I.I.I.I.I.I.I.I.I.I.I.I.I.I.f E *.] m I.g ~ -.*.~ g 3 a E -.U a = I.I.I.I.t.L ",
"  L I.I.I.; s T $.] n 8 I.< g E E g , I.I.g E #.R s I.I.I.I.I.I.I.I.I.I.I.I.d E #.] v I.I.- g W E g ; I.= g E #.E d = I.I.I.t.L ",
"X L I.I.= g T $.' n 8 I.I.; g Q ~ g = I.I.I.a E #.E g I.I.I.I.I.I.I.I.I.I.d E %.` b I.I.I.= g / ~ g = I.I.> g U #.E g = I.I.u.L ",
"  L I.= g E #.{ n 8 I.I.I.= g E E j , I.I.I.I.g R #.R a I.I.I.I.I.I.I.I.a U #.{ m I.I.I.I.- g E Q k - I.I.I.= g E *.U g > I.e.L ",
"@ L l a E #.` b 8 I.I.I.I.> g W E g : I.I.I.I.I.f U $.E g I.I.I.I.I.I.i E =.{ m I.I.I.I.I.< g Q ~ g < I.I.I.I.= g E %.E d B e.K ",
"@ e g E %.` M 8 I.I.I.I.I.- g Q E g : I.I.I.I.I.I.p E #.E g I.I.I.I.g E #.` b I.I.I.I.I.I.- g ~ / k ; I.I.I.I.I.= g E &.E s K L ",
"+ 5 N $.E n 3 I.I.I.I.I.I., g E E g = I.I.I.I.I.I.I.a E %.E i I.I.f E #.E x I.I.I.I.I.I.I., g ^ ! g = I.I.I.I.I.I.= d E $.E a r ",
"o 5 { E g D I.I.I.I.I.I.I.> g ` E g ; I.I.I.I.I.I.I.- u E { ` f f ` ] E u 3 I.I.I.I.I.I.I.- k ' E g = I.I.I.I.I.I.I.B d E ` c 5 ",
"# x c f D e.u.e.e.t.e.e.e.B n N n g S e.e.e.e.y.t.e.e.H a m n x b M c g D r.e.r.i.e.e.e.e.C c b m g A r.e.r.e.e.r.e.e.H g v N 5 ",
"5 5 5 u L L J L L L K L L y 5 5 5 5 y L L L L L L L L L u 5 5 5 5 5 5 u L L J L L L L L L q 5 5 5 5 r L L L L L L L L L u 5 5 5 "
};
