/* XPM */
static char *result[] = {
/* columns rows colors chars-per-pixel */
"64 64 84 1 ",
"  c #848484",
". c gray55",
"X c #8E8E8E",
"o c gray56",
"O c gray59",
"+ c #989898",
"@ c gray60",
"# c #9A9A9A",
"$ c #9B9B9B",
"% c gray61",
"& c #9D9D9D",
"* c gray62",
"= c #9F9F9F",
"- c #A0A0A0",
"; c gray63",
": c #A2A2A2",
"> c gray64",
", c #A4A4A4",
"< c #A5A5A5",
"1 c gray65",
"2 c #A7A7A7",
"3 c gray66",
"4 c #A9A9A9",
"5 c #AAAAAA",
"6 c gray67",
"7 c #ACACAC",
"8 c gray68",
"9 c #AEAEAE",
"0 c #AFAFAF",
"q c gray69",
"w c #B1B1B1",
"e c #B2B2B2",
"r c gray70",
"t c #B4B4B4",
"y c gray71",
"u c #B6B6B6",
"i c #B7B7B7",
"p c gray72",
"a c #B9B9B9",
"s c gray73",
"d c #BBBBBB",
"f c #BCBCBC",
"g c gray74",
"h c gray",
"j c gray75",
"k c #C0C0C0",
"l c #C1C1C1",
"z c gray76",
"x c #C3C3C3",
"c c gray77",
"v c #C5C5C5",
"b c #C6C6C6",
"n c gray78",
"m c #C8C8C8",
"M c gray79",
"N c #CACACA",
"B c #CBCBCB",
"V c gray80",
"C c #CDCDCD",
"Z c #CECECE",
"A c gray81",
"S c #D0D0D0",
"D c gray82",
"F c #D2D2D2",
"G c LightGray",
"H c gray83",
"J c #D5D5D5",
"K c gray84",
"L c #D7D7D7",
"P c #D8D8D8",
"I c gray85",
"U c #DADADA",
"Y c gray86",
"T c gainsboro",
"R c #DDDDDD",
"E c gray87",
"W c #DFDFDF",
"Q c gray88",
"! c #E1E1E1",
"~ c #E2E2E2",
"^ c gray89",
"/ c #E4E4E4",
"( c #F1F1F1",
") c gray95",
/* pixels */
")/QQQQQQQQQQQQQQQQQQQQQQQQQQQQQQQQQQQQQQQQQQQQQQQQQQQQQQQQQQQQ^(",
"/;*;;;;;;;;;;;;;;;;;;;;;;;;;;;;;;;;;;;;;;;;;;;;;;;;;;;;;;;;;;*;^",
"Q&ZUIIUYUIIPIIIPPIYUIPUUIPLPIIIPPPIIIIIIIIPPPPPPPPPPPPPPIILKIC&Q",
"Q;YIDFKUPJSSASCDbBIYGVGJFVBZSSSAMVHJSZGDHGZBZZBVCASACBNVGGVvDI;Q",
"Q;UIFZVHGKZvmlmBmnVGJDnZVmkkbMmMczmBNMNVVVBMnnnMmmmmbzhzmVCvlK;Q",
"Q;UIFZVGGKZvMlbMbvMSHDnVVNxkvmmMbznNMMMBVBBMnmmMmmmmbzhlvNCncK;Q",
"Q;UIGAVDFLAnNjcnczcCGDMMVBbkxmMMbxbmmnmBNNNNNNNMmmmmbzhklmVMMK;Q",
"Q;UUGACZSLSMMhlvvklBFGBbVCMklnMMnccvbbbNmMNNBNNMmmmmbzhhgbVVCK;Q",
"Q;UYHSDAADGScjlhnmkjVDAcbVCMcvmmNcdgnmbBMbNVCVVmmbvmNvhdpfvBAL;Q",
"Q;UUJFFAASFDnllhbmzkMASmmVCMvvnmMbkkvbbMBNMNVVVNNbcMBnjhaplMDL;Q",
"Q;ILJKFAZZDDBvljcnblzNSZBBBMbvbMmnmvlzvnVVmcNVBVBvcMVMzkstpvFP;Q",
"Q;IJJKGACBADZmzlzvncgcSDZVNMnvcmcmVMjgcxBCnlnBNZVbcmVNczhirkSI;Q",
"Q;IFGKGACnMAANxljcnvfzCAZVNMnvlvznBMjflhmVnlcMMZVMvmVBnzzfysZI;Q",
"Q;IDAFGSBbcmCNclkxbvjlnVCCNmnvkjjxMMvhddzMNnxvMVCVnbNBNcxkdsmP;Q",
"Q;IDmNSACvjzMBnllzxcxllnCZNnbxgafzvmmlisfbBNxlmMVCNvbMNMxkljbP;Q",
"Q;ISzvZZCvghbMnllllxccfzVZBnxlgufjznMxespxVVxkMnVZBccmBVcgccvL;Q",
"Q;PZcbBCMbcjglnjhgjxczffvBBNMzyidhkvmblegagNMjlnBCVmcbNNMnxjmL;Q",
"Q;LVbvxmmbxgpkbkspglkhddvNBBMxitshjxnbxisignmvzcMVVMbbNBNmvlmL;Q",
"Q;KMbcaxvbxseijkatajhdpdlnNBMcfeudglcbbliufznmzjvBVVmbbVBNnxNL;Q",
"Q;JbxlujzxxgtwwgsyrahgyahcmNMvkeyashzvnviuddvBchxMVCBnbVVBMnVP;Q",
"Q;Jlhhpsdgjkgr5ifp7whkyasgvmmvziyuishzbbsipyxNbjzmBCCMbBVVBNCP;Q",
"Q;Kjudfweyshha97pp53ahasiikbnvchartidhxbkfpygbncxvNZZBmMBVVBAP;Q",
"Q;Khwudqwweadpr:qt8,6ihfyedcvvvzseeussjccjuialmmvcnCACNvNVCCDP;Q",
"Q;Jj0rstyr9wyye$,90,&9jsyqpzcvbbfqqissgznlyaisMMnxvBAZBxnVCCDP;Q",
"Q;Hfrtyy9>:8rtr*&50<%6pdtqslxvmnxde9eahkvbfeugjbmMbnZAVmnMCZFI;Q",
"Q;Hferer83>17wt:O@23$>rfayigzbMmcjt8qifjcbluydkbmmbnCAVMmBZZDI;Q",
"Q;Jfeeew06;&,8t9*.&8,#9ddiwthvnmbzp86tskcvcgypzvnnnnCAVMMVZADI;Q",
"Q;Jfwwwwq7,%=40i8Xo75+>pgferhbbmmbgq5qpkzbnzuixcbMmmCAZMNVZCAP;Q",
"Q;Jheq0rw82-=,3ut+ ,8=#ygjgsznnmMmzu9qygjvmcsszlbMNNCAANBVZVAP;Q",
"Q;Kltq9yrq7<:-=wp6X&98>5pjjgflxmNNngtrudjvnbzklknBBVZDSCNNCZSI;Q",
"Q;Kzuw9put03;*&8pi2&7qq,whlhyalmNBMvgppajcvnnvkjnVCZSDDSCBZDJI;Q",
"Q;Kcuw8ssie1*&-2ygr$&706ulbxidbmNVBmzdapkcxbNnjhmCZADFFGZNAFLI;Q",
"Q;Kvhs9eadiw81=#tjp4:6ue0pvnkfxlcBCBjsjhkxbMNmnkNZBMDJHGFANAIU;Q",
"Q;Kblhprdfauw6<>efju<4syeazbxjlzvVSZbzblzxnMNNMxBAAADHKHGDBCPU;Q",
"Q;KMxzlugjgdpt996acl95gpasgxvvlzvCDDZMMbbvbMBVCmMZDGSJPKKHVNHU;Q",
"Q;KMxcvpfkkjgsie5ibmdwafhdsknmkkxNADSVMBmvcmBCAVnVHKGHPIPLDBGU;Q",
"Q;KbzvnhgjzxlhfwqaxMbhtjxkahmMzxcmZDFZNCVmvbMCAZmNGKGGLUUULSHU;Q",
"Q;KxlbnnkhxvxljrahlmVnukcxhkbMcbbmBDJHZAZVMbmVZSBNSKKJKYUYULLU;Q",
"Q;KzxMnVvjvnvxxfjhkmCVljcnbxzvmnbbmDLLGSDSZNmNCDSCVGUUJIITRYUU;Q",
"Q;LlbNmSmkcmnbvxkhzmVVNjxMMvkvNvczvSPIJFFGDZBBVGHDVGTRKPLTWETU;Q",
"Q;PNxnMZBbvmmmvnclkcMVZNnMVVMMBVVVVCFJPKAAJHBBGSJJSSITYHUWQEEU;Q",
"Q;IVxbnCBMnmmmnmbxxvNVZVmMCZVNBCZZVBSKIFCDLKZZGFHJGFLUTGLRWW!Y;Q",
"Q;IScxvVVVNmnMMBNMnmBCAZBMCAZVMCZACBZJIFAGPPHDGGHJJHFLTPITWQ^T;Q",
"Q;IDncbNVZVMbMNBBNMMNCASVNZSSCmVZAAVCGLPGDKPLHAHGJLJZFTERTEQ^T;Q",
"Q;PGNnmmVZCNbmBBBBNMMCADZBCDFABnVAAZCAFTPSDLUKVHFJPKZDUEETEQ^T;Q",
"Q;PDVNMbBZCBnmNNBBNmmCSFSCVSGFAmBCZZZZCTIGZKULZGDHKJFFKYUTRQ^T;Q",
"Q;LSCVmvMZZVmmmMVCVNNZDGGSVZHJGZCBVCZZCKIIFFPIHSDFFJLJSIUEEW~T;Q",
"Q;KVCCbvmVZVNmbMVZCNNAFGHDVCHKKFZmmVAAANPTLSLIPZFFAJULCYEWWRET;Q",
"Q;LBvMZNVVBMmBCZBCDSNBFGHHFSDJLGZnnVZZZmGILDAJPCBBAKLKFDPTERQT;Q",
"Q;LBmBZBVZCNNBCZVZAACCAGJLGSAHLHDMmBZZZNSLPKDGLSCBAJLKJFJUYTET;Q",
"Q;LBBZZVVASAVBBZAACADDCHPILSCFKLHCMNVCZCCHPPHFKJSVVFJKLGHJLUEY;Q",
"Q;PBBABBVSDSZBMZSANVGGVHPYIFZSKIKFVMNCAANAPUKDHLFVBAHKLHFDGPRY;Q",
"Q;PBNZBBBADDABmCSSBVGGAJUTUJAAGPLHANmVASBCKILHHLHZBCFJKHFDFJYY;Q",
"Q;PVnVZVVAFFDABCSSCVSGJKITTPGDAKLKDBmBAACZFKPKHKGAVCDGHHGDSFIU;Q",
"Q;IAxMDAZSFHGDSZADDCBDPKIUTUPDVDJLGCMNAZDSCFPIJHGDZZZDFGFSZCHU;Q",
"Q;UDzmGFSFGKJJFZVFGAmDULPUTYUGCZJLHZMBSCFDmCPUKDDSACZZADDSBNSU;Q",
"Q;UHZAFHSSHLKKJVCFHGVSKTJFURUPPFGLPJCNSAASZZFLUDFSCmnBCDFFZmVI;Q",
"Q;UJASDJGSFLIPGZBZGGDFJYLJUTTUIHGJLJDCZAASZCAKIGHSCbbMBADDAMCP;Q",
"Q;IJFDSJKJFKYUJJZVDJJHFIUIIYRTIKFFJKHAVAASZVVFKKJFCvcbMBADSCAP;Q",
"Q;ILGFAFLPGHIYIIFBZKLJDGUULIRRIPGZGKKFNAASZBBAFLKHZvzcvnCSDASL;Q",
"Q;IYIPHGTETPYEWEUHHURYLHTRIUEEYRIHJIUPSHHHHFSFJYYIJANNNVSHKJII;Q",
"Q&CYUUUIUYYUUYTYYUIUYYUIUYUUUYYYYUIUUUIIIIIIIIIUYUUIPLLPPIIUYC&Q",
"/;*;;;;;;;;;;;;;;;;;;;;;;;;;;;;;;;;;;;;;;;;;;;;;;;;;;;;;;;;;;&;^",
")/QQQQQQQQQQQQQQQQQQQQQQQQQQQQQQQQQQQQQQQQQQQQQQQQQQQQQQQQQQQQ^("
};
