/* XPM */
static char *result[] = {
/* columns rows colors chars-per-pixel */
"64 64 206 2 ",
"   c #5D3816",
".  c #5E3D1A",
"X  c #623E1C",
"o  c #65401B",
"O  c #6B441E",
"+  c #6E4C1E",
"@  c #78521F",
"#  c #6F4620",
"$  c #6A4821",
"%  c #744C23",
"&  c #7A4D24",
"*  c #765124",
"=  c #7B5325",
"-  c #7D5C27",
";  c #7E5429",
":  c #8B5427",
">  c #8D5926",
",  c #83572B",
"<  c #855C2B",
"1  c #8A5C2D",
"2  c #915D26",
"3  c #935B29",
"4  c #875D31",
"5  c #8B5E30",
"6  c #8A6226",
"7  c #85602A",
"8  c #8A6628",
"9  c #8D642E",
"0  c #93642D",
"q  c #9A6228",
"w  c #956B2D",
"e  c #9A6A2E",
"r  c #95702C",
"t  c #9B732E",
"y  c #8D6433",
"u  c #8F6A31",
"i  c #8C663A",
"p  c #8D6A3E",
"a  c #936533",
"s  c #9B6432",
"d  c #956B35",
"f  c #9A6B34",
"g  c #92673A",
"h  c #946B3B",
"j  c #9B6E3C",
"k  c #977036",
"l  c #9C7334",
"z  c #977936",
"x  c #9F7936",
"c  c #977138",
"v  c #9C733C",
"b  c #9E793B",
"n  c #A4792E",
"m  c #A16733",
"M  c #A26D33",
"N  c #A16E39",
"B  c #A17434",
"V  c #A97736",
"C  c #A37B35",
"Z  c #AB7C34",
"A  c #A3733D",
"S  c #A9753D",
"D  c #A47B3B",
"F  c #AA7C3D",
"G  c #8F6B41",
"H  c #946D41",
"J  c #996F41",
"K  c #967144",
"L  c #9C7343",
"P  c #9F7944",
"I  c #9B7649",
"U  c #9C7A4B",
"Y  c #A37543",
"T  c #A97643",
"R  c #A47A44",
"E  c #AB7C44",
"W  c #A27749",
"Q  c #A47C4A",
"!  c #AA7D4A",
"~  c #B27F4C",
"^  c #A27E51",
"/  c #A5812F",
"(  c #B28327",
")  c #B3862E",
"_  c #A78234",
"`  c #AC8435",
"'  c #A6833B",
"]  c #AB833C",
"[  c #AD8A3B",
"{  c #B18137",
"}  c #B38932",
"|  c #BA8F33",
" . c #B3853D",
".. c #B38C3C",
"X. c #B5913D",
"o. c #BB933C",
"O. c #BD9A3F",
"+. c #C0953B",
"@. c #C19A3E",
"#. c #C9A03D",
"$. c #A68243",
"%. c #AC8444",
"&. c #AD8A44",
"*. c #A6814C",
"=. c #AD844B",
"-. c #AE8A4A",
";. c #B38545",
":. c #B38B44",
">. c #BA8D43",
",. c #B2854A",
"<. c #B9834B",
"1. c #B48C4B",
"2. c #BB8C4B",
"3. c #AD904D",
"4. c #B59243",
"5. c #BB9543",
"6. c #BD9B45",
"7. c #B5934C",
"8. c #BA944B",
"9. c #B79A4E",
"0. c #BC9B4B",
"q. c #A68353",
"w. c #AC8352",
"e. c #AD8954",
"r. c #B38652",
"t. c #B58954",
"y. c #BA8C53",
"u. c #B78B58",
"i. c #B98E5B",
"p. c #AD9154",
"a. c #B79352",
"s. c #BB9554",
"d. c #BC9B53",
"f. c #BB935B",
"g. c #B89C5A",
"h. c #BFA047",
"j. c #BEA14E",
"k. c #BEA153",
"l. c #BEA25B",
"z. c #B98F60",
"x. c #BB9162",
"c. c #C28C4F",
"v. c #C19444",
"b. c #C29D44",
"n. c #C1944B",
"m. c #C29C4B",
"M. c #C38E53",
"N. c #C29453",
"B. c #C19F55",
"V. c #C99459",
"C. c #C19E59",
"Z. c #C5A246",
"A. c #CAA345",
"S. c #CFA945",
"D. c #C4A34C",
"F. c #CAA54B",
"G. c #CDAC4E",
"H. c #D0A846",
"J. c #D4AD4D",
"K. c #D3B24D",
"L. c #D8B04F",
"P. c #C2A353",
"I. c #CAA653",
"U. c #C6A956",
"Y. c #CBAB54",
"T. c #C2A45A",
"R. c #C5AA5C",
"E. c #CAAE5B",
"W. c #CEB154",
"Q. c #CCB25B",
"!. c #D3B254",
"~. c #D9B656",
"^. c #D9B855",
"/. c #D3B55C",
"(. c #D6BB5D",
"). c #DBBC5B",
"_. c #C1A761",
"`. c #C5AD63",
"'. c #C8AB60",
"]. c #CBB363",
"[. c #CEB866",
"{. c #C6B168",
"}. c #CCB768",
"|. c #D1B764",
" X c #D5BB65",
".X c #D9BE61",
"XX c #D3BD69",
"oX c #D2BE72",
"OX c #DDC15B",
"+X c #D6C065",
"@X c #DBC364",
"#X c #D5C16C",
"$X c #DAC46C",
"%X c #DCC96C",
"&X c #D6C576",
"*X c #D9C571",
"=X c #DCCB74",
"-X c #DBCD7E",
";X c #E1C762",
":X c #E1C963",
">X c #E0CB72",
",X c #E0CD78",
"<X c #E3D47D",
"1X c #E6D885",
"2X c #E5D98B",
"3X c #E6DE93",
/* pixels */
"j a 5 : : 3 m S T ;.&.7.F c y d f M { b.K.b._ 8 8 w / ` ` } O.#.@.n > f ! M.x.u.t.w.Q j j T R =.! ! T ~ y.V.M.<.T S T Y Y L W L ",
"j h g 5 s s m J A A S F D j d a f B { +.b.X.C 9 9 l _ [ ..X.#.K.W.o.A E t.f.u.y.,.=.Y L L W Q =.Q E ! r.y.M.c.<.T Y N Y Y T T Y ",
"j J h Y Y Y N Y N j j A S A A h f f Z ` Z C f y u k _ [ X.O.K.OXOXF.v.n.N.f.y.1.;.! Q L I Q Q *.R Q ! w.,.,.~ ,.T Y j A A Y Y Y ",
"j j H Y ! ! W Y Y Y T T E F T v B f Z F ] R P b P R ] -.4.6.W.OX:X^.Y.m.C.a.1.&.$.Q $.P Q Q R P Y I Y Y L A A E E Y j A A A v Y ",
"J L J Y ! ! ! T R E =.=.,.%.E F T S ] $.&.=.1.,.-.-.-.:.4.6.F.K.).~.!.I.C.s.1.%.$.$.*.Q P P L L v v h p y y d j L L v v A A Y L ",
"W W Y Y Y W W ! ! =.,.,.1.,.<.;.;.;.2.8.n.N.N.s.9.8.8.d.8.D.F.!.(./.Y.D.8.7.=.%.D Q W R L K v c g h a y 5 9 y a u g p v Y L L L ",
"! W W Y Y Y Y R ! =.=.-.=.=.,.;.2.2.2.5.c.5.n.n.n.d.d.T.R.U.G.G.G.I.D.8.:.%.%.F R D L v v h d d y y y y a a a y y 4 y h J J b Y ",
"W W Y J j j L R =.w.1.=.,.1.1.;.;.;.;.,.2.2.7.s.0.C._.`.`.Q.D.Z.6.5.X.:.] ] ' F D x v c j u u u u u d d f f d y y y y g g g J L ",
"K H p p h J v Y R =.=.=.=.%.-.%.%.] -.:.1.s.s.d.k._._.`.U.h.O.| } } [ [ &.' %.' ' l x j k d k d d k f j f f j d p a d d g h h L ",
"H i y i p h J L W Q *.-.-.=.=.%.$.$.&.1.g.x.l.d.k.k.l.k.X.) ( ( ) } [ X.&.[ %.' D l l l k k k k k v v b v l j v L b A j d h H H ",
"H i p p p H K L L U Q *.=.=.%.%.%.-.:.1.9.g.g.9.3.9.j.j.h.o.O.o.h.h.j.0.4.&.$.[ C C l l v v v c b b P v v A A R T R R j h h J J ",
"H G G p p H K L L L I *.-.1.1.-.-.-.:.%.%.&.%.;.:.9.l.R.l.W.W.(.#X[.].j.4.-.` _ C t r l x b x x b b b c v B A R R R W b L J J J ",
"H K G G H K K K K L K Q =.a.1.1.1.4.1.:.$.D D E 8.R.oX&X=X+X=X<X2X-X}.j.4.4.' [ _ C t x C D D C v x v l B B S E E R L L v K L I ",
"K K K I K K K J L L L R e.g.d.d.8.s.d.s.7.%.E ;.0.Q.&X&X=X%X<X3X2X-X].j.4.X.[ [ ` ' ] ' &.' C D D ' D D B A S E E R A L J K L I ",
"U U U I K J H H J I =.=.t.a.a.a.7.d.k.d.s.1.:.8.P.E.XXXX*X*X,X<X=X#Xj.h.j.j.j.4.4.4.9.9.7.&.` ' F ' ' ' F C C E A A A L J I I I ",
"^ ^ ^ U I L h g J Y *.%.-.&.&.%.:.7.d.d.8.4.:.%.4.0.I.Y.[.#X*X%X(.Q.Z.h.4.j.j.h.9.0.k.l.l.0.&.` ]  .;. .F F A D A R R W Y W W ^ ",
"q.q.^ w.^ W L h h v P Q $.' ] ] ] :.8.5.7.7.' C x D ' &.9.k.U.W.G.G.Z.@.4.m.D.0.j.0.P.D.B.8...` ..{ .. .F F F F T E ! ! Q Q Q Q ",
"q.q.q.u.r.w.T L h h c z b $.$...1.d.8.0.P.d.$.f 0 a 9 9 u z ' 4.h.Z.@.o.| o.m.D.6.6.6.6.0.6.5...{  . . . .;.F ;.<.y.=.=.! Q ! ^ ",
"q.~ z.u.r.! Q L v c c b R &.&.-.:.9.7.0.E.l.-.b s h < = + + - z ` X.} } ) +.F.Z.b.X.b.5.6.5... . . . .>. .;.;.<.,.1.,.! ! ^ Q ! ",
"^ u.^ ~ ! E E W Q $.$.$.&.3.-.-.1.4.7.P.`.`.s.E s a 4 % o . $ - 8 r n n Z o.A.b.+.X.4.6.D.I.m.5.>.o.>.>.>.5.;.2.;.<.! ! ! ~ ! ! ",
"! W ! T ! T Y ! *.-.a.9.7.3.a.7.1...:.0.E.{.k.%.f a , & o o . o O @ 6 r B Z X.5.b.6.D.I.I.I.m.m.b.v.v.v.v.2.;.;.~ E E ! ! ! ! W ",
"W T Y Y Y J Y T *.-.-.-.-.-.-.7.9.8.0.P.E.}.R.1.f 1 1 < = $ O o   o @ < y d Z 4.b.Y.W.Q.E.Y.Y.D.F.m.n.n.v.c.2.;.E E ! ! ! ! W Y ",
"W T Y Y J W J W Y P P P P $.%.9.k.P.P.h.j.j.P.8.F k v b z 7 % O # # = < y 5 f ] 6.Q.Q.(.J.F.G.Y.!.E.I.I.F.N.n.s.2.2.,.=.! E T T ",
"T W L L Y J J J J h h g p v E 7.k.Y.Q.I.0.6.6.0.7.1.9.R.R.$.9 % % & , 1 5 y j E 2.Y.W.(.G.A.J.L. X XXX|.Y.Y.R.T.C.s.1.:.<.<.~ T ",
"W W J W I L J J H J h y y j $.7.0.0.9.&.D C ` 6.j.D.Y. X+Xk.&.c h 1 1 1 5 h A E ;.m./. XL.J.L.).$X$X$XXX|.|.}.}.'.T.7.;.;.%.! ! ",
"g J J W W U L j K J h a 9 d l x x x l d u 9 d x 4.0.I./.+XQ.j.9.t.A q 3 3 a T E ;.5.I. X.X~.L.).;X$X#X#XXX}.].'.R.T.7.&.E E T L ",
"H H I ^ e.e.$.W W b j a a s 0 0 9 a 7 , = ; < 0 l D :.6.j.j.k.Q.Q.0.C q 3 q s S F { 8.Y.E.!.J.^.).)./.].E.R.P.m.B.B.s.;.F P L G ",
"I W ! ~ s.s.y.;.%.Q L j j f 0 0 a a y , , ; , 1 9 0 d B ' z ' 9.U.Y.>.Z M e f e M C ..b.m.F.F.G.!.!.!.E.U.D.0.6.m.B.d.7.%.R K G ",
"g.7.:.:.N.N.c.2.,.! Y Y Y N M M Y A h 1 4 5 a a a a a f d a j D 6.F.Z.v.>.F Z f M Z X.D.h.X.X.O.m.F.G.W.W.Y.D.b.6.0.j.4.-.*.*.*.",
"E.0. . .;.2.2.y.t.,.! Q R A M S S j a a y j j N f s f f 9 1 1 d C 4.5.5.>.' B e e F 5.D.j.6.X.[ [ 4.F.OX@XOX^.G.F.h.9.9.&.&.3.p.",
"J.5.A B S =.y.i.i.t.=.! W T S S S N s j v E E E Y T N N a a a a j F :.5...B w 0 e C 4.h.D.6.9.-.] ` 0.(.:XOXK.A.h.X.[ [ ' [ 9.k.",
"@.` 0 a Y r.i.i.i.t.=.! T T T T S A j A ! y.t.! Y N A N h s h a d d l x e 2 > 3 s B ] X.4.&.9.-.$.B ..W.OXK.@...[ ` ` _ / ` O.S.",
"o.Z 0 f E i.f.i.u.r.Q L Y Y E %.T E T E <.c.c.~ T T Y Y L L j j h h g s a 3 s N N A ' :.] A R b D M  .Z.G.b.` t r B n _ / } O.#.",
"K.>.C T t.f.i.t.,.=.W v J Q Q *.Q ! ! t.y.M.c.<.T Y A A A T Y Y L s a a s s m N A A D F A v h a d M { 5.b.X.C 8 9 t _ [ ..X.S.K.",
"OXF.n.n.s.f.y.,.=.=.Q v L R Q *.W ! ! w.,.~ ;.<.E Y j A A Y Y Y Y h j J Y Y Y J N j j A A A A f f e Z ` D C f u u l ' [ X.6.K.).",
";X^.Y.m.N.s.1.,.%.R Q Q W Q W Q R Y Y I Y v Y R R Y A A A A A v j J J Y T ~ Y Y Y Y Y E ;.E S v v l Z F ' F R L P R ' &.4.6.W.OX",
"^.^.!.I.B.s.1.&.E $.*.Q P I P L v c h g y y d j L L h v A Y A L Y J L Y ! ! ! W R E ! ,.,.%.;.A F S ] %.%.,.1.=.-.;.-.4.4.6.F.!.",
").(.Y.B.0.7.;.$.F R P P L v c c p g g y 1 9 a a a h g v L L L Y W W Y L Y W W ! ! =.,.1.,.%.<.&.<.:.2.2.N.n.N.N.s.9.7.9.0.j.F.K.",
"Y.Y.m.0.:.%.$.' R Y P v v h g u y u y a a d y y y 4 i g h J J W Q Q T Y N Y Y ! Q =.,.-.=.=.,.<.2.>.2.8.2.c.v.8.6.N.k.l.l.Q.G.G.",
"6.5.....] ' E F D x b c h d u u 9 9 d d f d g y y 9 u g h h J L W I L L J J Y Y =.w.-.=.=.1.1.:.;.%.;.,.>.7.8.8.8.T._.{.`.Y.Z.A.",
") } [ X.[ ' $.$.F l l l d j k d k d d v f f j j h a d g d g H J K H g h h J J Y R =.=.=.=.=.&.%.%.%.%.-.7.g.g.d.T._._.{.l.D.O.| ",
"} } [ X.&.[ %.' D r l l k k k k k b v b v v k j v x A j d h H J H g i i p H J L W *.*.=.=.=.=.%.$.$.&.1.g.x.T.k.d.d.k.d.X.} ( ( ",
"h.h.9.9.4.&.[ $.' x l l l b c b b z P v j x A R W R Y v j j h H G p i i p h J L P P Q *.=.-.%.&.-.:.-.1.a.s.d.8.9.0.9.j.6.o.| o.",
"[.+X].j.4.:.] ` C t t l b x x v v b P v l A A D %.R W v j K K L H G G G p J K I L K I *.-.t.,.;.%.:.:.-.%.%.$.;.:.8.l.`.R.W.Q.(.",
"2X-X}.k.4.&.[ [ _ x t x x D C A l A x v B B S E E R Y L J J L I H H G G K K K K K L L W =.7.a.1.:.1.:.:.$.D R ;.8.R.&X&X=X+X=X<X",
"3X-X].j.4.4.[ [ [ _ ] ' &.[ D C D D C C B A A E R R A L J J I I I K K K K K K H K K I $.t.d.d.s.9.d.d.s.7.$.E %.0.E.&X&X=X%X<X1X",
"1X#Xj.h.6.j.0.4.4.&.9.7.7.&.] ' ` ] ' ] C F F D Y A v L K I I W U U I I K K G H J I =.=.1.a.a.7.7.d.d.d.8.7.1.5.B.E.+X+X*X*X,X>X",
"@XQ.Z.j.6.j.j.6.0.j.l.P.P.9.:.` [ %.;. .E S D S D Y T T W W W ^ ^ ^ ^ U U K h h J Y *.=.-.-.$.&.;.7.0.d.8.8.%.;.4.m.k.U.[.#X%X@X",
"W.K.h.O.5.m.D.D.D.0.I.j.P.5.:.`  .{  . .E F F S E E =.! Q Q W ^ ^ ^ w.q.Q Y J J h v P Q E ' ] ] ;.:.5.7.7.7.] D x _ ' &.9.k.Q.D.",
"Z.Z.O.O.) o.b.D.0.5.6.0.0.0.4.{  .{  . . . .F ;.,.1.,.! Q ! ! ^ w.w.e.e.e.=.T J h c k b b $.$.&.4.s.0.0.P.k.$.d a 0 9 y u z ' X.",
"} O.| } ) +.F.Z.b.| 5.5.0.5.5... . . .Z >.>.;.<.1.,.=.! ^ ! ! ! w.w.r.u.r.w.! Y K c l z R &.%.:.4.7.8.k.U.l.1.v d a 1 & + + - r ",
"8 r t t Z o.A.b.o.X.O.b.D.P.5.5.+.v.v.c.>.;.<.>.<.<.! ! ! w.! ! w.~ r.! ! ! T W Q $.$.$.&.3.3.-.-.:.8.k.`.`.s.E f a 4 % . . $ * ",
"+ @ 6 w l Z >.5.6.0.D.I.I.I.j.m.n.n.v.+.5.2.;.;.E E ! ! ! ! T ! ^ ! ! ! Y T Y T *.-.a.7.7.7.7.7.7.[ :.0.E.}.l.%.f a < * o . . X ",
"  o * < y e C 5.D.Y.Y.W.W.Y.Y.F.F.m.n.m.n.6.2.<.E ,.E ! ! ! T Y W T Y Y J Y Y W $.-.-.-.-.-.-.7.9.8.0.k.U.}.U.1.s 1 4 < - + $ $ ",
"O O ; 4 y 5 f ] 6.Q.|./.J.F.G.G.E.Y.I.I.F.m.n.a.2.1.<.=.~ E T Y T W Y J J Y L I W P U P U R &.s.d.P.I.h.k.D.k.8.F j c D b < $ + ",
"% * < 1 5 y j $.>.I./.!.G.F.J.!. XXX X|.!.T.T.T.C.d.1.,.;.,.~ ! Y W W Y Y L J L v h h p g v $.4.P.Y.Q.D.0.6.6.0.7.:.a.P.R.' 9 = ",
"y 5 > > a d A E ;.N.E.(.!.J.L.).$X%XXXXX|.|.}.].'.C.7.:.;.%.=.! Y J I W I J J H J h h y y j E 3.0.0.9.&.' _ ` 4.D.P.Y. XXXk.%.x ",
"1.A s 3 > s A E ;.n.Y. X.X~.L.~.@X%X$X#XoX|.].'.R.B.7.-.E E I K H H I I W W L J L L h a y a l D x x k d u 9 d x :.0.I.(.+XQ.j.d.",
"R.8.V 3 3 0 f S F { 6.Y./.Y.L.~.).).(.Q.E.R.P.P.P.B.8.-.E b z G g H W ! e.e.Q R R L c g d a 0 0 0 d 5 , = ; < 0 l D [ 6.j.j.k.Q.",
" XY.v.Z M f f f M Z ..0.D.D.A.J.!.W.Q.Q.U.P.6.v.m.B.d.7.$.Q K G J W ! w.s.f.2.;.%.R L j j f q 0 a a y , ; ; , 1 1 a d C ' / $.&.",
"D.F.Z.v. .] C M M Z X.D.6.4.X.O.Z.D.G.W.W.Y.F.b.m.0.0.7.&.*.*.q.p.9.:.;.8.s.c.>.,.E R Y Y N s M A A h 1 4 5 a a 0 0 d f u a h v ",
"` :.5.5.>.` B w e F 5.D.D.5.X.[ [ 4.F.OX%X).!.G.F.m.9.9.3.&.3.k.U.m... .<.2.2.y.t.,.! ! R S N V A j a y y j j N s f f s 9 < < 9 ",
"l F 4.4...B w 0 e V 4.b.j.h.j.&.] ` 6.OX:X).K.A.b.X.{ [ _ [ 5.G.Y.5.C A A ,.u.u.u.t.,.! T T S S S N s j v Q E T Y T S N a a a a ",
"h j %...C 2 : : > 0 _ [ 4.6.l.l.-.l [ W.OXK.#.@.5.[ / _ C ` b.H.b.` s a A r.i.x.z.u.r.! W T T T S A f A T <.,.! Y T Y h a y a 1 "
};
