/* XPM */
static char *result[] = {
/* columns rows colors chars-per-pixel */
"64 64 38 1 ",
"  c #0E750E",
". c #0E7C0E",
"X c #176617",
"o c #166C16",
"O c #186B18",
"+ c #157515",
"@ c #147C14",
"# c #187218",
"$ c #187B18",
"% c #068F06",
"& c #0E840E",
"* c #0C8C0C",
"= c #069406",
"- c #059C05",
"; c #0C940C",
": c #0C9C0C",
"> c #138413",
", c #138B13",
"< c #188318",
"1 c #188B18",
"2 c #119311",
"3 c #119B11",
"4 c #05A405",
"5 c #04AC04",
"6 c #0BA30B",
"7 c #0AAB0A",
"8 c #04B404",
"9 c #04BC04",
"0 c #09B309",
"q c #09BA09",
"w c #11A311",
"e c #10AA10",
"r c #04C404",
"t c #02CB02",
"y c #09C309",
"u c #02D202",
"i c #01DC01",
"p c #00E200",
/* pixels */
">#>*ui73@$>:9t423<@65u7*w#+6rr8;6$>6u94w2$279552,<2:98=.3@1-898@",
"9*7*ru9r477-5r5r96;64t8ru;-788r49*76r88iq67754qur7q685-4r*7745t4",
"7=:&qr80=q:;684806*:-q4qq;;:659=5;-;q57r77-w4-59007244=-7;6;-79-",
"6&*+3067&72+&7-66-.127-67*,>2-0*6&,>:660::2,*;67663>;;%;6&;>;=0*",
"2+$X@22;>3$#o2*2;,#$$2*3w@$$@>;&2+$#<,;w*,<$$@2:22>#>@ &2@1<@>;@",
"$$*-#+>1#@*4$1>@$>>6><@<,O27$#$X@O,;$#<2$$2-@#>1$$*4>#O+,#eu##$o",
">9987,@;>=9962<2;7880,#,3:98->$+>;5-8>$w&5957>>;24r96>@.36ip=>#>",
"5u9589:t8-587rqtt955q5-8t674656=7:4;qq:t9994547rt89879q5t9uu-8-t",
"4r8465-94-45;qq9r84-7644q::3;-5*6*;>676q458;::789787:7r-r8tr*749",
"-94;;6*5-%-6267706;,2,*;7;221>;.;@@+>*;7:6:>,*-77-6;*-q;85qq&;;7",
"*8:;,2&6**=:>2:;w;;;1>>&3>7y@+@O$>*-+@,2,2:;>>2;:;6;@26*6676+,&6",
"@;&>11$3&.**><233:-6;>>>3-tt;,#&>9856>@3*;56;@12;;;>>>2>;;3>O$+;",
"O@+@ue+2>@,*7;*;6;::456;q8rr-8;t5u8788*q6;665633;;2,5;,@2,@@-*$$",
">+,=ii66&,;788777;677q9-q59y=7494r5478-q4=6858q673:598-*w>;7899&",
"t-8-tu9t5q94785rr754-8q497rq*-;7=94-67:94-7065qtr89785-8t-9858u5",
"9-4*9r89495;6448046;>67:8773@**6*8-;,;*8-;-6;688qq7;44-49-7445t4",
"0;;&0060;7:*;;;66;;@@23;w;,>O$@2.;&><2>w*&,,>,6667;,;;;:7*-2:4q=",
"6&*@67;6,62@;;22,2>@-2>>2>$+-*@@o+#$t7+2@++>-;12;2>>6;&*:&,1;:0*",
";+$#2:;3>,>;;6-22>,:58;&;>,6599&>+>;ii43&>>658-33,>2;6*,:@11,&;>",
"$$;->,2w22:86:6077q757-59;q858u5t:q-tt9r-78470477;;5;;*2w@7t>@$O",
"*9985;27;48q7-6q5q8484=7q-8748t49-7=rt89-r86586q075846;;74uu-*+>",
"5t858q-t54457789rq7:54=48;6:-49;5;-&qr7q-q7;484qq5446988t8rr-8-t",
"4r7-67-q6-6-*-0q776,6;%;7*;,;=8*6&,@:067*7:>*66776;:;0q4q7q0*4-9",
"-86;2;27;*;,>,:w:3,@>..*:>1<@&;@;@+X>2;;,3>+#;;::;>,>;6;7-66&:;0",
"*7;6>>>3,@;6>$121>;6,+o+,+eu$#@O$$*-#$>,@>*-@,1>1,*6>,2,3*67$>*6",
"@-;32>@3*;84-@,;;6r96>@&;4pp=&+&>9984,>;&=8962>2;4456,1;w;7w>@@,",
"O>>;r7>q74q48-6qr5987884t9uu-8=t5u8589;t8-887rq9t845q7-6q6;65;@@",
">>;7rq4q54946-88959565t-rquy*5-r4t8475-94=58-qr8r5458577y668898>",
"t-86074r85r-:;7q84q4;6q;88rq&:*7;94:;6;8-=4727qqy7467:67t65q77r5",
"946;,;:q677*,&:66-7&@,7*660:@,*6*8;;,2&6*%;->37677;*,;-6q-:62684",
"0;2>@+>w;33$>o,23,3oo$2>;;2$X+$*>;>><1@;& @>O1223;.@<1,2e2*@1,-:",
"6>#$9,#,1,1<7@<>@>1+7*<+,1$#-,$$O$##rw#1#O#<42<$1>#$43$$2@#$8,>*",
"6$16u96w2$279573,<2:98=@3@1:888>>#>*ui73@$@:9t423<$-8u42w$+69r8;",
"9*76r88iq660549tr7q685-49*7748t49*7*ru9r-7565r5r96;64t8rt;6788r4",
"0*-;887r77-64-8q7q7;44%-0;6;-49;5*-&qr58;q-;484807*;-q4qy;:;679-",
"6&,>3660::,,*;67663>;=%;6&2>;-8*6*,+6066*72+&7:66;>,,7-67*&>;-5*",
";+@#@,;w,,<$$.;:22<#@@ &;@1<@>;@;++O$,;;@3$#O2*2;,#@@2;26@$$<>;>",
"$O,;$#<2$@2-@#<<$$,7>#o+1oeu+#@O$$,-#$>1#>,4@1>@$<&4>$@<1o,7$#$X",
">;567,>3>7r57>>3;4r94,@.34ip=>+&>r987*$3.=9962<22758q,#,3;98->$o",
"5;4;qq-t9994547rr89879q5t9uu-8:t5u8589:t84595r8tu955q5-8t447654-",
"6*;&:74q758;;-599584-7r499tr*6-94t5477-97-45:099r86-7-44q-633:5*",
";@@+>2;7;6:>>;:77-6:,60;059q&-;7=94-;:;5-%--,67706;22;*;7;22>>;.",
"@>,-@$>3*26;>>2;;;6;$,6*6676+,&6*0-;,2&6**;:>2w;:22;1>>>3>wy@+@O",
">q95->$3,;7-2>>2;;:>>>2>3;2>O$+;@2&>>1$3&.*2>>,33--62>>&36tu;,+>",
"5t858q*q6;66563:3;;*7;,>2,>$-,@@o$#$u7+2>@,27;*;w::6476;q8rr-8=r",
"4r5478-04%4858q673:788-*6>2789r&&+*=pu46*,;488767;674qq-q79y=749",
"-94-66;r7-7065qrrq9485-8t-9858u5t-8-tu9t5q9758899777-0q4959q*-=5",
"*5:;2:*7-;-6;60q887;44-49-7445r49-7*9r89-95;4448844**67-7776@,*6",
".;&>11>6*>&,>2-7763,;;*=5*-2;4q:7;:&0060;0;*3;;66;;@@,:*6;*>O$@;",
"O$#$t7$2@+@14*1222>>6;&*6>21;:5*6&*+67:6*w,@:;22,,>>:;1>2>@+-*$$",
">+&=ii63&@1:78-33,>2;-,,3$1,,&:@2+$#2;;3>,12:6-22<1-58=,3$,6899>",
"t=8-tt9r-08475607;;5::*2w>6t&$@O@$;4>12e;2-5::67778784-59;q858u5",
"947=rt89-r84556q555867;;76ti-,+&>9985;2e;4597-6q098484=48-8745t4",
"7=-&qr8q:q7:484q974649q5r8rr-8-t5u8588-t8445758r9q7:54=48;6:-49=",
"6&*+:067;7;>*64776;;;7849780*6494r5-67-q6--:;-7q076*6;=;7*3,;:8*",
"2+$O@2;;&3>++2;;:;,2>;6:7-6e&:;5=q-;2;;7;*22>,:6:31$>>.&;@1>>&;@",
"@$*-+$1,@>;-@1>>>,,4>,2,3,67@,&6*5;6>1>;,@;->@,,>>;4>#o$2#eu$#+O",
">9984,@;>=8962>;;4457,1*3:76>@+2>:;:2>@w*;84:>1:24r86*@.;6ip;&+&",
"5u8589=t5-887rqqr845q7-7y6;64;@@O>>;y7,q74q45-69r5r879q4t9iu-8=t",
"4t8468-94=58-qrqr8478776y-68899&>>;4r84q54q47-7qq5r5-5r-r9tt%749",
"-q4-:6*8-%47;0q0y5467-47y65877r5t-86074r8896:;6q8784;6q=q8rq&:;5",
"*8:;13&6;%;:>:7606;*,;:6q6662684946;2;;0677*,&;76-7&+;7*660:+*&6",
">;@><1@2& @>O1223;@@<11;e;,@>,6;0;2>@+>63;;$>O,22*3OO$2>2;2@O++2",
"O+##rw#>#O#<62<$1>o<63$$2$#$q,>*6>$$q,#1,11<8@<>$>1+7,<$1>+#-,$$"
};
