/* XPM */
static char *result[] = {
/* columns rows colors chars-per-pixel */
"64 64 256 2 ",
"   c #560901",
".  c #541205",
"X  c #670701",
"o  c #780601",
"O  c #7B0B01",
"+  c #6A1706",
"@  c #751B05",
"#  c #732B0D",
"$  c #870901",
"%  c #8C0D01",
"&  c #990500",
"*  c #940C01",
"=  c #9B0B01",
"-  c #831503",
";  c #891904",
":  c #921202",
">  c #9A1403",
",  c #991B05",
"<  c #A40400",
"1  c #AA0700",
"2  c #A40D02",
"3  c #AB0B01",
"4  c #B80300",
"5  c #B20B01",
"6  c #BC0C01",
"7  c #A61604",
"8  c #AC1303",
"9  c #A41A03",
"0  c #AD1C03",
"q  c #B31402",
"w  c #BB1302",
"e  c #B41A04",
"r  c #BD1B04",
"t  c #892708",
"y  c #992707",
"u  c #8E360B",
"i  c #9A380D",
"p  c #943A15",
"a  c #AC2506",
"s  c #A72708",
"d  c #B32304",
"f  c #BC2205",
"g  c #B72A06",
"h  c #B42609",
"j  c #BD2609",
"k  c #B42C0A",
"l  c #BA2C0B",
"z  c #A9360D",
"x  c #B7350A",
"c  c #BA340C",
"v  c #B13C0D",
"b  c #A22F11",
"n  c #A33A12",
"m  c #B63912",
"M  c #C50500",
"N  c #CB0400",
"B  c #C40D01",
"V  c #CB0D01",
"C  c #D80500",
"Z  c #D40C01",
"A  c #DB0C01",
"S  c #C21202",
"D  c #CB1403",
"F  c #C41B04",
"G  c #CA1B04",
"H  c #C71E09",
"J  c #D31403",
"K  c #DB1402",
"L  c #D41C03",
"P  c #DD1B03",
"I  c #D31A09",
"U  c #E20500",
"Y  c #EC0500",
"T  c #E40C01",
"R  c #EC0A00",
"E  c #F20500",
"W  c #FE0600",
"Q  c #F40E01",
"!  c #FD0C01",
"~  c #E31302",
"^  c #EC1402",
"/  c #E41D04",
"(  c #EC1B04",
")  c #EE1D08",
"_  c #F41402",
"`  c #FD1301",
"'  c #F41C04",
"]  c #FD1C03",
"[  c #F21F08",
"{  c #C32305",
"}  c #CB2305",
"|  c #CA2A06",
" . c #C42309",
".. c #C52A0A",
"X. c #CC2A0A",
"o. c #D32204",
"O. c #DB2305",
"+. c #D32D05",
"@. c #D92907",
"#. c #D42C0B",
"$. c #DA2D0A",
"%. c #C2350C",
"&. c #CA340C",
"*. c #C43808",
"=. c #CB3D0B",
"-. c #D63506",
";. c #D3350C",
":. c #DB350B",
">. c #D43B0B",
",. c #DB3C0D",
"<. c #C63B12",
"1. c #D63811",
"2. c #E32406",
"3. c #EC2304",
"4. c #E82708",
"5. c #E12B09",
"6. c #EB2B09",
"7. c #FC2303",
"8. c #F42B06",
"9. c #FC2C05",
"0. c #F32309",
"q. c #F82508",
"w. c #F32C09",
"e. c #FD2B0A",
"r. c #E4330B",
"t. c #E93709",
"y. c #EC350C",
"u. c #E43D0C",
"i. c #F33204",
"p. c #FE3C06",
"a. c #FD330A",
"s. c #F83409",
"d. c #F43B0C",
"f. c #FD3B0B",
"g. c #E93912",
"h. c #FB3A12",
"j. c #9A4315",
"k. c #9A5611",
"l. c #AC450E",
"z. c #BB460B",
"x. c #BA500C",
"c. c #AA4917",
"v. c #B84715",
"b. c #B9581B",
"n. c #AA5621",
"m. c #A95B24",
"M. c #B15422",
"N. c #BA6522",
"B. c #BC6631",
"V. c #CC430C",
"C. c #C6480A",
"Z. c #D5440B",
"A. c #D8490A",
"S. c #CA530D",
"D. c #D7550D",
"F. c #C54715",
"G. c #D74815",
"H. c #D34C14",
"J. c #C95619",
"K. c #D35914",
"L. c #DB5B14",
"P. c #D95618",
"I. c #D25D1C",
"U. c #E7460B",
"Y. c #F74609",
"T. c #FD430C",
"R. c #E7580A",
"E. c #F95809",
"W. c #E74813",
"Q. c #F94615",
"!. c #F24C15",
"~. c #FD4B12",
"^. c #E45214",
"/. c #EB5C14",
"(. c #E1531B",
"). c #E65919",
"_. c #EC5B1B",
"`. c #F75516",
"'. c #FE5B14",
"]. c #FF5B1A",
"[. c #C9631B",
"{. c #DC6315",
"}. c #D76916",
"|. c #DC651B",
" X c #DB6C1D",
".X c #D7741D",
"XX c #E8680C",
"oX c #F9650C",
"OX c #EE7409",
"+X c #FA740A",
"@X c #EC6412",
"#X c #E66818",
"$X c #EC6B1C",
"%X c #F26414",
"&X c #FE6315",
"*X c #F86A14",
"=X c #F4651A",
"-X c #FD641A",
";X c #F46C1A",
":X c #FE6C1B",
">X c #EB7619",
",X c #F87817",
"<X c #F2741C",
"1X c #FC741A",
"2X c #C45723",
"3X c #D95B24",
"4X c #E25A22",
"5X c #FC5920",
"6X c #CB6823",
"7X c #DD6521",
"8X c #D76923",
"9X c #C77728",
"0X c #D87828",
"qX c #C87D33",
"wX c #D87B32",
"eX c #E36C22",
"rX c #E86924",
"tX c #F96924",
"yX c #EB7C23",
"uX c #E87729",
"iX c #FA7325",
"pX c #F67C24",
"aX c #FB7A23",
"sX c #FC742B",
"dX c #F6792A",
"fX c #F37B34",
"gX c #F88F14",
"hX c #F8891A",
"jX c #D8832C",
"kX c #D98936",
"lX c #DE9839",
"zX c #EA862A",
"xX c #F48223",
"cX c #FC8423",
"vX c #F38B25",
"bX c #FD8D25",
"nX c #F1832B",
"mX c #FE862D",
"MX c #F4892D",
"NX c #FC8B2B",
"BX c #F9952A",
"VX c #E58934",
"CX c #F78835",
"ZX c #ED9736",
"AX c #FC9334",
"SX c #F49B34",
"DX c #FC9C33",
"FX c #F7973A",
"GX c #FBAE32",
"HX c #F9A63A",
"JX c #E79A41",
"KX c #F99D44",
"LX c #EEAF4D",
"PX c #F8A944",
"IX c #FDB949",
"UX c #EFC762",
/* pixels */
"w.!.5X!.-.2.7.] /  .W.<XBX<XxXnXuXJ.} ~ ' 9.T.&XvXZXkXVX#Xu.3.J 5  .$.0.7.e.T.4XJ.L.n ; M U 3 D 9.f.T.9.} 7 D B > y b.x.j.t S ' ",
"U.tXeXv.k o.i.i.+.D 2.d._.^.eX7XW.2.D V F d.&XmXFXkXN.|.).A.H 6 I a.W.<.| ..F.2Xb.eXc.h K ` / Q.'.1X*XS.V.:.8.~ 3 8  .h > B ! ] ",
"(.sXJ.h 0 +.p.R.F.} ' ' { s h o.L > - % 8 g.].fXMX9Xb.L.W.} : = K h.=XD.%.j <.F.2XJ.v I ` 7.Q.pX1XbXpX|.tX=XQ./ 6 Z ^ Q A ! ` 9.",
"!.tX(.&.t.i.E.R.R.&.G B X   - 0 g t t , I 6.!.#XeXI.=.:.F 0 , { y.Q.3X6XH.@.6.r.,.$.2.] ] T.(.uXhXvXrX@X=X1X).| 8 Z ! ! ^ ] 7.e.",
"!.tXrX3X3XsXaXcXhX@X+.w X o o.T.&XyX8XG.0.] 7.6.;.;.H 8 * e $.-.g.6.$.1.g.4.[ q.0.] A ` 3.Z.S.|.@X=X).K.|.}.[.x 0 V Q Q G 2.w.9.",
"h.(.G.2X4XsX1XvXgX,XA./ 4 K p.+XNXPXCX).w.` ! M = 2 * O * X.!.>.:./ _ ) ) ) [ ] ~ S 1 S 9 n l.rXdXiX/.L.^.L.A.*.j L _ K r 2.i.a.",
"Q.tXP.2X3XfXmXJXBXZXP.7.` 7.E.1XdXFXuXI.i.! N X O w w 2 6 2.5.#.) ` ! ` ) P 0.0.j : : e y v R.1XmXaX1XMXxX#XZ.>.$.7._ A Z ) i.f.",
"/.`.^.=.V.(.rXVXBXVX^./ w 5./.@X;X<XeXH.0.A 2 O 0 g.1.r ~ ` ] 9.] o.h l l j #.l d r 7.9.a c '.MXHX,X1XDXZX8X>.2.O.G D B E ] i.E.",
"[.OX,X/.#X=XpXCXVXrXk O $  .V.D.@X#XI.X.~ K 0 a U.'.G.l D K ] 2.d i b.eXP.;.c j 5.e.Q.G.p c G.D.eX@XmXCX6XF.g.e.e.o.S V ! ] 9.C.",
"k.}.>X,X>X$X$XL.G.X.- o 4 ~ 3.;.=.m h J ` 0.%.S.$X=X/.#.F d *.Z.A.{.dXmXfX7XF.X.h.h.(.v.p s 3.X.=.<.H.v.n 1.h.h.f.} w U ! ` e # ",
"u C.R.*X}.L.A.V.j 8 2 V ! ` ^ J V w A ` q.u.C.XX,XR.U.:.v F.{.@XE.*XsXNXVX8Xv.2.h.(.2X|.J.#.] 6 : ,  .H j g.Q.5XQ.H 3 Z ~ _ S ; ",
"{ @.t.G.c.x | } F I 3.i.9. .O $ < 4 ! 8.,./.yXbX<XD.d.d.).;XoXR.R.oX;X<XMX>X}.u.~.7XuX,X#Xt.` M % 8 I ) #.1.J.v.b : $ 5 / 9.9.&.",
"l 2.7.P 8 6 A J 4.Y.!.E.%Xc.@ % 4 U 7.u.I.nXPXZX|.-.s.!.uXSXvX*XE.R.D.}.hXOXK.>.W.#XhXvX@Xd./ D @.6.8.t.V.G.b s - : : d r.E.E./.",
"v.,.q.( 5 4 M K T.*X1X+XgXjXn w U ` i.G.).nXJXwXF.t.f.R. XzX0X[.S.V.V.A.R.#XS.v >.P.,XnXJ.1.y.T.tXh.p.!.Z.;.0 q F w.h.R.oX+XOX}.",
"b.P.W.+.> < C 9.sXPXIXhXGX#Xz.J ! 7.p.E.tX8Xb.c @.w.Y.*X,X X[.b.z.Z.U.Y.oXXXz.d o.r./.K.l.*.T.:XnX$.4.-.+.3.I q 5.~.tX>XZXDX.XS.",
"A.U.@XC.# & A p.aXAXFXSXJXN.z P ` p.'.1X{.l.j ^ ] s.&XhX,X+XD.R.R.Y.E.E.XXA.g K ` ] @.g i g :.dXVXD % = ^ ` K y `.AXHXvXHXAX.XA.",
":XiXKX0Xx A ` i.8X9XjXjXqXj.g ^ ] f.).b.u @ B ! ] u.$XBXAXBX,XpXpX<X,X@XL.*.} ` ! 1 = 5 6 ~ ` E ~ , X * Q ` 9 u $XBXwX9XkXKXVXK.",
"tXfXSX X*._ Z s A.D.{.[.M.i G ! ` f # + + = U W 0 i }.SXHXPXHXSXLXSXZXJ.v } ] 7.L + : A ! Q / B J U.x f / e @ n $XzXN.J.eXNXDX#X",
"CXAXfXJ.-.P % t ).=X*XD.y 0 Q W ! =   X 3 Z W Y q v >XIXIXGXLXIXUXZXJ.&.} 3.f.T.U.v ,.9.]  .s B 7.].rX>.O.e , z.L.6Xx.;XhXBXSX0X",
"eXyX#XXX*.F = e 1.U.C.t - A W Y Y < o 7 7.7.] ^ w j /.SXlXB.9X9X6Xc...' 2.a.tX5X;XrX%X~.r.l y S 9.].:XZ.| F } U.&X&X*X*XbXBXzX8X",
"xXvXvX7Xz.e 1 A ) 4.O.> 1 N E C C < : d.`.Y.T.4.K P 6.^.b.j.v <.;.3._ ' f.-XAXsXsXfXVX).>.*.s r @.iXbX:XU.+.@.W.sXKXKXHXHXvXyXyX",
"XX,XhX|.%.J Y E ! ` ` S 4 < M C E D F.fXnX:XcX).2.` ^ 2.j { O./ Q A J 4.].mXKXrX4X(.B.m <...9 > %.1XhXbX<XK.:.W.tXKXKXNXDX9X.X8X",
"@X<XpX7X;._ W W _ ] 9.| a : B Q 7.T.uXFXkXyXHXuX$.` U R J ( ^ K B 4 F Y.tXnXwX3XG.<.p t g F * % &.cXGXGXvXI.;.g.5XtXnXFXZXN.S.|.",
"R.;X1XuX:.J Y ` a.Y.].G.Z. .[ h.].sXFXSXwX.XnX X.._ M U ^ 4.;.{ D Z G !.fX3XM.v.1.j - $ J ~ M = 5.:XAXHXZX6Xu.e.g.!.1XbXzX[.@X,X",
"eXdXfXwXm S _ 9.&X:X$XP.Z.y.f.tXfXwXCXFX9X6X|.K.| w $ 8 a m v.l P Q ] s.x # u k +.S % 1 T ! E 5 ( d.{..X0XI.1.0.q.W.iXPXkX[.$XxX",
"$X#XI.c.b X.h.].DXAX).-.P 2.~.rXm.j.8XKXlX8XL.A.s . . t C. X XF.2.` ! = + + , H ( ~ R ' 7.7.( q K q.+.D.uX7Xm } 4.<.8X3Xj.c.}.yX",
"H.m c ..d.Q.tXmXAXuX=.0 3 F Q.J.p F.%XbX0Xb.C.+.9 @ i 4XaXHXnXI.G R 4     % B Q ` 7.p.T.Y.U...a o.] O.:.H.v.z c 1.m m l s z z.P.",
"h , } e.Q._.uX6XM.# + X $ r `.dX8XoXhXHXwXc.a w 2 j tXKXIXIXjX[.+.6 X   - H _ ` ' a.'.oX@XV.C.U.R.t.o.J } } g %.1.b S ~ J e r O.",
"V 2 ) e.!.3Xv.t - O & & 1 O.].FX0X<XgX#Xx.y 8 Z P f.tXHXIXJXm.x.s * X - ..0.` ' F U.xXMX>XD.E.oXhXXXg q B D j l } e T ! A V T ` ",
"N 5 / #.m z b e D B 4 M A P G.kXN.C.x.v.h 9 B Q 7.E.bXGXHXkXN.C.d > 2 I 0.] Q B a U.,XcX#XD.XXgXBX{.x w M B 8 e J / ` ' w V ! W ",
"= $ 0 j X.O./ ) ] ] D U W M : y t y f I Z 7 B ] 9.&XNXGXSXkX[.v d w ~ _ ' T N 6 0 G.>XbXhX$XOX+XhX<XA.O.^ T L 0.9.a.a.y.g o.[ R ",
"2 7 H I ) ] e.h.Q.W.%.I E 4 $ 8 I / ] ` R 3 Z _ 4.L.nXzX0Xn.n { P / h.h.5.G V T K ,.'.+X<XXX,XbXDXzXH.3._ ] 9.T.~.=X&X-XZ.@.0.K ",
"5  .$.6.] q.h.4XF.#Xn ; B U 1 D 9.T.T.9.} 9 D B , y v.x.j.t S ] w.!.].!.;.O.7.] ^  .W.iXMX,XxXnXuXJ.I / _ e.T.&XMXZXVXzXrXU.3.V ",
"I a.W.=...X.<.B.b.uXc.h A ` ( Q.'.1X*XS.V.,.8.~ 3 q ..h > B _ ] g.dX7XF.x o.8.i.+.D 2.d._.L.#X7XG.4.V D F d.&XmXJXjXN. X).u.F w ",
"P f.rXK.<.j <.F.2XJ.m L ! 9.W.1X1XhXxX|.tX=XQ./ 6 Z R _ A ! ` 9.(.sXJ.a a @.Y.U.F. .' 7.{ s a o.o.> $ % 0 t.].nXMX9Xb.I.W.} : > ",
"s.Q.).2XH.@.4.g.,.$.O.] ] f.^.zXxXbXrX/.=X:X_.| 8 V ! ! ^ ] 7.9.!.tX(.;.t.i.E.R.R.*.G 6 X   - 0 g t t , L 4.Q.rXeXI.=.$.F 7 9 f ",
"y.6.$.1.g.) 0.q.0.' A ` 3.Z.C.|.@X$XL.P.|.}.[.c 0 S ` Q F 2.9.9.g.tX4X3X).sXiXcXOX@X-.w X O L p.&XyX8XG.3.] 7.6.;.;.F 8 * e $.:.",
":./ _ ) 0.4.[ ] ~ D 3 B s n l.rXsXiX/.L.R.L.Z.*.j K _ Z F @.w.s.h.(.3X2X#XsX1XpXgX>XA./ B K p.+XbXPXCX).w.` ! B = 8 * o : X.!.>.",
"[ ] ` ` ^ P 4.0.j , * q y v R.:XmXiX*XbXnX#XZ.>.5.7._ A Z 0.w.p.Q.tX4X2X3XfXmXJXSXHXL.7.Q 7.E.1XaXFXuXI.w.! M X o r w 2 6 2.6.+.",
"] I h l l j #.j d r 7.w.a c '.BXHXcX1XDXJX|.>.2.O.H D B R ] i.E./.`.D.C.C.^.rXZXSXMXW./ w 5./.#X;X<XeXH.0.A 1 O 0 r.,.f K ` ] q.",
"d i J.8X(.=.l j 5.e.h.G.p c G.D.#X@XxXCX6XF.g.q.e.o.S N ! ] s.C.[.OX>X@X#X=XpXCXVXrXk O %  .V.D.@X>XP.X.~ Z 0 k U.'.P.l D K ] 5.",
"A.{.sXmXfX|.v.#.h.Q.4Xv.p s 3.X.V.<.H.v.n 1.h.h.h.} B A ! ! e # k.}.>X,X>X$X$XL.G.X.- o 4 ~ 0.-.*.m h I ` 0.<.x.uX=X^.#.F f *.Z.",
"E.oXaXMXVX}.v.2.h.^.I.{.I.#._ w : , j } e g.Q.5XQ. .3 A ^ _ S ; i C.R.*X}.L.A.V. .8 3 D ! _ ^ J w 6 A ` q.u.S.XX*XR.U.:.m x.L.@X",
"R.oX:X<XCXyX3Xg.!.|.uX<X#Xr.` M % 7 P ) $.1.J.2Xb % $ q / 8.9.;.F $.t.G.c.c | G r I 3.w.9.{ O $ < 4 ! q.,./.>XBX,XD.d.d.P.*XoXR.",
"E.R.L.}.>X>XK.V.U.#XhXvX#Xd./ J @.3.w.d.<.G.b s ; : : 0 :.E.E.R.l 3.7.P q 6 A J 4.d.Y.E.%Xc.@ * 4 U 7.,.I.dXPXZX}.-.a.!.uXSXxX;X",
"S.C.C.A.L.OXS.v Z.D.<XnXI.>.r.f.-XQ.f.U.G.;.0 q S w.h.R.oX+XOX.Xl.,.8.( 5 4 M K T.&XcX+XgXjXn w Y ! i.W./.nXJXwXF.t.p.^.#XVX0XI.",
"z.A.U.Y.E.XXz.d O.r./.K.l.*.~.:XnX$.6.&.+.3.J q 5.`.tX>XSXDX.XS.b.D.W.+.> < N 9.sXPXPXhXGX#Xz.L ! 7.Y.E.tX8Xb.c @.i.Y.*X,X.XJ.b.",
"R.Y.E.E.oXA.g K ` ] $.k y k :.sXVXJ % = ^ ` A y ].AXHXBXZXAX8XA.R.U.%Xz.# & A f.aXDXDXFXJXN.z P ` p.'.*X{.v h ^ ] f.&XhX,XOXR.R.",
"<X>X,X@XL.*.} ! ! 3 = 3 B K ` E ~ s X * Q ` 0 u $XDXqX9XVXKXzX}.tXtXHXuXx K ! w.8X9XjXjXqXp g ^ ] T.^.F.u @ S ! ] u.#XSXSXBX1XpX",
"HXSXZXJ.v  .] 7.L + : K ! Q / N J ,.z f ~ e @ i @XzXN.J.eXbXDX#XtXfXFX X%._ Z s A.D.{.J.n.i D ! ` f # # + = Y W 8 i }.HXHXHXHXZX",
"UXJX[.%.X.) f.T.U.v t.9.]  .s 6 7.].tX,.O.r y z.{.8Xx.$XhXBXSX0XCXAXuX[.>.P % t _.*X*XD.y 0 E ! ! =   X 3 Z ! Y q v uXGXIXHXPXLX",
"6Xv...[ 3.a.-X].=XrX@X~.r.c y S q.].:XV.| F } u.&X-X&X*XBXBXzX8XeXuXXXXX*.F = e ,.W.C.t ; A W E Y 1 X 2 7.7.] ~ S { /.SXlXqX9X0X",
";./ _ ' f.&XKXtXsXfXVX(.>.*.s r $.iXbX*XU.+.@.W.fXFXKXHXPXxXyXuXpXhXvX Xz.q 3 A 3.4.O.> 1 N E C C < ; Q.`.Y.~.3.K P 4.(.n.j.v *.",
"_ A Z 5.].mXKXrX4X(.B.v.<...9 > *.1XhXbX<XP.:.W.sXCXPXmXAX0X.X X#X,XhX|.*.J Y E ! ! ` S 5 < M C ! S <.fXnX:XcX).2.` ^ 2.g ..O.3.",
"B 6 F Y.1XfXwX3XG.<.p t k F * % &.cXGXGXvXI.;.g.5XsXfXFXZXb.D.{.XX,XdX7X;.^ W ! _ 7.9...s : B ! 7.T.uXCXkXzXDXuX@.` U Y J ( ^ K ",
"B Z I !.iX8XM.v.1.r - - J T M = r.tXAXHXZX8Xu.w.y.!.:XBXzXN.@X<XE.;XiXeX:.J Y ` 9.~.'.G.>...( a.].sXSXFXwX8XvX8X&._ M T ^ 4.#.f ",
"P Q ] e.m # t k #.w * 1 T ! R 4 ( Y.L..X0XI.1.6.9.W.pXPXkX[.%XyXeXuXdXwXm S _ a.-X:X$XP.Z.6.f.tXfXwXnXSX0X[.}.L.| w $ 7 s m v.l ",
"3.` ! 2 + + , H ^ ~ ^ ' 7.7.( q K ' +.P.uX|.%. .2.<.3X8Xk.l.#XzXrX#X6Xc.b o.f.].DXAX).>.O.4.Q.uXj.n.8XFXkX8XL.V.a . . t C.}.8XF.",
"} R 1   . : D Q _ 7.a.T.U.u.%.d L ] O.>.H.z.b %.,.m m j b z c P.H.m c ..d.`.sXmXFXrX<.0 3 F T.J.p v.*XbXjXN.C.+.9 @ b (.cXHXMXJ.",
"+.6 X   - H _ ` ' a.'.&X/.A.Z.A.R.d.o.J G ..g %.&.b S A K e f O.r ,  .e.Q._.eX6XM.# + X $ r '.iX8X-XhXHXwXc.d q 7 g tXKXIXIXVX[.",
"s % X - ..q.` _ F U.pXBX#XD.E.+XgXXXk q B G l l | q T ! A V ~ ` V 2 ) e.!.3Xc.t - O * & 5 O.-XFXwX<XhX>Xv.y 8 C / p.iXGXIXJXN.x.",
"e 2 2 I 0.' Q B a U.,XxX>XD.XXgXBX{.v w N M 8 e L / ` ' 6 D ! W N 5 / #.<.z s e V B 4 M U I G.jXN.z.x.v.d 9 S _ 7.'.NXGXFXjXN.z.",
"e w P ' ] T M 6 e A.<XbXnX#XoXOX,X<XA.P ^ T L 0.q.a.a.d.j I ) R & % 0 j ..O./ [ ] ] D U W B : y t s d L K 2 S ` 9.&XNXBXSXVXN.v ",
"P 2.a.d.5.G V T P :.%X+X,XOX+XbXHXzXH.3._ ] 9.f.~.-X&X=XG.$.[ J 2 7 H I ) ] e.h.d.!.%.I E 4 $ 7 J / ] ` Q 3 Z _ 5.L.xXzXwXn.n  ."
};
