/* XPM */
static char *result[] = {
/* columns rows colors chars-per-pixel */
"64 64 115 2 ",
"   c #003F00",
".  c #1A2C1A",
"X  c #253925",
"o  c #2A392A",
"O  c #064506",
"+  c #004C00",
"@  c #084108",
"#  c #0C4B0C",
"$  c #025302",
"%  c #015C01",
"&  c #0C530C",
"*  c #0B5A0B",
"=  c #154215",
"-  c #1A431A",
";  c #1C4C1C",
":  c #125D12",
">  c #1C541C",
",  c #1E5B1E",
"<  c #016401",
"1  c #006C00",
"2  c #0C630C",
"3  c #0C6D0C",
"4  c #017401",
"5  c #007C00",
"6  c #0C750C",
"7  c #0C7D0C",
"8  c #126212",
"9  c #126F12",
"0  c #1C631C",
"q  c #1C6C1C",
"w  c #117111",
"e  c #147B14",
"r  c #1C7B1C",
"t  c #254425",
"y  c #224A22",
"u  c #2D4C2D",
"i  c #235423",
"p  c #245924",
"a  c #2F5A2F",
"s  c #334033",
"d  c #354C35",
"f  c #3D423D",
"g  c #3E4F3E",
"h  c #345334",
"j  c #325B32",
"k  c #3A533A",
"l  c #246224",
"z  c #246C24",
"x  c #2C632C",
"c  c #286E28",
"v  c #247524",
"b  c #237A23",
"n  c #2B732B",
"m  c #2A7E2A",
"M  c #336333",
"N  c #306D30",
"B  c #396039",
"V  c #396A39",
"C  c #357E35",
"Z  c #4B4F4B",
"A  c #435443",
"S  c #445D44",
"D  c #457F45",
"F  c #008300",
"G  c #018B01",
"H  c #0D830D",
"J  c #0A8C0A",
"K  c #009400",
"L  c #009C00",
"P  c #0B920B",
"I  c #0B9C0B",
"U  c #118411",
"Y  c #138A13",
"T  c #1B851B",
"R  c #1B8E1B",
"E  c #139213",
"W  c #119D11",
"Q  c #1B911B",
"!  c #1E9D1E",
"~  c #00A300",
"^  c #00AC00",
"/  c #0BA50B",
"(  c #0BAC0B",
")  c #00B300",
"_  c #00BC00",
"`  c #0AB30A",
"'  c #0BBC0B",
"]  c #14A614",
"[  c #13AD13",
"{  c #1BA51B",
"}  c #13B313",
"|  c #12B812",
" . c #1AB31A",
".. c #218221",
"X. c #238B23",
"o. c #229722",
"O. c #229C22",
"+. c #2A962A",
"@. c #2B9B2B",
"#. c #338733",
"$. c #328932",
"%. c #3F8B3F",
"&. c #359635",
"*. c #25A425",
"=. c #24AB24",
"-. c #2BA62B",
";. c #2EB32E",
":. c #00C400",
">. c #00CA00",
",. c #00D300",
"<. c #00D900",
"1. c #01E201",
"2. c #448344",
"3. c #438843",
"4. c None",
/* pixels */
"o.:.:.:._ G ) G ^ K 4 5 ) ) ^ ^ 5 _ G ) G _ >.>._ & . | :.K :.<.V :.:.:.>.:.L :.,.K ,.,.L L ~ ~ ^ ~ r 4.4.' G L ^ _ _ :.>._ 4 p ",
"4.[ :._ ^ K >.K K G ^ < $ 5 ~ 9 4 ) G ~ 4 :.K L ~ L * % 5 K ) 1.' ~ ~ :._ L L L >.^ >.>.>.K G J 9 v 4.4.$.J L < K L K ~ ^ P m Z ",
"4.2.o.) L G >.:.>.>.:.~ 1 4 K J G L _ :.< F L ^ ^ _ G < % G ^ L 1.~ ^ ) ) K _ ^ ,.) K K K G ^ ~ l 4.4.4.K ) >.L >.:.:.:.F z 4.4.",
"4.f g r G :.>.>.>.:.:.>.~ + G ~ _ K ~ ) < ~ ^ ) _ ^ L 5 5 L K F 4 L G L ) ~ >.:.) 4 F L ^ J < :.4.4.4.v _ ,.<.:.G :.:.=.4.4.4.4.",
"4.k A X & F :.>.>.>.:.:._ 1 G K _ :.G < F ) _ ) ^ :.~ K K L ~ < $ 1 4 ) ^ >.>.:.) G ~ :.>._ G ' 4.4.4.{ ,.,.,.,.H  .=.4.4.4.4.4.",
"Y E T o.Q b } :.:.:._ :._ G F K ) F 4 + ^ _ :.:.~ ~ L ~ ^ ) ) ^ 4 < L _ ) ) >._ ~ _ >.>.>.) ~ | 4.4.4.>.,.L L L i x 4.4.4.4.Z M ",
") ) _ _ _ c C ] _ _ ) L L ) % 5 4 F 5 ) :.:.:.L ^ ^ ) K K 5 ^ K ) L _ L ) ) ~ ) :.~ >.:._ _ ^ *.4.u G K L ~ ) _ ]  .3.4.4.t 0 P ",
":.:.:.:._ 4.4.j P K G K :.K L ^ ~ L F ^ :._ :.~ ) ~ ) L K F L G :.~ _ 4 K ^ L ~ ) L ^ ^ :.:.J v 4.p ^ ) _ _ ) :.>.:.| ..#.7 ) :.",
":.G F :.) B 4.4.G F _ _ :.K ) >.>.) G K :.:.:._ L 5 K ^ ) L K >.>.~ ^ < < 4 K K K ) ^ ^ ) _ ) m 4.>._ :.:.:.) :.>.>. .c  .L :.:.",
"K K L K ^ a 4.N ) _ :.:.:.K K ^ ^ L 5 1 _ ) ) ~ F % L >.>.:.~ G :.K } | 6 5 _ :._ ^ :._ ^ _ P @.@.H :.:.:.>._ :.:.>.*.4.` ) :.F ",
"^ _ _ ) K & x J ^ _ K K 5 F ~ >.>.:.) 5 7 I ~ K % F ^ >.,.,.^ G _ p 4.&.+.J _ :.) ^ :.:.^ ) L -.r K :.>.:.>._ _ _ -.4.4.E :.K L ",
":.:.:.>.) L 2 4 K ~ 5 ~ _ >.>.,.,.,.>._ Y w ^ ~ F ) _ :.>.>._ G U j 4.4.X.~ ) ) ^ :.:.:.G L :.{ Y _ :.>.:.K L G w k 4.4.T K ) :.",
":.:.>.:.:._ G 5 < 5 G :.,.,.,.,.,.,.,.>. .7 J ~ F ) >.:.:.>.>.^ & * H % 5 L ^ ) :.:._ ) G G ) W 6 ) ) _ K ~ ) ~ J c 4.d o.G _ :.",
":.:.:.>.K G ) 4 $ 5 :.:.>.,.,.,.,.>.' [ O.R [ ~ F :.:.>.>.,.,.K < F K K 4 G ~ ^ _ ) ) ~ ^ >.) ~ e K 5 G K ^ _ ^ _ / R n %.= I >.",
":.:.:.>.K K L F < 4 ~ ) _ _ >.>.>.:.^ ` U b Q ^ F :.,.,.,.,.,.G ^ _ _ :.F G K ^ ^ :._ _ ^ >.:.P e 6 G ~ ~ _ _ ^ _ ^ ) ` ..o > ) ",
"~ :.G K L ~ ^ ) L L >.^ :.~ L ) ( ^ >.) _ H r ^ ) >.<.,.,.,.) F _ :.:.>.~ $ F F L :.:.^ ^ :.^ ^ L 5 G ~ ^ ^ ~ ~ ^ ) _ :.` - t # ",
"< ^ K ^ ) _ ) _ ~ _ >.>.^ K L L G :.( I L L 2 { J / >.,.<.:.K F :.:.:.>.^ 1 < + 5 L ^ ^ >.) ~ G 4 F K ~ ) ) L ~ ) ) ) :._ G 4 * ",
"1 1 K _ _ ) ^ _ ) F >.>.^ ) F 5 J 8 Y J ~ K P q @.v -.,.,.~ F G :.:.:.:.~ G 4 G 1 1 F K ) K 6 7 G G J K ~ ) L ^ ) ) ) ^ K 5 < ~ ",
"5 G ^ _ G F ^ ) ) 5 >.>.) L G I I 7 F ( ( ^ ` Y n 4.4.' ^ K G F :.:.:.:.L :.F F ~ L H F J r 8 ~ _ _ L 5 F H J ~ ^ ~ K G G F K % ",
":.K ) _ G G 5 5 K < L ^ K ~ L P [ ~ K G ' ) ) ) v u 4.M 3 1 :.:.:.:.:._ ^ :.K 5 L :._ / 2.m e _ :.:._ L 5 4 < F K 5 G _ >.>.^ % ",
"G ^ ) 5 G L K F 1 F L _ L ) _ ) ' ( ) K >._ ) ) ^ 9 h o z ~ _ :.:.:._ ) K >.F G K >.G 9 S u L :.:.:.:._ ~ 5 4 ~ L F L :.>.>.:.G ",
"F ) _ G F L L 1 4 F ^ ) K _ _ _ ) I ( G ` ^ ) ) ) ) : g z G _ :.:._ ~ L F _ 5 ^ F :.4 2 X.6 ) :.:.:.:.:.) 5 F ^ ) K ) _ >.>.>.~ ",
"4 ) ) G ~ G 5 K K L ^ >.~ ^ _ :.) L ) I _ _ :._ _ _ L W @ 4 ) :.) 7 < % 5 K 4 K % * 5 L 4 ~ ) :.:.:.:._ ~ 5 K ) ) K ^ :.:.>.,.>.",
"5 ^ F < $ < G L L ~ ~ ) L _ :._ ~ ^ ) L :.>.:.:.:._ L 1 K < 4 J l ; < K <.<.1 4 % G ~ :.K ) ) _ :._ L G G ^ ^ K G 5 ^ F :.>.,.,.",
"4 1 F < < ~ ) _ _ ) _ _ 4 ~ _ ) ) _ _ 5 4 ) ) _ :.^ K 4 ~ 4   % : - # K <.~ 4 5 5 ^ :.>.L ~ L ) ^ ~ L L _ ~ ~ K ~ 4 K F G :.>.,.",
"1 G ~ F 5 ^ _ _ _ :.:._ 4 ~ ) ^ _ _ _ 4 1 5 5 G L F K < :.) 4 ) :./ I L 4 ^ 5 ^ ) F :.>.>.>.:.K >.>.:.:.~ F K K K ~ ) ~ K F >.:.",
"O K ) ~ K ~ _ _ _ :._ L G 5 G K ^ _ ^ + 4 L ) ) F F _ ~ G :.4 :.:.:._ ) G 5 5 ^ ) ) L :.>.>.:.:.:.>.:.:.~ F ^ ) _ _ _ ^ ~ _ >.L ",
"5 ^ ~ ) ) ~ :.:._ _ ^ & L ~ 5 5 K ~ G < G ) >.>.>.>.:._ L $ 5 _ :.:.:.:.J 4 ^ ) ^ ) ) K ) _ :.:.:._ L ~ G ^ ) :._ ^ ~ >.G 5 :.F ",
"J F L L F F ) ) ^ ~ 4 8 ^ ) ) ^ F F < % :.^ >.>.>.>.:.>._ 5 G :.:.:.:.:.) F F ) ^ ^ ) 5 5 2 L ) ~ L 1 ) ) ^ _ ) ~ ~ >._ F 1 ~ y ",
"I K ^ ) ) ^ F F K G G F ~ ^ ) ) ) ) 6 = O K _ >.:.>.>.:.>.) L :.:.:.:.:./ 5 5 ^ ) ) ^ ^ 3 > y * 4 1 F ^ ~ L K ~ ~ >.,._ F K 0 l ",
"> ~ ^ _ _ _ ) L 1 < K K ~ ^ ) ^ ) ) Y 4.4.; K :.>.>.:.:.:.:.5 :.:.:.:.:.` 2 * ) ) ^ ) L F / o.0 & K G G K 5 4 L L >.>.~ G 5 e p ",
"M :.:.:.:.:.^ 5 ) K :.,.L ~ ) ) ) ) Q 4.4.2.* ^ :.:.>.>.>.:.3 ( :.:.:.:.) = $ L ) ) ~ F ) ) ) ~ J F G ^ K ~ :.) ~ J ..U :.>.) ;.",
"V >.:.:.:.>.L :.,.G ,.,.K I ~ ~ ^ ~ b 4.4.' G L ^ _ _ :.>._ 3 p o.:.:.:._ G _ G ^ K 4 5 ) ) ) ~ 5 _ G ) G _ >.>._ & . ' :.K :.<.",
"' ~ ~ :._ L L L >.) ,.>.,.K G G w b 4.4.$.G L 1 K K L ~ ^ P m Z 4.{ :.:.^ G >.G K G ^ < $ 5 L 9 4 ) G ~ 5 :.K L I L * % 5 K ) 1.",
"1.~ ^ ) ) L _ ^ ,.) G K K G ^ ~ x 4.4.4.K ) >.L >.:.:.:.F z 4.4.4.2.Q ) L G >.>.:.>.:.~ 1 4 L J F ~ _ _ < G L ^ ^ ) G < % F ^ L ",
"1 L G L ^ ~ :.:.) 4 F L ^ J < :.4.4.4.v _ ,.,.:.G :.:.=.4.4.4.4.4.f A r G :.>.:.>.>.:.:.~ + G ~ :.K ~ ) < L ^ ) _ ) L 5 5 L K F ",
"% 1 5 ) ^ >.>.:.) G ^ :.>._ K ' 4.4.4.] >.,.,.,.7  .=.4.4.4.4.4.4.k A o & F >.>.>.>.:.:._ 1 G K _ :.K < F ) _ ) ) :.~ L G L ~ < ",
"4 < L ) ) ) >._ ^ ) :.>.>.) L } 4.4.4.>.,.K L ~ i x 4.4.4.4.Z M Y E T O.Q b } :.:.:._ :._ G F K ) 5 1 + ^ :.:.:.L ~ L ~ ^ ) _ ^ ",
"^ ~ _ L ) ) ~ ) :.~ >.:._ _ ^ *.4.u J K ~ ~ ^ _ ]  .3.4.4.t , K ) _ ) :._ z C ] _ _ ^ ~ L ) < 5 4 F 5 ) :._ :.L ^ ^ ) K K F ~ K ",
":.L _ 4 K ^ L ~ ) L ) ~ >.:.G v 4., ^ ) ) _ _ :.>.>.' ..#.H ) :.:.:.:._ _ 4.4.a P K K G :.K L ^ ~ ~ F ^ _ :.:.~ ) ~ ) K K G L G ",
">.~ ^ < < 1 K K K ) ^ ) ) _ ) m 4.>._ :.:.:._ :.>.>. .N } K _ :.:.G G _ ) B 4.4.G F _ _ :.K ) >.:.) K K _ :.:.:.L 5 K ^ ) L K >.",
":.K  .| 7 F _ :.) ^ :._ ^ _ P @.@.H :.:.:.:._ :.:.>.*.4.| ) :.G G K L K ^ j 4.N ) _ :.:.:.K K ^ ^ L 5 1 _ _ ) ~ F % L >.,.:.~ G ",
"_ i 4.&.+.J _ :.) ^ :.:.^ ) L -.r L :.>.:.:._ _ _ -.4.4.E :.L L ) _ _ ) K & x P ^ _ K L 5 F ~ >.>.:.) 5 7 I ~ G % F ^ :.>.,.^ G ",
"U j 4.4...~ _ ) ^ :.:.:.G L :.{ Y _ :.:.:.L K G w k 4.4.T K ) _ :.:.:.:.) ~ * 4 K ~ 5 L _ >.>.,.,.,.>._ Y w ^ ~ F ) _ :.>.,._ G ",
"& * 7 % F L ~ ) :.:._ ) G G ) W 6 ) ) _ L ~ ^ ~ J c 4.d O.G _ :.:.:.:.>.:._ G 5 < 5 G :.,.,.,.,.,.,.,.>. .U J L F ) >.:.:.>.>.^ ",
"< F K L 4 K ~ ^ _ ) ) ~ ^ >.) ~ e G 5 G K ^ _ ) _ ] Q c 3.- ~ :.:.:.>.:.K G ) 4 $ 5 :.>.>.>.,.,.,.>.' [ O.R [ ~ F :.:.>.>.,.,.K ",
"^ _ _ :.F G K ~ ^ :.:.) ^ >.:.P H 6 K ~ ^ _ _ ^ _ ^ ) ` m o , ) :.:.:.>.G K L G < 4 L ) :._ >.>.>.:.) [ U b Q ^ F :.<.,.,.,.,.G ",
"_ :.:.:.~ $ G F L :._ ) ^ :.^ ( K 4 G ~ ~ ^ ~ ~ ^ ) _ :.) - t O ~ :.G K L ^ ^ ^ L L >.) _ ~ L ) ^ ) :.) _ H r ^ ) >.,.,.<.,.) 5 ",
":.:.>.:.^ < < + 5 L ^ ^ >.) ~ G 4 F K ~ ) ) L ~ ) ) ) _ _ G 4 * < ) G ^ ) ) ) _ ^ _ >.>.^ K L L G :.( I K L 2 { J / >.,.,.:.K F ",
":.:.:.:.~ K 4 G < 4 F G ) P 6 5 G G F K ~ ) L ^ ) ) ) ) K 5 < ~ < 1 K _ _ _ ) _ ) F >.>.) ) F 5 J 8 J J ~ L P q @.v =.,.,.~ F G ",
":.:.:.>.L _ F F ^ K F F G r 8 ~ _ _ L 5 F H J ~ ^ ~ K G G F K % 5 G ) _ G F ~ ) ^ 5 >.>.^ L G I I e 5 ( ( ^ ) Y n 4.4.` ^ L G G ",
":.:.:._ ^ :.K 5 K >.' ( 2.m r _ :.:._ L F 6 < F L 4 G _ >.>.^ % :.K ) _ G G 5 5 L < L ^ K ~ L P [ ~ K G ' ` _ ` v d 4.x 3 < :.:.",
":.:.:.) K >.F G K >.G 9 S u I :.:.:.:._ ~ 5 5 L L F L :.>.>.:.G G ) ) F G L K F < 5 ~ _ K ) ) ) | ` ) G :._ ) ) ~ 9 h s z ~ _ :.",
":._ ~ L F _ 5 ^ G _ 4 2 X.6 ) :.:.:.>.:.) 5 F ^ ) K ^ _ >.>.>.~ 5 ) ) F F L L 1 5 G ^ ^ K _ :.:.) I ( K ` ) ^ ) ) ) : k z G _ :.",
"` 7 % % 5 G 4 K % * 5 L 4 ~ ) :.:.:.:._ ~ 5 K ) ) K ^ :.>.>.,.>.5 ) _ G ~ G 5 K K L ^ >.~ ^ :.:.) ~ ) L _ :.:._ _ _ L P @ 6 ) :.",
"0 ; < K <.<.4 4 % G ^ :.K ) ) :.:._ L G G ^ ^ K G 5 ^ F :.>.,.,.5 ^ 5 < % < G K L ~ ~ ) L _ _ _ ^ ~ ) K :.:.:.:.:.:.L 4 G < 5 F ",
": - & K ,.~ 4 F 5 ^ :.>.L ~ L ) ^ ~ L L ) ~ ~ K ~ 4 K F G >.>.>.1 1 F < 1 L ) _ _ ) _ _ 4 ~ :.) ) ) _ 5 4 ) ) _ :.^ K 4 ~ 4   % ",
":.~ I L 4 ^ 5 ~ ) F :.>.>.>._ K >.>.>.:.^ F K K K ~ ) ~ K G >.:.4 G L F F ^ _ _ _ :.:._ 1 ~ ^ ^ _ _ _ 5 4 5 5 G L F K < :.) 4 ) ",
":.:._ ` G 5 5 ) ) ) L :.>.>.:.:.:.:.:.:.~ F ^ ) _ _ ) ^ ~ _ >.L O K ) ~ G ~ _ :._ :.:.K G 5 G K ^ _ ^ $ 1 L ) ) F F _ ^ G :.5 :.",
":.:.:.:.F 5 ^ ^ ^ ) ) K ) _ :.:.:._ L L G ^ ) :._ ^ ^ >.G 5 :.F 5 ^ ~ ) ) ~ _ :._ _ ) & L ~ 5 5 K ~ G < G ) >.>.>.:.:._ L + 5 _ ",
":.:.:.:.) F F ) ^ ^ ) 5 5 < L ) ^ L 1 ) ) ^ _ ) ~ ~ >.:.F 1 ~ y J F L L F F ) ) ^ ~ 1 : ) ) ) ^ F F < % :.^ >.>.>.:.:.>._ 5 G :.",
":.:.:.:./ 5 5 ) ) ) ^ ^ 1 i t * 4 < F ^ ^ L K ~ I ,.>._ G G 0 l I K ^ ) ) ^ F F K G K F ~ ^ ) ) ) ) 6 = O K _ >.:.>.>.:.:.) L :.",
":.:.:.:.' 2 * ^ ) ^ ) L F ] ! 0 & K G G K 5 5 L L >.>.~ G 5 U p > L ^ _ _ _ ^ L < < K K ~ ^ ) ^ ) ) Y 4.4.; K :.>.>.:.>.:.:.5 :.",
"_ :.:.:.) = $ L ) ) ~ F ) ) ) ~ G F G ^ K ~ _ ) ~ J ..U :.>.^ ;.M :.:.>.:.:.) 5 _ K :.,.K ^ ) ^ ) ) Q 4.4.D % ^ :.:.>.>.>.:.6 / "
};
