/* XPM */
static char *result[] = {
/* columns rows colors chars-per-pixel */
"64 64 110 2 ",
"   c #083F08",
".  c #064406",
"X  c #054E05",
"o  c #0C440C",
"O  c #0B4B0B",
"+  c #035403",
"@  c #035B03",
"#  c #0C530C",
"$  c #0A5C0A",
"%  c #164C16",
"&  c #194A19",
"*  c #135413",
"=  c #145C14",
"-  c #1C541C",
";  c #1C5D1C",
":  c #046404",
">  c #036C03",
",  c #0B640B",
"<  c #0B6C0B",
"1  c #047404",
"2  c #057B05",
"3  c #0C740C",
"4  c #0C7C0C",
"5  c #136413",
"6  c #136B13",
"7  c #1B641B",
"8  c #1B6C1B",
"9  c #137413",
"0  c #137B13",
"q  c #1B741B",
"w  c #1B7C1B",
"e  c #254425",
"r  c #234823",
"t  c #215321",
"y  c #235C23",
"u  c #2E522E",
"i  c #2B5D2B",
"p  c #315D31",
"a  c #236423",
"s  c #236B23",
"d  c #296529",
"f  c #2B6C2B",
"g  c #247424",
"h  c #237B23",
"j  c #2A732A",
"k  c #2B7B2B",
"l  c #326C32",
"z  c #3B643B",
"x  c #327632",
"c  c #327C32",
"v  c #3D743D",
"b  c #387B38",
"n  c #048304",
"m  c #048C04",
"M  c #0B840B",
"N  c #0B8C0B",
"B  c #049404",
"V  c #059B05",
"C  c #0C940C",
"Z  c #0B9C0B",
"A  c #148414",
"S  c #138B13",
"D  c #1B831B",
"F  c #1C8B1C",
"G  c #149414",
"H  c #159A15",
"J  c #1B931B",
"K  c #1C9B1C",
"L  c #03A403",
"P  c #04AC04",
"I  c #0BA30B",
"U  c #0AAC0A",
"Y  c #02B102",
"T  c #03BA03",
"R  c #0BB30B",
"E  c #09BC09",
"W  c #14A414",
"Q  c #13AA13",
"!  c #1CA21C",
"~  c #1AAC1A",
"^  c #12B412",
"/  c #1DB21D",
"(  c #248424",
")  c #238B23",
"_  c #2B842B",
"`  c #2B8B2B",
"'  c #239323",
"]  c #249B24",
"[  c #2B942B",
"{  c #2D9C2D",
"}  c #338333",
"|  c #338B33",
" . c #3A853A",
".. c #3B8B3B",
"X. c #329432",
"o. c #329B32",
"O. c #3A943A",
"+. c #23A523",
"@. c #22AD22",
"#. c #2AA42A",
"$. c #31A031",
"%. c #3CA23C",
"&. c #3BB63B",
"*. c #38BE38",
"=. c #03C103",
"-. c #06C906",
";. c #09CA09",
":. c #05D405",
">. c #409640",
",. c None",
/* pixels */
",.,.,.k c H d n B V ,.,.,.` ,.,.k - N 7 4 1 n < N S ,.,.f m B Y U ,.,.,.,.,.,.9 0 A @.,.] g ,.( ,.,.#.~ z = # * 2 9 ,.,.,.,.h ,.",
",.,.,.,.N N m B m 6 ,.,.o.Z W k C y 7 + n n m A A F k ,.,.M n T C W ,.,.,.,.,.8 , - ,.j ( 0 d w ,.%.G ) g V m 5 < S ,.q 3 ( ,.,.",
",.,.,.,.8 9 6 3 B F ,.,.,.O.F ( 4 f - < & S 8 ) S I s ,.g N B Y V L ,.,.,.,.,.s q < 0 ,.g 4 < 8 ,.,.,.d D C 2 ; B 0 q 9 D _ g ,.",
",.,.,.,.5 1 > 2 m q ,.,.{ ] ,.h D ,., 8 ,._ ,.,...N 0 q 4 N B A B V S H ,.,.,.f 5 9 a ,.h 1 M 8 ,.,.d ,.G U U D V | ,.5 9 h y ,.",
"Z _ ,.0 , 4 > > < 5 ,.,.,.,.,.s a h 0 ,.,.) ,.,.K A i A N n L > n < N 0 G h A > N N ,.5 g M Z q ,.,.0 q 0 L U < q j ,.,.S M 2 b ",
"K Q 8 0 c g   + # 3 j ,.` H h 6 4 M ,.,.( D ,.) N D 9 M 6 M 3 n < : 4 4 4 7 t - 3 S D 9 M A o.Q G q h f 7 n m 1 ; 6 9 6 - N N f ",
"f D < 1 $ n + + + M A [ ,.,.,.6 M S s k D ( F S M < < 1 > m > > : 1 4 A ,.,.9 3 7 D 3 9 n B G G 4 7 5 l 7 > n > 1 9 < M C M , A ",
" .K : 1 1 L : > > M g ,.,.,.,.< 4 A S A ( g A w A M 2 j n $ ,.7 2 9 Q _ ,.,.,.M 8 5 > 0 2 G ' F C s 3 N 8 3 B 4 V A 3 5 - 6 3 9 ",
"M } B B m B 4 3 2 5 ,.,.,.,.F 1 2 j q < g q 8 , G N A 8 9 3 ,.,.n ,.V ,.,.,.,.) M 9 > 5 2 Z A D j f q w h H ^ ,.n n f d 6 l 5 1 ",
"H U P K S Y G +.,.8 ,.,.,.D 4 A l _ S S 1 q 8 6 c Z 4 < 1 2 I V 1 m m x ,.,.! ' 0 9 6 0 A H 9 D _ ) ,.,.6 M ..,.G V 3 9 4 N ..R ",
",.` R F w g l ,.w M ; = 0 ' M D ,.} G m > 3 A 4 M 4 > < > V :.-.1 1 < > g ,.Q N 3 < 0 w q I V w ( K Q A ( A ,.,.+.U U U ,.K o...",
",.,.@.+.A h ,.,.G i e < 1 C C G D ) N N 4 3 9 N N 2 > @ + n 2 2 B 1 5 > 9 ,.+.Z 4 < M D S P C H w A N M x ,.,.,.} F W I ) ,.,.,.",
",.,.,.f k j ,.,.,.5 O O 1 V F F Z V C V M 3 J q 1 1 q 7 3 3 N V < n m 1 - 8 N T 4 3 9 S G J G S N N S h ,.,.,.,.k C S g ,.,.*.O.",
",.,.,.,.) ( ,.,.,.4 , X 2 0 q J 9 M N A ` 4 J ,.I I h d ,.,.,.) ,.u M , 2 I P E I M 1 4 5 m J K D s A ,.,.s ,.,.,.7 1 f ,.,.,.,.",
",.,.,.x ,.J { ,.H , = $ 8 8 ) ( ! S q M 9 2 h g ( G 0 m h ( W ,.,.6 5 7 M I m B V C 3 : 6 w | X.,.] G a ,.q h ,.,.; n , } $.,.,.",
",.x g A ,.,.w D b G B 3 3 9 ,.w S ) S n M A 0 2 m 2 q 4 ) G m M A n : 3 m B w f I C 5 # ; ,.x ) ,.F D s i A q f ,.7 < 1 g ,.,.,.",
",.S ; 7 F N D S l 4 3 0 6 d l j F J G h h S q , 1 4 ,.x ,.S n 2 M m m m 1 # 5 I S G 6 6 q k g h ,.,.,.,.q Q M # ,.3 n 2 A ! k ,.",
"0 w g ,.,.,.w g ,.H m A q ,.,.A ,.' ) ~ D V y 0 # < 6 j ,.h k w < - 3 @ > 7 H =.I I N m 4 S j 8 k ,.w j 9 W 4 , 5 3 m < m c ) ! ",
"9 w s ,.,.( G M w m N N F ) A F f k ,.` 8 N _ ,.y @ 8 ,.,.5 ,.} d N n : ,.# B Y P C n V M 4 2 0 k _ 9 w q S q $ 2 n < + m m I } ",
"S G j ( m A N 3 q g G F ( k ,.,.,.b 0 7 ( ,.,.,.7 @ < = < $ 8 C H i } ,.@ $ 8 } P B k C M M B 4 H ,.w 0 9 a D ( 9 n 1 > n B A M ",
"8 3 3 f h D A q a ,.w F x x } ,.) 9 1 6 ,.,.,.8 _ ,.,.,.6 r ,.4 ,.,.K Z > $ 7 1 m 4 f M 3 $ 4 S N G ) s ; d _ q D 3 2 1 2 B R B ",
"6 7 l f ,.,.S 9 < 9 9 C 9 0 _ J @.| j 4 ,.g U 4 ,.,.m < M 8 @ * * ,.] C ; w ..,.M 2 f s = q 3 0 V I d y # = ,.D B 1 4 : 1 2 m : ",
"; k ,.h 8 ,.H M < : 1 0 ( ,.O.{ ..,.,.,.,.,.) ,.q 5 ,.,.- O + # # ,.; 2 6 ,.s ,.,.0 j ,.4 9 Z A B n < M 3 7 f A C n 9 : 1 5 > $ ",
",. .h M 0 F I 0 5 2 S A ,.,.j S D x ,.,.w Z 8 n > > S w 2 : % 1 n m 8 ,.1 5 ,.f ,.,.H H Z C B < 1 1 6 D 0 n 0 S 0 ,.7 A : $ < z ",
",.,.,.,.,.F S q q 9 ) G ' 7 q h ) ` ` h D S V q i 2 m n > > < J S M N ,.4 ; O ,.0 ,.! F E Z K g : $ 3 M M N D w 8 ,.,.,.; 0 @ ,.",
",.,.,.,.,.+.] S 6 9 9 a w M A X.,.,.,.D ) ,.,.,.,.o > 3 B P N ^ +.,.K I m d * * , 9 ( k A 0 < 1 + < 2 : 7 8 J j ,.,.,.,.,.,.d ,.",
",.,.k K ' +.A N : 3 < < n S I ] ,.,.,.,.,.,.-.4 5 . @ : P ) I H v #.U V A N d 1 $ < d ,.< m 3 < n < 2 6 ,.,.,.D h ,.,.q F 0 - < ",
"< d H ] { ( w M 3 1 $ , 1 9 F ] ,.,.,.,._ o.} ,.% X > B G W D S / ,.D c ,.M k ,.,.< - ,.@ n , < : : < F ,.,.,.( _ ,.,.9 N n 3 : ",
"2 > y ,.,.,.8 N m N s s = 7 6 A x ,.,.F H  .,.,.1 # 9 9 c ( ,.,.,.,.,.K ,.,.h | ,.Z 5 * 9 4 M M q s q h ,.,.,.,.,.,.,.,.7 + < 2 ",
"n 5 j ,.,.,.,.C F 8 ,.5 - 7 7 M ,.,.,.,.,.,.,.N B 7 > 6 ,.' ,.,.,.,.,.M ,.,.,.k ` 0 < 4 X.| w 6 ,.A 7 H V 0 ,.j g f h ,.g 8 < : ",
"M ,.,.,.,.,.,.q H N w D f 0 i D ,.,.,.S c ,.J H h 4 M 3 s S ,.,.,.,.,.0 G ,.,.,.,.N 3 A } | A ) ,.] G M m M ) h d q h ,.D 8 m m ",
"6 ,.,.,.,.,.,.0 N 1 ,.,._ ,.,.) ,.,.&.Q ) ,.y 1 V N ,.| j _ k | ,.,...g p A ,.,.S M k ,.( O.,.o.,.,.G < 2 2 H 7 6 j ` ..+.F n 4 ",
"Q ,.,.,.,.,.,.9 0 A @.,.] g ,.( ,.,.#./ z = # * 1 q ,.,.,.,.h ,.,.,.,.k k K d n B V ,.,.,.` ,.,._ - N 7 4 1 n < N S ,.,.j m B Y ",
"C W ,.,.,.,.,.8 , - ,.k ` 9 s q ,.O.G F k V m 5 1 S ,.8 3 ) ,.,.,.,.,.,.S N m B B 6 ,.,.o.I H h C y 5 + n n m A A F k ,.,.n n T ",
"V L ,.,.,.,.,.s q , 0 ,.s 4 < 8 ,.,.,.d w C n ; m 0 q 9 D } g ,.,.,.,.,.8 9 6 3 B F ,.,.,.O.( ( 4 f - < & S 8 ) S U 8 ,.g N B Y ",
"B Z S H ,.,.,.d 5 9 a ,.( 1 M 8 ,.,.d ,.S Y I D V | ,.8 3 g ; ,.,.,.,.,.5 1 > 2 n q ,.,.{ ] ,.( D ,., 8 ,._ ,.,...N q q 3 S B S ",
"n < N 0 G h M < N N ,.6 g 4 Z q ,.,.A q 9 L U 3 q s ,.,.D M 4 x Z _ ,.0 , 3 > > < 5 ,.,.,.,.,.s y k 0 ,.,.) ,.,.K D y A N n L > ",
"> > 3 4 4 7 t - 3 A D 9 M A o.Q K q h d 7 m n 1 ; 9 9 6 = N N f K Q 8 0 } h   + # 3 j ,.` H w 6 4 M ,.,.( D ,.) N D 6 N 6 N 3 2 ",
": 1 4 A ,.,.9 3 y F 3 < m B G G 4 8 6 l ; > n 1 3 9 < M C M , A f D < 1 $ 2 + + + M A [ ,.,.,.6 M N s _ D ( F S 4 < < 1 > m 1 1 ",
"2 8 Q ) ,.,.,.M 8 5 1 9 4 C ' J N s 3 M 8 4 m 2 V S 3 5 - 6 3 0  .K : 1 1 L : > > M g ,.,.,.,.9 4 A S A ( g A q S M 2 g 2 $ ,.= ",
"n ,.V ,.,.,.,.) A 9 > < 4 I A w j f s D h K ^ ,.M n f d 6 l 5 1 M } B B m B 4 4 2 5 ,.,.,.,.F 1 n j q < g 9 8 5 N N A 6 9 3 ,.,.",
"1 m m j ,.,.! ' 0 3 7 0 A G 9 D _ ' ,.,.6 n ..,.G B 3 0 4 N  .^ H R P H S P G +.,.8 ,.,.,.D 4 0 l _ S A < q 9 6 x W 4 < 1 2 U B ",
"3 1 1 < g ,.Q N 1 < 4 w q I V w h K U A ( D ,.,.+.P I Q ,.K { | ,.` R D q g l ,.q M ; = 4 ] M D ,.} G m > 9 A 3 M M : < : V :.;.",
"B 1 , > 9 ,.+.Z 4 < A D S Y C H w A N M j ,.,.,.} F Q I ) ,.,.,.,.,.@.#.S h ,.,.G d e < 1 C C G D ) S B 2 3 9 C N 2 < : + m 1 4 ",
"< n m 1 t 8 N T 4 3 0 A G J H S N N S h ,.,.,.,.} C S g ,.,.*...,.,.,.f k j ,.,.,.5 # O 1 B ) F H B B V 0 2 J q 3 1 q ; 3 3 m V ",
",.u M , 2 I P E I 4 1 4 5 m J K D 8 A ,.,.s ,.,.,.7 1 s ,.,.,.,.,.,.,.,.) _ ,.,.,.4 , X 3 4 w J 9 M S A ) 4 F ,.I I h d ,.,.,.) ",
",.9 = 7 n I N B I B < : 6 h ..[ ,.] G a ,.q h ,.,.; n , } $.,.,.,.,.,.x ,.G { ,.J , 7 @ q 8 ) ( H G q M 9 2 g h F G 0 N h ( Q ,.",
"A n : 3 m C w f I Z 5 # - ,.l ' ,.F ( s i A q s ,.7 < 1 g ,.,.,.,.x w A ,.,.w ) b C C < 1 6 ,.w S ) S N M A A 2 M 2 9 4 ) G n M ",
"M B n m > # 6 I S H 6 5 w k g h ,.,.,.,.q W M * ,.3 n n S ! k ,.,.S = 7 ) N D S l 4 1 0 6 d f x F J G ( h S q , < 4 ,.x ,.S n 2 ",
"< t 3 : > = H =.I I m m 4 S j 8 k ,.D j 9 Q M $ 7 1 m : M c ) ! 0 w g ,.,.,.h q ,.H N A w ,.,.A ,.F ) ~ D V y 9 $ 5 5 j ,.( k D ",
"s N n @ ,.* B Y P B n C M 4 2 0 k ( q 0 q A q $ 1 n 3 + m N I } 9 h s ,.,.( G M q m M N F ( A F s c ,.` q N _ ,.y @ 8 ,.,.5 ,.} ",
"H i } ,.@ $ 8 } U C k C M M B 4 G ,.w 0 9 a D ( 4 M > > n V A M S C j h m A N 3 q h G F _ k ,.,.,.x 0 7 h ,.,.,.8 @ < * > 5 8 N ",
",.,.K C < $ 7 1 m 4 f n 1 5 4 S N C ) s 7 a _ w D 3 2 1 1 B Y B 8 6 3 f h F 0 q a ,.w F x x | ,.) 0 < 9 ,.,.,.8 _ ,.,.,.6 r ,.0 ",
"* ,.] C ; A | ,.M 2 f s = q 3 4 V I d y + ; ,.A B < 4 : 1 1 m : 9 8 l f ,.,.S 9 < 9 9 C 9 0 _ J @.| j 4 ,.g U 0 ,.,.m < M 8 @ # ",
"$ ,.; 2 6 ,.s ,.,.0 j ,.4 0 Z w B n < A 3 7 f A C M 9 > 1 , , $ ; x ,.h 8 ,.K n < : 2 0 D ,.O.o...,.,.,.,.,.) ,.q 5 ,.,.- X + * ",
"2 N 8 ,.1 5 ,.d ,.,.G K V C B < < 3 6 D 0 M 9 S 4 ,.8 0 > , < z ,. .h M 0 S Z 0 < 4 A A ,.,.j S D x ,.,.q Z q n 1 > N w 2 $ O 4 ",
"S M N ,.M ; O ,.q ,.! F E Z K g : , < M M N D w 8 ,.,.,.y 4 @ ,.,.,.,.,.,.F S q q q ) G ' 7 w h J ` ` h D S V q y 2 m n > > 3 J ",
"! ,.K I n d * * , 0 ( k A 0 < 1 + < 1 > 7 8 J j ,.,.,.,.,.,.d ,.,.,.,.,.,.+.] J 6 < 9 a w M 0 X.,.,.,.D ' ,.,.,.,.o > 1 m P N R ",
"v #.U V A S d 1 $ < d ,.< m 3 > n < 2 6 ,.,.,.F h ,.,.9 F 0 - < ,.,.k K ) +.0 N , 3 < 3 M N I ] ,.,.,.,.,.,.-.4 7 . @ : L ` I G ",
"/ ,.D c ,.M k ,.,.< - ,.@ 4 , 3 : , < A ,.,.,.( _ ,.,.q M n 3 > < s H ] #.( D M 1 1 + , 1 6 F ] ,.,.,.,._ X.} ,.% X > B H K D C ",
",.,.,.K ,.,.h | ,.V 7 * 9 4 A n q s q h ,.,.,.,.,.,.,.,.7 @ < 1 1 < y ,.,.,.8 N m N d s = , 8 S b ,.,.S H  .,.,.1 + 9 9 } ( ,.,.",
",.,.,.M ,.,.,.k ` 0 > 4 X.` w 6 ,.A 8 J V 0 ,.j g f h ,.s 8 < : 2 6 j ,.,.,.,.N J 8 ,.7 - 7 7 M ,.,.,.,.,.,.,.N B 7 > 8 ,.' ,.,.",
",.,.,.0 G ,.,.,.,.M 3 0 | ..A ) ,.K G n m M _ w a g h ,.D q m m n ,.,.,.,.,.,.q J N w D l 4 i D ,.,.,.S c ,.F W h 3 M 1 s S ,.,.",
",.,...g p A ,.,.F m k ,.( O.,.o.,.,.J < 1 n H 7 < x ` ..+.F n 4 9 ,.,.,.,.,.,.0 C 1 ,.,._ ,.,.) ,.,.&.~ ) ,.y 1 Z N ,.| j _ k | "
};
