/* XPM */
static char *result[] = {
/* columns rows colors chars-per-pixel */
"64 64 118 2 ",
"   c #160F06",
".  c #171007",
"X  c #1C1307",
"o  c #1C1309",
"O  c #22170A",
"+  c #25190C",
"@  c #2A1D0C",
"#  c #261B10",
"$  c #2A1E11",
"%  c #2F210F",
"&  c #33220E",
"*  c #3A260E",
"=  c #3E280E",
"-  c #2D2011",
";  c #342412",
":  c #3A2711",
">  c #372817",
",  c #3C2A14",
"<  c #3B2B19",
"1  c #452C0F",
"2  c #4A2E0F",
"3  c #4D310F",
"4  c #52330E",
"5  c #432D13",
"6  c #492F10",
"7  c #422E18",
"8  c #453017",
"9  c #4C3214",
"0  c #45311A",
"q  c #4B351B",
"w  c #4F381E",
"e  c #533513",
"r  c #583610",
"t  c #563916",
"y  c #5B3B14",
"u  c #503719",
"i  c #543A1C",
"p  c #5B3D1B",
"a  c #623E14",
"s  c #603F19",
"d  c #4B3720",
"f  c #4E3921",
"g  c #543C21",
"h  c #593F21",
"j  c #5E411E",
"k  c #664014",
"l  c #6C4416",
"z  c #64431C",
"x  c #6A461C",
"c  c #6D481D",
"v  c #704717",
"b  c #794C17",
"n  c #734B1D",
"m  c #7A4E1C",
"M  c #7C511E",
"N  c #5C4223",
"B  c #644522",
"V  c #694720",
"C  c #664825",
"Z  c #6C4A23",
"A  c #624728",
"S  c #654929",
"D  c #6B4D2A",
"F  c #734E23",
"G  c #784F21",
"H  c #714F28",
"J  c #6F512D",
"K  c #765125",
"L  c #7B5324",
"P  c #74522B",
"I  c #7B562A",
"U  c #7E592D",
"Y  c #745430",
"T  c #7C5931",
"R  c #82541D",
"E  c #88571D",
"W  c #8F5B1C",
"Q  c #825623",
"!  c #855925",
"~  c #8B5B23",
"^  c #805729",
"/  c #835B2B",
"(  c #8A5E2B",
")  c #915E24",
"_  c #835E32",
"`  c #895F30",
"'  c #87602F",
"]  c #8D612D",
"[  c #936126",
"{  c #93642D",
"}  c #9A672C",
"|  c #9B692E",
" . c #866136",
".. c #8C6334",
"X. c #856138",
"o. c #8C6539",
"O. c #926633",
"+. c #956935",
"@. c #9A6A33",
"#. c #906738",
"$. c #936B3B",
"%. c #9A6E3B",
"&. c #9D713D",
"*. c #A36D2E",
"=. c #A16E33",
"-. c #A47135",
";. c #AB7433",
":. c #A3743C",
">. c #A87438",
",. c #AC7839",
"<. c #B17733",
"1. c #976E40",
"2. c #9D7241",
"3. c #A37540",
"4. c #A77943",
"5. c #A97A43",
"6. c #B48146",
"7. c #BE894C",
/* pixels */
"g Y X.X._ D D D I T I P D C B i ; @ @ 5 s Q ~ ~ Q R m R r 4 4 r y y r a v r l b ! ~ x 5 5 z V N u 8 w D I J C  .&.3. .T Y > - > ",
"Y o.1.$. ._ T  . ._ H H C B 7 ; & : 9 z K ~ ~ ~ Q R R y 4 1 4 r a v R W R R b E ~ M 8 & * t z F F F ^ ..O.H J ' #. .S w > # - 0 ",
"1.2.1.o.o. ...%.%.` / ` ( P u 5 6 p Z m n x n n l l 1 & & 1 4 y a R W W R l v v x 1 O . % p L ] { { ] ] I P J ..#.U N d > > 0 J ",
"1.1.o.o. . .#.%.+._ _ +.O.F u q z K K 8 5 9 y t 1 & @ & 1 4 y a a b R a y e y y 1 * X + , c [ -.@.( I P U U ' +.%.J N N N N N 1.",
"o.o._  ._  . .#...U D ( D 8 q x L ( x * & 5 y z e 1 1 2 r y a a a a y 6 1 1 1 e 9 9 = 1 p L | | ( K K / O.O.%.%.T N C J J Y T 1.",
"o.T _ o.T T  .....D i q u i V ^ @.[ x ; & 6 x n x e e y e y t e 2 1 e 6 2 2 e a c x p y c Q ] ] I Z I ..%.+.T I N w S U Y T T 1.",
"$. .o.o.T  .o.&.#.C - 7 j K ] @.;.{ s & = t K R a e y e 1 1 1 6 1 y y a k a v Q E M p p n F ! ( K F L { O.P i w w j J  .T Y T o.",
"4.2.#.o._ I %.:. .q 8 p D ] -.,.*.K 8 @ ; y m m z a z y e 6 6 a c m R Q R ~ ) ) ! x k M ! ! ^ Q c B P U K 8 q w w N T T Y Y T 1.",
":.&.....P ..%._ B p N D Z K ' ! V i * + & p M Q m c v z z s x M ~ ) ) ~ ) ) ) Q n n L [ } K F B j j B B w ; 8 w N J U J S U $.4.",
"T  .P J  . ./ N q N z w 8 9 B z 5 8 & + = z ~ ) Q n z z x m M ~ ) ) ) ) ) ~ m y x n [ *.~ 9 p x F B z j i 8 p B D P U P P U $.&.",
"N w q j w 8 8 8 8 g q 8 8 z K F F p ; & p Q *.[ n 5 = e n L m Q Q G Q Q Q n p y x L { [ q & 8 c I F z N A B I I U / U I J U ' U ",
"N & > q i , , ; 8 p N B K ( ] / F p 5 y L *.;.Q 9 @ * t n M K n c G n m n z p z M ~ [ K , , 9 c F p N K / ( ' ' U U I I U U U P ",
"B < 8 p N 8 8 8 j K ( ] -.>.] D p 9 i F } <.( z @ O = y L L n Z F F G G x z x F ^ ~ ! c 9 8 q z Z Z K ] ] K P Z j j Z Z U ' ' U ",
"V N B P ^ K j j I ..@.>.,.@.i 5 5 q Z ( =.*.z : X O 9 K ~ L Z c G F Z F x x z s c K F Z j q j F L I / ( Z j j i w j Z L ' ' ' U ",
"K K ^ +.@.V z Z ( @.+.@.O.P , & : i K { | x : o o ; z ! ( K Z F F I G F F p : ; * q z c z u j K I K ( I u 8 w j z K I ' ' U L I ",
"P ! ' { I 8 q V ( @.{ { ] z ; + 5 V ( | Q u O O @ p ! { ^ Z x F G ! ^ G p : o O , j Z c t , 8 j z K L B 8 u z K / ] { ' L K H K ",
"L ^ Q p , & u Z ( { [ ] ^ 8 + + u I *.| x , O & i Q @.| I Z Z K ] ] I x 5 O   @ u F I V q , 0 p p F L p i j K ( { | O.^ ^ Z F K ",
"L L F q ; : p L ( ~ I L p @ o @ z { -.^ < o + 8 F +.=.{ F K I ^ ( L q < + . O , F ( K V z x B B D L K w p V L ( [ { [ ^ Z c Z Z ",
"V K G p @ 9 z F L K V z , o O , K @.^ < O X % p U ] ] / ( ] ( ^ Z - + o O + 5 B ^ ( H V F U K F K I L z N x n L ( ~ ^ Z x V Z K ",
"K ! Q z 5 p z p t 8 8 , @ + : i I ] z - , 7 i D / K I / O.` A ; o . X + , h Z I ( / K K / ( L V I ( ( Z x x c K K F x x z x n c ",
"m Q ~ z * 5 9 5 q * = & * , i V F K B p B K / ( K P I U I u > % X X # 8 C _ ` ` / ` ` P I K P K ~ ' ~ F c x x n Z x z z z F c n ",
"F K c 8 % & * e 9 t t u p z p p B Z K I O.-.+.U i A K ` D q < , , < q D ( O.` F P ..O.I C Z K K ! ! ^ K z j z z x z z x Z n n F ",
"x n x e O & 5 t z c n F F c q 9 z F ! O.:.:.` N 8 h P U I D B A g N N P ....I B D _ O.C u V F Z Z F K n z t t z z x c n F v n n ",
"z x k 9 & = 9 x ! [ [ ~ F z 5 p V I ( ] +.+.I , - p P '  ...#.P C q i C _  .` h p I ^ i 7 w p j p x c Z p 5 9 p z l v v x z z s ",
"y x x y 1 1 t M [ [ [ n z p p Z L ( U ] O...p - 7 A _ ..$.:.&.T g q N T %.%.S 8 8 C C < : q V V i i c z y 3 8 y z n c v a t e t ",
"y x x r = = k L } [ z t 9 t x F ^ ^ ^ ..O./ < - w P ..$.&.3.#.N < q T 3.6.T 0 $ , i i w p V ^ I i z x n z q t y c v c a p r 9 9 ",
"r a e & * 9 v ! [ E z z t i Z L L K ( +.( N ; > g T ..&.2.2.J < < S &.7.$.q - ; 7 A H F I ] @.( x x F K p t y z x c y e 4 3 = = ",
"9 e = 1 e k m E ! ! c p e q c L I U ( ] I 0 ; < g T $.3.1.o.J 0 0 Y 4.4.N < ; 7 N / ..O.@.&.@.L Z D Q L x p y p k e = 1 e 4 * @ ",
"4 e 4 y l v v z k z t 5 5 t F ^ ^ L U Z B 7 - ; i T 2.3.o. .N < g T 1.Y d < 0 S  .&.>.:.@.O.( L F K F c z z x y 9 6 * 4 y r 2 = ",
"4 y a v l a 3 * * 9 5 = 5 p ^ ( I i , , , ; ; ; N  .&.3.$. .S d g S J S N g N T #.:.%.+...^ I L K x e 8 t p y 9 1 1 6 a k y 3 4 ",
"a a a a 4 1 * * 9 y z 9 u Z ! L 8 X o + < 0 < d D $.2.2.o.T N d < d A D S h A P I _ O. .U U ^ ' ^ j ; * 5 y p r t y a l v a 4 a ",
"y y r r r 3 3 t x M K z p F G w , + + 7 N C Z P #.5.5.o.o.N > - > d D Y D S S S D U  .( U U U I Z : + & 8 z n m n n m b b a 4 a ",
"4 y a k k a x n ~ [ L t u j x i u , u D U I S ..2.6.X.Y S - # - f Y T 1.T J D D P U P D V B N u % X @ = z R ~ ~ ~ ! E E a r 4 y ",
"a v b E E b M R ! M 1 & * t j K K K U O...H J ' o.X.S d > # - d Y 1.1.1.T T T X.o./ P P C B 8 * & , 8 z K ~ ~ ~ R M E y 2 2 4 r ",
"l b W W R l v v l 8 O X % i ! { { { ' ] I J J ..o.T N d > > d J 1.1.1.o.o.X.o.$.&...U  .( P u 8 5 y c G c c n n x k 2 & & 2 4 a ",
"l b E l y 4 y t 1 * X + 5 c ] *.| ' I K I ' ' $.$.J N N N N J o.1.1.o.o.o. .o.&.$.U / @...H u q B G L 8 5 9 p e 1 & @ & 1 4 r a ",
"a k r 3 1 1 1 9 9 9 * 8 p L { | / F F U O.+.$.%.U N S J Y Y T $.$.o. .o._  . .o.../ D / K 8 q x Q ( x ; & 5 y z e 5 1 6 r a a k ",
"4 1 4 2 9 3 t a v x t p c L { ] I F U ..@.+.U I N w S T T T  .o.o. .T  .T T  .....D i w w w x / | [ x * * 5 x n z e e y r r y 4 ",
"9 y y k k z n M E M y j n K ! ! K Z L { $.H i w w w J  .T J T o.$.o.o.o.T  ...:.#.B - < p H ] @.-.{ z & * t m R k e y e 1 1 2 1 ",
"x m M R M E [ [ E v j M ! ! / ^ F C K U K 0 0 w j N U  .I P  .&.3.&.O. ._ I &.:. .q 8 p H ] -.,.=.F 8 & & y K M z a k y e 9 9 y ",
"~ ) ) W ) ) ) R n c M [ | M K z j j B C i ; 0 w A D U J D I o.5.5.&.O...P ..&./ B N N Z Z K ] ! x i * + & y L M n v c k k z x M ",
") ~ ~ ) ~ ~ n s z M [ -.' 9 p B K z j j i 8 j B D P I P P _ +.:... .P P  ._ ' N q N B u 8 0 B j 5 8 % @ : x ~ ~ Q n z z c n M ~ ",
"L L R Q Q n s y z M { { 9 & 8 x I F j j B C P I U / / I P I  .U N w q h w 8 8 8 8 p q < 8 x K F Z p & & p ! } } n 2 = e n R M Q ",
"n G n K n z p z M ] [ n 5 * q c F j j K U / ] / / U P I U U U P N ; < 0 i , , ; < j z B P ( ] ! F p 5 p L *.;.~ q @ * e n L K c ",
"F F m F n z x F ^ ] ! c 9 8 w x Z Z K ] ] K K C N j B D U (  .I B 7 8 g N 5 0 0 N K / O.=.>.] F p 9 i G } <.) p @ O = p K L n n ",
"n F F F x x p z x M c c j 9 j Z I K ( ! H j j i w p D L / ] ' U C p B K ( F p N L ..@.-.,.@.i , 7 q x ( =.=.z : X + 8 K ! L Z Z ",
"F L K n n p : ; * q z c z t z K I L ' I i 8 i j z K I / ( / L I F P ^ O.+.Z z Z ( @.{ =.O.H , ; , i K { @.x , X X & z ~ ( K c F ",
"K ( ^ F p , o O , j H c u ; 8 j j K I B 9 u j K ( ] { ] L P Z K P ! ] { K 0 u V ] @.{ O...x ; + , x ] | Q e O O @ p ^ { ^ Z x F ",
"( ( L B 7 O   + q K L V q , 9 p j Z I i i z K ( { | { / U F Z K I ! Q z , & q Z ( O.[ ] / 5 + + u L =.@.x ; + & u ^ @.| L V Z K ",
"/ I u 5 # . O 5 F ( K B B x B B Z L K t p c Q ! ] } [ ^ Z V F Z K K F 8 % = p L ( ! L I p @ o @ z O.-.L 7 O + 8 F @.@.O.F I I / ",
"C ; @ o O + , B ^ ] F B F U K D K ^ L x z x F K ! ( I c B V c K V K K z @ 8 x F Q F Z z , X O , F +./ 7 o o - p I ..] ( ( ` ( / ",
"o . X + , p Z U ( ^ I K ^ ( I x U ( ! Z B z V K L F x c x z n Z F ~ L z 5 y z p t 5 8 , @ O : i ^ ( z % , , p D ( K I ! ..( C 7 ",
"o o @ 8 Z _ ( / / ( ( K U L K K ( ( ( F c x c n n c z z z c c n G Q ! z & 1 q 1 e : : : & 5 i x F K z h B K ( / K P I U K u > ; ",
"< , q D ` O...H I ....I B Z K K ! ^ L K z j x z x z k x c M n n F M n 8 & & * e q e e u p z p p j F P K O.:.$./ i C D ( D w 5 > ",
"g N N P ` ..I B H _ O.C w B K V Z F K n j t y z z z x n n c M c x n x e O & 5 y z n F n F c q 9 z K ( { =.>.( N 7 h P U I D A B ",
"Z 0 i S _ ..` g h K U i 8 q j j p x c c p 8 8 y z l c n c z j y s x z 6 & = 9 c Q [ [ ( F z 5 p V U ( ..+.+.I , ; g P `  ...o.I ",
"h q h T 2.%.S 8 0 C C , : w B V u p x x p 9 9 t z v c c k t e r y x x a 5 1 t M [ } ) n s p p Z I ! ^ ( O...g - 7 C / ..%.3.:. .",
"q q T 3.5.T 0 # < i h q i Z ^ I i B x Z y q t y c n v y p t 3 2 t x z r * = a Q [ ~ x u 9 p x K Q I / ..../ 7 - q P o.$.&.3.#.P ",
"d A 2.7.%.w ; ; 7 B D F I ..| ( x x M K p t p z x c y e 3 3 1 * e a e & = e x ~ ) ~ x s u i x L I K ( +.] N ; , g T o.&.3.&.J g ",
"g Y 4.5.N < ; < B _ ..+.@.=.@.I Z Z L L x z y y k e = 2 4 e * & e 4 = 1 e a m E ~ Q Z y e u Z L L U ] ] I q - , g I $.3.$.o.J w ",
"h T 1.Y d 7 0 A ` %.:.:.@.+.( G D K n c z x x t 3 1 * 3 y r 2 1 4 4 4 y k v c x z x t 6 5 i F ! I I I Z B 7 % ; i T 2.3.o. .N f ",
"N S J A h g N T $.:.%.@...^ K ^ L x t 8 e y y 9 1 5 9 y l r 2 r y a a l v a 3 * = 5 5 : 5 p L ] L i < , , ; ; ; N  .2.2.$.X.S N ",
"d d N D A h S P I _ O. .U U / ( ^ z & * 7 p p t y y k l v y 4 a a k a a 4 = * * 9 y s 6 t Z ! I 0 X O + 7 0 < f J #.3.2.X.T N d ",
"< d S Y Y D S Z S _ _ ` U U / ^ K 7 + & 9 p c n n v b M b a 4 a a y r y r 9 2 e x G G p p F I p , + + , N B A D #.5.5.o.1.J d > "
};
