/* XPM */
static char *result[] = {
/* columns rows colors chars-per-pixel */
"64 64 111 2 ",
"   c #727272",
".  c gray45",
"X  c gray46",
"o  c #767676",
"O  c #777777",
"+  c #797979",
"@  c gray48",
"#  c #7B7B7B",
"$  c #7C7C7C",
"%  c gray49",
"&  c #7E7E7E",
"*  c gray50",
"=  c #808080",
"-  c #818181",
";  c gray51",
":  c #838383",
">  c #848484",
",  c gray52",
"<  c #868686",
"1  c gray53",
"2  c #888888",
"3  c #898989",
"4  c gray54",
"5  c #8B8B8B",
"6  c gray55",
"7  c #8D8D8D",
"8  c #8E8E8E",
"9  c gray56",
"0  c #909090",
"q  c gray57",
"w  c #929292",
"e  c #939393",
"r  c gray58",
"t  c #959595",
"y  c gray59",
"u  c #979797",
"i  c #989898",
"p  c gray60",
"a  c #9A9A9A",
"s  c #9B9B9B",
"d  c gray61",
"f  c #9D9D9D",
"g  c gray62",
"h  c #9F9F9F",
"j  c #A0A0A0",
"k  c gray63",
"l  c #A2A2A2",
"z  c gray64",
"x  c #A4A4A4",
"c  c #A5A5A5",
"v  c gray65",
"b  c #A7A7A7",
"n  c gray66",
"m  c #A9A9A9",
"M  c #AAAAAA",
"N  c gray67",
"B  c #ACACAC",
"V  c gray68",
"C  c #AEAEAE",
"Z  c #AFAFAF",
"A  c gray69",
"S  c #B1B1B1",
"D  c #B2B2B2",
"F  c gray70",
"G  c #B4B4B4",
"H  c gray71",
"J  c #B6B6B6",
"K  c #B7B7B7",
"L  c gray72",
"P  c #B9B9B9",
"I  c gray73",
"U  c #BBBBBB",
"Y  c #BCBCBC",
"T  c gray74",
"R  c gray",
"E  c gray75",
"W  c #C0C0C0",
"Q  c #C1C1C1",
"!  c gray76",
"~  c #C3C3C3",
"^  c gray77",
"/  c #C5C5C5",
"(  c #C6C6C6",
")  c gray78",
"_  c #C8C8C8",
"`  c gray79",
"'  c #CACACA",
"]  c #CBCBCB",
"[  c gray80",
"{  c #CDCDCD",
"}  c #CECECE",
"|  c gray81",
" . c #D0D0D0",
".. c gray82",
"X. c #D2D2D2",
"o. c LightGray",
"O. c gray83",
"+. c #D5D5D5",
"@. c gray84",
"#. c #D7D7D7",
"$. c #D8D8D8",
"%. c gray85",
"&. c #DADADA",
"*. c gray86",
"=. c gainsboro",
"-. c #DDDDDD",
";. c #DFDFDF",
":. c gray88",
">. c gray91",
",. c #E9E9E9",
"<. c None",
/* pixels */
"<.<.<.<.<.<.<.<.<.<.<.<.<.<.<.<.<.<.<.<.<.<.<.<.<.<.<.<.<.<.<.<.<.<.<.<.<.<.<.<.<.<.<.<.<.<.<.<.<.<.<.<.<.<.<.<.<.<.<.<.<.<.<.<.",
"<.<.<.<.<.<.<.<.<.<.<.<.<.<.<.<.<.<.<.<.<.<.<.<.<.<.<.<.<.<.<.<.<.<.<.<.<.<.<.<.<.<.<.<.<.<.<.<.<.<.<.<.<.<.<.<.<.<.<.<.<.<.<.<.",
"<.<.<.<.<.<.<.<.<.<.<.<.<.<.<.<.<.<.<.<.<.<.<.<.<.<.<.<.<.<.<.<.<.<.<.<.<.<.<.<.<.<.<.<.<.<.<.<.<.<.<.<.<.<.<.<.<.<.<.<.<.<.<.<.",
"<.<.<.<.<.<.<.<.<.<.<.<.<.<.<.<.<.<.<.<.<.<.<.<.<.<.<.<.<.<.<.<.<.<.<.<.<.<.<.<.<.<.<.<.<.<.<.<.<.<.<.<.<.<.<.<.<.<.<.<.<.<.<.<.",
"<.<.<.<.<.<.<.<.<.<.<.<.<.<.<.<.<.<.<.<.<.<.<.<.<.<.<.<.<.<.<.<.<.<.<.<.<.<.<.<.<.<.<.<.<.<.<.<.<.<.<.<.<.<.<.<.<.<.<.<.<.<.<.<.",
"<.<.<.<.<.<.<.<.<.<.<.<.<.<.<.<.<.<.<.<.<.<.<.<.<.<.<.<.<.<.<.<.<.<.<.<.<.<.<.<.<.<.<.<.<.<.<.<.<.<.<.<.<.<.<.<.<.<.<.<.<.<.<.<.",
"<.<.<.<.<.<.<.<.<.<.<.<.<.<.<.<.<.<.<.<.<.<.<.<.<.<.<.<.<.<.<.<.<.<.<.<.<.<.<.O o <.<.<.<.<.<.<.3 4 7 9 t a t i 6 <.<.<.<.<.<.<.",
"<.<.<.<.<.<.<.<.<.<.<.<.<.<.2 z , <.<.<.<.<.<.<.<.<.<.<.<.<.<.6 9 <.<.<.<.<.o 2 : X <.<.<.<.<.5 L F J S G D M Y F 0 <.<.<.<.<.<.",
"<.<.<.<.<.<.<.<.<.<.<.<.<.8 Z  .u <.<.<.<.<.<.<.<.<.<.<.<.<.3 D T 8 <.<.<.<.o 9 5 # <.<.<.<.<.< D E T U N Z N { F 0 <.<.<.<.<.<.",
"<.<.<.<.<.<.<.<.<.<.<.<.8 E _ A - <.<.<.<.<.<.<.<.<.<.<.<.<.6 F E 8 <.<.<.<.<., - <.<.<.<.<.<.<.7 t u a e i h F u <.<.<.<.<.<.<.",
"<.<.<.<.<.<.<.<.<.<.<.7 E *.Y 3 <.<.<.<.<.<.<.<.<.<.<.<.<.<.u ] ] r <.<.<.<.<.<.<.<.<.<.<.<.<.<.<.<.<.7 h V n 1 <.<.<.<.<.<.<.<.",
"<.<.<.<.<.<.<.<.<.<.6 S X.B 2 <.<.<.<.<.<.<.<.<.<.<.<.<.<.<.e K K 3 <.<.<.<.<.<.<.<.<.<.<.<.<.<.<.<.2 S V c 1 <.<.<.<.<.<.<.<.<.",
"<.<.<.<.<.<.<.<.<.: K J N - <.<.<.<.<.<.<.<.<.<.<.<.<.<.<.<.5 K V q <.<.<.<.<.<.<.<.<.<.<.<.<.<.<.< m B j > <.<.<.<.<.<.<.<.<.<.",
"<.<.<.<.<.<.<.<.1 S Q g - <.<.<.<.<.<.<.<.<.<.<.<.<.<.<.<.<.> G V 7 <.<.<.<.<.<.<.<.<.<.<.<.<.<.4 Z P d * <.<.<.<.<.<.<.<.<.<.<.",
"<.<.<.<.<.<.<.< G #.! > <.<.<.<.<.<.<.<.<.<.<.<.<.<.<.<.<.<., ..Y w <.<.<.<.<.<.<.<.<.<.<.<.<.; E _ z * <.<.<.<.<.<.<.<.<.<.<.<.",
"<.<.<.<.<.<.<.x U H 7 <.<.<.<.<.<.<.<.<.<.<.<.<.<.<.<.<.<.<.w X.~ t <.<.<.<.<.<.<.<.<.<.<.<.<.f ] G , <.<.<.<.<.<.<.<.<.<.<.<.<.",
"<.<.<.<.<.<.<.M ] F 0 <.<.<.<.<.<.<.<.<.<.<.<.<.<.<.<.<.<.- n / Y e <.<.<.<.<.<.<.<.<.<.<.<.6 Z Q s <.<.<.<.<.<.<.<.<.<.<.<.<.<.",
"<.<.<.<.<.<.<.- c G L 8 <.<.<.<.<.<.<.<.<.<.<.<.<.<.<.<.; c G P f <.<.<.<.<.<.<.<.<.<.<.<.<.u ~ D 5 <.<.<.<.<.<.<.<.<.<.<.<.<.<.",
"<.<.<.<.<.<.<.<.: Z *.L 9 <.<.<.<.<.<.<.<.<.<.<.<.<.<.: k V m 7 <.<.<.<.<.<.<.<.<.<.<.<.<.<.q J g < <.<.<.<.<.<.<.<.<.<.<.<.<.<.",
"<.<.<.<.<.<.<.<.<.1 H P C 2 <.<.<.<.<.<.<.<.<.<.<.<.4 T ^ A 2 <.<.<.<.<.<.<.<.<.<.<.<.<.<.<.6 V i , <.<.<.<.<.<.<.<.<.<.<.<.<.<.",
"<.<.<.<.<.<.<.<.<.<.- u D S 1 <.<.<.<.<.<.<.<.<.<.$ g R I 4 <.<.<.<.<.<.<.<.<.<.<.<.<.<.<.<.9 U m 4 <.<.<.<.<.<.<.<.<.<.<.<.<.<.",
"<.<.<.<.<.<.<.<.<.<.<.% y R S 9 <.<.<.<.<.<.<.<.< d P v 2 <.<.<.<.<.<.<.<.<.<.<.<.<.<.<.<.<.7 K n 5 <.<.<.<.<.<.<.<.<.<.<.<.<.<.",
"<.<.<.<.<.<.<.<.<.<.<.<.- m R K d 8 e 8 u t h h c d z * <.<.<.<.<.<.<.<.<.<.<.w x f p w , > 6 B b 8 <.<.<.<.<.<.<.<.<.<.<.<.<.<.",
"<.<.<.<.<.<.<.<.<.<.<.<.<.1 B U Y J [ P ! P W q a d 5 <.<.<.<.<.<.<.<.<.<.<.u T O.o.S p 6 q y a f u <.<.<.<.<.<.<.<.<.<.<.<.<.<.",
"<.<.<.<.<.<.<.<.<.<.<.<.<.<.5 S F I ..X.! E S f j C 3 <.<.<.<.<.<.<.<.<.<.3 S P O.` c g a D B m P D 4 <.<.<.<.<.<.<.<.<.<.<.<.<.",
"<.<.<.<.<.<.<.<.<.<.<.<.<.<.<.9 d s u a w q s r z a p + <.<.<.<.<.<.<.<.: x K K } Z 4 : 6 f k V U W B 1 <.<.<.<.<.<.<.<.<.<.<.<.",
"<.<.<.<.<.<.<.<.<.<.<.<.<.<.<.<.<.<.<.<.<.<.<.<., g d 3 - <.<.<.<.<.<.<.y U Q ) | z <.<.<.<.<.<.7 N B k 3 <.<.<.<.<.<.<.<.<.<.<.",
"<.<.<.<.<.<.<.<.<.<.<.<.<.<.<.<.<.<.<.<.<.<.<.<.<.% < < g 4 <.<.<.<.<.r V Y J Q } h <.<.<.<.<.<.<.> c P I 7 <.<.<.<.<.<.<.<.<.<.",
"<.<.<.<.<.<.<.<.<.<.<.<.<.<.<.<.<.<.<.<.<.<.<.<.<.<.# 7 N K 9 <.<.<.: h D I I M ) z <.<.<.<.<.<.<.<.; z D A , <.<.<.<.<.<.<.<.<.",
"<.<.<.<.<.<.<.<.<.<.<.<.<.<.<.<.<.<.<.<.<.<.<.<.<.<.<.- v R J 9 <.a F W ~ G S r j w <.<.<.<.<.<.<.<.<.5 x G k > <.<.<.<.<.<.<.<.",
"<.<.<.<.<.<.<.<.<.<.<.<.<.<.<.<.<.<.<.<.<.<.<.<.<.<.<.<.1 N { ` ` ` Y K C y , $ , e <.<.<.<.<.<.<.<.<.<.* d D B O <.<.<.<.<.<.<.",
"<.<.<.<.<.<.<.* 9 , <.<.<.<.<.m - @ <.<.<.<.<.<.<.<.<.<.<.1 ( @.%.] F W D f 5 q w a <.<.<.<.<.<.<.<.<.<.<.1 Z ^ a   <.<.<.<.<.<.",
"<.<.<.<.<.<.<.7 g A 3 <.<.<.c ) 2 $ # <.<.<.<.<.<.<.<.<.<.<.T X._ L I c & . - h m x <.<.<.<.<.<.<.<.<.<.<.<.3 B q % <.<.<.<.<.<.",
"<.<.<.<.<.<.<.# g -.Y 5 <.<.B ' F b g c h <.<.<.<.<.<.<.<.<.g ~ #.{ E v 3 s Y Q ! c <.<.<.<.<.<.<.<.<.<.<.<.<.> 7 $ <.<.<.<.<.<.",
"<.<.<.<.<.<.<.<.@ Z N B 2 <.j N B l r e N v <.<.<.<.<.<.<.<.3 M U ! P v 5 f / Q G s <.<.<.<.<.<.<.<.<.<.<.<.<.<.<.<.<.<.<.<.<.<.",
"<.<.<.<.<.<.<.<.<.: g N N 8 b Y E C G x G F <.<.<.<.<.<.<.<.r [  .*.T _ _ &.+.Y L c <.<.<.<.<.<.<.<.<.<.<.<.<.<.<.<.<.<.<.<.<.<.",
"<.<.<.<.<.<.<.<.<.<.- c D c j K K C V f G H <.<.<.<.<.<.<.<.r ^ T ..@.:.;.+.+.} _ m <.<.<.<.<.<.<.<.<.<.<.<.<.<.<.<.<.<.<.<.<.<.",
"<.<.<.<.<.<.<.<.<.<.<.= v G Y { @.U ( T ~ M <.<.<.<.<.<.<.<.t Y Y ' W =.$.@.O.#.$.B <.<.<.<.<.<.<.<.<.<.<.<.<.<.<.<.<.<.<.<.<.<.",
"<.<.<.<.<.<.<.<.<.<.<.<.1 B V S I V A h <.<.<.<.<.<.<.<.<.<.u m z N G +.( | &.:.} e <.<.<.<.<.<.<.<.<.<.<.<.<.<.<.<.<.<.<.<.<.<.",
"<.<.<.<.<.<.<.<.<.<.<.<.<.9 U Y ' I l <.<.<.<.<.<.<.<.<.<.<.N L Z N N } _ @.&.o.W p <.<.<.<.<.<.<.<.<.<.<.<.<.<.<.<.<.<.<.<.<.<.",
"<.<.<.<.<.<.<.<.<.<.<.<.<.<.v B Q W <.<.<.<.<.<.<.<.<.<.<.2 T [ ] W / U L { ,.O.v 5 ; <.<.<.<.<.<.<.<.<.<.<.<.<.<.<.<.<.<.<.<.<.",
"<.<.<.<.<.<.<.<.<.<.<.<.<.<.r N L p <.<.<.<.<.<.<.<.<.<.1 d k J L v g e i h E R P F F 7 <.<.<.<.<.<.<.<.<.<.<.<.<.<.<.<.<.<.<.<.",
"<.<.<.<.<.<.<.<.<.<.<.<.<.<.<.<.<.<.<.<.<.<.<.<.<.<.<.8 N k y 3 <.<.<.<.<.<.<.<.- f ' Y 8 <.<.<.<.<.<.<.<.<.<.<.<.<.<.<.<.<.<.<.",
"<.<.<.<.<.<.<.<.<.<.<.<.<.<.<.<.<.<.<.<.<.<.<.<.<.<.5 H Q x - <.<.<.<.<.<.<.<.<.<., I ^ U < <.<.<.<.<.<.<.<.<.<.<.<.<.<.<.<.<.<.",
"<.<.<.<.<.<.<.<.<.<.<.<.<.<.<.<.<.<.<.<.<.<.<.<.<.% B P B < <.<.<.<.<.<.<.<.<.<.<.<.5 n U j 1 <.<.<.<.<.<.<.<.<.<.<.<.<.<.<.<.<.",
"<.<.<.<.<.<.<.<.<.<.<.<.<.<.<.<.<.<.<.<.<.<.<.<.3 s h e - <.<.<.<.<.<.<.<.<.<.<.<.<.<.= k f j = <.<.<.<.<.<.<.<.<.<.<.<.<.<.<.<.",
"<.<.<.<.<.<.<.<.<.<.<.<.<.<.<.<.t t 6 1 4 ; % < j f y * <.<.<.<.<.<.<.<.<.<.<.<.<.<.<.<.: j R b - <.<.<.<.<.<.<.<.<.<.<.<.<.<.<.",
"<.<.<.<.<.<.<.<.<.<.<.<.<.<.$ f W T D M Z x r b x V - <.<.<.<.<.<.<.<.<.<.<.<.<.<.<.<.<.<., b C n 6 <.<.<.<.<.<.<.<.<.<.<.<.<.<.",
"<.<.<.<.<.<.<.<.<.<.<.<.<.1 B J Q T T J R x h x P u <.<.<.<.<.<.<.<.<.<.<.<.<.<.<.<.<.<.<.<.a I P m <.<.<.<.<.<.<.<.<.<.<.<.<.<.",
"<.<.<.<.<.<.<.<.<.<.<.<.5 J [ P t 5 9 t a t p r r <.<.<.<.<.<.<.<.<.<.<.<.<.<.<.<.<.<.<.<.<.0 I S e <.<.<.<.<.<.<.<.<.<.<.<.<.<.",
"<.<.<.<.<.<.<.<.<.<.<.q I [ B < <.<.<.<.<.<.<.<.<.<.<.<.<.<.<.<.<.<.<.<.<.<.<.<.<.<.<.<.<.<.9 A G 0 <.<.<.<.<.<.<.<.<.<.<.<.<.<.",
"<.<.<.<.<.<.<.<.<.<.8 ! _ G : <.<.<.<.<.<.<.<.<.<.<.<.<.<.<.<.<.<.<.<.<.<.<.<.<.<.<.<.<.<.<.5 c V w <.<.<.<.<.<.<.<.<.<.<.<.<.<.",
"<.<.<.<.<.<.<.<.<.6 ( #.B 4 <.<.<.<.<.<.<.<.<.<.<.<.<.<.<.<.<.<.<.<.<.<.<.<.<.<.<.<.<.<.<.<.w K U a <.<.<.<.<.<.<.<.<.<.<.<.<.<.",
"<.<.<.<.<.<.<.<.q ( >.J : <.<.<.<.<.<.<.<.<.<.<.<.<.<.<.<.<.<.<.<.<.<.<.<.<.<.<.<.<.<.<.<.<.r } ) u <.<.<.<.<.<.<.<.<.<.<.<.<.<.",
"<.<.<.<.<.<.<.: U  .L 1 <.<.<.<.<.<.<.<.<.<.<.<.<.<.<.<.<.<.<.<.: 9 a r q 7 8 4 ; <.<.<.<.<.q Q U 6 <.<.<.<.<.<.<.<.<.<.<.<.<.<.",
"<.<.<.<.<.<.<.u X.R > <.<.<.<.<.<.<.<.<.<.<.<.<.<.<.<.<.<.<.<.1 9 a K P D h u < e > <.<.<.<.q H K 9 <.<.<.<.<.<.<.<.<.<.<.<.<.<.",
"<.<.<.<.<.<.<.* g 1 <.<.<.<.<.<.<.<.<.<.<.<.<.<.<.<.<.<.<.<.<., r v x g d q 6 > j 4 <.<.<.<.8 C n 4 <.<.<.<.<.<.<.<.<.<.<.<.<.<.",
"<.<.<.<.<.<.<.<.<.<.<.<.<.<.<.<.<.<.<.<.<.<.<.<.<.<.<.<.<.<.<.<.1 q 9 5 5 2 1 0 8 <.<.<.<.<.<.q 1 <.<.<.<.<.<.<.<.<.<.<.<.<.<.<.",
"<.<.<.<.<.<.<.<.<.<.<.<.<.<.<.<.<.<.<.<.<.<.<.<.<.<.<.<.<.<.<.<.<.<.<.<.<.<.<.<.<.<.<.<.<.<.<.<.<.<.<.<.<.<.<.<.<.<.<.<.<.<.<.<.",
"<.<.<.<.<.<.<.<.<.<.<.<.<.<.<.<.<.<.<.<.<.<.<.<.<.<.<.<.<.<.<.<.<.<.<.<.<.<.<.<.<.<.<.<.<.<.<.<.<.<.<.<.<.<.<.<.<.<.<.<.<.<.<.<.",
"<.<.<.<.<.<.<.<.<.<.<.<.<.<.<.<.<.<.<.<.<.<.<.<.<.<.<.<.<.<.<.<.<.<.<.<.<.<.<.<.<.<.<.<.<.<.<.<.<.<.<.<.<.<.<.<.<.<.<.<.<.<.<.<.",
"<.<.<.<.<.<.<.<.<.<.<.<.<.<.<.<.<.<.<.<.<.<.<.<.<.<.<.<.<.<.<.<.<.<.<.<.<.<.<.<.<.<.<.<.<.<.<.<.<.<.<.<.<.<.<.<.<.<.<.<.<.<.<.<.",
"<.<.<.<.<.<.<.<.<.<.<.<.<.<.<.<.<.<.<.<.<.<.<.<.<.<.<.<.<.<.<.<.<.<.<.<.<.<.<.<.<.<.<.<.<.<.<.<.<.<.<.<.<.<.<.<.<.<.<.<.<.<.<.<.",
"<.<.<.<.<.<.<.<.<.<.<.<.<.<.<.<.<.<.<.<.<.<.<.<.<.<.<.<.<.<.<.<.<.<.<.<.<.<.<.<.<.<.<.<.<.<.<.<.<.<.<.<.<.<.<.<.<.<.<.<.<.<.<.<."
};
