/* XPM */
static char *result[] = {
/* columns rows colors chars-per-pixel */
"64 64 47 1 ",
"  c #CCAE76",
". c #C7AE7B",
"X c #CCB37D",
"o c #D4B57C",
"O c #D8B77D",
"+ c #D6B87F",
"@ c #DCBB7F",
"# c #E1BD7E",
"$ c #CEB880",
"% c #D2B780",
"& c #D5BC83",
"* c #DCBD82",
"= c #D7BF88",
"- c #E1BE82",
"; c #DDC185",
": c #D4C48A",
"> c #DDC48A",
", c #DEC98E",
"< c #DACB90",
"1 c #E3C385",
"2 c #E9C686",
"3 c #EBC887",
"4 c #E4C689",
"5 c #E9C788",
"6 c #E6C98C",
"7 c #EBCC8C",
"8 c #F1C984",
"9 c #F1CE8C",
"0 c #EED08F",
"q c #F2D18F",
"w c #E5CD91",
"e c #EBCE91",
"r c #F1CF90",
"t c #E5D294",
"y c #EDD293",
"u c #EDD997",
"i c #EDD698",
"p c #EEDA9A",
"a c #F3D392",
"s c #F8D694",
"d c #F5D996",
"f c #F9D996",
"g c #F1D698",
"h c #F4DB9A",
"j c #F9DC9B",
"k c #FDE09D",
"l c #F7EAA8",
/* pixels */
"y6eey66515577r9aq4;*-616asaw>65qhhsq765y7e66455eire67370yya5119a",
"76e76y0y61-2qskfs75*;&&;esr677766yh75166656455267ae77a95yy72@#07",
"qqa76y37y4;5qqfssqq76;*5e77ey76664ww67e7y65*46eaqhar7pa7a071@4wy",
"aaf76114t411uhaaassfre67556yq7764;>47y67ee546e7yaa9ey64163675q0a",
"a9a44=*;>*5yph5ahaasaaea276as77375>60y07ee757676a7aay614@-;#7aqq",
"a7y64O+**&46hhga0677q9ar5557yaaaaae6yyyq6e57y45115yfa7;>;;-27000",
"067w41565465yhyy44145@**16467670ahyey7e51>146;;;16yssa0i605211y7",
"7w7t63777e667hiy;;;&+XO@*556271w77yqy9y6-*=4;1*+O;y7797i0dq75#u4",
"4;@w73577ee76ayy1<==@+&O;67q87+:>4y9y7y6-4464;*XO>y27api3qq776y6",
">>*w4556y57e7aay6,&;1775>>6724*&:76556y739ya64&ooO6;yepi3qay6646",
"6>167300e667aesa6>>68qq9656751;;57974ty757yha75;Oo*5y6w43007,770",
"ya9y57707w65aafa64>79q77677062516799yy641650y7011;465t4-1347,64y",
"aa3e50yffy656erhy6177y625w7ahq55677yuy64@11670q277797g76437e677s",
"16e5;46ayae64e7a61=17t5**617af66597w776511#456127y77aa76113975e6",
"-*66441679776ye51146614;1***2a693u666071112761*11577r6e11399aa75",
"-466e4**679577e**1464;>,71*OO66a971<606711337761*&*7r3ww5399y774",
"676w761;399330725750754t921Oo*5s9766wa7651750ya7-*;6y77y077226w5",
"2aauy7e7q99374377177q7eaq721&;*w16e656aa725566ya7-=166aqaa052y73",
"179f7ee9032t57256411dy7415701@:1*1677666607664>07671>;;1qy767007",
"y79sae461;O,67037667ah04;12y1*O*&45aq0e6;w6yy4*47a97;X+@77a7dssq",
"a399ay65;1@4467999reqhy4**1t>4*,*62aq9555weffa6>wsj71*O@1006y9qa",
"ssa9eyy511>>>15aaaarshkjq9;*:617666gsqrayy6ajfa46ygy551;>6064qqf",
"yar37ei557ye>*;699y767ypaq616ey0yy5e6997y67e7yy76w6657536041-q0j",
"isg366y7267w44;;*16-1*,t276777yaae-<5221*=4*1,;=*w6e7975606#@77d",
"aag7w7y727yy772;O&>*&&&>**566@67sy1t4**=O&*4*<==;67669997451*63f",
"shjayyy76457y771@o,4115>=&@1@O;6aew4*O=-**;*ww>;;166qqq77676545y",
"faaaage-&&*7ya77776e77qy1;11@+*4e16e4@-65666phhy6*5577675517777a",
"a66eag6*$. *67aaaaqaaaqq511156;**&676656767aihaay4;57961@56y0677",
"71467ae=X.o&66yaas97yy777147qa71&o6076544>3sjhaae7;;14>=*2uy61;;",
">4665ey5;=1141e70ka727777*179qae&;5yy655>&1979ya77;*477111606;&>",
"iyy75564;7y751150dy7*65qyy77q8ff770a7>;11@155577761-6776767661;7",
"lgaa66*65yey67;6yay6630hpay783qaa6yyy6y61756177a74527g77w56t647a",
"hgsq761ye766155ygy077377aya1129yy6eey76115577a9aq61*-4;6asaw456a",
"wyh77166646157177a779a77yy01##w076e7wy7y71119skfa75->&*;esa66765",
"64w726yra66*>6y0ahy03ka7a061@40y9ar76y77y1*5aafasqq74;*5e777y756",
"5;>67y66ye54777era0y664163775q0aasf741;5t415yhaasqsjae47756ya766",
"76>5eie9ee7306e7a7aaq71>@#;#7a9qa0a64&*;4*1yph6ahaqsaqyq176as777",
"aye6yyy76e36751>15ysa9;>;;117700a7y6>@+**&>6hjga7777q9aq2617yaaq",
"shyeeee24>146;;;16psaawu775112y7067w61545466yhyy71545@*;1617773y",
"67y9are6***4;;*+O;y7700yqsq751t66y5t73779r667gyy1==&+X++*557271t",
">6e9ary6#4464>*+O;y570pp7qq777y61>@663527e667aye1<==@@+O>5eq87O:",
":6e316e9570y64@XoO4*y0py9qa76744>>=w5277y47yryay6>&;1772;>4754*&",
"57754wee57yfy74;oO*5y6t,57e6>e6y6416777qe667araa6>>77qq76767111;",
"6999ya661620yq011;467e4;135e,65yya9y56yy7667yasf64;79q77677e6554",
"577ayye4*1;6777207797y76427r570sqa7e1yyfsy666erhy61770654070fq61",
"4q7w6e6412#657257y73ya96513775t616e5;560yh754e7y64;>7t5;;446as74",
"3u6,6064--2764*15477a7641399qa74-*6454>479776e75;116641;4;;@5u03",
"q71<777612377651*&*6r76w2397a77414w561;;69957ee1*;566;>461@OO67q",
"77676y7765757yy71*;6a77ee9725063776w7611399777622677616y921@X*6s",
"13y6677a775566aa7**;e7aqsa754y721ayhe7e0q98752777577a7eaa951*;*6",
"*16777w76e66661ye765>;;19y767y7717es7e67792767336411dy6412774*>-",
"&;5y9ee4166ye4*46qq7*o$&5ya7dssq03asay>511&>67737567fhe4>*2y1*%*",
"145aay556eeffy6>6ajy-&O*1776y9qsa79qay6511@>66e99qee9hy4**1w>1*4",
"667asqr9yy6yffy56yay35;*47665q7hasq90yy71;>4>54e9aa9sjkhq7;==e>6",
"ye5e7397ee770yy76w6659726y41#q0jya7770d547y0;*169aa777ehqs616eye",
"aw1<7221*=;;4,;;;w6779726e61#77fgas366y7366646**@;6-4*>t577677ya",
"fy6t>@;;o&4;*<==*6676aa77561163daah7e5y776aa775;O&>*&&=>@;577#60",
"yw66;O+;**;-t<1:;46679a97676565qsfhayyy76;17y776&&>41;5<&O-1@o&7",
"76664@;42666uhga6*1597651457777afaaaha7;:&@7qa777777799y1;1#@&;1",
"*@677456669agjray1*5a761*5607667a66eyg7*XX =66rasqqaaqa061>#44**",
"&O107655443ahjaae6*>*6>*@5yy6;;;64477ae*%.o*56aaafq7y0777117aqq1",
"@=5aew51:&1r79ya991*4775116y6;*>>4w617y6**4*4467qja72w775;179qa0",
"76yae>*51@-517w7561-667676665;>6yye76564*6ye61117aa6#577yy77q8fd",
"a6yye6y62327179a76659g76e67t656flgaa55*w4aar661tiay7630hppa893qy"
};
