/* XPM */
static char *result[] = {
/* columns rows colors chars-per-pixel */
"64 64 74 1 ",
"  c gray48",
". c #838383",
"X c #848484",
"o c #868686",
"O c gray53",
"+ c #888888",
"@ c #898989",
"# c gray54",
"$ c #8B8B8B",
"% c gray55",
"& c #8D8D8D",
"* c #8E8E8E",
"= c gray56",
"- c #909090",
"; c gray57",
": c #929292",
"> c #939393",
", c gray58",
"< c #959595",
"1 c gray59",
"2 c #979797",
"3 c #989898",
"4 c gray60",
"5 c #9A9A9A",
"6 c #9B9B9B",
"7 c gray61",
"8 c #9D9D9D",
"9 c gray62",
"0 c #9F9F9F",
"q c #A0A0A0",
"w c gray63",
"e c #A2A2A2",
"r c gray64",
"t c #A4A4A4",
"y c #A5A5A5",
"u c gray65",
"i c #A7A7A7",
"p c gray66",
"a c #A9A9A9",
"s c #AAAAAA",
"d c gray67",
"f c #ACACAC",
"g c gray68",
"h c #AEAEAE",
"j c #AFAFAF",
"k c gray69",
"l c #B1B1B1",
"z c #B2B2B2",
"x c gray70",
"c c #B4B4B4",
"v c gray71",
"b c #B6B6B6",
"n c #B7B7B7",
"m c gray72",
"M c #B9B9B9",
"N c gray73",
"B c #BBBBBB",
"V c #BCBCBC",
"C c gray74",
"Z c gray",
"A c gray75",
"S c #C0C0C0",
"D c #C1C1C1",
"F c gray76",
"G c #C3C3C3",
"H c gray77",
"J c #C5C5C5",
"K c #C6C6C6",
"L c gray78",
"P c #C8C8C8",
"I c gray79",
"U c #CACACA",
"Y c #CBCBCB",
"T c #CECECE",
/* pixels */
"jidyzdhgmNj5%==qdvhglmbl5o$9jzbiy7ji9>tnBzjnbd08dg7&3jjwgFYMwp74",
"Vchsjgpskva0>22jZZdtbFMe>O:qlbBxjwit58ylvzkzse85ee9wtfw,5sbjer08",
"VBcjaptfvmhutakVBs48lGBs5:eshpxbz9qfzmjyadzdu21,8yaldu2%$5uprre8",
"zmNzfruypfqtrlnnfy0cBAh97>9<2>lBAurizVbfgjcae398yavch41*:6871tpp",
"uhVzdegxvkeqphhr12,deersatu7:@snGlzMPDxsnkg9w9ytjhMti7stidpt7asy",
"yuckhqikNzr77753wsffe>6rja4,-4kdBxZBCvjhZnd3*4rhvbndldxjf0280slM",
"irdufixVGcsrr28wvNMf8<pxxd85<5drdivCMbijbBf5o-4pvNMklxMBzeajcyjz",
"e0wwppljCjzyw3ddBATKxtdzfq4376t596dkfgfbmBmy,3ecCDMnNCmni<5ta5pM",
"uahtdhMgdqdyi0lcCKUYVnbxsii71&8uriusypnbMhbfsahNZbxdxzpae9ser*qj",
"dlbpgfbya8s9prhavbSHKFMcjar31<qjjxhdadNflrvkBMxxxpitkxqsifttaruj",
"CVNuatzpi20izjzcjyulVMnxBvh5,>3sgcfisbAi,&9ixle57wylck5yfju0pttt",
"ZSBy09dyw16fnCng0<tlmgdikdh8070yfgtetzgu:19fkd518eqsie1dMNfzjgq0",
"HDmie7yye33hcMxa1O5994fgdwk0w:00ggrq7hdu,6pxsasadupzlg9ucVDNht9w",
"kVVxuiiy7,,tbka1q3957safq6w<q2r7fi04<76qiallitpNGzsedaulvAADMchj",
"czskvvxgd030fue8aw426dfmldy0iydwgigyuw89iifuq78isfvjVzMzNbmjccgi",
"nbdVnbkir15rxs42umrsaCsdjld0hgg4w4pavy9azxiiry5ewdbjZimknu7qilkz",
"PNfxBBmghriydgwsrVup0adjVAcufxBtr:abJvhzkvdj37:4:ambbtzgzr1wekq8",
"UHMxbmxhiuyuppapuvuyqlkykvb0rrkqt9hAJClljxcl425i9axNvjfjey1hfBar",
"HZVpgddxlzpteubBhu82:7uakmxq38fsfsbSSmghddja533feVmcdlvz902kCLj6",
"VmChh99rsldr06lla168rpiuyyt<8qhhbZKZgyezggjdfshbaZAAhljjwsrxvDgw",
"shcfa0qquphri3pgjq90tr9pwr6858dvMvvhtsdmjzsajNbvkIYbpwljr05pdkt6",
"slcljipqewarcuhtsewtpg9r4r389gcNzNNnaurdyklvdfriimSNluufas0gij3*",
"5phksgdiwthhmkhggkytwi0p5t2e8audtxfbknspqhxMkkyeuhzuiyyfjd889r>X",
"jgzlljsy86jNIVxiwq907rijqw4rizsiyMvndd9e6alnsy964wertkpahkarwy3;",
"s969gkkr0sAPLldidir69qjvae<30007szhyajzjggczjfver7iq0ldaixze909>",
"Hg74yddajbGHGhp0t393utbxhuiwwrgplvMssskgaq9wytuwyifdidw5<pclxvBx",
"ba510idaxZZxgw88iiftsrprpss8epnkzgjtdpklse<500wwflzlfp960fiafBCm",
"Nmflpauphliweprrwadjiq00agmlurpaupaptt5q29>893,0sMnNjprqeyeufnBV",
"issdu6asMa66uaupjckmfu30lVGld9qw797yggyrqfps7,>5edcvvlgawt9ysxbc",
"uudyp7kxKztedjglNmdfdsr0adbap77528qudhkkhczg969pyuskhljvsjduhhzu",
"aij4e,haDmhdfvhfvjdikzpe0ajapyst91qgNMnmzchsquii547wpdskvNlyllj6",
"ANCdxyd4jlcdivkfzjfeir94$35pwtkig6yimSCGmVlsypdy8pudrquiMha7ti0-",
"SAngy6* &6u65gkaphfi9q0p5sandijicsjgNHAAzxdfsyddkcgau8e,w8weigp9",
"FCzue8;@9td2wtiwynjh960isiuzmlj7djxakmCMMnlzh06qvAMgw48;<;860tue",
"nj9>:,==3er6iaa74ckk9yhfgytajgy3rkcy09kxvgpxltwyzgdqiit-#>sacsbz",
"zaq367eacbljcf0>>dllyudejdtwwjew0ee7tabNbj0pdkfuiyuqwdy3><a4u207",
"quw8>2rytpgMcluw50e73whte905184qipswpdBCgr>5wcbbhjpgjMp7=4e87:79",
"9dvfwrgxdklMst5tqqqrwis00193yiewpsdijxVvr213yuhnmZzxiy977y05**$=",
"tkcw8rcbkjsgdgfxp0<qdzn83+w4p47-5qpe87fdipkgpetkjBbCmhhstpqu24>2",
"nVCflzkfhde46qrgrq8gMbd*<2ayvck335975rkkaajzkzhzajkfcdVxbfduqtqt",
"jfpydglfjaw448rype8ykbf54rasufhe75raiaaaimknpMlxdpdsnbBNccdu9tdh",
"uagvkidkhu752211eqt9izpy4e6tpgjsduhbNvjkxAxcfvlap9p9uqesfvxgpusd",
"57qgatjBSjw3,>1:ywe6iAzzei8rw0yssyxVMgudkLSCp0617:wefrqprhafiqia",
"4efbkgcABp4>48uwtwwudcasydahjqr8r6yzxlscBGVjy0rq7:epdsbNi56thshg",
"bftglnlBncyu0tggsr7itj8erzkmvgw24wgcxckgihghpripu0wdkmCv026raxNA",
"sqykkgwhavhxupjdw8wzxmdi0sdvbcq<;iamVPZxqqwtaiCZBgdjdcxa<3wdgcCI",
"Mu0wtr9taVCZgdjsswuylxd5;wahdbpr-kzAVVZhdassufAJHMjjip722wMNMhnF",
"y87814wfcFYJkhjh8,tfDvx3;eka0paf8lfmznbjfisddjMSDMxjpu815evdlrmD",
"bfw3>8fxnVJUGSBmh0ppkwr61pbmiqyfahukfcNVNaq0ykcbmjiare<7qukamgBc",
"hlii25rjBbvACGBvw%rgBsvgdzCvp<9uvjtqicxhe998vnVcgyrhaw,qejgaldbh",
"0r5iscfhfdrlznCmzwlchqajbAJbw-4tfutyjnVlrriedcVDghsBhr4dgBNmBcvd",
"9r6irfkVnciktgMFnylhxyckBZSu,3azkjzeppg8>qkxnnADzccnd0tuajxdlhnl",
",8ijypucgbnBfpxCHNVckadsvnly5hgzrsdsijNzdjVClsglhjjpr9e7tknixcJV",
"ypxf518dusvCg08lKDnuhalfvitdlKvVjVnlphsyulZNMjNbvfd75,q>3ruuflMn",
"qazgeyq44qnmnrwrFGc9wtk0deyiamazdClMdfqpmAZzdtihzlfq77uwrghcglfl",
"yew6rgj750nVmt6qxcy39ansr8aczxdvznaguf4tlZVfjpfsfzjp0ysq4wpxfzsl",
"5re8wsg6ydVmCkxhccjsygbu<<euurgsky267f6udzllmgr35iiuwzhirflsfvNZ",
"r07qalxssajbzgscxdysuydu88amvgkal9424r<6qgczCMge9iwyig7>3kczgvbv",
"ns9sflpaqascpsxZmarq0<q7yazlfakaksjpe956wdnVKNgrep0wszluuzkhtpwq",
"csrjfgphq75aqjcBa957eegijgVncuttulgy46iskzbmCMksta53rmAh4ssMsfq6",
"tspp8ypxrq4y0jvAsagjhhBmxhzyt9rryzfrqfMghjMZZvhiea56=pkh60wdupui",
"=6q94uhkatrawkdxyxCZlhVmgedffy09rp53rkZgzuaapaqeqae8&29d6qwkhbnC",
"86q7egdarhlcpapzzznndqafiytpphzdhytrhvnshpcai4=8pMjz2:4gd1yxcatz",
"s664gf026vBmsrsfhuajp96789ufcnBlcuiufvzcxhNai-.6pFbMirxVx,hFFu8f"
};
