/* XPM */
static char *result[] = {
/* columns rows colors chars-per-pixel */
"64 64 88 1 ",
"  c #6D6353",
". c #736955",
"X c #7B6C55",
"o c #7C6E5A",
"O c #7F7057",
"+ c #7E715C",
"@ c #7E7260",
"# c #83745E",
"$ c #88775D",
"% c #86785F",
"& c #8A795E",
"* c #927D5C",
"= c #857661",
"- c #897761",
"; c #867962",
": c #8B7C64",
"> c #8E7E69",
", c #917E65",
"< c #917F69",
"1 c #94805F",
"2 c #8E8066",
"3 c #8E8169",
"4 c #938266",
"5 c #9A8565",
"6 c #9E8866",
"7 c #94846A",
"8 c #9A866B",
"9 c #96896D",
"0 c #9C8A6D",
"q c #968670",
"w c #9A8770",
"e c #978971",
"r c #9D8C71",
"t c #9F9172",
"y c #A98C63",
"u c #A08768",
"i c #A28D6E",
"p c #A88D68",
"a c #A5916F",
"s c #AB916C",
"d c #AE9A6E",
"f c #B0956D",
"g c #A28E72",
"h c #A98F71",
"j c #A38F78",
"k c #A49274",
"l c #AA9574",
"z c #A79977",
"x c #AD9975",
"c c #A59579",
"v c #AB9679",
"b c #A69879",
"n c #AD9A7A",
"m c #B29673",
"M c #B29A75",
"N c #B99D76",
"B c #B19579",
"V c #B49D7B",
"C c #B99E7A",
"Z c #AEA17D",
"A c #B3A077",
"S c #BBA077",
"D c #B5A17D",
"F c #BBA37D",
"G c #BDA97F",
"H c #C2A27D",
"J c #AE9B82",
"K c #B39E81",
"L c #B99E81",
"P c #B5A281",
"I c #BBA582",
"U c #B4AA85",
"Y c #BDAA84",
"T c #BCA788",
"R c #BDAB89",
"E c #BDB086",
"W c #BFB18A",
"Q c #C1A684",
"! c #C2AA85",
"~ c #C8AC84",
"^ c #C3A688",
"/ c #C2AD8A",
"( c #C8AE8B",
") c #C1B087",
"_ c #C3B18C",
"` c #C9B28E",
"' c #C3B291",
"] c #CBB594",
/* pixels */
"vg:=:39t02&:4kSFGHSFMlk4;:8kk051&4axNFPPPIACCl7#;>rbbt972:::;#:&",
"r2++#;24:&&2uMFGQQGCg7erbbce4&%$&2iMACCCT^!IFFl2#4kDPPnk73247907",
":#+##=::::46lNCnVGz99ccnt7742%51*26dNNMfCFFGGHAi;9kvDFDZz729kczv",
"=;:4422379kk0707<0<qvqqw2777242&056lNNmfBNNFFSFa:<4ixMzxz929knVP",
":9kkgrkkccka99kr4>4ce:;#:3:34:&5:almCCmmBCSSGSFM5::50i0902;:9bPR",
"rnPPZvnnxt79zDYDvrqq::9kPJvVnx524MlnCCNfmCFH!!FCi5:::44::=@=2tZP",
"JTRTPZZV94tZDDPPKKk:7lxMPPPFAs0&5MxM7=#CMVAFG!GFM04:::&#&;#+=7tk",
"U/RRPPDc49zDDMVCLc::vFQ!^PFFFv5&##:7kcc<7lCNCFFFCMlr974774:+o;>>",
"Y_/RPPk7:7axACAFzl:uSHFSFffNNa44160avbnJb3eFkkCVCGPVnvccvnr>oo;:",
"U__Pnzr::7axMkkG0,-lFSFNCmMNNa69552797kcvJ33;4::FIPVDAnZPYPc:o;4",
"RYb944,:<g044588:&5NGHGFCfmCCxx54245;:O+>Jb9kPPb7e!FDDDDURRn7+:7",
"Uc>::>:,0i44&#,::2lFQ!GFCmlixxx5%xDYP/Fc-:gJPFPAD79PPPPPR/_Ut;;4",
"k3:9008i0::38779gnFAFFCMCr7r7:+#4iMFPRFFP:7nIVMVDt2zDDPYY)_Uk2%;",
"3;0kzvvi;:kPVbnPVPFMVnVV7nvet051&1NFyMSGHm-MKFCNA922kDPYY)_Ubt2%",
">:0nMnk4#0YRUZVDDYY2>a::J7;;=&&420NNMCMAFF&:zlgMxa2;909YTY_EZz7%",
"9<0znVk:=vR/TPPPYD2Y_Yce><vRDPM&6xMxpmHH~Fa#:5-,6xg:#:;;vY___Ut2",
"n0gMCh:#7ZW_YUPFD3DDMnD74!FTDFs4o#3k4rmNISFk4;4,#4vlrrg,#vY___Pv",
"79nFk7:4tZWWTFFn7:gAMVV;SFSMySu:plYPPP;,:4CRPKbPP;&vnnvg:7Y!)_TD",
"0MPzg:=9PW_RYD33;7a6,i:4FQFMfClai::7rTcwYn:DVnAR'VX0VMxr:7TY!__Y",
"DI!v:+rP__WRt;044a;:::9AFFMCQCxi%VvK<>nPnAP3FPU!_P&:vCVg9PGYYW!Y",
"FYv2#:nR)EYV:gVvb+cYbPTFkxAr7v4X6xCPFa8!FAx:4vFY_b9;7lFV74GGYYYY",
"Ac924nY__!YV:rvv::_RDVPP:9:cTPFM0MsNHF#lvMMa;-:JW`U&+kvTAt;FAGYY",
"b032zYYYYTGI4kVi:9WYDD_7FVKKPnzAmMHMCGl:&$0Dzlk#RE'Y&;n!YP92GGYH",
"kt74AY)YAFG:vDz+:W_RYn:&VF^I4ee&P(PIAxGTbT44Fnk:PY_)v;9zDAt+xEEG",
"kt>qPYGYGY&ZYT4=T`YD:<<VNIF8CPNa$n3ccP_PDWn;DFC:AUEY!x;9vc9=bYAA",
"tb29FFFGEA:zD7;D!EPY:zFsV:#5GNCsGDIvn>iDYRW23D!Y:xN!E!2tnt>7PYPF",
"e93tTGFADC:et7a)!AFF:II/:YP!xTYYdD^QF84zFD_Y#kPPn:EYGY29Z9:rn!~Y",
"te2tMNI!_Te;k3zFYEx7!!Dk7WYlDYY~;:FFIlM,P!F!Y;Dv9:AxG_t9vt3;r!!Q",
"kt3cNAFQ!b;;t3TGMDg9n!n&_PA/`:3nmG;xF(P0cFGYG2Pv;v_(Cl47ck:+4zQC",
"be:0aMCGn8&8t;aN!`K#DTkA!GFx:MQM/DPkS(DF4QAVGezY;;VFANk9xTn73zkC",
"k978ilMCv9vTt:kMAY4<T!3AVF^kCYFYI!F!#~YY;m~QM2tDn:cMlp97kDPk4glN",
"bn3:0lCHx2nYb;5v!G:PY!7a~F~:R!~TF!!G:!Y!ki!!l:kRTk4Ix0:tvYTb3gvC",
"Pvk:40vCk>bTVk:4NC:LPYn;MFD:QTCMTAI08PYPchFN,:RPTr4M542vYPPv>rkM",
"Pkc0$:pMi-0VVl:#ih;lDDD4-7V:GIQQFQ!-M^/H<8i:#8CVC:,x&&czFVMr>8gm",
"DFk9O45i7#8CVM#####7Q!!ghgKFlVCI!LlvVFFF<87<4uFDl:+$%2kCPVVg=5ii",
"CPkk7O$:==;kVAr,>vo0CFCg-Q]Q:-C^MVk;Q(!Y=l,lrnIF7:o:&2ivPCv5;&,,",
"VVkg.,,:#=,5FCkgkFo7M!Yi,VmVFT8-<-LFCF/RgC<gggIAi-7:7ilFFvr,==##",
"VFFg<8orr#<gCI-gk7r:T^!T</zmCCCGV!!mBPu#/C^#8!!M8og0wlBQFm8,=##-",
"MFGlci:rr:#uaC^z8$h:RRIC,7gTQBBC/CN^l<c:MVM-iIIn8oKvV,LIIl8,#::#",
"VF!vrggVI<#gFQ!r<HQg>I((I59:gPLv^QC<:ViaMIkkiI^T::gggvvFNmu:#g<=",
"mFvv vvvLo#5kIM8-iSg#&uMBhm:lrKK,-<>MCM0n^D2lT//:5$0l!^IMl5o:g87",
"MCFkllhgh-<-P/K:V8vC:eIl-L^L8hBvlCBBF!/Pki:k(/Ce8LB77!~INv9;<vVg",
"lVFQIlkg#<<>T/Ig>lVVg2o::imNNQCCI/BVFvkr>>4T!Vg#gB5>0vQFxi:o-hvc",
"mCI!/V0,uCg:cTRKr0(QV9gMg:-BCQV(vVKVR3=>4,kv5*#:kg8l-v!!Yc:-:8ll",
"zVIIQ<r,mQl0:8VFk;ikkb//~I:0r-8iQT^P7M-Bn7&VTkw;l40c7c//Tj5-:<BV",
"lVGYl08,8VCg:7CvV7:r>3DIIQli<gg-<::::=lVl7;;<:49MCa>kI^/Rr<<,-jl",
"MT^!lg-78kVg:X,*5r&@39e24VII^'TvlMVCFBM5,#88;:cV~`4gV/RRn77lB8,8",
"vY/^nw-g8rMg=g7MTT:o27;:>TPVCVMz(CKTCVh#8vT(ntlal4:v(!Tne3wBHh<5",
"cR/RcwggliMk:;;9V4;=r8i=v8p^^/TThv7-gV<,^TIPbqeKk&7PKnl,::chVi,7",
"tTR^^ng70CGFbk3#O&>:&5lir#:>ercg:>qq><wcIMPP7-;=o7zLMll::8gMh8,,",
"evTT/KK74A!IFx77ecz0::$4,wk85w<,*gP'TKLKs$#;cbq;:0vli54;-5gl088:",
"39kCI!n940xlzltzn^!Dk8+4BVVFKMV/zVCKVVIVT:=>:>-=,gVCVr44;8gk0rg7",
"::5iMVTv::eVnjcJYRY~QI7$nFj<:VvhLIT(^'likx;85w8;-:kVKr4:;0ilgag9",
":::0lvCg8:>tr749xPPIQIi5>>-==>igCRJTn9g#$r<vg0w::::<<>:99zkMla0g",
":;:0gilmg7:@>>37cvvzVLKvwwjJKje;>:;:<97,-<ggpi,-4>:;#:7kvv!Gx84r",
":;&:55iln0:@=>qt04&:imLIII^//Kv00iggihVvhau5:;:<kkg9747VVPFFk4,r",
":><78kVVVl:;=;79>>=;knDDCCPLFDVMPCMVKIICCMg&#7rnv/Ykbtkvllli4::8",
"7;-<7cPVv7:=+:::w<>7bPVPTIIUPKVVTTLMvzvvVv8#,vM!Y!/PZckcBVk,&#5i",
"g977<89r7:;-;<g75w;ek88hPT^/TTILlllw:>5wgr-:lQQQYIPZteqejvq:##:8",
"0r9<>:=;-::::-70gc847$#<9ecJnVPv87><>>-:<><8lPPVVDnz73;37>:::575",
"8ig8>:=;3qe8,:485u0;-:-<>>:<:><<;<qrvJcw8wckDNxirkkt933;=@=4gzl0",
"7hMgqq79rvnbe4:&,,5hwlllll88w898<gkvT/TIPTLLMx02::79ee32@o=qzVjw",
":rccrq73tnKbcg8,#&:0ghgIljkkgkkkigDPIILPFVDVVn9:;:23993@oo=<rg8<",
"><qqq;:29znVVkr0-#,lVVVVMnVVCCTQKMVVCLPIIPPPDPc7::23;2@@@@=::::>"
};
