/* XPM */
static char *result[] = {
/* columns rows colors chars-per-pixel */
"64 64 56 1 ",
"  c gray18",
". c #353535",
"X c #3C3C3C",
"o c #444444",
"O c #4C4C4C",
"+ c #535353",
"@ c #595957",
"# c #5B5B5B",
"$ c #636363",
"% c #676969",
"& c #6C6C6C",
"* c #706F6F",
"= c #6F6F70",
"- c #6F7171",
"; c #747474",
": c #787777",
"> c #7B7B7B",
", c #7F807F",
"< c #7F7F80",
"1 c #807F80",
"2 c #848484",
"3 c #8B8B8B",
"4 c #908F8F",
"5 c #8F908F",
"6 c #8E8E90",
"7 c #949494",
"8 c #979897",
"9 c #989897",
"0 c #9B9B9B",
"q c #A0A09E",
"w c #9F9FA1",
"e c #A4A4A4",
"r c #A7A8A7",
"t c #A8A8A7",
"y c #ACACAC",
"u c #AFAFB0",
"i c #B0AFB0",
"p c #B3B3B3",
"a c #B8B7B7",
"s c #B7B7B8",
"d c #BBBBBB",
"f c #BFC0BF",
"g c #BFBFC0",
"h c #C3C3C3",
"j c #C7C8C7",
"k c #CCCCCC",
"l c #CFD0D0",
"z c #D4D4D4",
"x c #D8D8D7",
"c c #DBDBDB",
"v c #DFE0E0",
"b c #E5E5E5",
"n c #E8E7E7",
"m c #EBEBEB",
"M c #F3F3F3",
"N c #FAFAFA",
/* pixels */
"yzysysssy93ee0>$#2X&it&$$&;#zx>jy0+8qgg&#OO:X7r$%2328e$te;1:%oo#",
"y>;3708093&pzcxs333k9##:;232xmjss2+2yzxkdp<;%7:$<36>2q;;43#.o+2j",
"26ete0663,osNNxjgkdg1$*22333sse4y>#>223e0r09ts24943;>9<O168<$=ap",
"07tt78>83<opN93,2e1ye*,33322py3+93%8>3302:<0zy9083<;$;%+tsp3+0Mt",
"336e7>;972odx33;;3>2ag>&>237ty3+7e22;>3e0>&ix97732;++O+8kj0:2nn0",
"2>&:635ur2Oxx>:&%2044k0#%%4ysa9$,es9>>298>$bi9432:#+o;szp>17+bce",
":&;:uuryr3+xx3<>&3ty&ti:2ease0t2$8hpt720326x83322#oo7bme37eeXxze",
"8$$:390yr1+zj31;$>ww3=p97yye4:72+hbzzkps73p06>2:$ Oezk36w0e7Oall",
"laq;+#266>@zj3>&%>794@ewjle32$>2+cy939eg4;0;$+OooO>h033443w6@icx",
"hyhkg8;+##$jj2>;;27e9Ow9yxs>;%;2Okew79ee;;2>:>;:%:0je;23:>27Oyhk",
";=4djkks6&2sp2337wrr1Oe9ej00>+;;+j983703+=2whls0>2gxzd322337Xij0",
"#$%;>3dyw78pe>39wyt0%#i93433p7##%k83334>X$7lxlw>;2thlkzd2<>$#da$",
"O#%*>>7<>>8e::690tte&>ky427;ppt00z32322.+>yge0237eld09izls=O3e9+",
"&%$$&=33>$wpiy337703>3lk444292rslj3*%*.+3ite8339eekgge2dga>28y3-",
"::;$=<0e2+thxhyw280224fk7743e03<igy1Oo#4peyg723qt9sha3$0ayr96a;=",
"113338903&sbMct72;2;32yk0e9367e9;33>>;4y79pss77e009s9&;7h8470a:=",
">28934397=kvdgxp7>;$370j806<:3092#;>18ple29agp79898e2#39l8:wja>$",
">33722277=jxtttedgxxzp0l973:28w9;o2wigcxd39sgds7348<&;ysq8e:hhp;",
"30082;9we>da37wwe0dsje3y93>;3yy0;$jkd<qhjy0wpyddt32&+20d2>s730r9",
"22372<ee0:77603;13w937324>;<0ps9.3zNe374dkp89esadw;+=9tk>3tt31lx",
"t31689ee7=>2tt:;>28:#24=087wyee$#dzs09we4kj734tt62$389uw37wpe>ev",
"l>$@#&#@@@-ih9;$$:2&o73>20we973Xwcz7979p87ky2238;#8dayw0478sjp1r",
"xg83ue6>1plcc2%##;4:Op>;;3y+oXo2nc43314t0=wyi2;;+2paa609780paw7&",
"Mnhhlkkkcmclj=O+%6e2Ot$$#+O+9pdzbe331=<832&8st##4uds27pe89w27;O=",
"b827tshjls70hw>6eyt2+0e0shkxxhpdh333:&*2222;ep730dz822sy008+@=eM",
"7933wphgt93>ezwygp3;+7cbnza3><2py233>%>06223&se07d7983ia43$+ucNj",
"32:6edy8927e<cdwre#o$ana421:;<Oee2;>>>8t9723#hspelt222ew<>$&kba4",
"&;:27333723i99d:>+&tiky900042;o>0e$;128q92>:%hk3:ygh9;%2;1&%jby;",
"&$=2:;23223ae&epatnjuzi6363387$$9t&&>13372:Owxt>9i90dpw0>:;;hcht",
"ye22%#&<333y8+9kmMg2%dx9332<332+hy>$;>2371#>kh&2ewey22wgky7<9tpp",
"pr73#o+>32382otxj721%qmk222>223Okh2++#*22>otz3%9e998;#ehjd7>388e",
"r0:7>$&;;;<3o&g8:3773$0j8:222>3$she3*&#OoO&ie+;33>>Oo1p7=##=ut17",
"i9+7qdh&#OO:X7e$%2327e$tw:1:$oo$yzusysssu94ew9:$#2X=ie&$#*&#zx>j",
"s2+3yzzkgu<;%8:$136>2w;;73#.o+2jt>;3409083;pzvxd333k8$#>:232xmjs",
"i>@>22700e09rp24973;>81O169<$=pp33eye0373<opNNxjdkdg>$=22743sse3",
"93%8>3402:<0lu09831;$:&+rsp3+0Mr07tt77>83>opN93<2e>ye*233222py3+",
"3e32=>6ww>&px88732;++o@7kj0;2nn0327e7>:871ogx32;;3>2ag>%>238yy3+",
"2es9>>208>$vp9432;#+o:pzp>17+bce2<&;335ur2Oxx>>&%2973k0#%%3yss9$",
"$9dsy72w326x83222#oo7nmw37eeoxze:&;;uyrtr3+xx2<>&3ty%tp:2esat0e2",
"+hbzlkpp73p03>2;$ Oexk360we7oall8$$:68wyr2+zk32;$>we3*p97yye3;73",
"+cy939eg3;0;$+OOoO>h03357393#ixxzaw=+#373>#zk3>&%>703#r0jke32$>2",
"+ke099ee;;3>:>;;&:wjw:23>>37Oyhkhyhkd7;O##$jj2>&;27e9O08yxd>=%:1",
"+j973703+;20hzse>2gxzg322337oij0;=7sjkka4=<ap2367wte2Oe9eh002+*;",
"$l83233>X$7kxk0>;2tgkklg2>>$@ds$#$&;>3dyw48pe>30qyyw%#i93733p7#@",
"wk33322.+>yhe0237ekh08izls*O3e9OO#%;>:72>>8e:;390tyw&>ky727;iitq",
"lj3=%*.+3ite7339eekdge2sga>28u3;&%$#&*33>$0ppy337703>3zk733292ts",
"pdt1+o#4pwyg733qe9sja4%0str93a;=>;;$=>0e2+yhxdu0290323dk7473e03>",
";36:>;4y89pss47e090s9%;7h8680a:=123367003&dnMct81=2*32ykqe0278e9",
"2#;>>8pke28pgp79887e2@30l7:qja>$>38064307=kvdgzp71=$370k896<:399",
";o2eigccg38agda7378>&;isw9e;hhp;>2372<247;hxtryeggxxzp0k973>2800",
"=$jkd10jjywqpydgy32&O20d2<a720t930982;9we>ds37w0e0daje3y93::3yu0",
".3zNe374dkp89epasq;+=9yk>3tt32lx223722we9:77403;>3w938326>:1wys0",
"#dzs09we4kj734ty72$380iw37wie:evy31689ew8=:2tr:;>28:#24=977wyee$",
"eck8989p87ji1267:#8sayw0778djs2rl>###&$@@@-ph0;$$:2%o73>30ee973X",
"bc733>7e9=eyy3;;+2psa609789psw4&xd93ir6:1ilcc2%##;3>oa>;=3i+o.O2",
"be331;>832&7ae$#3ids27pe99w27;+&Mnjhljkkcmvlj=O+&4e2+t$$#+O+9pdl",
"h332>&=2222;wp839dz722py098#+=wMb827ydgjzs40he>3eyt2+9e0shkxxgpd",
"y233>%>03326&se07d8974pp43$+pcNj7933wphgy03>ezwugi3;+8cbnzs3>22p",
"t2;1>>8t8423#hsprlt212rw1>#&kbs732:6rsy9927e>cdwee$o$ans722;><Oe",
"0q%=>37e73::%hj3:thj0=%2;2;$jby;&;:27333323i99d:>+%epkt999971;o>",
"9t&&:13672:+qxt>9p90spww>:;;hxhr=#&2:;22223ae&tistnjyzs3333378$$",
"gy:%::<37<#:kg&2ew0y21edky7>0eppuw32$$&1336y7+0kmNg2&dx8332>242+",
"kh3O@#=21>otl3&9e997:#ejkd7>388epr73#o@:32672otxj722%0mk222>222+",
"ahe3=&#OoO&ie@;33>>Oo2i8&##=ur<8r0:7>$&;;;13o&d8;3483$0k9>223>2$"
};
