/* XPM */
static char *result[] = {
/* columns rows colors chars-per-pixel */
"64 64 210 2 ",
"   c #0182FF",
".  c #0A86FF",
"X  c #048BFF",
"o  c #0A8CFF",
"O  c #138CFF",
"+  c #1A8FFF",
"@  c #0693FF",
"#  c #0C93FF",
"$  c #0B9AFF",
"%  c #1394FF",
"&  c #1B93FF",
"*  c #129BFF",
"=  c #1B9CFF",
"-  c #2294FF",
";  c #2995FF",
":  c #239CFF",
">  c #2C9CFF",
",  c #329CFF",
"<  c #0DA3FF",
"1  c #0EACFF",
"2  c #16A2FF",
"3  c #1AA5FF",
"4  c #13ACFF",
"5  c #1BABFF",
"6  c #15B1FF",
"7  c #1DB3FF",
"8  c #14BCFF",
"9  c #1CBDFF",
"0  c #24A4FF",
"q  c #2BA4FF",
"w  c #26A9FF",
"e  c #2AADFF",
"r  c #34A4FF",
"t  c #3BA5FF",
"y  c #35ACFF",
"u  c #3BABFF",
"i  c #22B5FF",
"p  c #2DB1FF",
"a  c #25BBFF",
"s  c #29BEFF",
"d  c #33B4FF",
"f  c #3CB3FF",
"g  c #34BAFF",
"h  c #3ABDFF",
"j  c #43A4FF",
"k  c #4AA7FF",
"l  c #44AAFF",
"z  c #4CACFF",
"x  c #52ADFF",
"c  c #42B5FF",
"v  c #4DB4FF",
"b  c #45BBFF",
"n  c #4ABEFF",
"m  c #51B3FF",
"M  c #5CB5FF",
"N  c #51B9FF",
"B  c #5BBDFF",
"V  c #66B6FF",
"C  c #64BBFF",
"Z  c #6CBCFF",
"A  c #79BFFF",
"S  c #1EC4FF",
"D  c #16C8FF",
"F  c #1BD2FF",
"G  c #1DDEFF",
"H  c #21C4FF",
"J  c #2BC5FF",
"K  c #25CBFF",
"L  c #2CCBFF",
"P  c #32C5FF",
"I  c #3DC2FF",
"U  c #31CCFF",
"Y  c #3ACDFF",
"T  c #2AD3FF",
"R  c #35D3FF",
"E  c #3BD4FF",
"W  c #36D9FF",
"Q  c #3BDBFF",
"!  c #1EE1FF",
"~  c #21EBFF",
"^  c #35E1FF",
"/  c #3EE3FF",
"(  c #3EECFF",
")  c #24F4FF",
"_  c #26FCFF",
"`  c #28FFFF",
"'  c #43C6FF",
"]  c #4DC1FF",
"[  c #44CAFF",
"{  c #4ACDFF",
"}  c #54C5FF",
"|  c #5DC1FF",
" . c #55CAFF",
".. c #5BCCFF",
"X. c #42D5FF",
"o. c #4CD2FF",
"O. c #4BDDFF",
"+. c #52D4FF",
"@. c #5ED0FF",
"#. c #54DBFF",
"$. c #5CDDFF",
"%. c #63C5FF",
"&. c #6CC2FF",
"*. c #66CBFF",
"=. c #6BCBFF",
"-. c #73C5FF",
";. c #7CC3FF",
":. c #73CFFF",
">. c #7ACAFF",
",. c #62D2FF",
"<. c #6BD3FF",
"1. c #63DCFF",
"2. c #6CDBFF",
"3. c #74D1FF",
"4. c #7CD3FF",
"5. c #72DEFF",
"6. c #7ED8FF",
"7. c #44E4FF",
"8. c #4BE5FF",
"9. c #44EAFF",
"0. c #4CEBFF",
"q. c #56E2FF",
"w. c #5CE3FF",
"e. c #51EDFF",
"r. c #5EEAFF",
"t. c #46F3FF",
"y. c #4AF6FF",
"u. c #4EFDFF",
"i. c #53F2FF",
"p. c #5BF4FF",
"a. c #55F9FF",
"s. c #5CF9FF",
"d. c #61E3FF",
"f. c #69E6FF",
"g. c #64ECFF",
"h. c #6BECFF",
"j. c #73E1FF",
"k. c #7BE5FF",
"l. c #72EDFF",
"z. c #7CEAFF",
"x. c #64F3FF",
"c. c #6BF4FF",
"v. c #63FCFF",
"b. c #6DFCFF",
"n. c #73F5FF",
"m. c #74FCFF",
"M. c #7BFDFF",
"N. c #8AC5FF",
"B. c #84CBFF",
"V. c #8CCDFF",
"C. c #94CBFF",
"Z. c #99CFFF",
"A. c #84D1FF",
"S. c #8DD6FF",
"D. c #83DBFF",
"F. c #8BDCFF",
"G. c #91D2FF",
"H. c #9BD2FF",
"J. c #95DBFF",
"K. c #9BDDFF",
"L. c #A5D8FF",
"P. c #ABDAFF",
"I. c #B5DEFF",
"U. c #84E7FF",
"Y. c #8CE3FF",
"T. c #82EDFF",
"R. c #92E5FF",
"E. c #9EE1FF",
"W. c #95EAFF",
"Q. c #9BECFF",
"!. c #86F2FF",
"~. c #8BF5FF",
"^. c #83FCFF",
"/. c #8DFCFF",
"(. c #93F5FF",
"). c #9BF4FF",
"_. c #94FCFF",
"`. c #9BFDFF",
"'. c #A5E3FF",
"]. c #A3ECFF",
"[. c #ACEAFF",
"{. c #B4E4FF",
"}. c #BAE6FF",
"|. c #B3ECFF",
" X c #BEEAFF",
".X c #A3F3FF",
"XX c #A9F6FF",
"oX c #A3FDFF",
"OX c #ADFAFF",
"+X c #B6F2FF",
"@X c #BCF3FF",
"#X c #B3FDFF",
"$X c #BBFEFF",
"%X c #C7E8FF",
"&X c #C3EDFF",
"*X c #D5EDFF",
"=X c #D9EDFF",
"-X c #C1F5FF",
";X c #CCF2FF",
":X c #C5FAFF",
">X c #CCFDFF",
",X c #D3F5FF",
"<X c #DCF3FF",
"1X c #D1FDFF",
"2X c #DBFAFF",
"3X c #E5F3FF",
"4X c #E3FDFF",
"5X c #EDFCFF",
"6X c #F2FCFF",
"7X c #FBFEFF",
/* pixels */
"p.s 7 p } 6.XX(._.c.O.5           2 +._.OX*.y e e *     X a #.(.#X@XP.E.Q.T.w.7     < 0.M.`.M.m.0.q.,.5..X:X:X#X_.{ 5 e ..Y.`.^.",
"K     * d n n $.g.M.b.R X # 2 6 F 7.b._.Q.y = # #   .   # [ T.`.#XE.z C E.W. .%     $ g._.M.0.L     o = c >.&X>X#X!.q.j.XXoX/.v.",
"P < 5 I n b w # i 8.M.m.9.n.q.9._ u.b._.(.[   o       # ' T.(.(.~.6.t O V.[.4.=   5 o.!.M.i.S     X 3 e q u &.&X>X#X_.OX>X$X(.h.",
"+.J I  .n g 5 X   < 7.M.m./.b.y.~ L { ~.#X2.e 4   X p #./.`.n.w.f.j.C - -.{.'.%.b #.z.XX(.x.5   X * e b : % > S.,X>X#X>X2X-XR.2.",
"} d > r y d i $     J b.oXM.e.9 X   # ..OXXX!.x.W #.!.`.`.l.X.2 s d.k.>.4.'.{.'.Y.T.XX:X].b % X # 3 c y % . o | [.,X>X,X%XH.B.*.",
"| f & & > q p %     4 i.^.a.8     @   % j.#X#X_.m._.#X`.^.X.$   4 e.M.`.).].|.&X+X.X:X>X.Xq o # % > e 3       ] Y.@X2X3X*XI.C.&.",
"C B z k l y f 3 X   i b.m.y.#   @ $ X 0 z.OXOX#X_.OX-X#XoXl.g H e.^.`._.^.`.].|.;X:X>X#X(.h . X # = 2       5 o.j.Q.>X2X5X3XG.Z ",
", > t V M z N y % o g (._.w.o   X     U b._._._.~.2.N >.#X`.M.s.M.~.g.g.e.l.U.>.E.[.Q.U.h.E X     5 <     5 #.z.6.K.2X6X7X6XC.j ",
"O   + j k j , & % w ,.OX_.c.5       < 7.M.m.c.w.I = = B :X#X_.d.*.I i 7 9 X.$.<.D.J.%.} d.0.4     @ o   # { k.Y.A.K.2X6X6X5X}.V ",
"k . O , - - ; & v T.#X_./.M.X.9 8 K 0.M.m.u.7 #   . w 2.XX@XB q 0 5 $     8 X.f.k.3.> O } h.0.T H i e J o.j.Y.S.H.{.>X4X,X:X2XK.",
"F.-     O . + B `._._._.m.M.m.u.` u.m.m.a.8   @   $ Q h.j.u r % = 5 @     # ' !.Y.x + O l U.M.v.s.n.T.g.z.6.V z -.-X#X>X@X:X:XXX",
"!.z.3.%.>.S.D.T.m.g.q.#.W 7.v.u.` u.m.g.I         S p.g.} . - : q w $     X p 2.3.r & . r F.`./.M.~.].T.Q.:.u &.J.OX`.OX).Q.].!.",
"w.M._._.OXOXoXM.9.2 o     @ O.u._ a.b.g .       X R c.{ %   & : : = # .     * { f .     - <.~.m.c.1.2.k.5.%.=.W.)./.b.!.*.q = e ",
"5 Q g.c./._.^.u.8           K u._ u.W X       @ J d.W #   % % = % % % o   . 3 $.{ %   # d $.w.L 2 P ' q w @.~.^.M.g.J g o       ",
"  X * P x.m.b.7.X   # @ @   6 u._ a.$     X 1 O.b.i.1   X # # $ # # 2 $     $ r.i.s X # i P i     ^ 8.p P c.b.x.0.i X .     o   ",
"X X   @ ^ u.u.T     X @ $   8 u.u.T       9 t.u.u.(     @   @ $ @ @ $ X     H u.u.t.T T L K K     u.u.u.y.u.u.W 9     $ @   $ < ",
"        F _ _ G             ! u._ 8 X $ $ G _ _ ` D   X X   @ @ X   X   X D _ _ ` ` ` ` ` ` _ _ ` G ` ` ) ) _ F $     X @ X @ $ ",
"# $ @   L u.a./ X     X   4 b.u.) U R / ( u.u.u.t.5 @ 2   @ # #       X L y.u.u.t.9.u.u.y.u.u.u.y.2 L t.( / 9.a           X X < ",
"% o # . p c.m.x.=   o % s 0.m.u.` u.m.m.m.m.m.m.m.s X % X   X   X   X Q c.c.q.o.' e g w.g.#.g.m.c.0 * { #.c.8.4     X .     X # ",
"% . o o q T._.!.y o : @.c._.b.u.` u.m.b.a.0.y.M.b.W               8 9.m./.2.% : q % . ] j...f._.r.* X 5 [ h.7.<   X   X @   # = ",
"O   o & | OX#X#X).W.U.#X`._.m.u._ u.a.L 4 $ 4 7.M.s.K 7 = o # H X.i.m.~.%.> . r | y   v 3.v ,.m.L     X 3 +.w.4       X # X X O ",
"& O & - &.>X>X>X#X_._.`.`./.m.u._ u.F         $ 0.M.s.x.z.w.9.s.m.M./.6..   - &.A.C & m -.v Y._.I       o b d.P $     X o o . o ",
". - > - Z 2X>X$XOXb.r.+.5.!.b.u._ W $   @ X X   o._./._.OX_.m.^.(.~.XXA.+ z ;.V.B.V.>.B.P.{.:X#X2.o   X   d 5.$.E 4   X o   o   ",
"o q r + B.>X$X_.2.s 2   % 1.b.9.8 * X X     o o ..#XoX#X/.j.k.T.XXXX|.Z j H.L.V x '.:X#X>X2X>X#XT.=   X . p <.j.w.J         X   ",
"0 v l , K.$X`.w.0     < P n.i.8 X $ * @       # <.#X#X_.w.w e } .X:X;XV.A P.P.Z ;.OX#X`.#X>X#X`.M.X.#     5 o.2.w.Y $       # = ",
"v M x M Q.(.w.w # .   J g.m.E # @ 2 % * X . X : F.OX~.o.5 X * d !.#X>X2X<X<X<X-X#X`._.m.!.W..X_.M.v.K     7 { ,.2.$.Y 4 # # = d ",
"C Z >..XT.' $ .   X J g._.m.J   @ * % $     # 5.#X~.I $       $ g._.$X1X2X2X>X#X_.n.+.R [ q n { g.m.s.K 5 I } =.4.5.1.E { g c r ",
" X*X;X@X:.o . 5 K / c._._.n.a @ $ # o     5 0.M._.j.o     @ # % 5.#X>X2X}.|.$X(.g.s # @ # % . * 5 U c.v.c.j.=.v v F.(.M./.~.R.K.",
"6X6X<XL.r & =  .s.m._.#X_.d.*   X X     X W m._./.{   # o o . . D.$X>X XS.Q.`.m.Q #       #       X 7.m._.OXK.C.K.:X#X`.#X#X1X4X",
"6X6X*XZ.Z K.Y.(.M.^.`.#X_.c.4     X 3 H / m._._.n.i   * .     O ].#XOX[.{.|.OX(.#.#   @ X % o #   X g T.#X:X2X>X-XOX/.!.!.XX>X4X",
"4X5X*X%X{.@XXX~.g.g.m.`.oX/.8.T F / x.s.m._.U.m.e.2   X   . o m ).(.!.W.[.&X:X#X!.p # * * = # o X X : Y.>X2X,XXXY.2.{ I ' ,.W.:X",
">X,X%X&X|..X!.#.i i E M.#X_.m.a.` u.m.M.`.#XQ.(.c.5     o q %.(.M.x.w.j.R.@X1X#X_.j.w # X # # .   . c XX>X@XD...b h 5 2 2 p 5.XX",
"#X@XP.E.Q.!.w.5     4 y.M./.b.u.~ / o.2..X-X:X#X(.o.5 e ..Y.).^.r.J i p } 6..X_._.c.O.4         X * #._.OX=.y e p * X   X i #.(.",
"#XK.z C K.W. .%     # r.XXM.e.K X   o : c >.&X>X#X!.q.j.OXoX/.v.K     * g b n $.h.m.m.R X # 2 6 U g.(.#X].u & # #       # ' T.`.",
"~.D.t O B.[.4.=   5 o.!.M.i.S     X 3 e q u &.-X>X#X_.OX>X$X(.h.P < 5 I n b w # i 8.M.m.7.g.w.i.m._.OX#X_.'   @       # ' T.(./.",
"h.5.B - >.}.'.*.b +.z.OX(.g.5   X $ e c : % > S.,X:X#X>X2X@XR.2.{ P I  .n h 3 X   < 7.M.m._.M.s.9.' @.OX#X2.w 5     p #.(.`.l.r.",
"a d.U.>.>.'.}.'.Y.T.XXOX!.h # X @ 2 p p % . o | [.,X>X,X%XH.B.=.} d q r u p a @     J m._.m.7.a X   # ..OXXX!.g.Q w.!._._.n.X.3 ",
"4 e.M.`.(.].{.&X+X.X:X#X!.= # # @ 2 p =       ] Y.@X2X2X*XI.V.&.B f & & > q p *     4 i.^.a.8     @   % j.#X#X_.m._.#X`.^.X.$   ",
"e.^.`.(.^.`.].|.;X:X>X#X!.h   X @ 2 2       2 o.j.W.>X4X6X3XZ.Z C B z x l y c 3 X   i c.m.y.$   @ $   e z.OXOX#X_.OX-X+X`.l.s H ",
"n.~.g.x.i.l.U.>.'.[.Q.T.g.R X     2 <     7 #.z.6.K.2X6X7X6XC.j , > , V M z v y # o h /._.w.#   X     L b._._._.!.2.N >.#XoX^.s.",
",.h i 7 9 X.1.<.D.J.%. .d.e.4     @ #   # [ k.Y.A.H.2X6X7X5X}.V O   + j k j , - O w ,.OX_.~.w       < 8.M.m.c.w.I 3 & B -X#X_.g.",
"0 w $     8 X.d.k.3.> . } l.e.T D 7 w J o.j.Y.S.J.{.4X4X<X<X2XL.z . O , + ; - & N T.#X#X_._.2.g s K 0.M.m.y.7 #   . e 2.XX@XB q ",
"= 5 #     # ' T.Y.m + O u j.b.u._ y.c.g.T.6.M z ;.,X>X>X;X2X:X#XF.-     O . & B `._._._.m.m.`./.m.v.M.m.a.8   X   $ W h.j.u r % ",
"w w $     X p 5.:.t + O q 1.b.u.` t.g.z.W.-.k -.E.:X#X#X@X|.Q.~.!.z.:.C B.J.D.!.m.g.q.#.Q / m.`.`.^._.g.I X       S p.g.} . > - ",
": = #       * { f o     :  .x.u.) Q o.5.6.-.V.[.OXOX~.!.3.t = q w.m._._.#X$X`.m.9.2 X     @ / M.`.`.b.g X       X R c.o.%   - - ",
"& % = o   X 3 2.=.-   + c $.8.K < J I y u A.-XOX/.z.[ g o       4 / g.c._.`.m.a.8           K v.^.m.R .       # J w.R #   % & : ",
"% % 3 %     % T..XC O & f I 7     ^ 8.h } #X#X~.g.p X     . o X   X * J n.`.m.9.@   o @ X   4 s.M.u.<     X 4 W m.y.1   X # % = ",
"% % * X     J m._.).4.<.@.Y K     u.m./..X#X_.w.s     $ o   % 2 X .   @ 7.m.b.T     X # $ X i m.m.R       9 i.M.m.9.    @   % & ",
"o . X   @ J b._.#X>X1X:XoX/.b.u.` W b._.XX~.m.L <     X $ o # =         T v.m.Q             ^ b.b.g X $ $ 7.M.^.s.F   X # X % % ",
"        P c.(.#X@X,X:X$XoX!.b.u._ 2 [ !.Y.k.x.i             o 3 % * X   R m._.w.o     X   4 a.M.~.,.{ 7.9.m.`.`.n.5 # *   X # # ",
"    X Q m.!.F.V.B.k M R.Y.1.r.u.) 5 * { 2.n.8.4     X X     . $ % # # X e !.#X!.=   o % J 0.^.oX$XOX(.M.M.M.^._.m.J   $     X X ",
"X 9 9.m.~.D.+ , z - O &.k.{ 8.u.! * X 5 ' c.8.<   X   X @   # % O . o o q Q.>X.Xy o > ,.c.M.`.#X#X`.M.m.a.0.i.M.b.W             ",
"/ i.m.~.=.r O k ;.z . m <.d X.a.D     X 5 +.w.3       X #   o O O   o & | :X4X>XQ.W.W.#X`.oX$XOX_.M.a.L 4 $ 4 7.M.s.K 7 = X $ S ",
"m.M.(.4.    ; A H.Z & v %.d e.u.D       X b d.P $     X # o o o & O & : -.4X4X>X#X`._._.#X$X#X`.M.a.F         $ 9.M.v.x.k.w.8.s.",
"~.~.XXA.+ x N.C.C.V.>.>.U.j.c.u.G o   X   f 5.$.E 4   X X . X   . & > - Z 2X,X$X#Xc.r.+.2.XX#X`.m.W $   X X X . o._./._.#X_.m.^.",
"XXXX|.Z k H.P.V x '.OX+X`./.m.a.~ $   . X e 1.j.w.L             o q r + B.>X#X_.2.a 2 X # 2.#XQ.] = X   X   X o ..#XoX#X/.j.k.T.",
".X>X;XV.;.P.P.Z ;.#X#X`._.M.m.u.) R #     5 o.2.$.E $       # = q v l , K.#X`.1.0     < P h.!.v . = 2 X     . o <.#X#X_.w.e p } ",
"T.#X>X2X=X=X2X-X+X`._.m.~.g.i.u.` u.K     7 { ,.2.$.Y 4 # # 3 y c M x M Q.(.w.i @ . X J g._.4.- & q % * X   X : Y.OX~.o.5 X * p ",
"g._.#X1X4X<X>X#X_.n.+.R [ 0 s K ) u.v.K 5 I } =.4.5.$.Q [ g f r C Z >..XT.[ % X   X J h._.#X&.o - = # *     # j.OX/.I #     X $ ",
"j.#X>X2X}.|.$X_.g.s # @ # # X $ < U x.v.c.j.=.v v F.(.M.(.~.W.K.&X*X;X@X:.o . 3 K / g._.#X:XM O & % o     6 8.M._.j.o     X # % ",
"D.:X>X XS.Q.`.m.Q #       X       X / m.`.OXK.G.K.>X#X`.#X#X1X4X6X6X<XK.t + & +.s.m._.#X>X[.>   % o     X W M._.(.{   O o X .   ",
"].#XOX[.{.[.OX(.#.#   X o = X @   . g !.#X:X2X;X-XOX~.T.!.XX>X4X6X6X=XZ.Z K.R.(.^.M.`.#X:X;Xj     . 3 S Q m._._.n.i   $ .     O ",
"(._.!.R.[.;X:X#X!.p # $ * = # @ X X = j.oX>X>XXXY.2.{ ' [ ,.R.:X4X5X=X%X}.@XXX!.g.g.n.`.$X1XW.3.,.j.n.s.m.`.k.M.i.<   X     . N ",
"M.g.w.j.R.@X>X#X_.j.e # X # #       g ~.#X@XD...b g 5 2 * d 5.XX>X,X%X&X+X.XT.#.a i X.M.`.$XoX_.m._._.M.`.#XQ._.c.5   X O q =.(."
};
