/* XPM */
static char *result[] = {
/* columns rows colors chars-per-pixel */
"64 64 150 2 ",
"   c gray28",
".  c #484848",
"X  c #4E4E4E",
"o  c gray39",
"O  c gray40",
"+  c #676767",
"@  c #686868",
"#  c #6A6A6A",
"$  c #6D6D6D",
"%  c gray44",
"&  c #727272",
"*  c gray45",
"=  c #747474",
"-  c #767676",
";  c gray47",
":  c #797979",
">  c gray48",
",  c #7B7B7B",
"<  c #7C7C7C",
"1  c gray49",
"2  c #7E7E7E",
"3  c gray50",
"4  c #808080",
"5  c #818181",
"6  c gray51",
"7  c #838383",
"8  c #848484",
"9  c gray52",
"0  c #868686",
"q  c gray53",
"w  c #888888",
"e  c #898989",
"r  c gray54",
"t  c #8B8B8B",
"y  c gray55",
"u  c #8D8D8D",
"i  c #8E8E8E",
"p  c gray56",
"a  c #909090",
"s  c gray57",
"d  c #929292",
"f  c #939393",
"g  c gray58",
"h  c #959595",
"j  c gray59",
"k  c #979797",
"l  c #989898",
"z  c gray60",
"x  c #9A9A9A",
"c  c #9B9B9B",
"v  c gray61",
"b  c #9D9D9D",
"n  c gray62",
"m  c #9F9F9F",
"M  c #A0A0A0",
"N  c gray63",
"B  c #A2A2A2",
"V  c gray64",
"C  c #A4A4A4",
"Z  c #A5A5A5",
"A  c gray65",
"S  c #A7A7A7",
"D  c gray66",
"F  c #A9A9A9",
"G  c #AAAAAA",
"H  c gray67",
"J  c #ACACAC",
"K  c gray68",
"L  c #AEAEAE",
"P  c #AFAFAF",
"I  c gray69",
"U  c #B1B1B1",
"Y  c #B2B2B2",
"T  c gray70",
"R  c #B4B4B4",
"E  c gray71",
"W  c #B6B6B6",
"Q  c #B7B7B7",
"!  c gray72",
"~  c #B9B9B9",
"^  c gray73",
"/  c #BBBBBB",
"(  c #BCBCBC",
")  c gray74",
"_  c gray",
"`  c gray75",
"'  c #C0C0C0",
"]  c #C1C1C1",
"[  c gray76",
"{  c #C3C3C3",
"}  c gray77",
"|  c #C5C5C5",
" . c #C6C6C6",
".. c gray78",
"X. c #C8C8C8",
"o. c gray79",
"O. c #CACACA",
"+. c #CBCBCB",
"@. c gray80",
"#. c #CDCDCD",
"$. c #CECECE",
"%. c gray81",
"&. c #D0D0D0",
"*. c gray82",
"=. c #D2D2D2",
"-. c LightGray",
";. c gray83",
":. c #D5D5D5",
">. c gray84",
",. c #D7D7D7",
"<. c #D8D8D8",
"1. c gray85",
"2. c #DADADA",
"3. c gray86",
"4. c gainsboro",
"5. c #DDDDDD",
"6. c gray87",
"7. c #DFDFDF",
"8. c gray88",
"9. c #E1E1E1",
"0. c #E2E2E2",
"q. c gray89",
"w. c #E4E4E4",
"e. c gray90",
"r. c #E6E6E6",
"t. c #E7E7E7",
"y. c gray91",
"u. c #E9E9E9",
"i. c #EAEAEA",
"p. c gray92",
"a. c #ECECEC",
"s. c gray93",
"d. c #EEEEEE",
"f. c #EFEFEF",
"g. c gray94",
"h. c #F1F1F1",
"j. c gray95",
"k. c #F3F3F3",
"l. c #F4F4F4",
"z. c gray96",
"x. c #F6F6F6",
"c. c gray97",
"v. c #F8F8F8",
"b. c #F9F9F9",
"n. c gray98",
"m. c #FBFBFB",
"M. c gray99",
"N. c #FDFDFD",
"B. c #FEFEFE",
"V. c white",
/* pixels */
"! T T B ! t.V.0.6.| K P k ] 5.[ A J y.1.} ;.| N $ - V.V.f.8.>.M m B.r.j.( +.! ( m 6 J } E % z 2.K 8 c a * g 2.V.t.%.K l D >.[ X.",
"G < < v.B.V.V.2.8.Z a U V _ j.{ d | 4.-.} 4.@.V u R j.z.;.=.+.U K v.;.X./ @.J N k v  .E x g N 1.K r ~ 4.V ^ B.B.f.s.[ 3.9.h.#.J ",
"S u x V.m.v.8.1.>.c z m L p.` c c I L ( %.7.@.S { t.e.e.&.1.g.$.h.r.$.) | @.+.f l V X.P V ) L c Y D I 3.$.N.N.r.>...| r.v.i.} | ",
"t c Y g.l.u.q.0.#.f m N f 2.| ` %.k T H ' R K t x +.! O.6.*.e.@.k.r.u.2.' W [ Y D ) #.,.t.3.J > ~ ^ D S d ] >.1...P N { ,.| ' Q ",
"j q ;.k.M.6.1.O.c 7 Z J V n.a.1.2.:.&.A U Y I L s ~ !  .%.X.8._ 5.O.+.<.[ H p , p ' ..+.+...D N Z 4.t.6.6.E n [ @.A L 5.,.K G *.",
"& o S Q &.R ~ L , 9 n n B 8.( ..Q ) ' ! Y ..+.3.' ) $.#.O.} >.o.m r L o.x i k 3 z O.X.X.&.'  .o.f.b.m.0.2.:.F n F   @ h Y C S C ",
"n ; k ~ ~ j 2 i i x :.K v H X.d.p.b.@.P #.3.*.) L U :.o.} ! V Y / k h +.A i ^ { *.w.2.2.5.[ R _ 8.r.p.=.[ ) F J I X . 0 5 +. .E ",
":.$.2.-.q.^ l m { O.<.t...[ } u.3.&.~ M E #.3.} ^ ..:.&.^ _ T Q [ ( ^ Q 2.R 4.,.} ,.#. .$.W R $.0.;.%.*.` S ! ) _ 3 P t.0.N.&.! ",
"u._ W 7.$.R _ 8.x.i.g.7.H U { 1.5.B d A ( ,.6.+._ #.) ] n B y.x.:.>.! o.+.R { | ( ! I  .X.k b @.t.+.' ` ^ b T 2.$.^ R n.N.B.1.o.",
"7.^ +.d.1.X.V b <.q.5.{ T O.$.o.5.C 7 g z |  ._ / } Q D u Z v.0.3.z.u.<. .J K D H H f ~ ^ S z ^ / P S B I g V U V ,.>.M.t.9.O.+.",
"2.| <.6.R G l d ,.5...| @.<./ ' 9.Y K ` S ` @.H ) ' *.K v o.n.8.2.t.q.E ' +.{ ] >.X.x P A [ X./ ~ D U U N g g ] m _ ` ' 4.2.&.1.",
"S N Q Q d p S ' 1.7.-.=.2.8. .o.<.L P  .I K ^ [ =.:.y.! P b.M.q.w.y.,.G Q } V #.k.e.I p c W T / J Y ;.=. .J Y j.)  .%.D q.&.{ T ",
"e E  .| D H *.:.o.3.` | 4...W -...G F ~ K D Q ,.<.8.a...^ } Z ..5.;./ C ] &.T &.4.] E x T T H s ~ $.e.4.,.~ 7.h.o.5.w.S E A z p ",
"P c.v.f.:.O.#.>.~ ! t C P n H X.K c Y  .%.=.M.h.a.5.>.] ( u : [  .p 3 C  .9.:.z.5.W _ K } l.U ! ;.h.f.9.=.} =.0.o.;.` c r O + 6 ",
";.g.0.<.X.G P %.' _ 8 L ( Y ] =.h 6 ;.0.2.1.u.*.o.%.| D h m x ~ :.c y M 1.<.8.g.! H ..T X.r.6.@.&.f.1. .! ,.6.*.` +.` U g # 1 ` ",
"V.g.=.=.O.T P [ e.+.E T 2.} Q V q i =.:.O.` { U T [ { S k F u.r.m.w.2.3./ [ X.7.A c G !  .3. .( E 0.2.;.E / @.#.+.-.( S d : O.V.",
"<.7.3.*.] B L ' -.H k } t.O.Y R L { ..O.] ^ P W Q P N n S | N.d.s.j.0.[ o.6.' / e ; h ` [ o.' H | <.1.:.C x P X.( +.J l ! T :.l.",
"^ [ _ ' [ D S [ ..N F Q 6.j.i.<.X.9.=.U =.) Y ! | W x r a %.z.e.,.-.Y z %.z.6.F H m / ] R E V M ' ;.{ [ l b &.| U / Z E g.z.d.;.",
"I R A J ! ` U %.-.Q C I >.t.:.:.#.( | ! [ ~ K Y } ] m D K J i.#./ 1.{ E %.] Y ! r.e.a.9.W I t d ] 9.] ' Y H -. .R T R _ ' E c b ",
"@.+.>...%.9.6.3.#.] Y { | r.o.( | | %.J a V N U Y ] r ..l.r.<.$.S V Y Y &.S n +.>.5.d.@.( ! M 6 O.O.Y { X.W I S ~ J :.p.U H +.] ",
"3.y.e.' Y 7.` ( _ / N E %.w.{ R } ! Q T 3 * A U 4.r...c.M.9.w.%.b y i d a i | 6.7.7.r.:.+.O.A / ' V h m u j ! } T F :.Y G Y 9.#.",
"=.2.:.` H _ Z y g 4 z z R +.P ~ { O.g r S x m Q ;.2.[ r.m.0.t.#.g 0 M ..R j G X.' &.9.=._ Y / ( 1 : g z k Q s.f.;.[ S x h { :.%.",
"[ | ..~ G ) &.U c 6 l { E } X.{ =.] L q G =.6.J P  .-.0.e.o.o.^ M h C a.y.I I %.7.&.I ( M z D +.V v H S e.B.V.s.8.&...>.@.5.@.:.",
"[ / | M e Z ] Y K Q >.$.^ ~ q.r.r.*.O.^ <.j.D z ] T @.=.<.+.| R G Y ) >.( &.,.x.j.%.*.G V ! :.6.! &.l.:.k.g.a.7.%.K F L k ~ U #.",
"| ] R c t h D } [ ) *.Q  .9.t.q.i.7.;.&.p.j.[ D T H ] :.*.&...E x / m.d. .u.>.x.4.+.;.J c A ! I Z N Y { l.4.*.-.@.! z n t C #.*.",
"D H m g V ^ o.i.,. .9.] ~ a.t.,.%.O.] ^ { :./ 5.I p W #.K S J d v } b.5.@.b.;.&.-.%.R r H R f | ^ { K $.9.| [ Q ~ Y c G R / t.I ",
"g C D V ~ | ,.p...I G r B f.%.*.{ o.) J @.7.` W d c O.&.` V J w G n.y.&.o.q.O.$.y.+.M x I A c M.b.s.D G _ R / F f 4 j Q 7.` 1.v ",
" ...[ ) G X.5.t.+.) ! b M %.I T n M ] T O.&.` J = > ) I [ } ~ h G B.u.A L / ^ @.9.*.U ! W G / y...1.Q p U @.@.K s 9 M j.,.#.8.[ ",
"m.1.2.=.Q r.<.,.3.#.` E &.P H h 0 V  .P L J u 7 4 y x P k w N P ( B.,.| C I ! =.+.} X.&.7.#.x.b.5.~ Z B ..;.P U I Q %.r.+._ ' >.",
"1.D H M N o.;.O.2.E b A ! E } #.} *.l.U N Y N 4 2 $.>.1.1.4.Y ! w.B.$._ K k ! 3.0.,.-.6./ H 9.k._ n A H a.l.m G [ $.( L ;. .+.<.",
"z 9 B I A u.,.;.t.#.E &.$.p.3.0.N.N.n.R 3.8.k _ } 3.X.8.i.B.r.$./ J h n s w _ W p.<.9.+.l m O.r.Y z { e.v.0.) [ n 4 n ! 2. .@.U ",
"0 K k.n.y.l.:.O./ H ' c.q.n L O.0.T S H T P u ;.n.M.A z { R k =.e.P 4 % , D i.e.4.C ) +.Q _ >.e.W L g.h.y.0.$.2.k 1 L V.z.y.s.z ",
"m B.r.j.( +.! ( m 6 J } E % z 2.K 8 c a * g 2.V.t.%.K l D >.[ X.! T T B ! t.V.0.6.| K P k ] 5.[ A J y.1.} ;.| N $ - V.V.f.8.>.M ",
"K v.;.X./ @.J N k v  .E x g N 1.K r ~ 4.V ^ B.B.f.s.[ 3.9.h.#.J G < < v.B.V.V.2.8.Z a U V _ j.{ d | 4.-.} 4.@.V u R j.z.;.=.+.U ",
"h.r.$.) | @.+.f l V X.P V ) L c Y D I 3.$.N.N.r.>...| r.v.i.} | S u x V.m.v.8.1.>.c z m L p.` c c I L ( %.7.@.S { t.e.e.&.1.g.$.",
"k.r.u.2.' W [ Y D ) #.,.t.3.J > ~ ^ D S d ] >.1...P N { ,.| ' Q t c Y g.l.u.q.0.#.f m N f 2.| ` %.k T H ' R K t x +.! O.6.*.e.@.",
"5.O.+.<.[ H p , p ' ..+.+...D N Z 4.t.6.6.E n [ @.A L 5.,.K G *.j q ;.k.M.6.1.O.c 7 Z J V n.a.1.2.:.&.A U Y I L s ~ !  .%.X.8._ ",
"m r L o.x i k 3 z O.X.X.&.'  .o.f.b.m.0.2.:.F n F   @ h Y C S C & o S Q &.R ~ L , 9 n n B 8.( ..Q ) ' ! Y ..+.3.' ) $.#.O.} >.o.",
"/ k h +.A i ^ { *.w.2.2.5.[ R _ 8.r.p.=.[ ) F J I X . 0 5 +. .E n ; k ~ ~ j 2 i i x :.K v H X.d.p.b.@.P #.3.*.) L U :.o.} ! V Y ",
"[ ( ^ Q 2.R 4.,.} ,.#. .$.W R $.0.;.%.*.` S ! ) _ 3 P t.0.N.&.! :.$.2.-.q.^ l m { O.<.t...[ } u.3.&.~ M E #.3.} ^ ..:.&.^ _ T Q ",
":.>.! o.+.R { | ( ! I  .X.k b @.t.+.' ` ^ b T 2.$.^ R n.N.B.1.o.u._ W 7.$.R _ 8.x.i.g.7.H U { 1.5.B d A ( ,.6.+._ #.) ] n B y.x.",
"3.z.u.<. .J K D H H f ~ ^ S z ^ / P S B I g V U V ,.>.M.t.9.O.+.7.^ +.d.1.X.V b <.q.5.{ T O.$.o.5.C 7 g z |  ._ / } Q D u Z v.0.",
"2.t.q.E ' +.{ ] >.X.x P A [ X./ ~ D U U N g g ] m _ ` ' 4.2.&.1.2.| <.6.R G l d ,.5...| @.<./ ' 9.Y K ` S ` @.H ) ' *.K v o.n.8.",
"w.y.,.G Q } V #.k.e.I p c W T / J Y ;.=. .J Y j.)  .%.D q.&.{ T S N Q Q d p S ' 1.7.-.=.2.8. .o.<.L P  .I K ^ [ =.:.y.! P b.M.q.",
"5.;./ C ] &.T &.4.] E x T T H s ~ $.e.4.,.~ 7.h.o.5.w.S E A z p e E  .| D H *.:.o.3.` | 4...W -...G F ~ K D Q ,.<.8.a...^ } Z ..",
" .p 3 C  .9.:.z.5.W _ K } l.U ! ;.h.f.9.=.} =.0.o.;.` c r O + 6 P c.v.f.:.O.#.>.~ ! t C P n H X.K c Y  .%.=.M.h.a.5.>.] ( u : [ ",
":.c y M 1.<.8.g.! H ..T X.r.6.@.&.f.1. .! ,.6.*.` +.` U g # 1 ` ;.g.0.<.X.G P %.' _ 8 L ( Y ] =.h 6 ;.0.2.1.u.*.o.%.| D h m x ~ ",
"m.w.2.3./ [ X.7.A c G !  .3. .( E 0.2.;.E / @.#.+.-.( S d : O.V.V.g.=.=.O.T P [ e.+.E T 2.} Q V q i =.:.O.` { U T [ { S k F u.r.",
"s.j.0.[ o.6.' / e ; h ` [ o.' H | <.1.:.C x P X.( +.J l ! T :.l.<.7.3.*.] B L ' -.H k } t.O.Y R L { ..O.] ^ P W Q P N n S | N.d.",
",.-.Y z %.z.6.F H m / ] R E V M ' ;.{ [ l b &.| U / Z E g.z.d.;.^ [ _ ' [ D S [ ..N F Q 6.j.i.<.X.9.=.U =.) Y ! | W x r a %.z.e.",
"/ 1.{ E %.] Y ! r.e.a.9.W I t d ] 9.] ' Y H -. .R T R _ ' E c b I R A J ! ` U %.-.Q C I >.t.:.:.#.( | ! [ ~ K Y } ] m D K J i.#.",
"S V Y Y &.S n +.>.5.d.@.( ! M 6 O.O.Y { X.W I S ~ J :.p.U H +.] @.+.>...%.9.6.3.#.] Y { | r.o.( | | %.J a V N U Y ] r ..l.r.<.$.",
"b y i d a i | 6.7.7.r.:.+.O.A / ' V h m u j ! } T F :.Y G Y 9.#.3.y.e.' Y 7.` ( _ / N E %.w.{ R } ! Q T 3 * A U 4.r...c.M.9.w.%.",
"g 0 M ..R j G X.' &.9.=._ Y / ( 1 : g z k Q s.f.;.[ S x h { :.%.=.2.:.` H _ Z y g 4 z z R +.P ~ { O.g r S x m Q ;.2.[ r.m.0.t.#.",
"M h C a.y.I I %.7.&.I ( M z D +.V v H S e.B.V.s.8.&...>.@.5.@.:.[ | ..~ G ) &.U c 6 l { E } X.{ =.] L q G =.6.J P  .-.0.e.o.o.^ ",
"G Y ) >.( &.,.x.j.%.*.G V ! :.6.! &.l.:.k.g.a.7.%.K F L k ~ U #.[ / | M e Z ] Y K Q >.$.^ ~ q.r.r.*.O.^ <.j.D z ] T @.=.<.+.| R ",
"x / m.d. .u.>.x.4.+.;.J c A ! I Z N Y { l.4.*.-.@.! z n t C #.*.| ] R c t h D } [ ) *.Q  .9.t.q.i.7.;.&.p.j.[ D T H ] :.*.&...E ",
"v } b.5.@.b.;.&.-.%.R r H R f | ^ { K $.9.| [ Q ~ Y c G R / t.I D H m g V ^ o.i.,. .9.] ~ a.t.,.%.O.] ^ { :./ 5.I p W #.K S J d ",
"G n.y.&.o.q.O.$.y.+.M x I A c M.b.s.D G _ R / F f 4 j Q 7.` 1.v g C D V ~ | ,.p...I G r B f.%.*.{ o.) J @.7.` W d c O.&.` V J w ",
"G B.u.A L / ^ @.9.*.U ! W G / y...1.Q p U @.@.K s 9 M j.,.#.8.[  ...[ ) G X.5.t.+.) ! b M %.I T n M ] T O.&.` J = > ) I [ } ~ h ",
"( B.,.| C I ! =.+.} X.&.7.#.x.b.5.~ Z B ..;.P U I Q %.r.+._ ' >.m.1.2.=.Q r.<.,.3.#.` E &.P H h 0 V  .P L J u 7 4 y x P k w N P ",
"w.B.$._ K k ! 3.0.,.-.6./ H 9.k._ n A H a.l.m G [ $.( L ;. .+.<.1.D H M N o.;.O.2.E b A ! E } #.} *.l.U N Y N 4 2 $.>.1.1.4.Y ! ",
"/ J h n s w _ W p.<.9.+.l m O.r.Y z { e.v.0.) [ n 4 n ! 2. .@.U z 9 B I A u.,.;.t.#.E &.$.p.3.0.N.N.n.R 3.8.k _ } 3.X.8.i.B.r.$.",
"e.P 4 % , D i.e.4.C ) +.Q _ >.e.W L g.h.y.0.$.2.k 1 L V.z.y.s.z 0 K k.n.y.l.:.O./ H ' c.q.n L O.0.T S H T P u ;.n.M.A z { R k =."
};
