/* XPM */
static char *wspr1024[] = {
/* columns rows colors chars-per-pixel */
"64 64 52 1 ",
"  c #202020",
". c #2C2C2C",
"X c #343434",
"o c gray22",
"O c #400000",
"+ c #4C0000",
"@ c #580000",
"# c #640000",
"$ c #700000",
"% c #7C0000",
"& c #5C4020",
"* c #744C28",
"= c gray25",
"- c #484848",
"; c #4C4C4C",
": c gray33",
"> c gray36",
", c #646464",
"< c gray44",
"1 c #7C7C7C",
"2 c #880000",
"3 c #980000",
"4 c #A40000",
"5 c #B00000",
"6 c #BC0000",
"7 c #C80000",
"8 c #D40000",
"9 c #E00000",
"0 c #EC0000",
"q c #FC0000",
"w c #FC2020",
"e c #9C4C00",
"r c #B45400",
"t c #80502C",
"y c #CC6000",
"u c #E46C00",
"i c #FC7800",
"p c #FC4040",
"a c #FC5C5C",
"s c #FC7C7C",
"d c #FC8820",
"f c #FC9840",
"g c #FCA85C",
"h c gray55",
"j c #989898",
"k c gray66",
"l c #B4B4B4",
"z c #C0C0C0",
"x c #D0D0D0",
"c c gainsboro",
"v c #ECECEC",
"b c None",
/* pixels */
"bbbbbbbbbbbbbbbbbbbbbbbbbbbbbb*e&bbbbbbbbbbbbbbbbbbbbbbbbbbbbbbb",
"bbbbbbbbbbbbbbbbbbbbbbbbbbbbbbrr*bbbbbbbbbbbbbbbbbbbbbbbbbbbbbbb",
"bbbbbbbbbbbbbbbbbbbbbbbbbbbbbbruebbbbbbbbbbbbbbbbbbbbbbbbbbbbbbb",
"bbbbbbbbbbbbbbbbbbbbbbbbbbbbbbruebbbbbbbbbbbbbbbbbbbbbbbbbbbbbbb",
"bbbbbbbbbbbbbbbbbbbbbbbbbbbbbugiyebbbbbbbbbbbbbbbbbbbbbbbbbbbbbb",
"bbbbbbbbbbbbbbbbbbbbbbbbbbbbbugiyebbbbbbbbbbbbbbbbbbbbbbbbbbbbbb",
"bbbbbbbbbbbbbbbbbbbbbbbbbddggffdddda66bbbbbbbbbbbbbbbbbbbbbbbbbb",
"bbbbbbbbbbbbbbbbbbbbbbbudggffidiyiiaq366bbbbbbbbbbbbbbbbbbbbbbbb",
"bbbbbbbbbbbbbbbbbbbbbuuiggfiiedieee6a9366$bbbbbbbbbbbbbbbbbbbbbb",
"bbbbbbbbbbbbbbbbbbbbuiydgfibbbdiebbb6p933$$bbbbbbbbbbbbbbbbbbbbb",
"bbbbbbbbbbbbbbbbbbbuiyyggibbbbdiebbbbp9633$$bbbbbbbbbbbbbbbbbbbb",
"bbbbbbbbbbbbbbbbbbbuuybggibbbbdyebbbbp96b33$bbbbbbbbbbbbbbbbbbbb",
"bbbbbbbbbbbbbbbbbuiiifgfgggggggggffffiiipw6%$@bbbbbbbbbbbbbbbbbb",
"bbbbbbbbbbbbbbbbbuyyuiddfdiuuuyyyrrreet42@@@@@bbbbbbbbbbbbbbbbbb",
"bbbbbbbbbbbbbbbbbuyyuiddfdiuuuyyyrrreet42@@@@@bbbbbbbbbbbbbbbbbb",
"bbbbbbbbbbbbbbbbbuyyuiddfdiuuuyyyrrreet42@@@@@bbbbbbbbbbbbbbbbbb",
"bbbbbbbbbbbbbbbbbbuyebbiuebbbbiyebbbbe2@bb%#Obbbbbbbbbbbbbbbbbbb",
"bbbbbbbbbbbbbbbbbbuiebbap#<hh1duebbbby5@bb%#Obbbbbbbbbbbbbbbbbbb",
"bbbbbbbbbbbbbbbbbbui$bbaphccllfie,:-by6@bb5%+bbbbbbbbbbbbbbbbbbb",
"bbbbbbbbbbbbbbbbbbap$bbaplccclfie::--ye2bb5%@bbbbbbbbbbbbbbbbbbb",
"bbbbbbbbbbbbbbbbbbpq$bbapclvc1sae---oye2bb5%@bbbbbbbbbbbbbbbbbbb",
"bbbbbbbbbbbbbbbbbbq5$bbap2jo:lspeooooye3:-5%@bbbbbbbbbbbbbbbbbbb",
"bbbbbbbbbbbbbbbbbbq5$bbapc,lccap5ooo.ye3..5%@bbbbbbbbbbbbbbbbbbb",
"bbbbbbbbbbbbbbbbbb,kcckap2xcj<a05... ye*1k1,@bbbbbbbbbbbbbbbbbbb",
"bbbbbbbbbbbbbbbbb,cccccap2..o,p0$,111,e*:=kk@bbbbbbbbbbbbbbbbbbb",
"bbbbbbbbbbbbbbbbbclvc1zap2o,,zp8$lllllh*kkh,kbbbbbbbbbbbbbbbbbbb",
"bbbbbbbbbbbbbbbbbojo:1kap1h11jp8$lccccl*h:=1@bbbbbbbbbbbbbbbbbbb",
"bbbbbbbbbbbbbbbbbc,ccchap,c:l:w6$1cvlvc*<klhkbbbbbbbbbbbbbbbbbbb",
"bbbbbbbbbbbbbbbbbbcxk::ap.cclow6#l:ojo**hkkkhbbbbbbbbbbbbbbbbbbb",
"bbbbbbbbbbbbbbbbbb111o<ap.ck,j04#ccl,lc*,hkk-bbbbbbbbbbbbbbbbbbb",
"bbbbbbbbbbbbbbbbbbzzjh1ap,j1lo82@<:cxj**-,,-@bbbbbbbbbbbbbbbbbbb",
"bbbbbbbbbbbbbbbbb9pwwwaaaaapppppwwjzk,*re22$@@bbbbbbbbbbbbbbbbbb",
"bbbbbbbbbbbbbbbbb9wwpppaappppp000pue***ee42$@@bbbbbbbbbbbbbbbbbb",
"bbbbbbbbbbbbbbbbb778qwww77755442222#&&&&&##@@@bbbbbbbbbbbbbbbbbb",
"bbbbbbbbbbbbbbbbbb52@<k752h,-o03@o--oe*&1,:@@bbbbbbbbbbbbbbbbbbb",
"bbbbbbbbbbbbbbbbbb92<vcp72khhc03@-<,:e*&jj,:@bbbbbbbbbbbbbbbbbbb",
"bbbbbbbbbbbbbbbbbb95kcvap2hhccp7@.--oye@lxj,@bbbbbbbbbbbbbbbbbbb",
"bbbbbbbbbbbbbbbbbb95ojoap2h1cvp7@1.o-yq@<-<1@bbbbbbbbbbbbbbbbbbb",
"bbbbbbbbbbbbbbbbbb95l,lap2<1:op7@1.o<y7+j:1:@bbbbbbbbbbbbbbbbbbb",
"bbbbbbbbbbbbbbbbbb95$cxap2,lclp7+l.ojp7+ccj%@bbbbbbbbbbbbbbbbbbb",
"bbbbbbbbbbbbbbbbbb95$11aw%--:cp5+...<q3+-x1%@bbbbbbbbbbbbbbbbbbb",
"bbbbbbbbbbbbbbbbbb95-zza0%.1<1w5+....q3+k-5%@bbbbbbbbbbbbbbbbbbb",
"bbbbbbbbbbbbbbbbbb9-:jja0%:j<zw4+:oo,q3O<,<%@bbbbbbbbbbbbbbbbbbb",
"bbbbbbbbbbbbbbbbbb91o1oa0%1--lw4O,--1q3O-<o-@bbbbbbbbbbbbbbbbbbb",
"bbbbbbbbbbbbbbbbbb9j<j:p8$z-,,w3O,--1q3Oo:--@bbbbbbbbbbbbbbbbbbb",
"bbbbbbbbbbbbbbbbbb95jjjp8$hll103O-oo,q3O::,%@bbbbbbbbbbbbbbbbbbb",
"bbbbbbbbbbbbbbbbbb9111:p6$-jkl82Oo..oq3O-,,-@bbbbbbbbbbbbbbbbbbb",
"bbbbbbbbbbbbbbbbb99ajjjw6$1lll6%O-..oq3O,,-@@@bbbbbbbbbbbbbbbbbb",
"bbbbbbbbbbbbbbbbb99wa42ssssaaaaaaaapppww72$@@@bbbbbbbbbbbbbbbbbb",
"bbbbbbbbbbbbbbbbb77wp42asaaapppwwwq0988532$@@@bbbbbbbbbbbbbbbbbb",
"bbbbbbbbbbbbbbbbbb77w42aaaaapppwwwq0988532@@@bbbbbbbbbbbbbbbbbbb",
"bbbbbbbbbbbbbbbbbbbbb42q9997555333%%%%$$#@bbbbbbbbbbbbbbbbbbbbbb",
"bbbbbbbbbbbbbbbbbbbbb42bb@bbbbbbbbbbbbbbbbbbbbbbbbbbbbbbbbbbbbbb",
"bbbbbbbbbbbbbbbbbbbbb4$bbbbbbbbbbbbbbbbbbbbbbbbbbbbbbbbbbbbbbbbb",
"bbbbbbbbbbbbbbbbbbbbb4bbbbbbbbbbbbbbbbbbbbbbbbbbbbbbbbbbbbbbbbbb",
"bbbbbbbbbbbbbbbbbbbbb%bbbbbbbbbbbbbbbbbbbbbbbbbbbbbbbbbbbbbbbbbb",
"bbbbbbbbbbbbbbbbbbbbbbbbbbbbbbbbbbbbbbbbbbbbbbbbbbbbbbbbbbbbbbbb",
"bbbbbbbbbbbbbbbbbbbbbbbbbbbbbbbbbbbbbbbbbbbbbbbbbbbbbbbbbbbbbbbb",
"bbbbbbbbbbbbbbbbbbbbbbbbbbbbbbbbbbbbbbbbbbbbbbbbbbbbbbbbbbbbbbbb",
"bbbbbbbbbbbbbbbbbbbbbbbbbbbbbbbbbbbbbbbbbbbbbbbbbbbbbbbbbbbbbbbb",
"bbbbbbbbbbbbbbbbbbbbbbbbb,,>>::::::::::::::::>>,,bbbbbbbbbbbbbbb",
"bbbbbbbbbbbbbbbbbbbb8542,>:-=oooooooooooooooo=-:>,bbbbbbbbbbbbbb",
"bbbbbbbbbbbbbbbbbbb32%$$#-ooXX..          .o=-:>,,bbbbbbbbbbbbbb",
"bbbbbbbbbbbbbbbbbbbbbbb,>:;-=oooooooooooo=-;:>>,bbbbbbbbbbbbbbbb"
};
