/* XPM */
static char *wspr2017[] = {
/* columns rows colors chars-per-pixel */
"64 64 51 1 ",
"  c #202020",
". c #2C2C2C",
"X c gray22",
"o c #7C0000",
"O c #004040",
"+ c #005858",
"@ c #006060",
"# c #006464",
"$ c #006C6C",
"% c #007070",
"& c #007474",
"* c #007878",
"= c #007C7C",
"- c #484848",
"; c gray33",
": c #646464",
"> c #880000",
", c #980000",
"< c #A80000",
"1 c #BC0000",
"2 c #D40000",
"3 c #FC0000",
"4 c #008484",
"5 c #008C8C",
"6 c #009898",
"7 c #009C9C",
"8 c #00A4A4",
"9 c #00A8A8",
"0 c #00B4B4",
"q c #20B4B4",
"w c #00CCCC",
"e c #00E4E4",
"r c #48C0C0",
"t c #74C8C8",
"y c #40FCFC",
"u c #54FCFC",
"i c #5CFCFC",
"p c #7CFCF8",
"a c gray55",
"s c #989898",
"d c gray66",
"f c #B4B4B4",
"g c #9CFCFC",
"h c #B8FCFC",
"j c #C0C0C0",
"k c #D0D0D0",
"l c gainsboro",
"z c #D8FCFC",
"x c #ECECEC",
"c c gray99",
"v c None",
/* pixels */
"vvvvvvvvvvvvvvvvvvvvvvvvvvvv$7$+OOO4vvvvvvvvvvvvvvvvvvvvvvvvvvvv",
"vvvvvvvvvvvvvvvvvvvvvvvvvvvvv684OO=vvvvvvvvvvvvvvvvvvvvvvvvvvvvv",
"vvvvvvvvvvvvvvvvvvvvvvvvvvvvvv40O@vvvvvvvvvvvvvvvvvvvvvvvvvvvvvv",
"vvvvvvvvvvvvvvvvvvvvvvvvvvvvvv40O%vvvvvvvvvvvvvvvvvvvvvvvvvvvvvv",
"vvvvvvvvvvvvvvvvvvvvvvvvvvvvvv48O%vvvvvvvvvvvvvvvvvvvvvvvvvvvvvv",
"vvvvvvvvvvvvvvvvvvvvvvvvvvvvvv45O4vvvvvvvvvvvvvvvvvvvvvvvvvvvvvv",
"vvvvvvvvvvvvvvvvvvvvvvvvvvvvvv65O4vvvvvvvvvvvvvvvvvvvvvvvvvvvvvv",
"vvvvvvvvvvvvvvvvvvvvvvvvvvvvv9w%OO$vvvvvvvvvvvvvvvvvvvvvvvvvvvvv",
"vvvvvvvvvvvvvvvvvvvvvvvvvvvuhppr88979vvvvvvvvvvvvvvvvvvvvvvvvvvv",
"vvvvvvvvvvvvvvvvvvvvvvvvvwww+%607=00w57vvvvvvvvvvvvvvvvvvvvvvvvv",
"vvvvvvvvvvvvvvvvvvvvvvvvee7O+#476=0070w0vvvvvvvvvvvvvvvvvvvvvvvv",
"vvvvvvvvvvvvvvvvvvvvvvvww6O=vvvOOvOO%5we9vvvvvvvvvvvvvvvvvvvvvvv",
"vvvvvvvvvvvvvvvvvvvvvve0*O5vvvvOOvvOOO49w7vvvvvvvvvvvvvvvvvvvvvv",
"vvvvvvvvvvvvvvvvvvvvvw6OO5vvvvv+OvvvOOO#694vvvvvvvvvvvvvvvvvvvvv",
"vvvvvvvvvvvvvvvvvvvv9wyigzzgeeeetqq6+OOO+$==vvvvvvvvvvvvvvvvvvvv",
"vvvvvvvvvvvvvvvvvvvv47wweipeett064%+OOOOO+*5vvvvvvvvvvvvvvvvvvvv",
"vvvvvvvvvvvvvvvvvvvvw000096=======$+++++&565vvvvvvvvvvvvvvvvvvvv",
"vvvvvvvvvvvvvvvvvvvvvOOvvO@vvvv=OvvvvOOvvOOvvvvvvvvvvvvvvvvvvvvv",
"vvvvvvvvvvvvvvvvvvvvv+Ovv+Ovvvv$Ovvvv7Ovv+Ovvvvvvvvvvvvvvvvvvvvv",
"vvvvvvvvvvvvvvvvvvvvv7Ovv9Ovvvv+Ovvvv9Ovv+Ovvvvvvvvvvvvvvvvvvvvv",
"vvvvvvvvvvvvvvvvvvvvv9Ovv9OvvvvOOvvvv9Ovv4Ovvvvvvvvvvvvvvvvvvvvv",
"vvvvvvvvvvvvvvvvvvvvv9Ovv9OvvvvOOvvvv9Ovv7Ovvvvvvvvvvvvvvvvvvvvv",
"vvvvvvvvvvvvvvvvvvvvv9Ovv9vvvvv+Ovvvv9Ovv7Ovvvvvvvvvvvvvvvvvvvvv",
"vvvvvvvvvvvvvvvvvvvvv7Ovvvvvvvv$Ovvvv9Ovv7Ovvvvvvvvvvvvvvvvvvvvv",
"vvvvvvvvvvvvvvvvvvvvv7Ovvvvvvvv=Ovvvv7Ovv7Ovvvvvvvvvvvvvvvvvvvvv",
"vvvvvvvvvvvvvvvvvvvvv5OvvvOvvvv=Ovvvv5Ovv5Ovvvvvvvvvvvvvvvvvvvvv",
"vvvvvvvvvvvvvvvvvvvvv=Ovv5Ovvvv=Ovvvv=Ovv=Ovvvvvvvvvvvvvvvvvvvvv",
"vvvvvvvvvvvvvvvvvvvvv=Ovv5Ovvvv=Ovvvv=Ovv=Ovvvvvvvvvvvvvvvvvvvvv",
"vvvvvvvvvvvvvvvvvvvvv=Ovv5Ovvvv=Ovvvv=Ovv=Ovvvvvvvvvvvvvvvvvvvvv",
"vvvvvvvvvvvvvvvvvvvvv=Ovv5Ovvvv=Ovvvv=Ovv=Ovvvvvvvvvvvvvvvvvvvvv",
"vvvvvvvvvvvvvvvvvvvvv=Ovv=Ovvvvv*Ovvv=Ovv=Ovvvvvvvvvvvvvvvvvvvvv",
"vvvvvvvvvvvvvvvvvvvvv=Ovv=Ovvvvvvvvvv=Ovv=Ovvvvvvvvvvvvvvvvvvvvv",
"vvvvvvvvvvvvvvvvvvvv9wyigzhppyuq995%+OOO@$=5vvvvvvvvvvvvvvvvvvvv",
"vvvvvvvvvvvvvvvvvvvv47weeiueew0064%+OOOO@*59vvvvvvvvvvvvvvvvvvvv",
"vvvvvvvvvvvvvvvvvvvv47weeiyeew0064%+OOOO@*59vvvvvvvvvvvvvvvvvvvv",
"vvvvvvvvvvvvvvvvvvvvw974&=57565===$+OOO$4767vvvvvvvvvvvvvvvvvvvv",
"vvvvvvvvvvvvvvvvvvvvvOOvvOOvvvvOOvvvvOOvv7Ovvvvvvvvvvvvvvvvvvvvv",
"vvvvvvvvvvvvvvvvvvvvv+Ovv4Ovvvv4Ovvvv4Ovv7Ovvvvvvvvvvvvvvvvvvvvv",
"vvvvvvvvvvvvvvvvvvvvv7Ovv7Ovvvv7Ovvvv7Ovv9Ovvvvvvvvvvvvvvvvvvvvv",
"vvvvvvvvvvvvvvvvvvvvv7Ovv7Ovvvv7Ovvvv7Ovv7Ovvvvvvvvvvvvvvvvvvvvv",
"vvvvvvvvvvvvvvvvvvvvv7Ovv7Ovvfc7Okfvv7Ovv5Ovvvvvvvvvvvvvvvvvvvvv",
"vvvvvvvvvvvvvvvvvvvvv7Ovv7Ovfkc7Oxlfv7Ovv5Ovvvvvvvvvvvvvvvvvvvvv",
"vvvvvvvvvvvvvvvvvvvvv=Ovv=Ovcl3=Ox-:s=Ovv=Ovvvvvvvvvvvvvvvvvvvvv",
"vvvvvvvvvvvvvvvvvvvvv=Ovv=Ovc33=OdX:s=Ovv=Ovvvvvvvvvvvvvvvvvvvvv",
"vvvvvvvvvvvvvvvvvvvvv=Ovc=Oxd1l=Ocl3s=Ovv=Ovvvvvvvvvvvvvvvvvvvvv",
"vvvvvvvvvvvvvvvvvvvvv=O+k=Okjjj=Ox<c<=OO#=Ovvvvvvvvvvvvvvvvvvvvv",
"vvvvvvvvvvvvvvvvvvvv70e11=33333=Ox3l3=O31=O5vvvvvvvvvvvvvvvvvvvv",
"vvvvvvvvvvvvvvvvvvvv779wwww32177=l$k$=#33347vvvvvvvvvvvvvvvvvvvv",
"vvvvvvvvvvvvvvvvvvvv7790www22144#lOjOO>32<>9vvvvvvvvvvvvvvvvvvvv",
"vvvvvvvvvvvvvvvvvvvvv55499,22,,$+l+jO>>32<>vvvvvvvvvvvvvvvvvvvvv",
"vvvvvvvvvvvvvvvvvvvvvvvvvvv2,vvvvjjjvvv32<vvvvvvvvvvvvvvvvvvvvvv",
"vvvvvvvvvvvvvvvvvvvvvvvvvvv,vvvvvsfjvvv32ovvvvvvvvvvvvvvvvvvvvvv",
"vvvvvvvvvvvvvvvvvvvvvvvvvvvvvvvvvvdjvvv,2vvvvvvvvvvvvvvvvvvvvvvv",
"vvvvvvvvvvvvvvvvvvvvvvvvvvvvvvvvvvljvvvv2vvvvvvvvvvvvvvvvvvvvvvv",
"vvvvvvvvvvvvvvvvvvvvvvvvvvvvvvvvvvlsvvvv2vvvvvvvvvvvvvvvvvvvvvvv",
"vvvvvvvvvvvvvvvvvvvvvvvvvvvvvvvvvvclsvvv2vvvvvvvvvvvvvvvvvvvvvvv",
"vvvvvvvvvvvvvvvvvvvvvvvvvvvvvvvvvjxlxvvv2vvvvvvvvvvvvvvvvvvvvvvv",
"vvvvvvvvvvvvvvvvvvvvvvvvvvvvvvvvvxllllvv,vvvvvvvvvvvvvvvvvvvvvvv",
"vvvvvvvvvvvvvvvvvvvvvvvvvvvvvvvvvxklldvvvvvvvvvvvvvvvvvvvvvvvvvv",
"vvvvvvvvvvvvvvvvvvvvvvvvvvvvvvvvvkfjjavvvvvvvvvvvvvvvvvvvvvvvvvv",
"vvvvvvvvvvvvvvvvvvvvvvvvv::::;;;;dsss;;;;;;;;:::vvvvvvvvvvvvvvvv",
"vvvvvvvvvvvvvvvvvvvvvvv::;;--XXXXXXXXXXXXXXXXX-;:vvvvvvvvvvvvvvv",
"vvvvvvvvvvvvvvvvvvvvvv:;;-XXXX..          .X--;:::vvvvvvvvvvvvvv",
"vvvvvvvvvvvvvvvvvvvvvvvv;;---XXXXXXXXXXXX--;;:::vvvvvvvvvvvvvvvv"
};
