/* XPM */
static char *wspr2019[] = {
/* columns rows colors chars-per-pixel */
"64 64 35 1 ",
"  c #202020",
". c #2C2C2C",
"X c gray22",
"o c #004040",
"O c #005858",
"+ c #006060",
"@ c #006464",
"# c #006C6C",
"$ c #007070",
"% c #007474",
"& c #007878",
"* c #007C7C",
"= c #484848",
"- c gray33",
"; c #646464",
": c #008484",
"> c #008C8C",
", c #009898",
"< c #009C9C",
"1 c #00A4A4",
"2 c #00A8A8",
"3 c #00B4B4",
"4 c #20B4B4",
"5 c #00CCCC",
"6 c #00E4E4",
"7 c #48C0C0",
"8 c #74C8C8",
"9 c #40FCFC",
"0 c #54FCFC",
"q c #5CFCFC",
"w c #7CFCF8",
"e c #9CFCFC",
"r c #B8FCFC",
"t c #D8FCFC",
"y c None",
/* pixels */
"yyyyyyyyyyyyyyyyyyyyyyyyyyyy#<#Oooo:yyyyyyyyyyyyyyyyyyyyyyyyyyyy",
"yyyyyyyyyyyyyyyyyyyyyyyyyyyyy,1:oo*yyyyyyyyyyyyyyyyyyyyyyyyyyyyy",
"yyyyyyyyyyyyyyyyyyyyyyyyyyyyyy:3o+yyyyyyyyyyyyyyyyyyyyyyyyyyyyyy",
"yyyyyyyyyyyyyyyyyyyyyyyyyyyyyy:3o$yyyyyyyyyyyyyyyyyyyyyyyyyyyyyy",
"yyyyyyyyyyyyyyyyyyyyyyyyyyyyyy:1o$yyyyyyyyyyyyyyyyyyyyyyyyyyyyyy",
"yyyyyyyyyyyyyyyyyyyyyyyyyyyyyy:>o:yyyyyyyyyyyyyyyyyyyyyyyyyyyyyy",
"yyyyyyyyyyyyyyyyyyyyyyyyyyyyyy,>o:yyyyyyyyyyyyyyyyyyyyyyyyyyyyyy",
"yyyyyyyyyyyyyyyyyyyyyyyyyyyyy25$oo#yyyyyyyyyyyyyyyyyyyyyyyyyyyyy",
"yyyyyyyyyyyyyyyyyyyyyyyyyyy0rww7112<2yyyyyyyyyyyyyyyyyyyyyyyyyyy",
"yyyyyyyyyyyyyyyyyyyyyyyyy555O$,3<*335><yyyyyyyyyyyyyyyyyyyyyyyyy",
"yyyyyyyyyyyyyyyyyyyyyyyy66<oO@:<,*33<353yyyyyyyyyyyyyyyyyyyyyyyy",
"yyyyyyyyyyyyyyyyyyyyyyy55,o*yyyooyoo$>562yyyyyyyyyyyyyyyyyyyyyyy",
"yyyyyyyyyyyyyyyyyyyyyy63&o>yyyyooyyooo:25<yyyyyyyyyyyyyyyyyyyyyy",
"yyyyyyyyyyyyyyyyyyyyy5,oo>yyyyyOoyyyooo@,2:yyyyyyyyyyyyyyyyyyyyy",
"yyyyyyyyyyyyyyyyyyyy259qette6666844,OoooO#**yyyyyyyyyyyyyyyyyyyy",
"yyyyyyyyyyyyyyyyyyyy:<556qw66883,:$OoooooO&>yyyyyyyyyyyyyyyyyyyy",
"yyyyyyyyyyyyyyyyyyyy533332,*******#OOOOO%>,>yyyyyyyyyyyyyyyyyyyy",
"yyyyyyyyyyyyyyyyyyyyyooyyo+yyyy*oyyyyooyyooyyyyyyyyyyyyyyyyyyyyy",
"yyyyyyyyyyyyyyyyyyyyyOoyyOoyyyy#oyyyy<oyyOoyyyyyyyyyyyyyyyyyyyyy",
"yyyyyyyyyyyyyyyyyyyyy<oyy2oyyyyOoyyyy2oyyOoyyyyyyyyyyyyyyyyyyyyy",
"yyyyyyyyyyyyyyyyyyyyy2oyy2oyyyyooyyyy2oyy:oyyyyyyyyyyyyyyyyyyyyy",
"yyyyyyyyyyyyyyyyyyyyy2oyy2oyyyyooyyyy2oyy<oyyyyyyyyyyyyyyyyyyyyy",
"yyyyyyyyyyyyyyyyyyyyy2oyy2oyyyyOoyyyy2oyy<oyyyyyyyyyyyyyyyyyyyyy",
"yyyyyyyyyyyyyyyyyyyyy<oyy<oyyyy#oyyyy2oyy<oyyyyyyyyyyyyyyyyyyyyy",
"yyyyyyyyyyyyyyyyyyyyy<oyy<oyyyy*oyyyy<oyy<oyyyyyyyyyyyyyyyyyyyyy",
"yyyyyyyyyyyyyyyyyyyyy>oyy<oyyyy*oyyyy>oyy>oyyyyyyyyyyyyyyyyyyyyy",
"yyyyyyyyyyyyyyyyyyyyy*oyy>oyyyy*oyyyy*oyy*oyyyyyyyyyyyyyyyyyyyyy",
"yyyyyyyyyyyyyyyyyyyyy*oyy>oyyyy*oyyyy*oyy*oyyyyyyyyyyyyyyyyyyyyy",
"yyyyyyyyyyyyyyyyyyyyy*oyy>oyyyy*oyyyy*oyy*oyyyyyyyyyyyyyyyyyyyyy",
"yyyyyyyyyyyyyyyyyyyyy*oyy>oyyyy*oyyyy*oyy*oyyyyyyyyyyyyyyyyyyyyy",
"yyyyyyyyyyyyyyyyyyyyy*oyy*oyyyy*oyyyy*oyy*oyyyyyyyyyyyyyyyyyyyyy",
"yyyyyyyyyyyyyyyyyyyyy*oyy*oyyyy*oyyyy*oyy*oyyyyyyyyyyyyyyyyyyyyy",
"yyyyyyyyyyyyyyyyyyyy259qetrww90422>$Oooo+#*>yyyyyyyyyyyyyyyyyyyy",
"yyyyyyyyyyyyyyyyyyyy:<566q066533,:$Ooooo+&>2yyyyyyyyyyyyyyyyyyyy",
"yyyyyyyyyyyyyyyyyyyy:<566q966533,:$Ooooo+&>2yyyyyyyyyyyyyyyyyyyy",
"yyyyyyyyyyyyyyyyyyyy52<:%*><>,>***#Oooo#:<,<yyyyyyyyyyyyyyyyyyyy",
"yyyyyyyyyyyyyyyyyyyyyooyyooyyyy>oyyyyooyy<oyyyyyyyyyyyyyyyyyyyyy",
"yyyyyyyyyyyyyyyyyyyyyOoyy:oyyyy<oyyyyOoyy<oyyyyyyyyyyyyyyyyyyyyy",
"yyyyyyyyyyyyyyyyyyyyy<oyy<oyyyy>oyyyy<oyy2oyyyyyyyyyyyyyyyyyyyyy",
"yyyyyyyyyyyyyyyyyyyyy<oyy<oyyyy>oyyyy2oyy<oyyyyyyyyyyyyyyyyyyyyy",
"yyyyyyyyyyyyyyyyyyyyy<oyy<oyyyy>oyyyy2oyy>oyyyyyyyyyyyyyyyyyyyyy",
"yyyyyyyyyyyyyyyyyyyyy<oyy<oyyyy*oyyyy2oyy>oyyyyyyyyyyyyyyyyyyyyy",
"yyyyyyyyyyyyyyyyyyyyy*oyy*oyyyy*oyyyy<oyy*oyyyyyyyyyyyyyyyyyyyyy",
"yyyyyyyyyyyyyyyyyyyyy*oyy*oyyyy*oyyyy>oyy*oyyyyyyyyyyyyyyyyyyyyy",
"yyyyyyyyyyyyyyyyyyyyy*oyy*oyyyy*oyyyy*oyy*oyyyyyyyyyyyyyyyyyyyyy",
"yyyyyyyyyyyyyyyyyyyyy*oOO*ooooo*OO###*oo@*oyyyyyyyyyyyyyyyyyyyyy",
"yyyyyyyyyyyyyyyyyyyy<36oo*oooooooOOOO*ooO*o>yyyyyyyyyyyyyyyyyyyy",
"yyyyyyyyyyyyyyyyyyyy<<25555532<<*####*@O@%:<yyyyyyyyyyyyyyyyyyyy",
"yyyyyyyyyyyyyyyyyyyy<<2355533>::@ooooooO+&<2yyyyyyyyyyyyyyyyyyyy",
"yyyyyyyyyyyyyyyyyyyyy>>:2232<>##OOoooo#:<22yyyyyyyyyyyyyyyyyyyyy",
"yyyyyyyyyyyyyyyyyyyyyyyyyyyyyyyyyyyyyyyyyyyyyyyyyyyyyyyyyyyyyyyy",
"yyyyyyyyyyyyyyyyyyyyyyyyyyyyyyyyyyyyyyyyyyyyyyyyyyyyyyyyyyyyyyyy",
"yyyyyyyyyyyyyyyyyyyyyyyyyyyyyyyyyyyyyyyyyyyyyyyyyyyyyyyyyyyyyyyy",
"yyyyyyyyyyyyyyyyyyyyyyyyyyyyyyyyyyyyyyyyyyyyyyyyyyyyyyyyyyyyyyyy",
"yyyyyyyyyyyyyyyyyyyyyyyyyyyyyyyyyyyyyyyyyyyyyyyyyyyyyyyyyyyyyyyy",
"yyyyyyyyyyyyyyyyyyyyyyyyyyyyyyyyyyyyyyyyyyyyyyyyyyyyyyyyyyyyyyyy",
"yyyyyyyyyyyyyyyyyyyyyyyyyyyyyyyyyyyyyyyyyyyyyyyyyyyyyyyyyyyyyyyy",
"yyyyyyyyyyyyyyyyyyyyyyyyyyyyyyyyyyyyyyyyyyyyyyyyyyyyyyyyyyyyyyyy",
"yyyyyyyyyyyyyyyyyyyyyyyyyyyyyyyyyyyyyyyyyyyyyyyyyyyyyyyyyyyyyyyy",
"yyyyyyyyyyyyyyyyyyyyyyyyyyyyyyyyyyyyyyyyyyyyyyyyyyyyyyyyyyyyyyyy",
"yyyyyyyyyyyyyyyyyyyyyyyyy;;;;----------------;;;yyyyyyyyyyyyyyyy",
"yyyyyyyyyyyyyyyyyyyyyyy;;--==XXXXXXXXXXXXXXXXX=-;yyyyyyyyyyyyyyy",
"yyyyyyyyyyyyyyyyyyyyyy;--=XXXX..          .X==-;;;yyyyyyyyyyyyyy",
"yyyyyyyyyyyyyyyyyyyyyyyy--===XXXXXXXXXXXX==--;;;yyyyyyyyyyyyyyyy"
};
