/* XPM */
static char *wspr2037[] = {
/* columns rows colors chars-per-pixel */
"64 64 31 1 ",
"  c #302410",
". c #382C14",
"X c #282828",
"o c gray19",
"O c #343434",
"+ c gray22",
"@ c #403018",
"# c #483818",
"$ c #543C1C",
"% c #5C4020",
"& c #6C4824",
"* c #744C28",
"= c gray25",
"- c #484848",
"; c #4C4C4C",
": c gray33",
"> c gray36",
", c #646464",
"< c gray44",
"1 c #7C7C7C",
"2 c #80502C",
"3 c #885830",
"4 c #905C34",
"5 c #9C6038",
"6 c #A0643C",
"7 c #A86840",
"8 c #B47044",
"9 c #BC7848",
"0 c gray55",
"q c #989898",
"w c None",
/* pixels */
"wwwwwwwwwwwwwwwwwwwwwwwwwwwwwwwwwwwwwwwwwwwwwwwwwwwwwwwwwwwwwwww",
"wwwwwwwwwwwwwwwwwwwwwwwwwwwwwwwwwwwwwwwwwwwwwwwwwwwwwwwwwwwwwwww",
"wwwwwwwwwwwwwwwwwwwwwwwwwwwwwwwwwwwwwwwwwwwwwwwwwwwwwwwwwwwwwwww",
"wwwwwwwwwwwwwwwwwwwwwwwwwwwwwwwwwwwwwwwwwwwwwwwwwwwwwwwwwwwwwwww",
"wwwwwwwwwwwwwwwwwwwwwwwwwwwwwwwwwwwwwwwwwwwwwwwwwwwwwwwwwwwwwwww",
"wwwwwwwwwwwwwwwwwwwwwwwwwwwwwwwwwwwwwwwwwwwwwwwwwwwwwwwwwwwwwwww",
"wwwwwwwwwwwwwwwwwwwwwwwwwwwwwwwwwwwwwwwwwwwwwwwwwwwwwwwwwwwwwwww",
"wwwwwwwwwwwwwwwwwwwwwwwwwwwwwwwwwwwwwwwwwwwwwwwwwwwwwwwwwwwwwwww",
"wwwwwwwwwwwwwwwwwwwwwwwwwwwwwwwwwwwwwwwwwwwwwwwwwwwwwwwwwwwwwwww",
"wwwwwwwwwwwwwwwwwwwwwwwwwwwwwwwwwwwwwwwwwwwwwwwwwwwwwwwwwwwwwwww",
"wwwwwwwwwwwwwwwwwwwwwwwwwwwwwwwwwwwwwwwwwwwwwwwwwwwwwwwwwwwwwwww",
"wwwwwwwwwwwwwwwwwwwwwwwwwwwwwwwwwwwwwwwwwwwwwwwwwwwwwwwwwwwwwwww",
"wwwwwwwwwwwwwwwwwwwwwwwwwwwwwwwwwwwwwwwwwwwwwwwwwwwwwwwwwwwwwwww",
"wwwwwwwwwwwwwwwwwwwwwwwwwwwwwwwwwwwwwwwwwwwwwwwwwwwwwwwwwwwwwwww",
"wwwwwwwwwwwwwwwwwwwwwwwwwwwwwwwwwwwwwwwwwwwwwwwwwwwwwwwwwwwwwwww",
"wwwwwwwwwwwwwwwwwwwwwwwwwwwwwwwwwwwwwwwwwwwwwwwwwwwwwwwwwwwwwwww",
"wwwwwwwwwwwwwwwwwwwwwwwwwwwwwwwwwwwwwwwwwwwwwwwwwwwwwwwwwwwwwwww",
"wwwwwwwwwwwwwwwwwwwwwwwwwwwwwwwwwwwwwwwwwwwwwwwwwwwwwwwwwwwwwwww",
"wwwwwwwwwwwwwwwwwwwwwwwwwwwwwwwwwwwwwwwwwwwwwwwwwwwwwwwwwwwwwwww",
"wwwwwwwwwwwwwwwwwwwwwwwwwwwwwwwwwwwwwwwwwwwwwwwwwwwwwwwwwwwwwwww",
"wwwwwwwwwwwwwwwwwwwwwwwwwwwwwwwwwwwwwwwwwwwwwwwwwwwwwwwwwwwwwwww",
"wwwwwwwwwwwwwwwwwwwwwwwwwwwwwwwwwwwwwwwwwwwwwwwwwwwwwwwwwwwwwwww",
"wwwwwwwwwwwwwwwwwwwwwwwwwwwwwwwwwwwwwwwwwwwwwwwwwwwwwwwwwwwwwwww",
"wwwwwwwwwwwwwwwwwwwwwwwwwwwwwwwwwwwwwwwwwwwwwwwwwwwwwwwwwwwwwwww",
"wwwwwwwwwwwwwwwwwwwwwwwwwwwwwwwwwwwwwwwwwwwwwwwwwwwwwwwwwwwwwwww",
"wwwwwwwwwwwwwwwwwwwwwwwwwwwwwwwwwwwwwwwwwwwwwwwwwwwwwwwwwwwwwwww",
"wwwwwwwwwwwwwwwwwwwwwwwwwwwwwwwwwwwwwwwwwwwwwwwwwwwwwwwwwwwwwwww",
"wwwwwwwwwwwwwwwwwwwwwwwwwwwwwwwwwwwwwwwwwwwwwwwwwwwwwwwwwwwwwwww",
"wwwwwwwwwwwwwwwwwwwwwwwwwwwwwwwwwwwwwwwwwwwwwwwwwwwwwwwwwwwwwwww",
"wwwwwwwwwwwwwwwwwwwwwwwwwwwwwwwwwwwwwwwwwwwwwwwwwwwwwwwwwwwwwwww",
"wwwwwwwwwwwwwwwwwwwwwwwwwwwwwwwwwwwwwwwwwwwwwwwwwwwwwwwwwwwwwwww",
"wwwwwwwwwwwwwwwwwwwwwwwwwwwwwwwwwwwwwwwwwwwwwwwwwwwwwwwwwwwwwwww",
"wwwwwwwwwwwwwwwwwwwwwwwwwwwwwwwwwwwwwwwwwwwwwwwwwwwwwwwwwwwwwwww",
"wwwwwwwwwwwwwwwwwwwwwwwwwwwwwwwwwwwwwwwwwwwwwwwwwwwwwwwwwwwwwwww",
"wwwwwwwwwwwwwwwwwwwwwwwwwwwwwwwwwwwwwwwwwwwwwwwwwwwwwwwwwwwwwwww",
"wwwwwwwwwwwwwwwwwwwwwwwwwwwwwwwwwwwwwwwwwwwwwwwwwwwwwwwwwwwwwwww",
"wwwwwwwwwwwwww<,:&444444<,:&44444444444<,:&444444<,:wwwwwwwwwwww",
"wwwwwwwwwwwwww<,:&655555<,:&65555555555<,:&655555<,:wwwwwwwwwwww",
"wwwwwwwwwwwwww1,:29888881,:2988888888881,:29888881,:wwwwwwwwwwww",
"wwwwwwwwwwwwww0,:&9999990,:&999999999990,:&9999990,:wwwwwwwwwwww",
"wwwwwwwwwwwwwwq,:#677777q,:#67777777777q,:#677777q,:wwwwwwwwwwww",
"wwwwwwwwwwwwwwq,:%888888q,:%88888888888q,:%888888q,:wwwwwwwwwwww",
"wwwwwwwwwwwwwwq,:%888888q,:%88888888888q,:%888888q,:wwwwwwwwwwww",
"wwwwwwwwwwwwwwq<>%888888q<>%88888888888q<>%888888q<>wwwwwwwwwwww",
"wwwwwwwwwwwwwwq<:$777777q<:$77777777777q<:$777777q<:wwwwwwwwwwww",
"wwwwwwwwwwwwwwq,:.344444q,:.34444444444q,:.344444q,:wwwwwwwwwwww",
"wwwwwwwwwwwwww0,:$6666660,:$666666666660,:$6666660,:wwwwwwwwwwww",
"wwwwwwwwwwwwww1,:$5555551,:$555555555551,:$5555551,:wwwwwwwwwwww",
"wwwwwwwwwwwwww<:>%555555<:>%55555555555<:>%555555<:>wwwwwwwwwwww",
"wwwwwwwwwwwwww<:>%444444<:>%44444444444<:>%444444<:>wwwwwwwwwwww",
"wwwwwwwwwwwwww<:,%333333<:,%33333333333<:,%333333<:,wwwwwwwwwwww",
"wwwwwwwwwwwwww,:,&222222,:,&22222222222,:,&222222,:,wwwwwwwwwwww",
"wwwwwwwwwwwwww,:, %%%%%%,:, %%%%%%%%%%%,:, %%%%%%,:,wwwwwwwwwwww",
"wwwwwwwwwwwwww,:,$222222,:,$22222222222,:,$222222,:,wwwwwwwwwwww",
"wwwwwwwwwwwwww,-:#222222,-:#22222222222,-:#222222,-:wwwwwwwwwwww",
"wwwwwwwwwwwwww:-:#2222*2:-:#22222222222:-:#22222*:-;wwwwwwwwwwww",
"wwwwwwwwwwwwww:-:#&333%&:-:#&&&&&&&&&&&:-:#&&333%:--wwwwwwwwwwww",
"wwwwwwwwwwwwww:-:#%333#$:-:#%%%%%%%%%%%:-:#%%333#:=;wwwwwwwwwwww",
"wwwwwwwwwwwwww:-;$$444@#;-;$$$$$$$$$$$$:-;$$$444@=O-wwwwwwwwwwww",
"wwwwwwwwwwwwww;=-%%555##-=-%%%%%%%%%%%%;=-%%%555#+o-wwwwwwwwwwww",
"wwwwwwwwwwwwww-==##555@@-==############-==###555@+o-wwwwwwwwwwww",
"wwwwwwwwwwwwww-=-$$555##-=-$$$$$$$$$$$$-=-$$$555#+O-,,,wwwwwwwww",
"wwwwwwwwwwwwwwwww,X555XXXXXXXXXXXXXXXXXXXXXXX555+++--::,,wwwwwww",
"wwwwwwwwwwwwwwww,,,555X,,,,,,,,,,,,,,,,,,,,,,555X,,,,,,wwwwwwwww"
};
