/* XPM */
static char *kniga0[] = {
/* columns rows colors chars-per-pixel */
"64 64 44 1 ",
"  c black",
". c #202020",
"X c #2C2C2C",
"o c gray22",
"O c #004040",
"+ c #005858",
"@ c #007070",
"# c #484848",
"$ c gray33",
"% c #646464",
"& c gray44",
"* c #7C7C7C",
"= c #BC0000",
"- c #D40000",
"; c #EC0000",
": c #FC2020",
"> c #FC4040",
", c #FC5454",
"< c #FC7C7C",
"1 c #008484",
"2 c #009C9C",
"3 c #00B4B4",
"4 c #00CCCC",
"5 c #00E4E4",
"6 c #00FCFC",
"7 c #20FCFC",
"8 c #40FCFC",
"9 c #54FCFC",
"0 c #5CFCFC",
"q c #7CFCF8",
"w c gray55",
"e c #989898",
"r c gray66",
"t c #B4B4B4",
"y c #FC9C9C",
"u c #9CFCFC",
"i c #B8FCFC",
"p c #C0C0C0",
"a c #D0D0D0",
"s c gainsboro",
"d c #D8FCFC",
"f c #ECECEC",
"g c gray99",
"h c None",
/* pixels */
"hhhhhhhhhhhhhhhhhhhhhhhhhhhhhhhhhhhhhhhhhhhhhhhhhhhhhhhhhhhhhhhh",
"hhhhhhhhhhhhhhhhhhhhhhhhhhhhhhhh4hhhhhhhhhhhhhhhhhhirhhhhhhhhhhh",
"hhhhhhhhhhhhhhhhhhhhhhhhhhhhhhww2wwhhhhhhhhhhh5hhhhrgrhhhhhhhhhh",
"hhhhhhhhhhhhhhhhhhhhhhhhhhhh*qia+rrr*hhhhhhhhh5hhhhhughhhhhhhhhh",
"hhhhhhhhhhhhhhhhhhhhhhhhhhh*qiif9rrrw%hhhhhhhh5hhhhr7grhhhhhhhhh",
"hhhhhhhhhhhhhhhhhhhhhhhhhhhtqia9s*ww11hhhhhhh353hhh77iihhhhhhhhh",
"hhhhhhhhhhhhhhhhhhhhhhhhhhhtss9sap*++Ohhhhhhh353hhh75ighhhhhhhhh",
"hhhhhhhhhhhhhhhhhhhhhhhhhhiw99d*a$t*OOehhhhhh351hh735ighhhhhhhhh",
"hhhhhhhhhhhhhhhhhhhhhhhhhh498ud#aXt21@*hhhhh535777335ighhhhhhhhh",
"hhhhhhhhhhhhhhhhhhhhhhhhhhef8*d#aXt$1@%hhhh5435333335ighhhhhhhhh",
"hhhhhhhhhhhhhhhhhhhhhhhhhh@f8%d#aXtX1@Ohhhh4335555335ighhhhhhhhh",
"hhhhhhhhhhhhhhhhhhhhhhhhhhha8*d#aXt$1*hhhh53235114535ighhhhhhhhh",
"hhhhhhhhhhhhhhhhhhhhhhhhhhh*aud*a$t21*hhhh42135321345ighhhhhhhhh",
"hhhhhhhhhhhhhhhhhhhhhhhhhhh#*etsapee*#hhhh41h35331155ighhhhhhhhh",
"hhhhhhhhhhhhhhhhhhhhhhhhhhh#a*******$#hhhh2hh35@@2135ighhhhhhhhh",
"hhhhhhhhhhhhhhhhhhhhhh*pppaaeagaar$$oo$$hhhhh35@h@125ighhhhhhhhh",
"hhhhhhhhhhhhhhhhhhh*sspauuggaee*%%ooo222+$#$$35@hh115iihhhhhhhhh",
"hhhhhhhhhhhhhhhhhhtdd53uuggdifiis54432111@#@@35@hhh1iirhhhhhhhhh",
"hhhhhhhhhhhhhhhhh*fgd53ffgdiigif335443211@O2335@hhh1iihhhhhhhhhh",
"hhhhhhhhhhhhhhhhhtdf53fapgiigg9s23544321@@O1135@@hh5iihhhhhhhhhh",
"hhhhhhhhhhhhhhhhhtdi3fg>ppppgg9a23544321@+O&&35@@hhrirhhhhhhhhhh",
"hhhhhhhhhhhhhhhhh6f6fg,>:*ppttttt3344321@+O%%35@@hhrihhhhhhhhhhh",
"hhhhhhhhhhhhhhht6f6fg<,>:;--**eew+333321+oOOO35@+hhirhhhhhhhhhhh",
"hhhhhhhhhhhhhhhhh*$fy<,>:;--===ew+@11@@++XO++35@++hhhhhhhhhhhhhh",
"hhhhhhhhhhhhhhhhhrwfy<,>:;--===ewooOOOOOo.O1335@+hhhhhhhhhhhhhhh",
"hhhhhhhhhhhhhhhhhrify<,>:;--===ewOO+OOXX. O1335@+hhhhhhhhhhhhhhh",
"hhhhhhhhhhhhhhhhhrify<,>:;--===ewO+1@O#o.h@1335@+hhhhhhhhhhhhhhh",
"hhhhhhhhhhhhhhhhhiify<,>:;--===ewo+1@+#oOh@1135@1+hhhhhhhhhhhhhh",
"hhhhhhhhhhhhhhhhii3ay<,>:;--===ewo+1@+#oOh135qq@@+hhhhhhhhhhhhhh",
"hhhhhhhhhhhhhhhii3iay<,>:;--===ewX+@++#Ohhh3ii32@O+hhhhhhhhhhhhh",
"hhhhhhhhhhhhhhhir26ay<,>:;--===ewX++++$Ohhh3qq22@O+hhhhhhhhhhhhh",
"hhhhhhhhhhhhhhhar22ay<,>:;--===ewO@2211$Ohh3iq32@O+hhhhhhhhhhhhh",
"hhhhhhhhhhhhhhhar+way<,>:;--===ewO@3321@+Ohhiq32@O+hhhhhhhhhhhhh",
"hhhhhhhhhhhhhhhh**+ay<,>:;--===ew+@3332@+Ohh333OO+hhhhhhhhhhhhhh",
"hhhhhhhhhhhhhhhhh**ay<,>:;--===ew@@@@++OOhhh@@@@1hhhhhhhhhhhhhhh",
"hhhhhhhhhhhhhhhhhhhay<,>:;--===ewXXOOOOOohhhh1@@hhhhhhhhhhhhhhhh",
"hhhhhhhhhhhhhhhhhhhha<,>:;--===ewXo#+++Oohhhh32@hhhhhhhhhhhhhhhh",
"hhhhhhhhhhhhhhhhhhhha<,>:;--==*w.o+@@%+Oohhhh35@hhhhhhhhhhhhhhhh",
"hhhhhhhhhhhhhhhhhhhhay,>:;--==rw.#@1@%+Oohhhh35@hhhhhhhhhhhhhhhh",
"hhhhhhhhhhhhhhhhhhhhha,>:;--=*wXO#@1@%+Oohhhh44@hhhhhhhhhhhhhhhh",
"hhhhhhhhhhhhhhhhhhhhhha>:;--*w+XO#@1@%+Oohhhh44@hhhhhhhhhhhhhhhh",
"hhhhhhhhhhhhhhhhhhhhhhha:;-rw@+XO+@1@%+Oohhhh43+hhhhhhhhhhhhhhhh",
"hhhhhhhhhhhhhhhhhhhhhhhhttt@@@+XO+@1@%+Oohhhh43+hhhhhhhhhhhhhhhh",
"hhhhhhhhhhhhhhhhhhhhhhhh5432@@+OO+@112+Oohhhh42+hhhhhhhhhhhhhhhh",
"hhhhhhhhhhhhhhhhhhhhhhhhii421@+OO+@124@+ohhhh32+hhhhhhhhhhhhhhhh",
"hhhhhhhhhhhhhhhhhhhhhhhhi7521@@Oo@13342+OOhhh31Ohhhhhhhhhhhhhhhh",
"hhhhhhhhhhhhhhhhhhhhhhhi754211@+o133452@+Ohhh31Ohhhhhhhhhhhhhhhh",
"hhhhhhhhhhhhhhhhhhhhhhh3111111@+o+@@@+++OOhh3qq3@hhhhhhhhhhhhhhh",
"hhhhhhhhhhhhhhhhhhhhhhhh3@@+++OO.OOOOOOOOhhh3553@hhhhhhhhhhhhhhh",
"hhhhhhhhhhhhhhhhhhhhhhhhh4311@@+.122@@@+hhhhh31Ohhhhhhhhhhhhhhhh",
"hhhhhhhhhhhhhhhhhhhhhhhhh404311+.2443@@+hhhh3q53@hhhhhhhhhhhhhhh",
"hhhhhhhhhhhhhhhhhhhhhhhhh40g411+.254q@@+hhhh3553@hhhhhhhhhhhhhhh",
"hhhhhhhhhhhhhhhhhhhhhhhhh40g51@+.2446@+hhhhhh31Ohhhhhhhhhhhhhhhh",
"hhhhhhhhhhhhhhhhhhhhhhhhh34gu1@+.17i1@+hhhhh3q53@hhhhhhhhhhhhhhh",
"hhhhhhhhhhhhhhhhhhhhhhhhhh4451@+.1113@+hhhhh3553@hhhhhhhhhhhhhhh",
"hhhhhhhhhhhhhhhhhhhhhhhhhh442@@OX1341+Ohhhhhh31Ohhhhhhhhhhhhhhhh",
"hhhhhhhhhhhhhhhhhhhhhhhhhh374@+OX1112+hhhhhh3q53@hhhhhhhhhhhhhhh",
"hhhhhhhhhhhhhhhhhhhhhhhhhhh54@+OX@341+hhhhhh3553@hhhhhhhhhhhhhhh",
"hhhhhhhhhhhhhhhhhhhhhhhhhh41+OOOX@1@@@+hhhhhh31Ohhhhhhhhhhhhhhhh",
"hhhhhhhhhhhhhhhhhhhhhhhhhg0411@OX@25522+hhhh3q53@hhhhhhhhhhhhhhh",
"hhhhhhhhhhhhhhhhhhhhhhhhg0042@@OX+35i032+$$$3553@$%%%hhhhhhhhhhh",
"hhhhhhhhhhhhhhhhhhhhhhh0g0432@+OX+340i042+XXX31OXoo##$$$$%%%%hhh",
"hhhhhhhhhhhhhhhhhhhhhh0g0432@+O XX@@45i04@    3@..XXooo####$$%%h",
"hhhhhhhhhhhhhhhhhhhhhh4422@@O XX$%%$X@@@@@ooooooooooo###$$%%%%%h"
};
