/* XPM */
static char *wspr2050[] = {
/* columns rows colors chars-per-pixel */
"64 64 27 1 ",
"  c black",
". c gray11",
"X c #202020",
"o c #282828",
"O c #2C2C2C",
"+ c gray19",
"@ c #343434",
"# c gray22",
"$ c gray25",
"% c #484848",
"& c #4C4C4C",
"* c gray33",
"= c gray36",
"- c #646464",
"; c gray44",
": c #7C7C7C",
"> c #980000",
", c #A40000",
"< c #A80000",
"1 c #BC0000",
"2 c #C80000",
"3 c #FC0000",
"4 c #FC2020",
"5 c #FC5C5C",
"6 c gray55",
"7 c #989898",
"8 c None",
/* pixels */
"8888888888888888888888888888888888888888888888888888888888888888",
"8888888888888888888888888888888888888888888888888888888888888888",
"88888888&**%%888888888888888888888888888888888888888888#*#888888",
"888888--*%%%=&88888888888888888888888888888888888888XXX##**88888",
"88888--*%#O#*-%888888888888888####8888888888888888XXo#@.  **8888",
"8888--&*#XX#%--%8888888888888#oXOo@8888888888888XXo#@O..  #*-888",
"888--88@X.X+#%;-$%8888888888#**&##$X8888888888&XXo+#o.    O#*-88",
"88-&888%@XX@@#*;*&##888888#%$oOXO+.o.#88888&&XXXO+#o      .#8*88",
"88-8888*#XX@X@%*&**%=&88&=%%@$&####+$###8&&XXXXOo#o      ..#8888",
"888888-*X.o+ o+$***$O$%=%*&%%*%$+++####%$#XXXo+##O.    X  . 8888",
"888888-$XXX#  +%**%%**=*%&$+*;-=*####X+#&%oXXO##O..    X. . 8888",
"888888=#XX #X +%%$**---*&*#+-*%%#$###XO$%#@@X##@..    XX  .  888",
"88888-*+XX #X o##**--==*%&#$#.o#@..X$Oo#$##@#X++.     XX  .  888",
"88888-#o.. O. .+%**---=*$%#+.#$%O+O#OXO+####$%##o     X.  .  888",
"88888*@.XX .X .O*----=*%%##+%-*#O+@##XO@###@@#$%+.    .   X  888",
"88888*O.oO .O X#*---=*&%#@#+-;--*#@##XO@##@OO@@#%@.   . . X  888",
"88888&X XO..OX.%*--**%###$&+;-;**+@##O##$$@XXO+@#%O   .      888",
"8888-#X o+.Xo.+***%#####%&&#-.@&@XXX%O#$%%@XXXOO@%%o   .     888",
"8888-#. O+.Xo #*%%###$#$*&#+.%%@#OXO%X+#%%#X..XoO#&#  ..  .  888",
"8888-@. .o..X$&%&*&%%##$&$&+-=%%O#O##XO@$%#X..XoOO$# .    .  888",
"8888*O  .X..*--***%%#o#$&#&+-;=**+@##X+@##@....XoO@%         888",
"8888*o  .o.%*-*=%*%+##$$&&#+;;-=%XXO#XO+@#+....XoO@% .       888",
"888=&X  .X@*%**$$%#%#+#$&#&#;X@%@XXX#XXO@#+ ...XXo#& X       888",
"888=%.  .O*%&&%&%#$OoO@$&OOOo-=%#+OO#XXX+$#  .X..X#& X       888",
"888=#    $**=*&@#@+..X@$&o45X;:;*&OOOX,<O##  ....X#* X       888",
"888*X   +-;;--;=*XXX..O$&+231O---&OXX>1>X#%  ....o%* X       888",
"88**. .+-;:;=*--&%    X$%*O24.+@#.XX>1>X+#%   ..o#*# +       888",
"88-%.X$-;;;-**%--*%   o$$%--1o%-&#XX>,XX##%   .X$%-# +        88",
"88*$.%:;--;*****&**+.  +#%%+.-:;-#+XX#O+#+*.  .#%==@ +        88",
"88*#+;;-*-;-&%#$&-&$o  +#$@#;:;;*&+OXX+##+;. .X#$*%X #        88",
"88*@$:;*%=--*$+O%-;&#  +#@%;;--=%++.XXX##%;. .oo+%#X #        88",
"88*#-:**&=*--$+Xo&;-%  X$#&*;*:;=X:-X#X+#&;. ...o@%  #        88",
"88*@;;=*%&-;*$O  $--#  +%*#%66......:*XXO-:.....X@% o@        88",
"88&o;--&+$-*#$o  o=-+  +%-$+7;......;;%X+:-.....o$# o+        88",
"88*X;;=@+##@&&O  .%=+...*-*.;.X.....X:XX#;%....X+& .XX        88",
"88*+-;-*. ##*%%  .X=Xo+.$--..X......X...$-+....o+#X OX        88",
"88%$*-:*o o%&*+  .XXo@O.@%;-...X..X.XXX+*-X....O$#. @.        88",
"888&#-;;=..#$#o  .XX.Xo. @*:&6...X6.6..#-#o...XX+O..@         88",
"888* -=*%% X+OO .X..oOo   O--;6X.;;-X.#-;o@X..Xo++.Xo         88",
"888&  #%%#.  X+..X..OO+..  #;:;;-*+X.#=;#o%...XO+*.oX         88",
"888%   ....   . ...o+@+X..  #*-%%#++#-*%Oo&...XO#%X#X         88",
"888#           ..XXX@$+.XX...oo+oo+$%%O+O$@...XO&#X$8     8   88",
"888#           .XO+@#%O..XoXXX.......XooX*@...X@*#.$8     8   88",
"888$.         .OOO@#$%o...XoooXX...XXoX..*@...o%-@O$8     88  88",
"888%O         .OO+@#%#o....XXo++OooXoX. o%+...o*%OO$88    88  88",
"888%X    8    oOO+@$%$..X.....XX..... ..X*+...o-#X+888   888  88",
"8888$    88   +OO+#%%#..XXX...      .XO@X*@...@*@o@888   888  88",
"8888$    888 8OOO+#%%@...XXXXX....XX+####%@X.X#&+O#8888  888  88",
"8888% 8  88888OOO+$%#X   .XooooO+@@###@+o@@o.O##Xo%@%--  --8 888",
"8888# 8 888888OOO+$%#X.   ..oooO+@@+++OoXX%O.O%@XXX.OOO  @-- 888",
"8888  88888888O$O+###..... ...XXXoXXXXXoo.%O.O*OoXXXXXX  X%%%-88",
"8888 88888888**&%$#@+....X...........XoO+@$X.#&+XXXXXXXXXXXXX%-8",
"88888888886;-*&$##@OO.X...XXX...XXXXoooo.#@XX@-OoXXOXXXXOOOXXO-8",
"88888888666;*6:-&%@OO.XXXX......XoooX....%#.XO*#.XXXXXOOO##OXX-8",
"88888886;6:;;6:;;-*O#..X.XXXXXXXXX.....X+#+.#o#*X#####OOO###$X-8",
"888888-;:;-*-6:-*:;&O@.XXoXXXXXXooXoooX#&#X.X$.+#=$##+###$%%%-;8",
"88888-;;-#X&&6-$%=:;$@#ooOXXooXXoo+@+Xo%#X.X.#%.X+%-###$%*----88",
"8888-:-*#..@*;*#X$=:=O$#+OXXooOoXO+O#%$OXXX...$&X.o#*$&*---88888",
"8886:*$#..O@*;&o.o%-;#&$#OoooOO+@##%$#X.......X@& .XX#--88888888",
"888*-#o.##*-&;#o.@*%-%+%$##@OO#$%%XX......#+...X$#  X.+#88888888",
"888&OO+*-888&-#OO*-#*-$*&*%%%#%&**----%%$%..*.. X#&*--8X88888888",
"888888888888&##O*-8888------------8888--------XXX.X#888888888888",
"88888888888888888888888888888888888888888888888----X888888888888",
"8888888888888888888888888888888888888888888888888888888888888888"
};
