/* XPM */
static char *wspr2015[] = {
/* columns rows colors chars-per-pixel */
"64 64 23 1 ",
"  c black",
". c gray11",
"X c #202020",
"o c #282828",
"O c #2C2C2C",
"+ c gray19",
"@ c gray22",
"# c #484848",
"$ c gray33",
"% c gray36",
"& c #646464",
"* c gray44",
"= c #7C7C7C",
"- c gray55",
"; c #989898",
": c gray66",
"> c #B4B4B4",
", c #C0C0C0",
"< c #D0D0D0",
"1 c gainsboro",
"2 c #ECECEC",
"3 c gray99",
"4 c None",
/* pixels */
"4444444444444444444444444444444444444444444444444444444444444444",
"4444444444444444444444444444444444444444444444444444444444444444",
"4444444444444444444444444444444444444444444444444444444444444444",
"4444444444444444444444444444444444444444444444444444444444444444",
"4444444444444444444444444444444444444444444444444444444444444444",
"4444444444444444444444444444444444444444444444444444444444444444",
"4444444444444444444444444444444444444444444444444444444444444444",
"4444444444444444444444444444444444444444444444444444444444444444",
"4444444444444444444444444444444444444444444444444444444444444444",
"4444444444444444444444444444444444444444444444444444444444444444",
"4444444444444444444444444444444444444444444444444444444444444444",
"4444444444444444444444444444444444444444444444444444444444444444",
"4444444444444444444444444444444444444444444444444444444444444444",
"4444444444444444444444444444444444444444444444444444444444444444",
"4444444444444444444444444444444444444444444444444444444444444444",
"4444444444444444444444444444444444444444444444444444444444444444",
"4444444444444444444444444444444444444444444444444444444444444444",
"4444444444444444444444444444444444444444444444444444444444444444",
"4444444444444444444444444444444444444444444444444444444444444444",
"4444444444444444444444444444444444444444444444444444444444444444",
"4444444444444444444444444444444444444444444444444444444444444444",
"4444444444444444444444444444444444444444444444444444444444444444",
"4444444444444444444444444444444444444444444444444444444444444444",
"4444444444444444444444444444444444444444444444444444444444444444",
"4444444444444444444444444444444444444444444444444444444444444444",
"4444444444444444444444444444444444444444444444444444444444444444",
"4444444444444444444444444444444444444444444444444444444444444444",
"4444444444444444444444444444444444444444444444444444444444444444",
"4444444444444444444444444444444444444444444444444444444444444444",
"4444444444444444444444444444444444444444444444444444444444444444",
"4444444444444444444444444444444444444444444444444444444444444444",
"4444444444444444444444444444444444444444444444444444444444444444",
"4444444444444444444444444444444444444444444444444444444444444444",
"4444444444444444444444444444444444444444444444444444444444444444",
"4444444444444444444444444444444444444444444444444444444444444444",
"4444444444444444444444444444444444444444444444444444444444444444",
"4444444444444444444444444444444444444444444444444444444444444444",
"4444444444444444444444444444444444444444444444444444444444444444",
"444444444444444>::>>,,,,,,,,,>>>>::::;;::::;:;;:::44444444444444",
"444444444441<<,,<<<1222222222211111<<<<<<<<<<,,,,>>>>>4444444444",
"44444444444&=--112233333333333322222222222222221-----=4444444444",
"44444444444*=-;::>,,,,,>::::::;;---===*&&%&&**=------=4444444444",
"444444444444444;:>,,,,>:::::::;---===**&&%&&**=---44444444444444",
"444444444444444444444444444444     44444444444444444444444444444",
"444444444444444444444444444444..   44444444444444444444444444444",
"444444444444444444444444444444...  44444444444444444444444444444",
"444444444444444444444444444444...  44444444444444444444444444444",
"444444444444444444444444444444o... 44444444444444444444444444444",
"444444444444444444444444444444@o.. 44444444444444444444444444444",
"444444444444444444444444444444$@.. 44444444444444444444444444444",
"444444444444444444444444444444&$o. 44444444444444444444444444444",
"444444444444444444444444444444&$@. 44444444444444444444444444444",
"444444444444444444444444444444=&$. 44444444444444444444444444444",
"444444444444444444444444444444=&$X 44444444444444444444444444444",
"444444444444444444444444444444=*$X.44444444444444444444444444444",
"444444444444444444444444444444=*$o.44444444444444444444444444444",
"444444444444444444444444444444=*$o.44444444444444444444444444444",
"444444444444444444444444444444=*$o.44444444444444444444444444444",
"444444444444444444444444444444=*$o.44444444444444444444444444444",
"444444444444444444444444444444**$o.44@@OOX$$$$$$$$$$$&&&&&&&4444",
"444444444444444444444444444;:>**$o.;==OOOOOOO@@@@@@@@@@@@@#$$&44",
"444444444444444444444444=:<112,*$$**%*=%&OOOXXXXXXXXXXXXOO@##$&4",
"44444444444444444444444->,<23322<,>;;-*%$#OOX         XXO@##$&44",
"444444444444444444444444-;:,<<<,:----*$$$+XXXXXXXXXXXXOO@#$&4444"
};
